<?xml version="1.0" encoding="UTF-8" standalone="no"?>
<!DOCTYPE svg PUBLIC "-//W3C//DTD SVG 1.1//EN" "http://www.w3.org/Graphics/SVG/1.1/DTD/svg11.dtd" >
<svg xmlns="http://www.w3.org/2000/svg">
<metadata>
Generated by SVGconv.
Copyright   : Copyright (c) 2002, 2005 Parachute, www.parachute.gr.  All rights reserved.
Designer    : Panos Vassiliou
Foundry     : Parachute Worldwide
Foundry URL : http://www.paratype.com
</metadata>
<defs>
<font id="PFDinTextPro-Bold" horiz-adv-x="686" >
<font-face units-per-em="1000" ascent="953" descent="313" >
<font-face-src>
<font-face-name/>
</font-face-src>
</font-face>
<missing-glyph horiz-adv-x="460" />
<glyph unicode="&#13;" horiz-adv-x="280" />
<glyph unicode="&#32;" horiz-adv-x="280" />
<glyph unicode="&#33;" horiz-adv-x="294" d="M209 191h-123l-11 505h144zM74 0v128h147l0 -128z" />
<glyph unicode="&#34;" horiz-adv-x="409" d="M223 469v227h124v-227zM54 469v227h123l0 -227z" />
<glyph unicode="&#35;" horiz-adv-x="592" d="M447 301h92v-98h-106l-29 -203h-121l30 203h-83l-30 -203h-122l30 203h-85v98h101l14 95h-87v99h102l30 201h118l-29 -201h85l30 201h118l-29 -201h91v-99h-105zM243 301h85l15 95l-85 0z" />
<glyph unicode="&#36;" horiz-adv-x="550" d="M247 -3q-62 4 -117.5 27.5q-55.5 23.5 -112.5 76.5l86 110q39 -32 72.5 -49q33.5 -17 71.5 -21l0 138q-38 14 -73.5 31.5q-35.5 17.5 -64 42.5q-28.5 25 -45.5 58q-17 33 -17 78q0 43 14 79.5q14 36.5 40.5 64q26.5 27.5 63.5 44.5q37 17 82 22l0 67h55v-66q56 -2 106.5 -19.5q50.5 -17.5 104.5 -54.5l-76 -127q-42 27 -72.5 41q-30.5 14 -62.5 17l0 -131q54 -18 97 -38.5q43 -20.5 72.5 -47q29.5 -26.5 45.5 -59.5q16 -33 16 -75q0 -49 -17.5 -87q-17.5 -38 -48.5 -64.5q-31 -26.5 -73.5 -41.5q-42.5 -15 -91.5 -17l0 -102h-55zM360 194q0 26 -15 41.5q-15 15.5 -43 26.5l0 -120q31 5 44.5 19q13.5 14 13.5 33zt0 0zM202 501q0 -17 12.5 -29.5q12.5 -12.5 32.5 -23.5l0 106q-20 -5 -32.5 -17.5t-12.5 -35.5z" />
<glyph unicode="&#37;" horiz-adv-x="925" d="M850 125q0 -30 -12.5 -54q-12.5 -24 -33.5 -40.5q-21 -16.5 -48 -25q-27 -8.5 -56 -8.5q-28 0 -54.5 8.5q-26.5 8.5 -47.5 25q-21 16.5 -33.5 40.5q-12.5 24 -12.5 54v166q0 31 12.5 55q12.5 24 33.5 40.5q21 16.5 47.5 25q26.5 8.5 54.5 8.5q29 0 56 -8.5q27 -8.5 48 -25q21 -16.5 33.5 -40.5q12.5 -24 12.5 -55zM739 291q0 19 -11 28q-11 9 -28 9q-17 0 -27.5 -9q-10.5 -9 -10.5 -28v-165q0 -18 10.5 -27q10.5 -9 27.5 -9q17 0 28 9q11 9 11 27zM372 404q0 -30 -12.5 -54q-12.5 -24 -33.5 -40.5q-21 -16.5 -48 -25q-27 -8.5 -56 -8.5q-28 0 -54.5 8.5q-26.5 8.5 -47.5 25q-21 16.5 -33.5 40.5q-12.5 24 -12.5 54v166q0 31 12.5 55q12.5 24 33.5 40.5q21 16.5 47.5 25q26.5 8.5 54.5 8.5q29 0 56 -8.5q27 -8.5 48 -25q21 -16.5 33.5 -40.5q12.5 -24 12.5 -55zM261 570q0 19 -11 28q-11 9 -28 9q-17 0 -27.5 -9q-10.5 -9 -10.5 -28v-165q0 -18 10.5 -27q10.5 -9 27.5 -9q17 0 28 9q11 9 11 27zM308 -17h-117l425 730l118 0z" />
<glyph unicode="&#38;" horiz-adv-x="662" d="M438 57q-36 -30 -77.5 -46.5q-41.5 -16.5 -87.5 -16.5q-54 0 -93.5 15.5q-39.5 15.5 -65 41.5q-25.5 26 -37.5 60q-12 34 -12 71q0 62 28 111.5q28 49.5 89 94.5l-13 16q-19 23 -32.5 53q-13.5 30 -13.5 70q0 78 46.5 126q46.5 48 144.5 48q43 0 94.5 -13.5q51.5 -13.5 100.5 -55.5l-77 -106q-38 32 -65.5 40.5q-27.5 8.5 -53.5 8.5q-25 0 -41 -13.5q-16 -13.5 -16 -33.5q0 -17 5.5 -28q5.5 -11 19.5 -30l158 -208q8 19 14.5 44q6.5 25 10.5 51l126 -33q-8 -45 -25 -91.5q-17 -46.5 -40 -81.5l121 -151h-165zM257 289q-27 -20 -44 -46.5q-17 -26.5 -17 -55.5q0 -28 20 -47q20 -19 59 -19q24 0 46 10q22 10 40 24z" />
<glyph unicode="&#39;" horiz-adv-x="260" d="M68 469v227h123l0 -227z" />
<glyph unicode="&#40;" horiz-adv-x="373" d="M269 -142q-42 46 -79.5 98q-37.5 52 -65.5 109q-28 57 -44.5 117.5q-16.5 60.5 -16.5 122.5q0 64 16 124q16 60 43.5 116q27.5 56 64 107q36.5 51 78.5 96l86 -55q-71 -94 -104 -194.5q-33 -100.5 -33 -188.5q0 -96 35.5 -197.5q35.5 -101.5 102.5 -191.5z" />
<glyph unicode="&#41;" horiz-adv-x="373" d="M341 305q0 -62 -16 -122.5q-16 -60.5 -44 -117.5q-28 -57 -65.5 -109q-37.5 -52 -79.5 -98l-84 63q68 90 103 191.5q35 101.5 35 197.5q0 88 -32.5 188.5q-32.5 100.5 -104.5 194.5l86 55q42 -45 79 -96q37 -51 64 -107q27 -56 43 -116t16 -124z" />
<glyph unicode="&#42;" horiz-adv-x="464" d="M386 404l-91 -65l-59 103l-63 -103l-90 65l82 89l-114 26l32 102l111 -46l-13 119h113l-14 -119l110 46l32 -102l-116 -26z" />
<glyph unicode="&#43;" horiz-adv-x="550" d="M337 240v-186h-124v186h-194v116h194v183h124v-183h194l0 -116z" />
<glyph unicode="&#44;" horiz-adv-x="299" d="M63 -151l38 150h-36v166h169v-158l-98 -158z" />
<glyph unicode="&#45;" horiz-adv-x="440" d="M47 192v131h346l0 -131z" />
<glyph unicode="&#46;" horiz-adv-x="297" d="M64 0v165h169l0 -165z" />
<glyph unicode="&#47;" horiz-adv-x="368" d="M103 -42h-119l253 767l120 0z" />
<glyph unicode="&#48;" horiz-adv-x="550" d="M506 204q0 -50 -18.5 -89q-18.5 -39 -49.5 -65.5q-31 -26.5 -71 -40.5q-40 -14 -83 -14q-42 0 -82 14q-40 14 -70.5 40.5q-30.5 26.5 -49 65.5q-18.5 39 -18.5 89v287q0 50 18.5 89q18.5 39 49 66q30.5 27 70.5 41q40 14 82 14q43 0 83 -14q40 -14 71 -41q31 -27 49.5 -66q18.5 -39 18.5 -89zM358 491q0 39 -20.5 58q-20.5 19 -53.5 19q-33 0 -53 -19q-20 -19 -20 -58v-286q0 -39 20 -58q20 -19 53 -19q33 0 53.5 19q20.5 19 20.5 58z" />
<glyph unicode="&#49;" horiz-adv-x="550" d="M253 0v531l-104 -72v154l120 83h131l0 -696z" />
<glyph unicode="&#50;" horiz-adv-x="550" d="M54 498q5 47 24.5 84.5q19.5 37.5 49.5 64q30 26.5 67.5 40.5q37.5 14 78.5 14q48 0 89 -12q41 -12 71 -37q30 -25 47 -62q17 -37 17 -87q0 -38 -13 -75q-13 -37 -36 -64l-198 -226h246v-138h-445v123l278 319q19 22 19 50q0 27 -18.5 49q-18.5 22 -53.5 22q-29 0 -51 -20.5q-22 -20.5 -28 -68.5z" />
<glyph unicode="&#51;" horiz-adv-x="550" d="M187 198q6 -34 29.5 -49.5q23.5 -15.5 54.5 -15.5q32 0 56.5 21q24.5 21 24.5 60q0 38 -22.5 62.5q-22.5 24.5 -70.5 24.5h-60v115h62q48 0 68 23q20 23 20 52q0 31 -23 51.5q-23 20.5 -55 20.5q-23 0 -46 -15.5q-23 -15.5 -30 -57.5l-141 25q9 45 30.5 79.5q21.5 34.5 51.5 58q30 23.5 66 36q36 12.5 75 12.5q59 0 102.5 -16.5q43.5 -16.5 71.5 -44q28 -27.5 41.5 -64q13.5 -36.5 13.5 -76.5q0 -17 -6.5 -38q-6.5 -21 -18.5 -40.5q-12 -19.5 -29 -36.5q-17 -17 -39 -26q25 -11 43.5 -28q18.5 -17 30.5 -37q12 -20 17.5 -41.5q5.5 -21.5 5.5 -40.5q0 -48 -17 -88q-17 -40 -47.5 -68.5q-30.5 -28.5 -74 -44.5q-43.5 -16 -96.5 -16q-37 0 -73.5 10q-36.5 10 -68 32q-31.5 22 -55 56.5q-23.5 34.5 -33.5 84.5z" />
<glyph unicode="&#52;" horiz-adv-x="550" d="M471 97v-97h-147v97h-296v115l241 484h164l-235 -466h126v182h147v-182h56l0 -133z" />
<glyph unicode="&#53;" horiz-adv-x="550" d="M204 204q6 -42 27 -56.5q21 -14.5 50 -14.5q25 0 40.5 11q15.5 11 24 28q8.5 17 11.5 37.5q3 20.5 3 40.5q0 21 -3.5 40.5q-3.5 19.5 -12.5 34.5q-9 15 -24.5 23.5q-15.5 8.5 -38.5 8.5q-17 0 -38 -13q-21 -13 -35 -45l-134 0v397h414v-135h-273v-108q20 17 50.5 25.5q30.5 8.5 54.5 8.5q53 0 89 -16.5q36 -16.5 58 -46q22 -29.5 32.5 -70q10.5 -40.5 12.5 -88.5q0 -63 -14 -113q-14 -50 -42.5 -85q-28.5 -35 -71 -54q-42.5 -19 -99.5 -19q-35 0 -71 8q-36 8 -67.5 28q-31.5 20 -55 55.5q-23.5 35.5 -32.5 90.5z" />
<glyph unicode="&#54;" horiz-adv-x="550" d="M509 225q0 -61 -20 -104.5q-20 -43.5 -53 -71.5q-33 -28 -74.5 -41q-41.5 -13 -84.5 -13q-41 0 -80 14.5q-39 14.5 -69.5 42.5q-30.5 28 -49 69q-18.5 41 -18.5 94q0 32 7 62q7 30 21 57l193 362h165l-145 -273l1 -2q48 5 86.5 -8q38.5 -13 65.5 -39.5q27 -26.5 41 -65q14 -38.5 14 -83.5zt0 0zM358 217q0 45 -22.5 65q-22.5 20 -53.5 20q-30 0 -52.5 -20q-22.5 -20 -22.5 -65q0 -45 20.5 -64.5q20.5 -19.5 54.5 -19.5q13 0 26.5 4.5q13.5 4.5 24.5 15q11 10.5 18 26t7 38.5z" />
<glyph unicode="&#55;" horiz-adv-x="550" d="M246 0h-155l235 558h-126v-94h-147v232h443l0 -123z" />
<glyph unicode="&#56;" horiz-adv-x="550" d="M427 359q24 -9 41.5 -25.5q17.5 -16.5 29 -37q11.5 -20.5 17 -43.5q5.5 -23 5.5 -44q0 -48 -19 -87.5q-19 -39.5 -51 -67.5q-32 -28 -74.5 -43.5q-42.5 -15.5 -90.5 -15.5q-48 0 -90.5 15.5q-42.5 15.5 -74.5 43.5q-32 28 -51 67.5q-19 39.5 -19 87.5q0 21 5 43.5q5 22.5 16.5 42.5q11.5 20 29 37q17.5 17 41.5 26l0 5q-20 8 -35 22.5q-15 14.5 -24.5 32.5q-9.5 18 -14 38q-4.5 20 -4.5 40q0 44 16.5 81.5q16.5 37.5 46 65q29.5 27.5 70 43q40.5 15.5 88.5 15.5q56 0 97.5 -15.5q41.5 -15.5 69.5 -43q28 -27.5 41.5 -65q13.5 -37.5 13.5 -81.5q0 -40 -19 -76.5q-19 -36.5 -61 -56.5zM361 492q0 33 -20 55.5q-20 22.5 -56 22.5q-35 0 -55 -21.5q-20 -21.5 -20 -56.5q0 -35 22.5 -52.5q22.5 -17.5 52.5 -17.5q30 0 53 19q23 19 23 51zt0 0zM373 214q0 34 -26 57q-26 23 -62 23q-18 0 -34 -6q-16 -6 -28 -17q-12 -11 -19 -25.5q-7 -14.5 -7 -31.5q0 -35 24 -60q24 -25 64 -25q41 0 64.5 25t23.5 60z" />
<glyph unicode="&#57;" horiz-adv-x="550" d="M60 471q0 61 20 104.5q20 43.5 52.5 71.5q32.5 28 74 41q41.5 13 84.5 13q41 0 80.5 -14.5q39.5 -14.5 70 -42.5q30.5 -28 49 -69q18.5 -41 18.5 -94q0 -32 -7 -62q-7 -30 -22 -57l-193 -362h-165l145 273l-1 2q-48 -5 -86.5 8q-38.5 13 -65 39.5q-26.5 26.5 -40.5 65q-14 38.5 -14 83.5zt0 0zM208 479q0 -45 22 -65q22 -20 53 -20q30 0 53 20q23 20 23 65q0 45 -21 64.5q-21 19.5 -55 19.5q-12 0 -25.5 -4.5q-13.5 -4.5 -24.5 -15q-11 -10.5 -18 -26.5t-7 -38z" />
<glyph unicode="&#58;" horiz-adv-x="303" d="M67 0v165h169v-165zM67 268v165h169l0 -165z" />
<glyph unicode="&#59;" horiz-adv-x="303" d="M67 268v165h169v-165zM65 -151l38 150h-36v166h169v-158l-98 -158z" />
<glyph unicode="&#60;" horiz-adv-x="550" d="M18 242v112l511 223v-131l-353 -149l353 -149l0 -131z" />
<glyph unicode="&#61;" horiz-adv-x="550" d="M18 357v111h514v-111zM18 128v111h514l0 -111z" />
<glyph unicode="&#62;" horiz-adv-x="550" d="M19 17v131l353 149l-353 149v131l511 -223l0 -112z" />
<glyph unicode="&#63;" horiz-adv-x="522" d="M33 491q5 50 26 89q21 39 53 66q32 27 71.5 41q39.5 14 80.5 14q52 0 92.5 -15q40.5 -15 69 -41.5q28.5 -26.5 43.5 -63q15 -36.5 15 -78.5q0 -32 -11 -57q-11 -25 -27.5 -47q-16.5 -22 -36 -42.5q-19.5 -20.5 -36 -41.5q-16.5 -21 -27.5 -45q-11 -24 -11 -54v-22h-147v27q0 29 5 52.5q5 23.5 16 46.5q11 23 28 48q17 25 42 57q13 16 28 37q15 21 15 42q0 27 -20.5 43q-20.5 16 -46.5 16q-33 0 -53.5 -20.5q-20.5 -20.5 -22.5 -68.5zM188 0v128h147l0 -128z" />
<glyph unicode="&#64;" horiz-adv-x="920" d="M626 258q0 -6 1.5 -13q1.5 -7 6 -13.5q4.5 -6.5 12.5 -11q8 -4.5 20 -4.5q27 0 44 14q17 14 26.5 37.5q9.5 23.5 12.5 53.5q3 30 3 62q0 60 -21.5 108.5q-21.5 48.5 -59.5 82.5q-38 34 -89 52.5q-51 18.5 -110 18.5q-68 0 -124.5 -25q-56.5 -25 -97.5 -67.5q-41 -42.5 -64 -100q-23 -57.5 -23 -122.5q0 -68 24.5 -123.5q24.5 -55.5 67.5 -95.5q43 -40 101.5 -62q58.5 -22 127.5 -22q37 0 68.5 3.5q31.5 3.5 59 10.5q27.5 7 53.5 16.5q26 9.5 52 21.5l32 -87q-33 -13 -64 -23.5q-31 -10.5 -62 -17.5q-31 -7 -64 -10.5q-33 -3.5 -70 -3.5q-90 0 -168 26.5q-78 26.5 -135.5 77q-57.5 50.5 -90 124q-32.5 73.5 -32.5 167.5q0 85 31.5 158.5q31.5 73.5 86.5 126.5q55 53 130 83.5q75 30.5 163 30.5q83 0 152.5 -24.5q69.5 -24.5 119.5 -69.5q50 -45 77.5 -109q27.5 -64 27.5 -143q0 -48 -9.5 -95.5q-9.5 -47.5 -32.5 -84.5q-23 -37 -61 -60q-38 -23 -95 -23q-14 0 -31 4q-17 4 -33.5 12q-16.5 8 -30.5 20q-14 12 -21 29l-4 0q-13 -23 -43.5 -43q-30.5 -20 -69.5 -20q-30 0 -56 7.5q-26 7.5 -46 22.5q-20 15 -31.5 38.5q-11.5 23.5 -11.5 56.5q0 26 10 49q10 23 28.5 40.5q18.5 17.5 46 27.5q27.5 10 63.5 10h92v13q0 7 -1.5 15.5q-1.5 8.5 -8.5 16.5q-7 8 -21 13.5q-14 5.5 -38 5.5q-34 0 -52 -7q-18 -7 -40 -25l-56 75q38 33 77 45.5q39 12.5 84 12.5q32 0 62.5 -6.5q30.5 -6.5 54 -23q23.5 -16.5 37.5 -43.5q14 -27 14 -67zM515 290h-77q-16 0 -25.5 -3q-9.5 -3 -15 -7.5q-5.5 -4.5 -7.5 -10q-2 -5.5 -2 -10.5q0 -4 2 -10.5q2 -6.5 8 -12.5q6 -6 17 -10.5q11 -4.5 29 -4.5q28 0 49.5 13.5q21.5 13.5 21.5 42.5z" />
<glyph unicode="&#65;" horiz-adv-x="660" d="M497 0l-52 142h-233l-52 -142h-162l270 696h121l270 -696zM371 352l-41 138h-4l-40 -136l-26 -82l137 0z" />
<glyph unicode="&#66;" horiz-adv-x="637" d="M604 207q0 -47 -17.5 -85q-17.5 -38 -47 -65q-29.5 -27 -69 -42q-39.5 -15 -83.5 -15h-317v696h293q55 0 98 -14.5q43 -14.5 72.5 -40.5q29.5 -26 44.5 -62.5q15 -36.5 15 -79.5q0 -38 -20 -76q-20 -38 -67 -60l0 -4q24 -9 42 -26q18 -17 30.5 -38q12.5 -21 19 -44q6.5 -23 6.5 -44zt0 0zM430 492q0 29 -20 47.5q-20 18.5 -68 18.5h-118v-139h118q48 0 68 22q20 22 20 51zt0 0zM446 214q0 15 -5 29q-5 14 -16 25q-11 11 -28.5 17.5q-17.5 6.5 -41.5 6.5h-131v-154h131q49 0 70 23t21 53z" />
<glyph unicode="&#67;" horiz-adv-x="600" d="M573 169q-26 -82 -93.5 -128.5q-67.5 -46.5 -165.5 -46.5q-68 0 -118.5 20q-50.5 20 -84 56q-33.5 36 -50 86q-16.5 50 -16.5 110v164q0 54 16.5 103q16.5 49 50 86.5q33.5 37.5 84 59.5q50.5 22 118.5 22q100 0 166.5 -48.5q66.5 -48.5 92.5 -128.5l-146 -52q-8 36 -37 60.5q-29 24.5 -77 24.5q-29 0 -50 -9.5q-21 -9.5 -35 -25.5q-14 -16 -21 -36.5q-7 -20.5 -7 -41.5v-189q0 -23 7 -44q7 -21 21 -37q14 -16 35 -26q21 -10 50 -10q47 0 76.5 24.5q29.5 24.5 37.5 62.5z" />
<glyph unicode="&#68;" horiz-adv-x="657" d="M224 138h101q39 0 64.5 10.5q25.5 10.5 40.5 30q15 19.5 21.5 47q6.5 27.5 6.5 61.5v127q0 72 -31.5 107.5q-31.5 35.5 -104.5 35.5h-98zM347 696q78 0 141 -30q63 -30 96 -99q19 -38 23 -90q4 -52 4 -117q0 -73 -4 -127q-4 -54 -21 -95q-17 -39 -43.5 -65.5q-26.5 -26.5 -59.5 -42.5q-33 -16 -72 -23q-39 -7 -81 -7h-260l0 696z" />
<glyph unicode="&#69;" horiz-adv-x="585" d="M70 0v696h492v-138h-338v-141h288v-133h-288v-146h338l0 -138z" />
<glyph unicode="&#70;" horiz-adv-x="566" d="M224 558v-147h288v-133h-288v-278h-154v696h492l0 -138z" />
<glyph unicode="&#71;" horiz-adv-x="637" d="M318 701q100 0 166.5 -48.5q66.5 -48.5 92.5 -128.5l-146 -52q-8 36 -37 60.5q-29 24.5 -77 24.5q-29 0 -50 -9.5q-21 -9.5 -35 -25.5q-14 -16 -21 -36.5q-7 -20.5 -7 -41.5v-189q0 -23 7 -44q7 -21 21 -37.5q14 -16.5 35.5 -26.5q21.5 -10 50.5 -10q25 0 46.5 9.5q21.5 9.5 38 25.5q16.5 16 26 37q9.5 21 9.5 45v5h-142v128h294v-139q0 -55 -21.5 -101.5q-21.5 -46.5 -58.5 -80.5q-37 -34 -86.5 -53q-49.5 -19 -105.5 -19q-68 0 -118.5 20q-50.5 20 -84 56q-33.5 36 -50 86q-16.5 50 -16.5 110v164q0 54 16.5 103q16.5 49 50 86.5q33.5 37.5 84 59.5t118.5 22z" />
<glyph unicode="&#72;" horiz-adv-x="674" d="M452 0v284h-228v-284h-154v696h154v-279h228v279h152l0 -696z" />
<glyph unicode="&#73;" horiz-adv-x="294" d="M73 0v696h154l0 -696z" />
<glyph unicode="&#74;" horiz-adv-x="511" d="M448 225q0 -66 -19.5 -110.5q-19.5 -44.5 -51.5 -71q-32 -26.5 -74.5 -37.5q-42.5 -11 -88.5 -11q-31 0 -60 4q-29 4 -56 14.5q-27 10.5 -51 28.5q-24 18 -44 46l103 101q26 -29 52 -41.5q26 -12.5 47 -12.5q13 0 29 3.5q16 3.5 30 14q14 10.5 23 29.5q9 19 9 50v464h152l0 -471z" />
<glyph unicode="&#75;" horiz-adv-x="657" d="M495 0l-180 296l-91 -102v-194h-154v696h154v-298l2 -2l106 129l145 171h186l-244 -282l258 -414z" />
<glyph unicode="&#76;" horiz-adv-x="585" d="M70 0v696h154v-558h338l0 -138z" />
<glyph unicode="&#77;" horiz-adv-x="782" d="M568 0v331l-3 1l-63 -141l-47 -98h-118l-49 103l-61 136l-3 -3v-329h-154v696h139l94 -202l90 -209h4l87 209l92 202h145l0 -696z" />
<glyph unicode="&#78;" horiz-adv-x="710" d="M506 0l-177 256l-103 166l-2 -1v-421h-154v696h137l146 -213l134 -209l2 1v421h154l0 -696z" />
<glyph unicode="&#79;" horiz-adv-x="624" d="M310 701q63 0 113.5 -20.5q50.5 -20.5 86 -56.5q35.5 -36 54.5 -86q19 -50 19 -108v-164q0 -62 -19.5 -112.5q-19.5 -50.5 -55 -86q-35.5 -35.5 -86 -54.5q-50.5 -19 -112.5 -19q-68 0 -118.5 22q-50.5 22 -84 59.5q-33.5 37.5 -50 87q-16.5 49.5 -16.5 103.5v164q0 54 16.5 103q16.5 49 50 86.5q33.5 37.5 84 59.5q50.5 22 118.5 22zt0 0zM309 557q-29 0 -50 -9.5q-21 -9.5 -35 -25.5q-14 -16 -21 -36.5q-7 -20.5 -7 -41.5v-189q0 -23 7 -44q7 -21 21 -37q14 -16 35 -26q21 -10 50 -10q56 0 86.5 33.5q30.5 33.5 30.5 83.5v189q0 46 -30.5 79.5t-86.5 33.5z" />
<glyph unicode="&#80;" horiz-adv-x="609" d="M601 472q0 -47 -19 -87q-19 -40 -51.5 -69q-32.5 -29 -76.5 -45.5q-44 -16.5 -94 -16.5h-136v-254h-154v696h287q55 0 100 -15.5q45 -15.5 77 -44.5q32 -29 49.5 -70.5q17.5 -41.5 17.5 -93.5zt0 0zM445 475q0 42 -25 62.5q-25 20.5 -71 20.5h-125v-166h129q38 0 65 22.5t27 60.5z" />
<glyph unicode="&#81;" horiz-adv-x="637" d="M559 -26l-81 63q-68 -43 -161 -43q-68 0 -118.5 22q-50.5 22 -84 59.5q-33.5 37.5 -50 87q-16.5 49.5 -16.5 103.5v164q0 54 16.5 103q16.5 49 50 86.5q33.5 37.5 84 59.5q50.5 22 118.5 22q63 0 113.5 -20.5q50.5 -20.5 86 -56.5q35.5 -36 54.5 -86q19 -50 19 -108v-164q0 -73 -28 -132l81 -65zM316 557q-29 0 -50 -9.5q-21 -9.5 -35 -25.5q-14 -16 -21 -36.5q-7 -20.5 -7 -41.5v-189q0 -23 7 -44q7 -21 21 -37q14 -16 35 -26q21 -10 50 -10q15 0 30 3l-70 55l84 101l72 -58q0 4 0.5 7.5q0.5 3.5 0.5 8.5v189q0 46 -30.5 79.5t-86.5 33.5z" />
<glyph unicode="&#82;" horiz-adv-x="652" d="M434 0l-110 269h-100v-269h-154v696h308q46 0 86.5 -14q40.5 -14 71.5 -40.5q31 -26.5 49 -65.5q18 -39 18 -89q0 -63 -32.5 -113.5q-32.5 -50.5 -95.5 -77.5l133 -296zM443 486q0 39 -24 56q-24 17 -63 17h-132v-152h127q42 0 67 20t25 59z" />
<glyph unicode="&#83;" horiz-adv-x="594" d="M469 514q-25 16 -49.5 25q-24.5 9 -47 14q-22.5 5 -41.5 6.5q-19 1.5 -33 1.5q-29 0 -46.5 -6q-17.5 -6 -28 -16q-10.5 -10 -14 -21.5q-3.5 -11.5 -3.5 -21.5q0 -17 6.5 -28q6.5 -11 23 -19q16.5 -8 45 -14q28.5 -6 71.5 -13q43 -7 82 -20.5q39 -13.5 68.5 -37.5q29.5 -24 47 -60.5q17.5 -36.5 17.5 -89.5q0 -54 -24 -95.5q-24 -41.5 -62.5 -69q-38.5 -27.5 -88 -41.5q-49.5 -14 -100.5 -14q-35 0 -71 3.5q-36 3.5 -72 14q-36 10.5 -71.5 29.5q-35.5 19 -69.5 49l89 118q49 -44 99 -58.5q50 -14.5 104 -14.5q51 0 78 20.5q27 20.5 27 48.5q0 13 -3 25q-3 12 -13 22.5q-10 10.5 -29 18q-19 7.5 -50 10.5q-50 5 -96 16q-46 11 -82 34.5q-36 23.5 -57.5 61q-21.5 37.5 -21.5 96.5q0 55 21.5 95.5q21.5 40.5 56 67q34.5 26.5 77.5 39q43 12.5 86 12.5q64 0 127 -14q63 -14 119 -51z" />
<glyph unicode="&#84;" horiz-adv-x="556" d="M351 558v-558h-153v558h-190v138h533l0 -138z" />
<glyph unicode="&#85;" horiz-adv-x="657" d="M600 243q0 -56 -21.5 -101.5q-21.5 -45.5 -58 -78q-36.5 -32.5 -86 -50.5q-49.5 -18 -105.5 -18q-56 0 -105.5 18.5q-49.5 18.5 -86.5 52q-37 33.5 -58 81q-21 47.5 -21 105.5v444h153v-433q0 -60 34.5 -92.5q34.5 -32.5 83.5 -32.5q51 0 84 29q33 29 33 87v442h154l0 -453z" />
<glyph unicode="&#86;" horiz-adv-x="607" d="M365 0h-125l-241 696h162l89 -282l52 -177h5l49 174l88 285l161 0z" />
<glyph unicode="&#87;" horiz-adv-x="854" d="M667 -2h-124l-65 226l-49 190h-3l-50 -193l-64 -223h-125l-186 696h161l49 -206l44 -198h3l53 198l60 206h112l60 -205l53 -199h5l42 198l49 206l161 0z" />
<glyph unicode="&#88;" horiz-adv-x="629" d="M451 0l-139 226l-138 -226h-174l236 356l-223 340h175l124 -209l125 209h175l-223 -340l237 -356z" />
<glyph unicode="&#89;" horiz-adv-x="605" d="M378 285v-285h-147v285l-224 411h165l71 -150l60 -135h4l59 134l72 151l165 0z" />
<glyph unicode="&#90;" horiz-adv-x="549" d="M28 0v131l306 428h-293v137h479v-127l-305 -428h305l0 -141z" />
<glyph unicode="&#91;" horiz-adv-x="314" d="M67 -95v794h229v-106h-93v-583h93l0 -105z" />
<glyph unicode="&#92;" horiz-adv-x="368" d="M-15 725h120l253 -767l-119 0z" />
<glyph unicode="&#93;" horiz-adv-x="314" d="M18 -95v105h92v583h-92v106h228l0 -794z" />
<glyph unicode="&#94;" horiz-adv-x="550" d="M391 237l-118 300l-119 -302h-130l194 460h112l191 -458z" />
<glyph unicode="&#95;" horiz-adv-x="500" d="M0 -160v91h500l0 -91z" />
<glyph unicode="&#96;" horiz-adv-x="516" d="M257 537l-146 186l134 46l93 -194z" />
<glyph unicode="&#97;" horiz-adv-x="516" d="M326 0v46l-3 1q-13 -15 -29 -25q-16 -10 -32.5 -16q-16.5 -6 -32.5 -8.5q-16 -2.5 -28 -2.5q-36 0 -66.5 9q-30.5 9 -52.5 27.5q-22 18.5 -34.5 47q-12.5 28.5 -12.5 68.5q0 31 12 59q12 28 34.5 49q22.5 21 56 33q33.5 12 76.5 12h112v16q0 8 -2.5 18.5q-2.5 10.5 -11 19.5q-8.5 9 -25 15.5q-16.5 6.5 -44.5 6.5q-34 0 -63 -8.5q-29 -8.5 -54 -30.5l-69 97q45 41 96.5 53.5q51.5 12.5 104.5 12.5q43 0 81.5 -8q38.5 -8 67 -27.5q28.5 -19.5 45 -52q16.5 -32.5 16.5 -81.5v-331zM326 196h-94q-19 0 -31 -3.5q-12 -3.5 -18.5 -9q-6.5 -5.5 -8.5 -12q-2 -6.5 -2 -12.5q0 -5 2.5 -12.5q2.5 -7.5 9.5 -15q7 -7.5 20.5 -13q13.5 -5.5 35.5 -5.5q33 0 59.5 16q26.5 16 26.5 51z" />
<glyph unicode="&#98;" horiz-adv-x="533" d="M491 258q0 -40 -5.5 -86q-5.5 -46 -24.5 -85.5q-19 -39.5 -54.5 -65.5q-35.5 -26 -95.5 -26q-26 0 -56.5 11.5q-30.5 11.5 -51.5 34.5l-2 -2v-39h-143v727h143v-272l2 -1q9 10 22 18.5q13 8.5 28 14.5q15 6 30.5 9.5q15.5 3.5 27.5 3.5q59 0 94.5 -23.5q35.5 -23.5 54.5 -59.5q19 -36 25 -78.5q6 -42.5 6 -80.5zt0 0zM345 248q0 20 -1.5 41q-1.5 21 -9 38.5q-7.5 17.5 -22 29q-14.5 11.5 -40.5 11.5q-25 0 -39 -11.5q-14 -11.5 -21 -29.5q-7 -18 -9 -39q-2 -21 -2 -40q0 -18 1.5 -39q1.5 -21 8.5 -39.5q7 -18.5 21.5 -30.5q14.5 -12 39.5 -12q26 0 41 11.5q15 11.5 22 29.5q7 18 8.5 39.5t1.5 40.5z" />
<glyph unicode="&#99;" horiz-adv-x="463" d="M444 70q-41 -37 -88.5 -56.5q-47.5 -19.5 -98.5 -19.5q-46 0 -87.5 14.5q-41.5 14.5 -73 45.5q-31.5 31 -50 79q-18.5 48 -18.5 114q0 67 19.5 114.5q19.5 47.5 52.5 78.5q33 31 76 45.5q43 14.5 89 14.5q51 0 94 -17q43 -17 81 -55l-92 -97q-23 22 -43.5 31.5q-20.5 9.5 -39.5 9.5q-43 0 -65.5 -29q-22.5 -29 -22.5 -96q0 -66 20 -94.5q20 -28.5 65 -28.5q20 0 42 9.5q22 9.5 46 32.5l94 -96z" />
<glyph unicode="&#100;" horiz-adv-x="533" d="M340 0v39l-2 2q-22 -23 -52 -34.5q-30 -11.5 -57 -11.5q-64 0 -100 26q-36 26 -54 65.5q-18 39.5 -22 85.5q-4 46 -4 86q0 37 8 79.5q8 42.5 28.5 79q20.5 36.5 56 60.5q35.5 24 91.5 24q29 0 57 -11.5q28 -11.5 48 -34.5l2 1v270h143v-726zM340 248q0 19 -2 40q-2 21 -9 39q-7 18 -21 29.5q-14 11.5 -39 11.5q-27 0 -42 -13q-15 -13 -22 -33q-7 -20 -8.5 -43.5q-1.5 -23.5 -1.5 -43.5q0 -18 2.5 -37.5q2.5 -19.5 10 -35q7.5 -15.5 22 -25.5q14.5 -10 38.5 -10q25 0 39.5 12q14.5 12 21.5 30.5q7 18.5 9 39.5t2 39z" />
<glyph unicode="&#101;" horiz-adv-x="533" d="M183 210q5 -48 26 -67.5q21 -19.5 57 -19.5q19 0 50 9q31 9 62 37l88 -98q-48 -44 -102 -60.5q-54 -16.5 -102 -16.5q-41 0 -81.5 11.5q-40.5 11.5 -73 40q-32.5 28.5 -52.5 77q-20 48.5 -20 123.5q0 70 19.5 118.5q19.5 48.5 51.5 78.5q32 30 72.5 43.5q40.5 13.5 82.5 13.5q59 0 102 -19q43 -19 71 -52.5q28 -33.5 41.5 -80.5q13.5 -47 13.5 -103v-35zM335 302q-4 34 -25 52.5q-21 18.5 -48 18.5q-27 0 -48 -19q-21 -19 -26 -52z" />
<glyph unicode="&#102;" horiz-adv-x="325" d="M218 384v-384h-142v384h-56v111h56v86q0 37 12 64.5q12 27.5 32.5 45.5q20.5 18 48.5 26.5q28 8.5 60 8.5h86v-120h-58q-39 0 -39 -41v-70h97l0 -111z" />
<glyph unicode="&#103;" horiz-adv-x="533" d="M474 13q0 -59 -19.5 -101q-19.5 -42 -51.5 -68.5q-32 -26.5 -74 -38.5q-42 -12 -87 -12q-45 0 -92 13q-47 13 -92 51l70 99q30 -20 61.5 -27.5q31.5 -7.5 51.5 -7.5q37 0 64 20.5q27 20.5 27 59.5v39l-2 1q-9 -11 -21.5 -19.5q-12.5 -8.5 -26.5 -14.5q-14 -6 -28.5 -9.5q-14.5 -3.5 -26.5 -3.5q-62 0 -99 23.5q-37 23.5 -56.5 59.5q-19.5 36 -25.5 78.5q-6 42.5 -6 80.5q0 40 5.5 86q5.5 46 25 85.5q19.5 39.5 56 65.5q36.5 26 99.5 26q28 0 54 -8q26 -8 49 -32l2 1v35h143zM331 246q0 18 -1.5 39q-1.5 21 -8.5 39.5q-7 18.5 -21.5 30.5q-14.5 12 -39.5 12q-26 0 -41 -11.5q-15 -11.5 -22.5 -29.5q-7.5 -18 -9 -39.5q-1.5 -21.5 -1.5 -40.5q0 -20 2 -41q2 -21 9.5 -38.5q7.5 -17.5 22 -29q14.5 -11.5 40.5 -11.5q25 0 39 11.5q14 11.5 21 29.5q7 18 9 39t2 40z" />
<glyph unicode="&#104;" horiz-adv-x="551" d="M348 0v292q0 38 -20 57q-20 19 -50 19q-32 0 -53.5 -19q-21.5 -19 -21.5 -57v-292h-143v726h143v-266l4 -1q10 9 24 16.5q14 7.5 29.5 13q15.5 5.5 31.5 8.5q16 3 30 3q35 0 65.5 -11.5q30.5 -11.5 53.5 -34q23 -22.5 36 -56q13 -33.5 13 -76.5l0 -322z" />
<glyph unicode="&#105;" horiz-adv-x="269" d="M63 571v125h143v-125zM63 0v495h143l0 -495z" />
<glyph unicode="&#106;" horiz-adv-x="286" d="M72 571v125h143v-125zM215 -52q0 -67 -40.5 -107.5q-40.5 -40.5 -123.5 -40.5h-60v124h26q18 0 29 4.5q11 4.5 17 12q6 7.5 7.5 16.5q1.5 9 1.5 19v520l143 0z" />
<glyph unicode="&#107;" horiz-adv-x="533" d="M385 0l-133 196l-49 -53v-143h-143v726h143v-400l2 -1l65 78l86 92h178l-189 -200l203 -295z" />
<glyph unicode="&#108;" horiz-adv-x="286" d="M213 0q-30 0 -58 6.5q-28 6.5 -49 23q-21 16.5 -33.5 45q-12.5 28.5 -12.5 72.5v579h143v-552q0 -33 12.5 -41.5q12.5 -8.5 32.5 -8.5h16l0 -124z" />
<glyph unicode="&#109;" horiz-adv-x="838" d="M636 0v294q0 38 -21 57q-21 19 -51 19q-32 0 -52.5 -19q-20.5 -19 -20.5 -57v-294h-143v294q0 38 -21 57q-21 19 -51 19q-32 0 -52.5 -19q-20.5 -19 -20.5 -57v-294h-143v495h143v-46l4 -1q19 23 55 37.5q36 14.5 70 14.5q44 0 76 -16.5q32 -16.5 51 -54.5q28 29 67.5 50q39.5 21 83.5 21q78 0 123 -45q45 -45 45 -133l0 -322z" />
<glyph unicode="&#110;" horiz-adv-x="551" d="M348 0v292q0 38 -20 57q-20 19 -50 19q-32 0 -53.5 -19q-21.5 -19 -21.5 -57v-292h-143v495h143v-41h2q23 21 57.5 33.5q34.5 12.5 62.5 12.5q81 0 123 -45q42 -45 42 -133l0 -322z" />
<glyph unicode="&#111;" horiz-adv-x="516" d="M265 501q57 0 104 -21q47 -21 75 -62q21 -31 30.5 -75q9.5 -44 8.5 -98q0 -49 -10 -87.5q-10 -38.5 -28 -68.5q-31 -50 -82.5 -73q-51.5 -23 -110.5 -23q-58 0 -103.5 19q-45.5 19 -73.5 60q-23 33 -33 77.5q-10 44.5 -9 98.5q1 38 7 75q6 37 19 64q26 56 81 85q55 29 125 29zt0 0zM260 373q-21 0 -38.5 -11.5q-17.5 -11.5 -27.5 -31.5q-8 -16 -11 -37q-3 -21 -4 -47q0 -26 3 -46.5q3 -20.5 11 -35.5q9 -19 25 -30q16 -11 38 -11q26 0 44.5 14q18.5 14 26.5 40q3 11 6 28.5q3 17.5 3 42.5q1 28 -3 49.5q-4 21.5 -9 32.5q-9 22 -26.5 32.5t-37.5 10.5z" />
<glyph unicode="&#112;" horiz-adv-x="533" d="M205 495v-35l3 -1q21 23 50.5 31.5q29.5 8.5 56.5 8.5q64 0 100.5 -25.5q36.5 -25.5 54.5 -63.5q18 -38 22 -83.5q4 -45.5 4 -85.5q0 -38 -7 -81.5q-7 -43.5 -27 -80.5q-20 -37 -57 -61q-37 -24 -98 -24q-25 0 -54.5 11q-29.5 11 -44.5 34l-3 -1v-240h-142v697zM205 246q0 -19 2 -40.5q2 -21.5 9.5 -39.5q7.5 -18 21.5 -30q14 -12 39 -12q25 0 39.5 11.5q14.5 11.5 22 29.5q7.5 18 9.5 39.5q2 21.5 2 41.5q0 19 -1.5 40.5q-1.5 21.5 -8.5 40q-7 18.5 -22 30.5q-15 12 -41 12q-26 0 -40 -12.5q-14 -12.5 -21.5 -31q-7.5 -18.5 -9 -40t-1.5 -39.5z" />
<glyph unicode="&#113;" horiz-adv-x="533" d="M51 236q0 40 6 86q6 46 25.5 85.5q19.5 39.5 57.5 65.5q38 26 103 26q26 0 50.5 -8.5q24.5 -8.5 46.5 -31.5l2 1v35h143v-697h-143v241l-2 1q-9 -10 -21 -18.5q-12 -8.5 -26 -14.5q-14 -6 -28.5 -9.5q-14.5 -3.5 -26.5 -3.5q-62 0 -99 22q-37 22 -56.5 57q-19.5 35 -25.5 78q-6 43 -6 85zt0 0zM197 246q0 -20 1.5 -41.5q1.5 -21.5 8.5 -39q7 -17.5 21.5 -29q14.5 -11.5 40.5 -11.5q25 0 39.5 12q14.5 12 22 30q7.5 18 9.5 39q2 21 2 40q0 18 -1.5 39.5q-1.5 21.5 -8.5 39.5q-7 18 -21.5 30.5q-14.5 12.5 -39.5 12.5q-26 0 -41 -12q-15 -12 -22.5 -30q-7.5 -18 -9 -39.5t-1.5 -40.5z" />
<glyph unicode="&#114;" horiz-adv-x="411" d="M276 370q-32 0 -52.5 -19q-20.5 -19 -20.5 -57v-295h-143v496h140v-56l3 -1q19 27 48 44.5q29 17.5 62 17.5q31 0 55 -6.5q24 -6.5 50 -24.5l-50 -125q-26 16 -49 21t-43 5z" />
<glyph unicode="&#115;" horiz-adv-x="468" d="M445 155q0 -40 -17.5 -70q-17.5 -30 -47 -50.5q-29.5 -20.5 -67 -30.5q-37.5 -10 -77.5 -10q-28 0 -55.5 2.5q-27.5 2.5 -55 11q-27.5 8.5 -55.5 23.5q-28 15 -56 40l70 100q37 -35 77 -46q40 -11 81 -11q27 0 45 11q18 11 18 26q0 14 -11 26q-11 12 -51 17q-37 4 -73 11q-36 7 -64 22.5q-28 15.5 -45 42q-17 26.5 -17 70.5q0 40 15 70.5q15 30.5 40.5 50q25.5 19.5 60 29.5q34.5 10 72.5 10q57 0 106 -11.5q49 -11.5 96 -46.5l-64 -106q-40 27 -77 34q-37 7 -58 7q-32 0 -45 -10.5q-13 -10.5 -13 -21.5q0 -17 22 -26q22 -9 78 -16q34 -4 64.5 -12.5q30.5 -8.5 53.5 -25q23 -16.5 36.5 -43.5t13.5 -67z" />
<glyph unicode="&#116;" horiz-adv-x="333" d="M229 384v-209q0 -32 10.5 -41.5q10.5 -9.5 32.5 -9.5h31v-124h-77q-60 0 -100 35q-40 35 -40 98v251h-54v112h56v136h139v-136h75l0 -112z" />
<glyph unicode="&#117;" horiz-adv-x="551" d="M204 495v-293q0 -38 19.5 -57q19.5 -19 49.5 -19q32 0 54 19q22 19 22 57v293h143v-495h-143v42h-2q-10 -12 -24.5 -21q-14.5 -9 -30.5 -15q-16 -6 -32 -9q-16 -3 -30 -3q-78 0 -123.5 45q-45.5 45 -45.5 133l0 323z" />
<glyph unicode="&#118;" horiz-adv-x="508" d="M310 0h-111l-195 495h153l44 -133l52 -166h2l52 166l45 133l152 0z" />
<glyph unicode="&#119;" horiz-adv-x="753" d="M581 0h-120l-38 122l-44 151h-3l-43 -150l-40 -123h-119l-169 495h152l35 -123l39 -154h5l45 154l40 123h114l39 -123l44 -154h6l39 154l35 123l152 0z" />
<glyph unicode="&#120;" horiz-adv-x="538" d="M358 0l-90 142l-89 -142h-172l189 252l-182 243h171l83 -136l83 136h172l-183 -243l191 -252z" />
<glyph unicode="&#121;" horiz-adv-x="502" d="M278 -96q-23 -60 -65 -82q-42 -22 -92 -22h-57v117h37q23 0 36.5 14.5q13.5 14.5 20.5 34.5l24 74l-182 455h153l48 -141l48 -156h4l47 154l50 143l152 0z" />
<glyph unicode="&#122;" horiz-adv-x="463" d="M28 0v119l229 254h-215v122h392v-114l-228 -253h228l0 -128z" />
<glyph unicode="&#123;" horiz-adv-x="314" d="M207 -93q-50 0 -84.5 33.5q-34.5 33.5 -34.5 90.5v131q0 87 -76 87l0 104q76 3 76 90v129q0 57 34.5 90.5q34.5 33.5 84.5 33.5h98v-101h-41q-11 0 -19 -5.5q-8 -5.5 -12.5 -14q-4.5 -8.5 -6.5 -19q-2 -10.5 -2 -19.5v-117q0 -46 -23.5 -75.5q-23.5 -29.5 -52.5 -43.5q35 -13 55.5 -42.5q20.5 -29.5 20.5 -74.5v-118q0 -9 0.5 -19.5q0.5 -10.5 4 -19.5q3.5 -9 12 -14.5q8.5 -5.5 23.5 -5.5h41l0 -100z" />
<glyph unicode="&#124;" horiz-adv-x="259" d="M67 -228v958h124l0 -958z" />
<glyph unicode="&#125;" horiz-adv-x="314" d="M304 249q-77 0 -77 -87v-131q0 -57 -34 -90.5q-34 -33.5 -84 -33.5h-98v100h41q15 0 23.5 5.5q8.5 5.5 12 14.5q3.5 9 4 19.5q0.5 10.5 0.5 19.5v118q0 45 20.5 74.5q20.5 29.5 55.5 42.5q-29 14 -52.5 43.5q-23.5 29.5 -23.5 75.5v117q0 19 -9 38.5q-9 19.5 -31 19.5h-41v101h98q50 0 84 -33.5q34 -33.5 34 -90.5v-129q0 -87 77 -90l0 -104z" />
<glyph unicode="&#126;" horiz-adv-x="550" d="M197 350q23 0 45 -9q22 -9 42 -19q20 -10 37.5 -18.5q17.5 -8.5 31.5 -8.5q20 0 39 13.5q19 13.5 42 42.5l77 -47q-31 -65 -65.5 -93.5q-34.5 -28.5 -76.5 -28.5q-24 0 -46.5 8.5q-22.5 8.5 -43 18q-20.5 9.5 -39.5 18q-19 8.5 -35 8.5q-20 0 -40.5 -11.5q-20.5 -11.5 -46.5 -44.5l-75 47q30 59 65.5 91.5t88.5 32.5z" />
<glyph unicode="&#160;" horiz-adv-x="280" />
<glyph unicode="&#161;" horiz-adv-x="294" d="M87 304h123l11 -505h-144zM222 495v-128h-147l0 128z" />
<glyph unicode="&#162;" horiz-adv-x="550" d="M484 70q-35 -32 -75 -50.5q-40 -18.5 -83 -23.5l0 -131h-58v131q-42 4 -78.5 20.5q-36.5 16.5 -63.5 47.5q-27 31 -42.5 76.5q-15.5 45.5 -15.5 106.5q0 60 16 104.5q16 44.5 43.5 75q27.5 30.5 63.5 48q36 17.5 77 22.5l0 139h58v-137q44 -3 82 -20q38 -17 72 -51l-92 -97q-23 22 -43.5 31.5q-20.5 9.5 -39.5 9.5q-43 0 -65.5 -29q-22.5 -29 -22.5 -96q0 -66 20 -94.5q20 -28.5 65 -28.5q20 0 42 9.5q22 9.5 46 32.5l94 -96z" />
<glyph unicode="&#163;" horiz-adv-x="550" d="M400 499q-15 21 -28.5 34.5q-13.5 13.5 -26.5 21q-13 7.5 -25.5 10.5q-12.5 3 -27.5 3q-13 0 -25.5 -5q-12.5 -5 -23 -14.5q-10.5 -9.5 -17 -23q-6.5 -13.5 -6.5 -30.5q0 -13 4.5 -26q4.5 -13 11.5 -27.5q7 -14.5 13.5 -32q6.5 -17.5 11.5 -38.5l141 0v-104h-140q-4 -38 -13.5 -75q-9.5 -37 -25.5 -67l284 0v-125h-472v108q30 39 46.5 75q16.5 36 21.5 84l-73 0v104h65q-11 37 -25 68.5q-14 31.5 -14 60.5q0 37 12.5 73q12.5 36 40 64q27.5 28 70.5 45.5q43 17.5 105 17.5q34 0 64.5 -3.5q30.5 -3.5 58.5 -15.5q28 -12 55.5 -36q27.5 -24 56.5 -65z" />
<glyph unicode="&#164;" horiz-adv-x="556" d="M168 321q0 -22 8.5 -41.5q8.5 -19.5 23 -34q14.5 -14.5 34 -23q19.5 -8.5 41.5 -8.5q22 0 41.5 8.5q19.5 8.5 34.5 23q15 14.5 23.5 34q8.5 19.5 8.5 41.5q0 23 -8.5 42.5q-8.5 19.5 -23.5 34q-15 14.5 -34.5 22.5q-19.5 8 -41.5 8q-22 0 -41.5 -8q-19.5 -8 -34 -22.5q-14.5 -14.5 -23 -34q-8.5 -19.5 -8.5 -42.5zt0 0zM26 496l73 74l68 -68q27 15 53.5 23.5q26.5 8.5 55.5 8.5q30 0 56.5 -7.5q26.5 -7.5 52.5 -22.5q14 14 33.5 33q19.5 19 33.5 33l73 -74l-68 -67q15 -27 23.5 -54q8.5 -27 8.5 -54q0 -30 -7 -55.5q-7 -25.5 -24 -53.5q14 -12 34 -32q20 -20 33 -33l-73 -74l-66 67q-26 -15 -53.5 -23.5q-27.5 -8.5 -56.5 -8.5q-29 0 -57 9q-28 9 -53 23l-67 -67l-73 73l67 66q-30 54 -30 109q0 52 31 108z" />
<glyph unicode="&#165;" horiz-adv-x="550" d="M201 241v42h-142v82h98l-170 331h171l74 -165l47 -124h4l46 126l75 163h159l-171 -331h101v-82h-145v-42h145v-82h-145v-159h-147v159h-142l0 82z" />
<glyph unicode="&#166;" horiz-adv-x="259" d="M67 284v446h124v-446zM191 219v-447h-124l0 447z" />
<glyph unicode="&#167;" horiz-adv-x="510" d="M405 189q24 -17 38.5 -43q14.5 -26 14.5 -53q0 -44 -17.5 -77q-17.5 -33 -47 -55.5q-29.5 -22.5 -68.5 -34q-39 -11.5 -83 -11.5q-60 0 -114 22q-54 22 -97 62l79 94q31 -28 67 -44.5q36 -16.5 68 -16.5q42 0 62 14.5q20 14.5 20 38.5q0 9 -4 16.5q-4 7.5 -14.5 15q-10.5 7.5 -29.5 15q-19 7.5 -49 16.5q-41 12 -75 25.5q-34 13.5 -58 33q-24 19.5 -37 48q-13 28.5 -13 69.5q0 16 6 32q6 16 16.5 30q10.5 14 23 24.5q12.5 10.5 26.5 15.5q-26 20 -41.5 47q-15.5 27 -15.5 57q0 39 15 70q15 31 42 53q27 22 63.5 34q36.5 12 78.5 12q60 0 108.5 -11.5q48.5 -11.5 96.5 -47.5l-68 -97q-39 23 -75 31q-36 8 -69 8q-37 0 -50.5 -14.5q-13.5 -14.5 -13.5 -31.5q0 -16 15.5 -27.5q15.5 -11.5 36.5 -19.5q21 -8 43.5 -13.5q22.5 -5.5 36.5 -9.5q28 -8 54.5 -20q26.5 -12 47 -31q20.5 -19 33 -47.5q12.5 -28.5 12.5 -68.5q0 -18 -5.5 -35.5q-5.5 -17.5 -14.5 -32.5q-9 -15 -20.5 -26q-11.5 -11 -23.5 -16zt0 0zM245 354q-12 3 -23 6q-11 3 -21 7q-15 -6 -20 -15.5q-5 -9.5 -5 -22.5q0 -26 45 -42q23 -8 49.5 -15q26.5 -7 54.5 -17q17 10 17 36q0 9 -4 17q-4 8 -15 15.5q-11 7.5 -29.5 15t-48.5 15.5z" />
<glyph unicode="&#168;" horiz-adv-x="516" d="M294 569v130h149v-130zM76 569v130h148l0 -130z" />
<glyph unicode="&#169;" horiz-adv-x="820" d="M411 -16q-75 0 -140 26q-65 26 -113 73q-48 47 -75 113q-27 66 -27 146q0 78 27 144q27 66 75 114q48 48 113 75q65 27 140 27q75 0 140 -26.5q65 -26.5 113 -74.5q48 -48 75 -114q27 -66 27 -145q0 -78 -27 -143.5q-27 -65.5 -75 -113.5q-48 -48 -113 -74.5q-65 -26.5 -140 -26.5zt0 0zM411 623q-57 0 -106 -21.5q-49 -21.5 -84.5 -59.5q-35.5 -38 -56 -89q-20.5 -51 -20.5 -111q0 -60 20.5 -111q20.5 -51 56 -88.5q35.5 -37.5 84.5 -59q49 -21.5 106 -21.5q57 0 106 21.5q49 21.5 84.5 59q35.5 37.5 56 88.5q20.5 51 20.5 111q0 62 -20.5 114q-20.5 52 -56 89q-35.5 37 -84.5 57.5q-49 20.5 -106 20.5zt0 0zM576 221q-16 -53 -58.5 -82q-42.5 -29 -105.5 -29q-43 0 -75 13q-32 13 -53 35.5q-21 22.5 -31.5 54q-10.5 31.5 -10.5 69.5v103q0 34 10.5 65q10.5 31 31.5 55q21 24 53 38q32 14 75 14q63 0 105.5 -30.5q42.5 -30.5 58.5 -81.5l-92 -33q-5 23 -23.5 38.5q-18.5 15.5 -49.5 15.5q-37 0 -54 -22q-17 -22 -17 -50v-119q0 -29 17 -51.5q17 -22.5 54 -22.5q29 0 48.5 15.5q19.5 15.5 24.5 40.5z" />
<glyph unicode="&#170;" horiz-adv-x="356" d="M218 279v35q-8 -12 -19.5 -19.5q-11.5 -7.5 -23.5 -12q-12 -4.5 -23 -6q-11 -1.5 -18 -1.5q-52 0 -82.5 25q-30.5 25 -30.5 79q0 42 32.5 69.5q32.5 27.5 94.5 27.5h70v12q0 10 -11 21.5q-11 11.5 -37 11.5q-24 0 -44.5 -6q-20.5 -6 -36.5 -22l-58 64q31 32 68 42.5q37 10.5 74 10.5q32 0 60 -5.5q28 -5.5 48.5 -18.5q20.5 -13 32.5 -35q12 -22 12 -55v-217zM218 410h-58q-22 0 -28 -9q-6 -9 -6 -15q0 -5 7 -14q7 -9 33 -9q20 0 36 8.5q16 8.5 16 28.5z" />
<glyph unicode="&#171;" horiz-adv-x="591" d="M420 10l-146 214l146 214h140l-142 -214l142 -214zM192 10l-146 214l146 214h140l-143 -214l143 -214z" />
<glyph unicode="&#172;" horiz-adv-x="550" d="M532 54h-124v186h-389v116l512 0z" />
<glyph unicode="&#173;" horiz-adv-x="440" d="M47 192v131h346l0 -131z" />
<glyph unicode="&#174;" horiz-adv-x="526" d="M263 457h-29v-93h-52v244h97q32 0 55 -19.5q23 -19.5 23 -54.5q0 -20 -9.5 -37.5q-9.5 -17.5 -30.5 -30.5l47 -102h-59zM234 558v-52h43q14 0 22 7.5q8 7.5 8 20.5q0 24 -28 24zM265 269q-47 0 -87 16.5q-40 16.5 -69.5 45q-29.5 28.5 -46.5 68q-17 39.5 -17 85.5q0 46 18 86q18 40 48 69q30 29 70 45.5q40 16.5 84 16.5q47 0 87.5 -16.5q40.5 -16.5 70 -45.5q29.5 -29 46.5 -69q17 -40 17 -86q0 -46 -18 -85.5q-18 -39.5 -48.5 -68q-30.5 -28.5 -70.5 -45q-40 -16.5 -84 -16.5zt0 0zM265 650q-35 0 -65 -12.5q-30 -12.5 -52.5 -35q-22.5 -22.5 -35 -53q-12.5 -30.5 -12.5 -65.5q0 -35 12.5 -65q12.5 -30 35 -52.5q22.5 -22.5 52.5 -35.5q30 -13 65 -13q35 0 65 13q30 13 52 35.5q22 22.5 34.5 52.5q12.5 30 12.5 65q0 35 -12.5 65.5q-12.5 30.5 -34.5 53q-22 22.5 -52 35t-65 12.5z" />
<glyph unicode="&#175;" horiz-adv-x="516" d="M92 578v118h333l0 -118z" />
<glyph unicode="&#176;" horiz-adv-x="433" d="M380 548q0 -32 -13 -60q-13 -28 -35 -49q-22 -21 -52 -33q-30 -12 -64 -12q-34 0 -63.5 12q-29.5 12 -51.5 33q-22 21 -35 49q-13 28 -13 60q0 31 13 59q13 28 35 49q22 21 51.5 33q29.5 12 63.5 12q34 0 64 -12q30 -12 52 -33q22 -21 35 -49q13 -28 13 -59zt0 0zM281 548q0 26 -19 43.5q-19 17.5 -46 17.5q-26 0 -45.5 -17.5q-19.5 -17.5 -19.5 -43.5q0 -26 19.5 -44q19.5 -18 45.5 -18q27 0 46 18t19 44z" />
<glyph unicode="&#177;" horiz-adv-x="550" d="M337 320v-173h-124v173h-195v116h195v182h124v-182h195v-116zM14 0v113h522l0 -113z" />
<glyph unicode="&#178;" horiz-adv-x="343" d="M21 657q4 31 18 55.5q14 24.5 34.5 41.5q20.5 17 46.5 26q26 9 53 9q65 0 107 -30.5q42 -30.5 42 -91.5q0 -26 -9.5 -47.5q-9.5 -21.5 -25.5 -38.5l-112 -117h145v-95h-299v83l179 185q11 11 11 23q0 14 -9.5 24q-9.5 10 -27.5 10q-14 0 -27.5 -12q-13.5 -12 -17.5 -40z" />
<glyph unicode="&#179;" horiz-adv-x="346" d="M125 500q4 -20 17 -29.5q13 -9.5 30 -9.5q18 0 30.5 10.5q12.5 10.5 12.5 28.5q0 18 -12.5 30.5q-12.5 12.5 -38.5 12.5h-36v81h37q26 0 37 11q11 11 11 25q0 14 -11.5 24q-11.5 10 -29.5 10q-13 0 -25.5 -9q-12.5 -9 -17.5 -34l-105 16q13 58 56.5 90q43.5 32 95.5 32q40 0 68.5 -10q28.5 -10 47 -27q18.5 -17 27.5 -39.5q9 -22.5 9 -47.5q0 -19 -11 -44q-11 -25 -39 -37q15 -6 25 -16q10 -10 16.5 -22q6.5 -12 9 -24.5q2.5 -12.5 2.5 -22.5q0 -59 -42.5 -96q-42.5 -37 -114.5 -37q-24 0 -49 6.5q-25 6.5 -46 21q-21 14.5 -37 37q-16 22.5 -23 55.5z" />
<glyph unicode="&#180;" horiz-adv-x="516" d="M183 567l85 203l133 -43l-135 -190z" />
<glyph unicode="&#181;" horiz-adv-x="551" d="M348 1v34l-4 2q-20 -20 -46 -30.5q-26 -10.5 -54 -10.5q-18 0 -40 5l0 -201h-144l1 695h143v-293q0 -38 20.5 -56.5q20.5 -18.5 50.5 -18.5q32 0 52.5 18.5q20.5 18.5 20.5 56.5v293h143l0 -494z" />
<glyph unicode="&#182;" horiz-adv-x="563" d="M212 311h-24q-39 0 -69 16q-30 16 -50.5 42.5q-20.5 26.5 -31 61q-10.5 34.5 -10.5 71.5q0 36 11.5 72.5q11.5 36.5 35 65q23.5 28.5 58 46.5q34.5 18 81.5 18q41 0 79 0q38 0 76 0.5q38 0.5 77 0.5q39 0 82 0l0 -86h-43v-698h-99v698h-71v-698l-102 0z" />
<glyph unicode="&#183;" horiz-adv-x="303" d="M67 198v165h169l0 -165z" />
<glyph unicode="&#184;" horiz-adv-x="463" d="M209 49l72 1l-28 -86q52 -6 74 -33q22 -27 22 -57q0 -18 -8 -34.5q-8 -16.5 -23.5 -30q-15.5 -13.5 -38 -21.5q-22.5 -8 -50.5 -8q-32 0 -61 7.5q-29 7.5 -51 21.5l25 62q25 -12 41 -15q16 -3 33 -3q16 0 28 7.5q12 7.5 12 22.5q0 10 -5.5 16q-5.5 6 -13 7.5q-7.5 1.5 -15.5 0.5q-8 -1 -14 -4l-39 20z" />
<glyph unicode="&#185;" horiz-adv-x="285" d="M106 369v299l-65 -41v109l82 50h93l0 -417z" />
<glyph unicode="&#186;" horiz-adv-x="356" d="M184 611q40 0 73.5 -14.5q33.5 -14.5 53.5 -42.5q14 -20 20.5 -49q6.5 -29 6.5 -64q0 -31 -7 -56q-7 -25 -20 -45q-21 -33 -58 -49.5q-37 -16.5 -78 -16.5q-41 0 -73 13.5q-32 13.5 -52 40.5q-17 23 -23.5 51.5q-6.5 28.5 -5.5 63.5q1 26 5 49q4 23 13 42q18 37 57 57q39 20 88 20zt0 0zM181 517q-27 0 -40 -24q-9 -17 -9 -51q0 -31 9 -49q11 -24 37 -24q17 0 27 8.5q10 8.5 15 22.5q2 7 4 18q2 11 2 25q0 35 -7 51q-5 11 -15.5 17t-22.5 6z" />
<glyph unicode="&#187;" horiz-adv-x="591" d="M46 10l142 214l-142 214h140l146 -214l-146 -214zM274 10l143 214l-143 214h140l146 -214l-146 -214z" />
<glyph unicode="&#188;" horiz-adv-x="925" d="M168 279v299l-65 -41v109l82 50h93v-417zM294 -17h-117l425 730h118zM786 56v-56h-109v56h-188v76l156 285h123l-149 -268h58v74h109v-74h36l0 -93z" />
<glyph unicode="&#189;" horiz-adv-x="925" d="M145 279v299l-65 -41v109l82 50h93v-417zM270 -17h-117l425 730h118zM544 288q4 31 17.5 55.5q13.5 24.5 33.5 41.5q20 17 45.5 26q25.5 9 52.5 9q32 0 59.5 -7.5q27.5 -7.5 48 -23q20.5 -15.5 32 -38.5q11.5 -23 11.5 -53q0 -24 -9 -46.5q-9 -22.5 -25 -39.5l-112 -117h145v-95h-299v83l179 186v-1q10 10 10 23q0 14 -10 24q-10 10 -28 10q-16 0 -27.5 -12q-11.5 -12 -15.5 -40z" />
<glyph unicode="&#190;" horiz-adv-x="925" d="M168 410q4 -20 17 -29.5q13 -9.5 30 -9.5q18 0 30.5 10.5q12.5 10.5 12.5 28.5q0 18 -12.5 30.5q-12.5 12.5 -38.5 12.5h-36v81h37q26 0 37 11q11 11 11 25q0 14 -11.5 24q-11.5 10 -29.5 10q-13 0 -25.5 -9q-12.5 -9 -17.5 -34l-105 16q13 58 56.5 90q43.5 32 95.5 32q40 0 68.5 -10q28.5 -10 47 -27q18.5 -17 27.5 -39.5q9 -22.5 9 -47.5q0 -19 -11 -44q-11 -25 -39 -37q15 -6 25 -16q10 -10 16.5 -22q6.5 -12 9 -24.5q2.5 -12.5 2.5 -22.5q0 -59 -42.5 -96q-42.5 -37 -114.5 -37q-24 0 -49 6.5q-25 6.5 -46 21q-21 14.5 -37 37q-16 22.5 -23 55.5zM332 -17h-117l425 730h118zM827 56v-56h-109v56h-188v76l156 285h123l-149 -268h58v74h109v-74h36l0 -93z" />
<glyph unicode="&#191;" horiz-adv-x="495" d="M485 3q-5 -50 -26 -89q-21 -39 -53 -66q-32 -27 -71.5 -41q-39.5 -14 -80.5 -14q-52 0 -92.5 15q-40.5 15 -69 41.5q-28.5 26.5 -43.5 63q-15 36.5 -15 78.5q0 32 11 57q11 25 27.5 47q16.5 22 36 42.5q19.5 20.5 36 41.5q16.5 21 27.5 45q11 24 11 54v22h147v-27q0 -29 -5 -52.5q-5 -23.5 -16 -46.5q-11 -23 -28 -48q-17 -25 -42 -57q-13 -16 -28 -37q-15 -21 -15 -42q0 -27 20.5 -43q20.5 -16 46.5 -16q33 0 53.5 20.5q20.5 20.5 22.5 68.5zM330 494v-128h-147l0 128z" />
<glyph unicode="&#192;" horiz-adv-x="660" d="M344 733l-214 90l90 107l180 -128zM497 0l-52 142h-233l-52 -142h-162l270 696h121l270 -696zM371 352l-41 138h-4l-40 -136l-26 -82l137 0z" />
<glyph unicode="&#193;" horiz-adv-x="660" d="M271 802l180 128l90 -107l-214 -90zM497 0l-52 142h-233l-52 -142h-162l270 696h121l270 -696zM371 352l-41 138h-4l-40 -136l-26 -82l137 0z" />
<glyph unicode="&#194;" horiz-adv-x="660" d="M497 0l-52 142h-233l-52 -142h-162l270 696h121l270 -696zM371 352l-41 138h-4l-40 -136l-26 -82h137zM327 805l-150 -78l-48 58l149 120h98l151 -120l-51 -59z" />
<glyph unicode="&#195;" horiz-adv-x="660" d="M497 0l-52 142h-233l-52 -142h-162l270 696h121l270 -696zM371 352l-41 138h-4l-40 -136l-26 -82h137zM256 881q19 0 38 -8q19 -8 36 -17q17 -9 32 -16.5q15 -7.5 27 -7.5q17 0 32 11q15 11 35 37l68 -40q-26 -58 -56 -83.5q-30 -25.5 -65 -25.5q-20 0 -39.5 7.5q-19.5 7.5 -37 16q-17.5 8.5 -33.5 16q-16 7.5 -30 7.5q-17 0 -34.5 -10.5q-17.5 -10.5 -39.5 -39.5l-65 41q26 54 56.5 83t75.5 29z" />
<glyph unicode="&#196;" horiz-adv-x="660" d="M497 0l-52 142h-233l-52 -142h-162l270 696h121l270 -696zM371 352l-41 138h-4l-40 -136l-26 -82h137zM360 744v133h152v-133zM145 744v133h153l0 -133z" />
<glyph unicode="&#197;" horiz-adv-x="660" d="M497 0l-52 142h-233l-52 -142h-162l270 696h121l270 -696zM371 352l-41 138h-4l-40 -136l-26 -82h137zM369 831q0 16 -11.5 26.5q-11.5 10.5 -28.5 10.5q-17 0 -29 -10.5q-12 -10.5 -12 -26.5q0 -16 12 -27q12 -11 29 -11q17 0 28.5 11q11.5 11 11.5 27zt0 0zM204 831q0 24 10 45q10 21 27 37q17 16 39.5 25q22.5 9 48.5 9q25 0 48 -9q23 -9 39.5 -25q16.5 -16 26.5 -37q10 -21 10 -45q0 -24 -10 -45q-10 -21 -27 -37q-17 -16 -39.5 -25q-22.5 -9 -48.5 -9q-26 0 -48.5 9q-22.5 9 -39 25q-16.5 16 -26.5 37t-10 45z" />
<glyph unicode="&#198;" horiz-adv-x="1091" d="M1035 696v-138h-338v-141h288v-133h-288v-146h338v-138h-492v149h-234l-84 -149h-182l421 696zM539 558l-157 -275h161l0 275z" />
<glyph unicode="&#199;" horiz-adv-x="600" d="M266 -3q-56 7 -97.5 29.5q-41.5 22.5 -69 57.5q-27.5 35 -41 81.5q-13.5 46.5 -13.5 100.5v164q0 54 16.5 103q16.5 49 50 86.5q33.5 37.5 84 59.5q50.5 22 118.5 22q100 0 166.5 -48.5q66.5 -48.5 92.5 -128.5l-146 -52q-8 36 -37 60.5q-29 24.5 -77 24.5q-29 0 -50 -9.5q-21 -9.5 -35 -25.5q-14 -16 -21 -36.5q-7 -20.5 -7 -41.5v-189q0 -23 7 -44q7 -21 21 -37q14 -16 35 -26q21 -10 50 -10q47 0 76.5 24.5q29.5 24.5 37.5 62.5l146 -56q-24 -78 -85.5 -123.5q-61.5 -45.5 -150.5 -50.5l-10 -31q52 -6 74 -33q22 -27 22 -57q0 -18 -8 -34.5q-8 -16.5 -23.5 -30q-15.5 -13.5 -38 -21.5q-22.5 -8 -50.5 -8q-32 0 -61 7.5q-29 7.5 -51 21.5l25 62q25 -12 41 -15q16 -3 33 -3q16 0 28 7.5q12 7.5 12 22.5q0 10 -5.5 16q-5.5 6 -13 7.5q-7.5 1.5 -15.5 0.5q-8 -1 -14 -4l-39 20z" />
<glyph unicode="&#200;" horiz-adv-x="585" d="M70 0v696h492v-138h-338v-141h288v-133h-288v-146h338v-138zM322 733l-214 90l90 107l180 -128z" />
<glyph unicode="&#201;" horiz-adv-x="585" d="M201 802l180 128l90 -107l-214 -90zM70 0v696h492v-138h-338v-141h288v-133h-288v-146h338l0 -138z" />
<glyph unicode="&#202;" horiz-adv-x="585" d="M70 0v696h492v-138h-338v-141h288v-133h-288v-146h338v-138zM299 805l-150 -78l-48 58l149 120h98l151 -120l-51 -59z" />
<glyph unicode="&#203;" horiz-adv-x="585" d="M70 0v696h492v-138h-338v-141h288v-133h-288v-146h338v-138zM360 744v133h152v-133zM145 744v133h153l0 -133z" />
<glyph unicode="&#204;" horiz-adv-x="294" d="M73 0v696h154v-696zM150 733l-214 90l90 107l180 -128z" />
<glyph unicode="&#205;" horiz-adv-x="294" d="M87 802l180 128l90 -107l-214 -90zM73 0v696h154l0 -696z" />
<glyph unicode="&#206;" horiz-adv-x="294" d="M73 0v696h154v-696zM151 805l-150 -78l-48 58l149 120h98l151 -120l-51 -59z" />
<glyph unicode="&#207;" horiz-adv-x="294" d="M73 0v696h154v-696zM179 744v133h152v-133zM-36 744v133h153l0 -133z" />
<glyph unicode="&#208;" horiz-adv-x="657" d="M6 407h64v289h277q78 0 141 -30q63 -30 96 -99q19 -38 23 -90q4 -52 4 -117q0 -73 -4 -127q-4 -54 -21 -95q-17 -39 -43.5 -65.5q-26.5 -26.5 -59.5 -42.5q-33 -16 -72 -23q-39 -7 -81 -7h-260v300h-64zM224 407h109v-107h-109v-162h101q39 0 64.5 10.5q25.5 10.5 40.5 30q15 19.5 21.5 47q6.5 27.5 6.5 61.5v127q0 72 -31.5 107.5q-31.5 35.5 -104.5 35.5l-98 0z" />
<glyph unicode="&#209;" horiz-adv-x="710" d="M506 0l-177 256l-103 166l-2 -1v-421h-154v696h137l146 -213l134 -209l2 1v421h154v-696zM278 884q19 0 38 -8q19 -8 36 -17q17 -9 32 -16.5q15 -7.5 27 -7.5q17 0 32 11q15 11 35 37l68 -40q-26 -58 -56 -83.5q-30 -25.5 -65 -25.5q-20 0 -39.5 7.5q-19.5 7.5 -37 16q-17.5 8.5 -33.5 16q-16 7.5 -30 7.5q-17 0 -34.5 -10.5q-17.5 -10.5 -39.5 -39.5l-65 41q26 54 56.5 83t75.5 29z" />
<glyph unicode="&#210;" horiz-adv-x="624" d="M310 701q63 0 113.5 -20.5q50.5 -20.5 86 -56.5q35.5 -36 54.5 -86q19 -50 19 -108v-164q0 -62 -19.5 -112.5q-19.5 -50.5 -55 -86q-35.5 -35.5 -86 -54.5q-50.5 -19 -112.5 -19q-68 0 -118.5 22q-50.5 22 -84 59.5q-33.5 37.5 -50 87q-16.5 49.5 -16.5 103.5v164q0 54 16.5 103q16.5 49 50 86.5q33.5 37.5 84 59.5q50.5 22 118.5 22zt0 0zM309 557q-29 0 -50 -9.5q-21 -9.5 -35 -25.5q-14 -16 -21 -36.5q-7 -20.5 -7 -41.5v-189q0 -23 7 -44q7 -21 21 -37q14 -16 35 -26q21 -10 50 -10q56 0 86.5 33.5q30.5 33.5 30.5 83.5v189q0 46 -30.5 79.5q-30.5 33.5 -86.5 33.5zt0 0zM344 733l-214 90l90 107l180 -128z" />
<glyph unicode="&#211;" horiz-adv-x="624" d="M201 802l180 128l90 -107l-214 -90zM310 701q63 0 113.5 -20.5q50.5 -20.5 86 -56.5q35.5 -36 54.5 -86q19 -50 19 -108v-164q0 -62 -19.5 -112.5q-19.5 -50.5 -55 -86q-35.5 -35.5 -86 -54.5q-50.5 -19 -112.5 -19q-68 0 -118.5 22q-50.5 22 -84 59.5q-33.5 37.5 -50 87q-16.5 49.5 -16.5 103.5v164q0 54 16.5 103q16.5 49 50 86.5q33.5 37.5 84 59.5q50.5 22 118.5 22zt0 0zM309 557q-29 0 -50 -9.5q-21 -9.5 -35 -25.5q-14 -16 -21 -36.5q-7 -20.5 -7 -41.5v-189q0 -23 7 -44q7 -21 21 -37q14 -16 35 -26q21 -10 50 -10q56 0 86.5 33.5q30.5 33.5 30.5 83.5v189q0 46 -30.5 79.5t-86.5 33.5z" />
<glyph unicode="&#212;" horiz-adv-x="624" d="M310 701q63 0 113.5 -20.5q50.5 -20.5 86 -56.5q35.5 -36 54.5 -86q19 -50 19 -108v-164q0 -62 -19.5 -112.5q-19.5 -50.5 -55 -86q-35.5 -35.5 -86 -54.5q-50.5 -19 -112.5 -19q-68 0 -118.5 22q-50.5 22 -84 59.5q-33.5 37.5 -50 87q-16.5 49.5 -16.5 103.5v164q0 54 16.5 103q16.5 49 50 86.5q33.5 37.5 84 59.5q50.5 22 118.5 22zt0 0zM309 557q-29 0 -50 -9.5q-21 -9.5 -35 -25.5q-14 -16 -21 -36.5q-7 -20.5 -7 -41.5v-189q0 -23 7 -44q7 -21 21 -37q14 -16 35 -26q21 -10 50 -10q56 0 86.5 33.5q30.5 33.5 30.5 83.5v189q0 46 -30.5 79.5q-30.5 33.5 -86.5 33.5zt0 0zM311 805l-150 -78l-48 58l149 120h98l151 -120l-51 -59z" />
<glyph unicode="&#213;" horiz-adv-x="624" d="M310 701q63 0 113.5 -20.5q50.5 -20.5 86 -56.5q35.5 -36 54.5 -86q19 -50 19 -108v-164q0 -62 -19.5 -112.5q-19.5 -50.5 -55 -86q-35.5 -35.5 -86 -54.5q-50.5 -19 -112.5 -19q-68 0 -118.5 22q-50.5 22 -84 59.5q-33.5 37.5 -50 87q-16.5 49.5 -16.5 103.5v164q0 54 16.5 103q16.5 49 50 86.5q33.5 37.5 84 59.5q50.5 22 118.5 22zt0 0zM309 557q-29 0 -50 -9.5q-21 -9.5 -35 -25.5q-14 -16 -21 -36.5q-7 -20.5 -7 -41.5v-189q0 -23 7 -44q7 -21 21 -37q14 -16 35 -26q21 -10 50 -10q56 0 86.5 33.5q30.5 33.5 30.5 83.5v189q0 46 -30.5 79.5q-30.5 33.5 -86.5 33.5zt0 0zM241 881q19 0 38 -8q19 -8 36 -17q17 -9 32 -16.5q15 -7.5 27 -7.5q17 0 32 11q15 11 35 37l68 -40q-26 -58 -56 -83.5q-30 -25.5 -65 -25.5q-20 0 -39.5 7.5q-19.5 7.5 -37 16q-17.5 8.5 -33.5 16q-16 7.5 -30 7.5q-17 0 -34.5 -10.5q-17.5 -10.5 -39.5 -39.5l-65 41q26 54 56.5 83t75.5 29z" />
<glyph unicode="&#214;" horiz-adv-x="624" d="M310 701q63 0 113.5 -20.5q50.5 -20.5 86 -56.5q35.5 -36 54.5 -86q19 -50 19 -108v-164q0 -62 -19.5 -112.5q-19.5 -50.5 -55 -86q-35.5 -35.5 -86 -54.5q-50.5 -19 -112.5 -19q-68 0 -118.5 22q-50.5 22 -84 59.5q-33.5 37.5 -50 87q-16.5 49.5 -16.5 103.5v164q0 54 16.5 103q16.5 49 50 86.5q33.5 37.5 84 59.5q50.5 22 118.5 22zt0 0zM309 557q-29 0 -50 -9.5q-21 -9.5 -35 -25.5q-14 -16 -21 -36.5q-7 -20.5 -7 -41.5v-189q0 -23 7 -44q7 -21 21 -37q14 -16 35 -26q21 -10 50 -10q56 0 86.5 33.5q30.5 33.5 30.5 83.5v189q0 46 -30.5 79.5q-30.5 33.5 -86.5 33.5zt0 0zM346 744v133h152v-133zM131 744v133h153l0 -133z" />
<glyph unicode="&#215;" horiz-adv-x="550" d="M286 213l-160 -160l-87 87l160 160l-166 166l82 82l166 -166l157 158l88 -88l-158 -157l166 -166l-82 -82z" />
<glyph unicode="&#216;" horiz-adv-x="624" d="M310 701q54 0 98.5 -15q44.5 -15 79.5 -43l44 61l51 -37l-51 -69q51 -71 51 -168v-164q0 -62 -19.5 -112.5q-19.5 -50.5 -55 -86q-35.5 -35.5 -86 -54.5q-50.5 -19 -112.5 -19q-57 0 -102 15.5q-45 15.5 -77 43.5l-43 -58l-49 35l50 68q-25 35 -36.5 78q-11.5 43 -11.5 90v164q0 54 16.5 103q16.5 49 50 86.5q33.5 37.5 84 59.5q50.5 22 118.5 22zt0 0zM426 444q0 2 -0.5 4.5q-0.5 2.5 -0.5 4.5l-204 -277q14 -17 36 -27.5q22 -10.5 52 -10.5q56 0 86.5 33.5q30.5 33.5 30.5 83.5zM309 557q-29 0 -50 -9.5q-21 -9.5 -35 -25.5q-14 -16 -21 -36.5q-7 -20.5 -7 -41.5v-199l202 275q-15 17 -37.5 27t-51.5 10z" />
<glyph unicode="&#217;" horiz-adv-x="657" d="M600 243q0 -56 -21.5 -101.5q-21.5 -45.5 -58 -78q-36.5 -32.5 -86 -50.5q-49.5 -18 -105.5 -18q-56 0 -105.5 18.5q-49.5 18.5 -86.5 52q-37 33.5 -58 81q-21 47.5 -21 105.5v444h153v-433q0 -60 34.5 -92.5q34.5 -32.5 83.5 -32.5q51 0 84 29q33 29 33 87v442h154zM342 733l-214 90l90 107l180 -128z" />
<glyph unicode="&#218;" horiz-adv-x="657" d="M243 802l180 128l90 -107l-214 -90zM600 243q0 -56 -21.5 -101.5q-21.5 -45.5 -58 -78q-36.5 -32.5 -86 -50.5q-49.5 -18 -105.5 -18q-56 0 -105.5 18.5q-49.5 18.5 -86.5 52q-37 33.5 -58 81q-21 47.5 -21 105.5v444h153v-433q0 -60 34.5 -92.5q34.5 -32.5 83.5 -32.5q51 0 84 29q33 29 33 87v442l154 0z" />
<glyph unicode="&#219;" horiz-adv-x="657" d="M600 243q0 -56 -21.5 -101.5q-21.5 -45.5 -58 -78q-36.5 -32.5 -86 -50.5q-49.5 -18 -105.5 -18q-56 0 -105.5 18.5q-49.5 18.5 -86.5 52q-37 33.5 -58 81q-21 47.5 -21 105.5v444h153v-433q0 -60 34.5 -92.5q34.5 -32.5 83.5 -32.5q51 0 84 29q33 29 33 87v442h154zM329 805l-150 -78l-48 58l149 120h98l151 -120l-51 -59z" />
<glyph unicode="&#220;" horiz-adv-x="657" d="M600 243q0 -56 -21.5 -101.5q-21.5 -45.5 -58 -78q-36.5 -32.5 -86 -50.5q-49.5 -18 -105.5 -18q-56 0 -105.5 18.5q-49.5 18.5 -86.5 52q-37 33.5 -58 81q-21 47.5 -21 105.5v444h153v-433q0 -60 34.5 -92.5q34.5 -32.5 83.5 -32.5q51 0 84 29q33 29 33 87v442h154zM364 744v133h152v-133zM149 744v133h153l0 -133z" />
<glyph unicode="&#221;" horiz-adv-x="605" d="M224 802l180 128l90 -107l-214 -90zM378 285v-285h-147v285l-224 411h165l71 -150l60 -135h4l59 134l72 151l165 0z" />
<glyph unicode="&#222;" horiz-adv-x="609" d="M601 349q0 -47 -19 -87q-19 -40 -51.5 -69q-32.5 -29 -76.5 -45.5q-44 -16.5 -94 -16.5h-136v-131h-154v696h154v-123h123q55 0 101.5 -15.5q46.5 -15.5 80.5 -44.5q34 -29 53 -70.5q19 -41.5 19 -93.5zt0 0zM448 352q0 42 -25 62.5q-25 20.5 -71 20.5h-128v-166h132q38 0 65 22.5t27 60.5z" />
<glyph unicode="&#223;" horiz-adv-x="566" d="M521 242q0 -38 -9 -80.5q-9 -42.5 -33.5 -78.5q-24.5 -36 -68.5 -59.5q-44 -23.5 -114 -23.5h-31v119h23q35 0 59.5 27.5q24.5 27.5 24.5 87.5q0 17 -1.5 37.5q-1.5 20.5 -9.5 38.5q-8 18 -24 30q-16 12 -45 12l0 104q16 0 27.5 7q11.5 7 18.5 17.5q7 10.5 10 22.5q3 12 3 23q0 10 -2.5 23.5q-2.5 13.5 -10 25.5q-7.5 12 -21.5 20.5q-14 8.5 -38 8.5q-21 0 -35.5 -7q-14.5 -7 -23.5 -19q-9 -12 -13 -27q-4 -15 -4 -30v-521h-145v518q0 50 16 88.5q16 38.5 45.5 64.5q29.5 26 69.5 39.5q40 13.5 88 13.5q57 0 96.5 -16.5q39.5 -16.5 64.5 -43q25 -26.5 36 -59q11 -32.5 11 -63.5q0 -15 -3 -33q-3 -18 -11 -35.5q-8 -17.5 -21.5 -33q-13.5 -15.5 -34.5 -24.5l0 -3q31 -9 51.5 -29.5q20.5 -20.5 32.5 -45q12 -24.5 17 -50t5 -46.5z" />
<glyph unicode="&#224;" horiz-adv-x="516" d="M326 0v46l-3 1q-13 -15 -29 -25q-16 -10 -32.5 -16q-16.5 -6 -32.5 -8.5q-16 -2.5 -28 -2.5q-36 0 -66.5 9q-30.5 9 -52.5 27.5q-22 18.5 -34.5 47q-12.5 28.5 -12.5 68.5q0 31 12 59q12 28 34.5 49q22.5 21 56 33q33.5 12 76.5 12h112v16q0 8 -2.5 18.5q-2.5 10.5 -11 19.5q-8.5 9 -25 15.5q-16.5 6.5 -44.5 6.5q-34 0 -63 -8.5q-29 -8.5 -54 -30.5l-69 97q45 41 96.5 53.5q51.5 12.5 104.5 12.5q43 0 81.5 -8q38.5 -8 67 -27.5q28.5 -19.5 45 -52q16.5 -32.5 16.5 -81.5v-331zM326 196h-94q-19 0 -31 -3.5q-12 -3.5 -18.5 -9q-6.5 -5.5 -8.5 -12q-2 -6.5 -2 -12.5q0 -5 2.5 -12.5q2.5 -7.5 9.5 -15q7 -7.5 20.5 -13q13.5 -5.5 35.5 -5.5q33 0 59.5 16q26.5 16 26.5 51zM260 537l-146 186l134 46l93 -194z" />
<glyph unicode="&#225;" horiz-adv-x="516" d="M326 0v46l-3 1q-13 -15 -29 -25q-16 -10 -32.5 -16q-16.5 -6 -32.5 -8.5q-16 -2.5 -28 -2.5q-36 0 -66.5 9q-30.5 9 -52.5 27.5q-22 18.5 -34.5 47q-12.5 28.5 -12.5 68.5q0 31 12 59q12 28 34.5 49q22.5 21 56 33q33.5 12 76.5 12h112v16q0 8 -2.5 18.5q-2.5 10.5 -11 19.5q-8.5 9 -25 15.5q-16.5 6.5 -44.5 6.5q-34 0 -63 -8.5q-29 -8.5 -54 -30.5l-69 97q45 41 96.5 53.5q51.5 12.5 104.5 12.5q43 0 81.5 -8q38.5 -8 67 -27.5q28.5 -19.5 45 -52q16.5 -32.5 16.5 -81.5v-331zM326 196h-94q-19 0 -31 -3.5q-12 -3.5 -18.5 -9q-6.5 -5.5 -8.5 -12q-2 -6.5 -2 -12.5q0 -5 2.5 -12.5q2.5 -7.5 9.5 -15q7 -7.5 20.5 -13q13.5 -5.5 35.5 -5.5q33 0 59.5 16q26.5 16 26.5 51zM200 567l85 203l133 -43l-135 -190z" />
<glyph unicode="&#226;" horiz-adv-x="516" d="M326 0v46l-3 1q-13 -15 -29 -25q-16 -10 -32.5 -16q-16.5 -6 -32.5 -8.5q-16 -2.5 -28 -2.5q-36 0 -66.5 9q-30.5 9 -52.5 27.5q-22 18.5 -34.5 47q-12.5 28.5 -12.5 68.5q0 31 12 59q12 28 34.5 49q22.5 21 56 33q33.5 12 76.5 12h112v16q0 8 -2.5 18.5q-2.5 10.5 -11 19.5q-8.5 9 -25 15.5q-16.5 6.5 -44.5 6.5q-34 0 -63 -8.5q-29 -8.5 -54 -30.5l-69 97q45 41 96.5 53.5q51.5 12.5 104.5 12.5q43 0 81.5 -8q38.5 -8 67 -27.5q28.5 -19.5 45 -52q16.5 -32.5 16.5 -81.5v-331zM326 196h-94q-19 0 -31 -3.5q-12 -3.5 -18.5 -9q-6.5 -5.5 -8.5 -12q-2 -6.5 -2 -12.5q0 -5 2.5 -12.5q2.5 -7.5 9.5 -15q7 -7.5 20.5 -13q13.5 -5.5 35.5 -5.5q33 0 59.5 16q26.5 16 26.5 51zM254 625q-36 -26 -72.5 -52q-36.5 -26 -72.5 -51l-53 48l147 155h103l148 -155l-56 -49z" />
<glyph unicode="&#227;" horiz-adv-x="516" d="M326 0v46l-3 1q-13 -15 -29 -25q-16 -10 -32.5 -16q-16.5 -6 -32.5 -8.5q-16 -2.5 -28 -2.5q-36 0 -66.5 9q-30.5 9 -52.5 27.5q-22 18.5 -34.5 47q-12.5 28.5 -12.5 68.5q0 31 12 59q12 28 34.5 49q22.5 21 56 33q33.5 12 76.5 12h112v16q0 8 -2.5 18.5q-2.5 10.5 -11 19.5q-8.5 9 -25 15.5q-16.5 6.5 -44.5 6.5q-34 0 -63 -8.5q-29 -8.5 -54 -30.5l-69 97q45 41 96.5 53.5q51.5 12.5 104.5 12.5q43 0 81.5 -8q38.5 -8 67 -27.5q28.5 -19.5 45 -52q16.5 -32.5 16.5 -81.5v-331zM326 196h-94q-19 0 -31 -3.5q-12 -3.5 -18.5 -9q-6.5 -5.5 -8.5 -12q-2 -6.5 -2 -12.5q0 -5 2.5 -12.5q2.5 -7.5 9.5 -15q7 -7.5 20.5 -13q13.5 -5.5 35.5 -5.5q33 0 59.5 16q26.5 16 26.5 51zM194 711q19 0 38 -8q19 -8 36 -17q17 -9 32 -16.5q15 -7.5 27 -7.5q17 0 32 11q15 11 35 37l68 -40q-26 -58 -56 -83.5q-30 -25.5 -65 -25.5q-20 0 -39.5 7.5q-19.5 7.5 -37 16q-17.5 8.5 -33.5 16q-16 7.5 -30 7.5q-17 0 -34.5 -10.5q-17.5 -10.5 -39.5 -39.5l-65 41q26 54 56.5 83t75.5 29z" />
<glyph unicode="&#228;" horiz-adv-x="516" d="M326 0v46l-3 1q-13 -15 -29 -25q-16 -10 -32.5 -16q-16.5 -6 -32.5 -8.5q-16 -2.5 -28 -2.5q-36 0 -66.5 9q-30.5 9 -52.5 27.5q-22 18.5 -34.5 47q-12.5 28.5 -12.5 68.5q0 31 12 59q12 28 34.5 49q22.5 21 56 33q33.5 12 76.5 12h112v16q0 8 -2.5 18.5q-2.5 10.5 -11 19.5q-8.5 9 -25 15.5q-16.5 6.5 -44.5 6.5q-34 0 -63 -8.5q-29 -8.5 -54 -30.5l-69 97q45 41 96.5 53.5q51.5 12.5 104.5 12.5q43 0 81.5 -8q38.5 -8 67 -27.5q28.5 -19.5 45 -52q16.5 -32.5 16.5 -81.5v-331zM326 196h-94q-19 0 -31 -3.5q-12 -3.5 -18.5 -9q-6.5 -5.5 -8.5 -12q-2 -6.5 -2 -12.5q0 -5 2.5 -12.5q2.5 -7.5 9.5 -15q7 -7.5 20.5 -13q13.5 -5.5 35.5 -5.5q33 0 59.5 16q26.5 16 26.5 51zM294 569v130h149v-130zM76 569v130h148l0 -130z" />
<glyph unicode="&#229;" horiz-adv-x="516" d="M326 0v46l-3 1q-13 -15 -29 -25q-16 -10 -32.5 -16q-16.5 -6 -32.5 -8.5q-16 -2.5 -28 -2.5q-36 0 -66.5 9q-30.5 9 -52.5 27.5q-22 18.5 -34.5 47q-12.5 28.5 -12.5 68.5q0 31 12 59q12 28 34.5 49q22.5 21 56 33q33.5 12 76.5 12h112v16q0 8 -2.5 18.5q-2.5 10.5 -11 19.5q-8.5 9 -25 15.5q-16.5 6.5 -44.5 6.5q-34 0 -63 -8.5q-29 -8.5 -54 -30.5l-69 97q45 41 96.5 53.5q51.5 12.5 104.5 12.5q43 0 81.5 -8q38.5 -8 67 -27.5q28.5 -19.5 45 -52q16.5 -32.5 16.5 -81.5v-331zM326 196h-94q-19 0 -31 -3.5q-12 -3.5 -18.5 -9q-6.5 -5.5 -8.5 -12q-2 -6.5 -2 -12.5q0 -5 2.5 -12.5q2.5 -7.5 9.5 -15q7 -7.5 20.5 -13q13.5 -5.5 35.5 -5.5q33 0 59.5 16q26.5 16 26.5 51zM308 643q0 16 -11.5 26.5q-11.5 10.5 -28.5 10.5q-17 0 -29 -10.5q-12 -10.5 -12 -26.5q0 -16 12 -27q12 -11 29 -11q17 0 28.5 11q11.5 11 11.5 27zt0 0zM143 643q0 24 10 45q10 21 27 37q17 16 39.5 25q22.5 9 48.5 9q25 0 48 -9q23 -9 39.5 -25q16.5 -16 26.5 -37q10 -21 10 -45q0 -24 -10 -45q-10 -21 -27 -37q-17 -16 -39.5 -25q-22.5 -9 -48.5 -9q-26 0 -48.5 9q-22.5 9 -39 25q-16.5 16 -26.5 37t-10 45z" />
<glyph unicode="&#230;" horiz-adv-x="833" d="M477 210q7 -49 31.5 -67.5q24.5 -18.5 60.5 -18.5q19 0 45 8.5q26 8.5 57 36.5l88 -98q-48 -44 -99 -60q-51 -16 -99 -16q-46 0 -93 14q-47 14 -82 51q-28 -26 -70.5 -45.5q-42.5 -19.5 -104.5 -19.5q-36 0 -68 9q-32 9 -56 27.5q-24 18.5 -38 47q-14 28.5 -14 68.5q0 31 12 59q12 28 34.5 49q22.5 21 56 33q33.5 12 76.5 12h112v16q0 8 -3 19.5q-3 11.5 -12 22q-9 10.5 -26 18q-17 7.5 -45 7.5q-42 0 -71.5 -11q-29.5 -11 -51.5 -33l-64 92q19 21 42 34.5q23 13.5 47.5 21q24.5 7.5 50.5 10.5q26 3 52 3q19 0 42 -1.5q23 -1.5 46 -7.5q23 -6 44 -16.5q21 -10.5 36 -28.5q28 29 65.5 41.5q37.5 12.5 72.5 12.5q59 0 102.5 -19q43.5 -19 72 -52.5q28.5 -33.5 42.5 -80.5q14 -47 14 -103v-35zM326 196h-94q-19 0 -31 -3.5q-12 -3.5 -18.5 -9q-6.5 -5.5 -8.5 -12q-2 -6.5 -2 -12.5q0 -5 2.5 -12.5q2.5 -7.5 9.5 -15q7 -7.5 20.5 -13q13.5 -5.5 35.5 -5.5q33 0 59.5 16q26.5 16 26.5 51zM632 302q-4 34 -26.5 51.5q-22.5 17.5 -49.5 17.5q-27 0 -48 -18q-21 -18 -26 -51z" />
<glyph unicode="&#231;" horiz-adv-x="463" d="M197 0q-36 8 -67 27q-31 19 -53.5 49.5q-22.5 30.5 -35.5 72.5q-13 42 -13 98q0 67 19.5 114.5q19.5 47.5 52.5 78.5q33 31 76 45.5q43 14.5 89 14.5q51 0 94 -17q43 -17 81 -55l-92 -97q-23 22 -43.5 31.5q-20.5 9.5 -39.5 9.5q-43 0 -65.5 -29q-22.5 -29 -22.5 -96q0 -66 20 -94.5q20 -28.5 65 -28.5q20 0 42 9.5q22 9.5 46 32.5l94 -96q-79 -71 -177 -76l-10 -30q52 -6 74 -33q22 -27 22 -57q0 -18 -8 -34.5q-8 -16.5 -23.5 -30q-15.5 -13.5 -38 -21.5q-22.5 -8 -50.5 -8q-32 0 -61 7.5q-29 7.5 -51 21.5l25 62q25 -12 41 -15q16 -3 33 -3q16 0 28 7.5q12 7.5 12 22.5q0 10 -5.5 16q-5.5 6 -13 7.5q-7.5 1.5 -15.5 0.5q-8 -1 -14 -4l-39 20z" />
<glyph unicode="&#232;" horiz-adv-x="533" d="M183 210q5 -48 26 -67.5q21 -19.5 57 -19.5q19 0 50 9q31 9 62 37l88 -98q-48 -44 -102 -60.5q-54 -16.5 -102 -16.5q-41 0 -81.5 11.5q-40.5 11.5 -73 40q-32.5 28.5 -52.5 77q-20 48.5 -20 123.5q0 70 19.5 118.5q19.5 48.5 51.5 78.5q32 30 72.5 43.5q40.5 13.5 82.5 13.5q59 0 102 -19q43 -19 71 -52.5q28 -33.5 41.5 -80.5q13.5 -47 13.5 -103v-35zM335 302q-4 34 -25 52.5q-21 18.5 -48 18.5q-27 0 -48 -19q-21 -19 -26 -52zM257 537l-146 186l134 46l93 -194z" />
<glyph unicode="&#233;" horiz-adv-x="533" d="M183 210q5 -48 26 -67.5q21 -19.5 57 -19.5q19 0 50 9q31 9 62 37l88 -98q-48 -44 -102 -60.5q-54 -16.5 -102 -16.5q-41 0 -81.5 11.5q-40.5 11.5 -73 40q-32.5 28.5 -52.5 77q-20 48.5 -20 123.5q0 70 19.5 118.5q19.5 48.5 51.5 78.5q32 30 72.5 43.5q40.5 13.5 82.5 13.5q59 0 102 -19q43 -19 71 -52.5q28 -33.5 41.5 -80.5q13.5 -47 13.5 -103v-35zM335 302q-4 34 -25 52.5q-21 18.5 -48 18.5q-27 0 -48 -19q-21 -19 -26 -52zM195 567l85 203l133 -43l-135 -190z" />
<glyph unicode="&#234;" horiz-adv-x="533" d="M183 210q5 -48 26 -67.5q21 -19.5 57 -19.5q19 0 50 9q31 9 62 37l88 -98q-48 -44 -102 -60.5q-54 -16.5 -102 -16.5q-41 0 -81.5 11.5q-40.5 11.5 -73 40q-32.5 28.5 -52.5 77q-20 48.5 -20 123.5q0 70 19.5 118.5q19.5 48.5 51.5 78.5q32 30 72.5 43.5q40.5 13.5 82.5 13.5q59 0 102 -19q43 -19 71 -52.5q28 -33.5 41.5 -80.5q13.5 -47 13.5 -103v-35zM335 302q-4 34 -25 52.5q-21 18.5 -48 18.5q-27 0 -48 -19q-21 -19 -26 -52zM265 625q-36 -26 -72.5 -52q-36.5 -26 -72.5 -51l-53 48l147 155h103l148 -155l-56 -49z" />
<glyph unicode="&#235;" horiz-adv-x="533" d="M183 210q5 -48 26 -67.5q21 -19.5 57 -19.5q19 0 50 9q31 9 62 37l88 -98q-48 -44 -102 -60.5q-54 -16.5 -102 -16.5q-41 0 -81.5 11.5q-40.5 11.5 -73 40q-32.5 28.5 -52.5 77q-20 48.5 -20 123.5q0 70 19.5 118.5q19.5 48.5 51.5 78.5q32 30 72.5 43.5q40.5 13.5 82.5 13.5q59 0 102 -19q43 -19 71 -52.5q28 -33.5 41.5 -80.5q13.5 -47 13.5 -103v-35zM335 302q-4 34 -25 52.5q-21 18.5 -48 18.5q-27 0 -48 -19q-21 -19 -26 -52zM294 569v130h149v-130zM76 569v130h148l0 -130z" />
<glyph unicode="&#236;" horiz-adv-x="269" d="M114 537l-146 186l134 46l93 -194zM63 0v495h143l0 -495z" />
<glyph unicode="&#237;" horiz-adv-x="269" d="M67 567l85 203l133 -43l-135 -190zM63 0v495h143l0 -495z" />
<glyph unicode="&#238;" horiz-adv-x="357" d="M177 625q-36 -26 -72.5 -52q-36.5 -26 -72.5 -51l-53 48l147 155h103l148 -155l-56 -49zM104 0v495h143l0 -495z" />
<glyph unicode="&#239;" horiz-adv-x="327" d="M198 569v130h149v-130zM-20 569v130h148v-130zM92 0v495h143l0 -495z" />
<glyph unicode="&#240;" horiz-adv-x="537" d="M247 476q18 0 36.5 -5q18.5 -5 34.5 -13q16 -8 29 -18.5q13 -10.5 20 -22.5l2 0q1 0 2 1q-2 35 -9.5 71.5q-7.5 36.5 -27.5 60.5l-49 -42l-46 50l48 42q-26 18 -58 27.5q-32 9.5 -70 12.5l21 111q64 -5 115.5 -22.5q51.5 -17.5 91.5 -52.5l61 53l50 -48l-61 -53q22 -29 35.5 -63.5q13.5 -34.5 21 -73.5q7.5 -39 10 -82q2.5 -43 2.5 -89q0 -66 -14.5 -125q-14.5 -59 -45 -104q-30.5 -45 -79 -71.5q-48.5 -26.5 -116.5 -26.5q-60 0 -102 19q-42 19 -69 52q-27 33 -39 77q-12 44 -12 95q0 40 10 82.5q10 42.5 35 77.5q25 35 67 57.5q42 22.5 106 22.5zt0 0zM253 345q-21 0 -35.5 -9q-14.5 -9 -23.5 -24.5q-9 -15.5 -13 -36.5q-4 -21 -4 -46q0 -23 5.5 -45.5q5.5 -22.5 17.5 -37.5q18 -22 53 -22q20 0 35.5 9.5q15.5 9.5 23.5 22.5q9 15 13 36.5q4 21.5 4 45.5q0 48 -18 77.5t-58 29.5z" />
<glyph unicode="&#241;" horiz-adv-x="551" d="M348 0v292q0 38 -20 57q-20 19 -50 19q-32 0 -53.5 -19q-21.5 -19 -21.5 -57v-292h-143v495h143v-41h2q23 21 57.5 33.5q34.5 12.5 62.5 12.5q81 0 123 -45q42 -45 42 -133v-322zM193 711q19 0 38 -8q19 -8 36 -17q17 -9 32 -16.5q15 -7.5 27 -7.5q17 0 32 11q15 11 35 37l68 -40q-26 -58 -56 -83.5q-30 -25.5 -65 -25.5q-20 0 -39.5 7.5q-19.5 7.5 -37 16q-17.5 8.5 -33.5 16q-16 7.5 -30 7.5q-17 0 -34.5 -10.5q-17.5 -10.5 -39.5 -39.5l-65 41q26 54 56.5 83t75.5 29z" />
<glyph unicode="&#242;" horiz-adv-x="516" d="M265 501q57 0 104 -21q47 -21 75 -62q21 -31 30.5 -75q9.5 -44 8.5 -98q0 -49 -10 -87.5q-10 -38.5 -28 -68.5q-31 -50 -82.5 -73q-51.5 -23 -110.5 -23q-58 0 -103.5 19q-45.5 19 -73.5 60q-23 33 -33 77.5q-10 44.5 -9 98.5q1 38 7 75q6 37 19 64q26 56 81 85q55 29 125 29zt0 0zM260 373q-21 0 -38.5 -11.5q-17.5 -11.5 -27.5 -31.5q-8 -16 -11 -37q-3 -21 -4 -47q0 -26 3 -46.5q3 -20.5 11 -35.5q9 -19 25 -30q16 -11 38 -11q26 0 44.5 14q18.5 14 26.5 40q3 11 6 28.5q3 17.5 3 42.5q1 28 -3 49.5q-4 21.5 -9 32.5q-9 22 -26.5 32.5q-17.5 10.5 -37.5 10.5zt0 0zM258 537l-146 186l134 46l93 -194z" />
<glyph unicode="&#243;" horiz-adv-x="516" d="M265 501q57 0 104 -21q47 -21 75 -62q21 -31 30.5 -75q9.5 -44 8.5 -98q0 -49 -10 -87.5q-10 -38.5 -28 -68.5q-31 -50 -82.5 -73q-51.5 -23 -110.5 -23q-58 0 -103.5 19q-45.5 19 -73.5 60q-23 33 -33 77.5q-10 44.5 -9 98.5q1 38 7 75q6 37 19 64q26 56 81 85q55 29 125 29zt0 0zM260 373q-21 0 -38.5 -11.5q-17.5 -11.5 -27.5 -31.5q-8 -16 -11 -37q-3 -21 -4 -47q0 -26 3 -46.5q3 -20.5 11 -35.5q9 -19 25 -30q16 -11 38 -11q26 0 44.5 14q18.5 14 26.5 40q3 11 6 28.5q3 17.5 3 42.5q1 28 -3 49.5q-4 21.5 -9 32.5q-9 22 -26.5 32.5q-17.5 10.5 -37.5 10.5zt0 0zM204 567l85 203l133 -43l-135 -190z" />
<glyph unicode="&#244;" horiz-adv-x="516" d="M265 501q57 0 104 -21q47 -21 75 -62q21 -31 30.5 -75q9.5 -44 8.5 -98q0 -49 -10 -87.5q-10 -38.5 -28 -68.5q-31 -50 -82.5 -73q-51.5 -23 -110.5 -23q-58 0 -103.5 19q-45.5 19 -73.5 60q-23 33 -33 77.5q-10 44.5 -9 98.5q1 38 7 75q6 37 19 64q26 56 81 85q55 29 125 29zt0 0zM260 373q-21 0 -38.5 -11.5q-17.5 -11.5 -27.5 -31.5q-8 -16 -11 -37q-3 -21 -4 -47q0 -26 3 -46.5q3 -20.5 11 -35.5q9 -19 25 -30q16 -11 38 -11q26 0 44.5 14q18.5 14 26.5 40q3 11 6 28.5q3 17.5 3 42.5q1 28 -3 49.5q-4 21.5 -9 32.5q-9 22 -26.5 32.5q-17.5 10.5 -37.5 10.5zt0 0zM261 625q-36 -26 -72.5 -52q-36.5 -26 -72.5 -51l-53 48l147 155h103l148 -155l-56 -49z" />
<glyph unicode="&#245;" horiz-adv-x="516" d="M265 501q57 0 104 -21q47 -21 75 -62q21 -31 30.5 -75q9.5 -44 8.5 -98q0 -49 -10 -87.5q-10 -38.5 -28 -68.5q-31 -50 -82.5 -73q-51.5 -23 -110.5 -23q-58 0 -103.5 19q-45.5 19 -73.5 60q-23 33 -33 77.5q-10 44.5 -9 98.5q1 38 7 75q6 37 19 64q26 56 81 85q55 29 125 29zt0 0zM260 373q-21 0 -38.5 -11.5q-17.5 -11.5 -27.5 -31.5q-8 -16 -11 -37q-3 -21 -4 -47q0 -26 3 -46.5q3 -20.5 11 -35.5q9 -19 25 -30q16 -11 38 -11q26 0 44.5 14q18.5 14 26.5 40q3 11 6 28.5q3 17.5 3 42.5q1 28 -3 49.5q-4 21.5 -9 32.5q-9 22 -26.5 32.5q-17.5 10.5 -37.5 10.5zt0 0zM191 711q19 0 38 -8q19 -8 36 -17q17 -9 32 -16.5q15 -7.5 27 -7.5q17 0 32 11q15 11 35 37l68 -40q-26 -58 -56 -83.5q-30 -25.5 -65 -25.5q-20 0 -39.5 7.5q-19.5 7.5 -37 16q-17.5 8.5 -33.5 16q-16 7.5 -30 7.5q-17 0 -34.5 -10.5q-17.5 -10.5 -39.5 -39.5l-65 41q26 54 56.5 83t75.5 29z" />
<glyph unicode="&#246;" horiz-adv-x="516" d="M265 501q57 0 104 -21q47 -21 75 -62q21 -31 30.5 -75q9.5 -44 8.5 -98q0 -49 -10 -87.5q-10 -38.5 -28 -68.5q-31 -50 -82.5 -73q-51.5 -23 -110.5 -23q-58 0 -103.5 19q-45.5 19 -73.5 60q-23 33 -33 77.5q-10 44.5 -9 98.5q1 38 7 75q6 37 19 64q26 56 81 85q55 29 125 29zt0 0zM260 373q-21 0 -38.5 -11.5q-17.5 -11.5 -27.5 -31.5q-8 -16 -11 -37q-3 -21 -4 -47q0 -26 3 -46.5q3 -20.5 11 -35.5q9 -19 25 -30q16 -11 38 -11q26 0 44.5 14q18.5 14 26.5 40q3 11 6 28.5q3 17.5 3 42.5q1 28 -3 49.5q-4 21.5 -9 32.5q-9 22 -26.5 32.5q-17.5 10.5 -37.5 10.5zt0 0zM294 569v130h149v-130zM76 569v130h148l0 -130z" />
<glyph unicode="&#247;" horiz-adv-x="550" d="M364 505q0 -35 -26 -59q-26 -24 -63 -24q-37 0 -63 24q-26 24 -26 59q0 18 7 33q7 15 19 26.5q12 11.5 28.5 18q16.5 6.5 34.5 6.5q18 0 34.5 -6.5q16.5 -6.5 28.5 -18q12 -11.5 19 -26.5q7 -15 7 -33zt0 0zM18 240v116h514v-116zM364 81q0 -18 -7 -33q-7 -15 -19 -26.5q-12 -11.5 -28.5 -18q-16.5 -6.5 -34.5 -6.5q-18 0 -34.5 6.5q-16.5 6.5 -28.5 18q-12 11.5 -19 26.5q-7 15 -7 33q0 35 26 59q26 24 63 24q37 0 63 -24t26 -59z" />
<glyph unicode="&#248;" horiz-adv-x="516" d="M265 501q43 0 80.5 -12q37.5 -12 66.5 -36l43 50l33 -29l-47 -53l3 -3q21 -31 30.5 -75q9.5 -44 8.5 -98q0 -49 -10 -87.5q-10 -38.5 -28 -68.5q-31 -50 -82.5 -73q-51.5 -23 -110.5 -23q-45 0 -82 11q-37 11 -65 34l-40 -46l-32 27l44 50q-2 2 -2 3q-23 33 -33 77.5q-10 44.5 -9 98.5q1 38 7 75q6 37 19 64q26 56 81 85q55 29 125 29zt0 0zM260 373q-21 0 -38.5 -11.5q-17.5 -11.5 -27.5 -31.5q-8 -16 -11 -37q-3 -21 -4 -47q0 -34 4 -54l133 152q-10 14 -24.5 21.5q-14.5 7.5 -31.5 7.5zt0 0zM336 248q0 28 -3 49l-131 -149q20 -25 54 -25q26 0 44.5 14q18.5 14 26.5 40q3 11 6 28.5t3 42.5z" />
<glyph unicode="&#249;" horiz-adv-x="551" d="M204 495v-293q0 -38 19.5 -57q19.5 -19 49.5 -19q32 0 54 19q22 19 22 57v293h143v-495h-143v42h-2q-10 -12 -24.5 -21q-14.5 -9 -30.5 -15q-16 -6 -32 -9q-16 -3 -30 -3q-78 0 -123.5 45q-45.5 45 -45.5 133v323zM266 537l-146 186l134 46l93 -194z" />
<glyph unicode="&#250;" horiz-adv-x="551" d="M204 495v-293q0 -38 19.5 -57q19.5 -19 49.5 -19q32 0 54 19q22 19 22 57v293h143v-495h-143v42h-2q-10 -12 -24.5 -21q-14.5 -9 -30.5 -15q-16 -6 -32 -9q-16 -3 -30 -3q-78 0 -123.5 45q-45.5 45 -45.5 133v323zM219 567l85 203l133 -43l-135 -190z" />
<glyph unicode="&#251;" horiz-adv-x="551" d="M204 495v-293q0 -38 19.5 -57q19.5 -19 49.5 -19q32 0 54 19q22 19 22 57v293h143v-495h-143v42h-2q-10 -12 -24.5 -21q-14.5 -9 -30.5 -15q-16 -6 -32 -9q-16 -3 -30 -3q-78 0 -123.5 45q-45.5 45 -45.5 133v323zM274 625q-36 -26 -72.5 -52q-36.5 -26 -72.5 -51l-53 48l147 155h103l148 -155l-56 -49z" />
<glyph unicode="&#252;" horiz-adv-x="551" d="M204 495v-293q0 -38 19.5 -57q19.5 -19 49.5 -19q32 0 54 19q22 19 22 57v293h143v-495h-143v42h-2q-10 -12 -24.5 -21q-14.5 -9 -30.5 -15q-16 -6 -32 -9q-16 -3 -30 -3q-78 0 -123.5 45q-45.5 45 -45.5 133v323zM306 569v130h149v-130zM88 569v130h148l0 -130z" />
<glyph unicode="&#253;" horiz-adv-x="502" d="M278 -96q-23 -60 -65 -82q-42 -22 -92 -22h-57v117h37q23 0 36.5 14.5q13.5 14.5 20.5 34.5l24 74l-182 455h153l48 -141l48 -156h4l47 154l50 143h152zM206 567l85 203l133 -43l-135 -190z" />
<glyph unicode="&#254;" horiz-adv-x="533" d="M205 727v-267l3 -1q21 23 46 31.5q25 8.5 52 8.5q64 0 102 -26q38 -26 57.5 -65.5q19.5 -39.5 25 -85.5q5.5 -46 5.5 -86q0 -38 -7.5 -80.5q-7.5 -42.5 -29 -78.5q-21.5 -36 -59.5 -59.5q-38 -23.5 -99 -23.5q-25 0 -50.5 12.5q-25.5 12.5 -42.5 32.5l-3 -1v-240h-142v929zM205 246q0 -19 2 -40.5q2 -21.5 9.5 -39.5q7.5 -18 21.5 -30q14 -12 39 -12q25 0 39.5 11.5q14.5 11.5 22 29.5q7.5 18 9.5 39.5q2 21.5 2 41.5q0 19 -1.5 40.5q-1.5 21.5 -8.5 40q-7 18.5 -22 30.5q-15 12 -41 12q-26 0 -40 -12.5q-14 -12.5 -21.5 -31q-7.5 -18.5 -9 -40t-1.5 -39.5z" />
<glyph unicode="&#255;" horiz-adv-x="502" d="M278 -96q-23 -60 -65 -82q-42 -22 -92 -22h-57v117h37q23 0 36.5 14.5q13.5 14.5 20.5 34.5l24 74l-182 455h153l48 -141l48 -156h4l47 154l50 143h152zM277 569v130h149v-130zM59 569v130h148l0 -130z" />
<glyph unicode="&#256;" horiz-adv-x="660" d="M497 0l-52 142h-233l-52 -142h-162l270 696h121l270 -696zM371 352l-41 138h-4l-40 -136l-26 -82h137zM163 758v118h333l0 -118z" />
<glyph unicode="&#257;" horiz-adv-x="516" d="M326 0v46l-3 1q-13 -15 -29 -25q-16 -10 -32.5 -16q-16.5 -6 -32.5 -8.5q-16 -2.5 -28 -2.5q-36 0 -66.5 9q-30.5 9 -52.5 27.5q-22 18.5 -34.5 47q-12.5 28.5 -12.5 68.5q0 31 12 59q12 28 34.5 49q22.5 21 56 33q33.5 12 76.5 12h112v16q0 8 -2.5 18.5q-2.5 10.5 -11 19.5q-8.5 9 -25 15.5q-16.5 6.5 -44.5 6.5q-34 0 -63 -8.5q-29 -8.5 -54 -30.5l-69 97q45 41 96.5 53.5q51.5 12.5 104.5 12.5q43 0 81.5 -8q38.5 -8 67 -27.5q28.5 -19.5 45 -52q16.5 -32.5 16.5 -81.5v-331zM326 196h-94q-19 0 -31 -3.5q-12 -3.5 -18.5 -9q-6.5 -5.5 -8.5 -12q-2 -6.5 -2 -12.5q0 -5 2.5 -12.5q2.5 -7.5 9.5 -15q7 -7.5 20.5 -13q13.5 -5.5 35.5 -5.5q33 0 59.5 16q26.5 16 26.5 51zM92 578v118h333l0 -118z" />
<glyph unicode="&#258;" horiz-adv-x="660" d="M497 0l-52 142h-233l-52 -142h-162l270 696h121l270 -696zM371 352l-41 138h-4l-40 -136l-26 -82h137zM328 731q-43 0 -72 16.5q-29 16.5 -46.5 41q-17.5 24.5 -26 52.5q-8.5 28 -11.5 51l100 0q0 -10 3.5 -21.5q3.5 -11.5 10.5 -22q7 -10.5 17.5 -17.5q10.5 -7 24.5 -7q14 0 24.5 7q10.5 7 17.5 17.5q7 10.5 10.5 22q3.5 11.5 3.5 21.5l100 0q-3 -23 -11.5 -51q-8.5 -28 -26 -52.5q-17.5 -24.5 -46.5 -41t-72 -16.5z" />
<glyph unicode="&#259;" horiz-adv-x="516" d="M326 0v46l-3 1q-13 -15 -29 -25q-16 -10 -32.5 -16q-16.5 -6 -32.5 -8.5q-16 -2.5 -28 -2.5q-36 0 -66.5 9q-30.5 9 -52.5 27.5q-22 18.5 -34.5 47q-12.5 28.5 -12.5 68.5q0 31 12 59q12 28 34.5 49q22.5 21 56 33q33.5 12 76.5 12h112v16q0 8 -2.5 18.5q-2.5 10.5 -11 19.5q-8.5 9 -25 15.5q-16.5 6.5 -44.5 6.5q-34 0 -63 -8.5q-29 -8.5 -54 -30.5l-69 97q45 41 96.5 53.5q51.5 12.5 104.5 12.5q43 0 81.5 -8q38.5 -8 67 -27.5q28.5 -19.5 45 -52q16.5 -32.5 16.5 -81.5v-331zM326 196h-94q-19 0 -31 -3.5q-12 -3.5 -18.5 -9q-6.5 -5.5 -8.5 -12q-2 -6.5 -2 -12.5q0 -5 2.5 -12.5q2.5 -7.5 9.5 -15q7 -7.5 20.5 -13q13.5 -5.5 35.5 -5.5q33 0 59.5 16q26.5 16 26.5 51zM266 561q-43 0 -72 16.5q-29 16.5 -46.5 41q-17.5 24.5 -26 52.5q-8.5 28 -11.5 51l100 0q0 -10 3.5 -21.5q3.5 -11.5 10.5 -22q7 -10.5 17.5 -17.5q10.5 -7 24.5 -7q14 0 24.5 7q10.5 7 17.5 17.5q7 10.5 10.5 22q3.5 11.5 3.5 21.5l100 0q-3 -23 -11.5 -51q-8.5 -28 -26 -52.5q-17.5 -24.5 -46.5 -41t-72 -16.5z" />
<glyph unicode="&#260;" horiz-adv-x="660" d="M454 -104q0 22 9.5 46q9.5 24 32.5 59l-51 141h-233l-52 -142h-162l270 696h121l270 -696h-70q-23 -32 -33.5 -53q-10.5 -21 -10.5 -36q0 -27 32 -27q9 0 25 3.5q16 3.5 39 11.5l28 -70q-26 -14 -54 -22.5q-28 -8.5 -54 -8.5q-48 0 -77.5 29q-29.5 29 -29.5 69zt0 0zM371 352l-41 138h-4l-40 -136l-26 -82l137 0z" />
<glyph unicode="&#261;" horiz-adv-x="516" d="M284 -104q0 22 9 46q9 24 33 59l0 45l-3 1q-13 -15 -29 -25q-16 -10 -32.5 -16q-16.5 -6 -32.5 -8.5q-16 -2.5 -28 -2.5q-36 0 -66.5 9q-30.5 9 -52.5 27.5q-22 18.5 -34.5 47q-12.5 28.5 -12.5 68.5q0 31 12 59q12 28 34.5 49q22.5 21 56 33q33.5 12 76.5 12h112v16q0 8 -2.5 18.5q-2.5 10.5 -11 19.5q-8.5 9 -25 15.5q-16.5 6.5 -44.5 6.5q-34 0 -63 -8.5q-29 -8.5 -54 -30.5l-69 97q45 41 96.5 53.5q51.5 12.5 104.5 12.5q43 0 81.5 -8q38.5 -8 67 -27.5q28.5 -19.5 45 -52q16.5 -32.5 16.5 -81.5v-331h-49q-23 -32 -33.5 -53q-10.5 -21 -10.5 -36q0 -27 32 -27q9 0 25 3.5q16 3.5 39 11.5l28 -70q-26 -14 -54 -22.5q-28 -8.5 -54 -8.5q-48 0 -77.5 29q-29.5 29 -29.5 69zt0 0zM326 196h-94q-19 0 -31 -3.5q-12 -3.5 -18.5 -9q-6.5 -5.5 -8.5 -12q-2 -6.5 -2 -12.5q0 -5 2.5 -12.5q2.5 -7.5 9.5 -15q7 -7.5 20.5 -13q13.5 -5.5 35.5 -5.5q33 0 59.5 16q26.5 16 26.5 51z" />
<glyph unicode="&#262;" horiz-adv-x="600" d="M181 802l180 128l90 -107l-214 -90zM573 169q-26 -82 -93.5 -128.5q-67.5 -46.5 -165.5 -46.5q-68 0 -118.5 20q-50.5 20 -84 56q-33.5 36 -50 86q-16.5 50 -16.5 110v164q0 54 16.5 103q16.5 49 50 86.5q33.5 37.5 84 59.5q50.5 22 118.5 22q100 0 166.5 -48.5q66.5 -48.5 92.5 -128.5l-146 -52q-8 36 -37 60.5q-29 24.5 -77 24.5q-29 0 -50 -9.5q-21 -9.5 -35 -25.5q-14 -16 -21 -36.5q-7 -20.5 -7 -41.5v-189q0 -23 7 -44q7 -21 21 -37q14 -16 35 -26q21 -10 50 -10q47 0 76.5 24.5q29.5 24.5 37.5 62.5z" />
<glyph unicode="&#263;" horiz-adv-x="463" d="M444 70q-41 -37 -88.5 -56.5q-47.5 -19.5 -98.5 -19.5q-46 0 -87.5 14.5q-41.5 14.5 -73 45.5q-31.5 31 -50 79q-18.5 48 -18.5 114q0 67 19.5 114.5q19.5 47.5 52.5 78.5q33 31 76 45.5q43 14.5 89 14.5q51 0 94 -17q43 -17 81 -55l-92 -97q-23 22 -43.5 31.5q-20.5 9.5 -39.5 9.5q-43 0 -65.5 -29q-22.5 -29 -22.5 -96q0 -66 20 -94.5q20 -28.5 65 -28.5q20 0 42 9.5q22 9.5 46 32.5zM183 567l85 203l133 -43l-135 -190z" />
<glyph unicode="&#264;" horiz-adv-x="600" d="M573 169q-26 -82 -93.5 -128.5q-67.5 -46.5 -165.5 -46.5q-68 0 -118.5 20q-50.5 20 -84 56q-33.5 36 -50 86q-16.5 50 -16.5 110v164q0 54 16.5 103q16.5 49 50 86.5q33.5 37.5 84 59.5q50.5 22 118.5 22q100 0 166.5 -48.5q66.5 -48.5 92.5 -128.5l-146 -52q-8 36 -37 60.5q-29 24.5 -77 24.5q-29 0 -50 -9.5q-21 -9.5 -35 -25.5q-14 -16 -21 -36.5q-7 -20.5 -7 -41.5v-189q0 -23 7 -44q7 -21 21 -37q14 -16 35 -26q21 -10 50 -10q47 0 76.5 24.5q29.5 24.5 37.5 62.5zM309 805l-150 -78l-48 58l149 120h98l151 -120l-51 -59z" />
<glyph unicode="&#265;" horiz-adv-x="463" d="M444 70q-41 -37 -88.5 -56.5q-47.5 -19.5 -98.5 -19.5q-46 0 -87.5 14.5q-41.5 14.5 -73 45.5q-31.5 31 -50 79q-18.5 48 -18.5 114q0 67 19.5 114.5q19.5 47.5 52.5 78.5q33 31 76 45.5q43 14.5 89 14.5q51 0 94 -17q43 -17 81 -55l-92 -97q-23 22 -43.5 31.5q-20.5 9.5 -39.5 9.5q-43 0 -65.5 -29q-22.5 -29 -22.5 -96q0 -66 20 -94.5q20 -28.5 65 -28.5q20 0 42 9.5q22 9.5 46 32.5zM254 625q-36 -26 -66 -47q-30 -21 -66 -46l-53 48l134 145h103l136 -143l-56 -49z" />
<glyph unicode="&#266;" horiz-adv-x="600" d="M573 169q-26 -82 -93.5 -128.5q-67.5 -46.5 -165.5 -46.5q-68 0 -118.5 20q-50.5 20 -84 56q-33.5 36 -50 86q-16.5 50 -16.5 110v164q0 54 16.5 103q16.5 49 50 86.5q33.5 37.5 84 59.5q50.5 22 118.5 22q100 0 166.5 -48.5q66.5 -48.5 92.5 -128.5l-146 -52q-8 36 -37 60.5q-29 24.5 -77 24.5q-29 0 -50 -9.5q-21 -9.5 -35 -25.5q-14 -16 -21 -36.5q-7 -20.5 -7 -41.5v-189q0 -23 7 -44q7 -21 21 -37q14 -16 35 -26q21 -10 50 -10q47 0 76.5 24.5q29.5 24.5 37.5 62.5zM249 749v130h148l0 -130z" />
<glyph unicode="&#267;" horiz-adv-x="463" d="M444 70q-41 -37 -88.5 -56.5q-47.5 -19.5 -98.5 -19.5q-46 0 -87.5 14.5q-41.5 14.5 -73 45.5q-31.5 31 -50 79q-18.5 48 -18.5 114q0 67 19.5 114.5q19.5 47.5 52.5 78.5q33 31 76 45.5q43 14.5 89 14.5q51 0 94 -17q43 -17 81 -55l-92 -97q-23 22 -43.5 31.5q-20.5 9.5 -39.5 9.5q-43 0 -65.5 -29q-22.5 -29 -22.5 -96q0 -66 20 -94.5q20 -28.5 65 -28.5q20 0 42 9.5q22 9.5 46 32.5zM178 569v130h148l0 -130z" />
<glyph unicode="&#268;" horiz-adv-x="600" d="M573 169q-26 -82 -93.5 -128.5q-67.5 -46.5 -165.5 -46.5q-68 0 -118.5 20q-50.5 20 -84 56q-33.5 36 -50 86q-16.5 50 -16.5 110v164q0 54 16.5 103q16.5 49 50 86.5q33.5 37.5 84 59.5q50.5 22 118.5 22q100 0 166.5 -48.5q66.5 -48.5 92.5 -128.5l-146 -52q-8 36 -37 60.5q-29 24.5 -77 24.5q-29 0 -50 -9.5q-21 -9.5 -35 -25.5q-14 -16 -21 -36.5q-7 -20.5 -7 -41.5v-189q0 -23 7 -44q7 -21 21 -37q14 -16 35 -26q21 -10 50 -10q47 0 76.5 24.5q29.5 24.5 37.5 62.5zM459 908l51 -59l-151 -120h-98l-149 120l48 58l150 -78z" />
<glyph unicode="&#269;" horiz-adv-x="463" d="M444 70q-41 -37 -88.5 -56.5q-47.5 -19.5 -98.5 -19.5q-46 0 -87.5 14.5q-41.5 14.5 -73 45.5q-31.5 31 -50 79q-18.5 48 -18.5 114q0 67 19.5 114.5q19.5 47.5 52.5 78.5q33 31 76 45.5q43 14.5 89 14.5q51 0 94 -17q43 -17 81 -55l-92 -97q-23 22 -43.5 31.5q-20.5 9.5 -39.5 9.5q-43 0 -65.5 -29q-22.5 -29 -22.5 -96q0 -66 20 -94.5q20 -28.5 65 -28.5q20 0 42 9.5q22 9.5 46 32.5zM386 727l56 -49l-136 -143h-103l-134 145l53 48q36 -25 66 -46q30 -21 66 -47z" />
<glyph unicode="&#270;" horiz-adv-x="657" d="M224 138h101q39 0 64.5 10.5q25.5 10.5 40.5 30q15 19.5 21.5 47q6.5 27.5 6.5 61.5v127q0 72 -31.5 107.5q-31.5 35.5 -104.5 35.5h-98zM347 696q78 0 141 -30q63 -30 96 -99q19 -38 23 -90q4 -52 4 -117q0 -73 -4 -127q-4 -54 -21 -95q-17 -39 -43.5 -65.5q-26.5 -26.5 -59.5 -42.5q-33 -16 -72 -23q-39 -7 -81 -7h-260v696zM474 908l51 -59l-151 -120h-98l-149 120l48 58l150 -78z" />
<glyph unicode="&#271;" horiz-adv-x="704" d="M542 469l35 108h-33v151h154v-143l-89 -116zM340 0v39l-2 2q-22 -23 -52 -34.5q-30 -11.5 -57 -11.5q-64 0 -100 26q-36 26 -54 65.5q-18 39.5 -22 85.5q-4 46 -4 86q0 37 8 79.5q8 42.5 28.5 79q20.5 36.5 56 60.5q35.5 24 91.5 24q29 0 57 -11.5q28 -11.5 48 -34.5l2 1v270h143v-726zM340 248q0 19 -2 40q-2 21 -9 39q-7 18 -21 29.5q-14 11.5 -39 11.5q-27 0 -42 -13q-15 -13 -22 -33q-7 -20 -8.5 -43.5q-1.5 -23.5 -1.5 -43.5q0 -18 2.5 -37.5q2.5 -19.5 10 -35q7.5 -15.5 22 -25.5q14.5 -10 38.5 -10q25 0 39.5 12q14.5 12 21.5 30.5q7 18.5 9 39.5t2 39z" />
<glyph unicode="&#272;" horiz-adv-x="657" d="M6 407h64v289h277q78 0 141 -30q63 -30 96 -99q19 -38 23 -90q4 -52 4 -117q0 -73 -4 -127q-4 -54 -21 -95q-17 -39 -43.5 -65.5q-26.5 -26.5 -59.5 -42.5q-33 -16 -72 -23q-39 -7 -81 -7h-260v300h-64zM224 407h109v-107h-109v-162h101q39 0 64.5 10.5q25.5 10.5 40.5 30q15 19.5 21.5 47q6.5 27.5 6.5 61.5v127q0 72 -31.5 107.5q-31.5 35.5 -104.5 35.5l-98 0z" />
<glyph unicode="&#273;" horiz-adv-x="533" d="M226 631h114v95h143v-95h50v-87h-50v-544h-143v39l-2 2q-22 -23 -52 -34.5q-30 -11.5 -57 -11.5q-64 0 -100 26q-36 26 -54 65.5q-18 39.5 -22 85.5q-4 46 -4 86q0 37 8 79.5q8 42.5 28.5 79q20.5 36.5 56 60.5q35.5 24 91.5 24q29 0 57 -11.5q28 -11.5 48 -34.5l2 1v88h-114zM340 248q0 19 -2 40q-2 21 -9 39q-7 18 -21 29.5q-14 11.5 -39 11.5q-27 0 -42 -13q-15 -13 -22 -33q-7 -20 -8.5 -43.5q-1.5 -23.5 -1.5 -43.5q0 -18 2.5 -37.5q2.5 -19.5 10 -35q7.5 -15.5 22 -25.5q14.5 -10 38.5 -10q25 0 39.5 12q14.5 12 21.5 30.5q7 18.5 9 39.5t2 39z" />
<glyph unicode="&#274;" horiz-adv-x="585" d="M70 0v696h492v-138h-338v-141h288v-133h-288v-146h338v-138zM143 758v118h333l0 -118z" />
<glyph unicode="&#275;" horiz-adv-x="533" d="M183 210q5 -48 26 -67.5q21 -19.5 57 -19.5q19 0 50 9q31 9 62 37l88 -98q-48 -44 -102 -60.5q-54 -16.5 -102 -16.5q-41 0 -81.5 11.5q-40.5 11.5 -73 40q-32.5 28.5 -52.5 77q-20 48.5 -20 123.5q0 70 19.5 118.5q19.5 48.5 51.5 78.5q32 30 72.5 43.5q40.5 13.5 82.5 13.5q59 0 102 -19q43 -19 71 -52.5q28 -33.5 41.5 -80.5q13.5 -47 13.5 -103v-35zM335 302q-4 34 -25 52.5q-21 18.5 -48 18.5q-27 0 -48 -19q-21 -19 -26 -52zM102 578v118h333l0 -118z" />
<glyph unicode="&#276;" horiz-adv-x="585" d="M70 0v696h492v-138h-338v-141h288v-133h-288v-146h338v-138zM318 731q-43 0 -72 16.5q-29 16.5 -46.5 41q-17.5 24.5 -26 52.5q-8.5 28 -11.5 51l100 0q0 -10 3.5 -21.5q3.5 -11.5 10.5 -22q7 -10.5 17.5 -17.5q10.5 -7 24.5 -7q14 0 24.5 7q10.5 7 17.5 17.5q7 10.5 10.5 22q3.5 11.5 3.5 21.5l100 0q-3 -23 -11.5 -51q-8.5 -28 -26 -52.5q-17.5 -24.5 -46.5 -41t-72 -16.5z" />
<glyph unicode="&#277;" horiz-adv-x="533" d="M183 210q5 -48 26 -67.5q21 -19.5 57 -19.5q19 0 50 9q31 9 62 37l88 -98q-48 -44 -102 -60.5q-54 -16.5 -102 -16.5q-41 0 -81.5 11.5q-40.5 11.5 -73 40q-32.5 28.5 -52.5 77q-20 48.5 -20 123.5q0 70 19.5 118.5q19.5 48.5 51.5 78.5q32 30 72.5 43.5q40.5 13.5 82.5 13.5q59 0 102 -19q43 -19 71 -52.5q28 -33.5 41.5 -80.5q13.5 -47 13.5 -103v-35zM335 302q-4 34 -25 52.5q-21 18.5 -48 18.5q-27 0 -48 -19q-21 -19 -26 -52zM266 561q-43 0 -72 16.5q-29 16.5 -46.5 41q-17.5 24.5 -26 52.5q-8.5 28 -11.5 51l100 0q0 -10 3.5 -21.5q3.5 -11.5 10.5 -22q7 -10.5 17.5 -17.5q10.5 -7 24.5 -7q14 0 24.5 7q10.5 7 17.5 17.5q7 10.5 10.5 22q3.5 11.5 3.5 21.5l100 0q-3 -23 -11.5 -51q-8.5 -28 -26 -52.5q-17.5 -24.5 -46.5 -41t-72 -16.5z" />
<glyph unicode="&#278;" horiz-adv-x="585" d="M70 0v696h492v-138h-338v-141h288v-133h-288v-146h338v-138zM244 749v130h148l0 -130z" />
<glyph unicode="&#279;" horiz-adv-x="533" d="M183 210q5 -48 26 -67.5q21 -19.5 57 -19.5q19 0 50 9q31 9 62 37l88 -98q-48 -44 -102 -60.5q-54 -16.5 -102 -16.5q-41 0 -81.5 11.5q-40.5 11.5 -73 40q-32.5 28.5 -52.5 77q-20 48.5 -20 123.5q0 70 19.5 118.5q19.5 48.5 51.5 78.5q32 30 72.5 43.5q40.5 13.5 82.5 13.5q59 0 102 -19q43 -19 71 -52.5q28 -33.5 41.5 -80.5q13.5 -47 13.5 -103v-35zM335 302q-4 34 -25 52.5q-21 18.5 -48 18.5q-27 0 -48 -19q-21 -19 -26 -52zM197 569v130h148l0 -130z" />
<glyph unicode="&#280;" horiz-adv-x="585" d="M427 -104q0 21 9 45.5q9 24.5 32 58.5l-398 0v696h492v-138h-338v-141h288v-133h-288v-146h338v-138q-23 -32 -33.5 -53q-10.5 -21 -10.5 -36q0 -27 32 -27q9 0 25 3.5q16 3.5 39 11.5l28 -70q-26 -14 -54 -22.5q-28 -8.5 -54 -8.5q-48 0 -77.5 29t-29.5 69z" />
<glyph unicode="&#281;" horiz-adv-x="533" d="M280 -70q0 15 4 30.5q4 15.5 14 35.5q-9 -1 -18.5 -1.5q-9.5 -0.5 -17.5 -0.5q-41 0 -81.5 11.5q-40.5 11.5 -73 40q-32.5 28.5 -52.5 77q-20 48.5 -20 123.5q0 70 19.5 118.5q19.5 48.5 51.5 78.5q32 30 72.5 43.5q40.5 13.5 82.5 13.5q59 0 102 -19q43 -19 71 -52.5q28 -33.5 41.5 -80.5q13.5 -47 13.5 -103v-35h-306q5 -48 26 -67.5q21 -19.5 57 -19.5q19 0 50 9q31 9 62 37l88 -98q-13 -11 -25.5 -20.5q-12.5 -9.5 -26.5 -17.5q-23 -31 -33 -52q-10 -21 -10 -36q0 -27 32 -27q9 0 25 3.5q16 3.5 39 11.5l28 -70q-26 -14 -54 -22.5q-28 -8.5 -54 -8.5q-48 0 -77.5 29q-29.5 29 -29.5 69zt0 0zM335 302q-4 34 -25 52.5q-21 18.5 -48 18.5q-27 0 -48 -19q-21 -19 -26 -52z" />
<glyph unicode="&#282;" horiz-adv-x="585" d="M70 0v696h492v-138h-338v-141h288v-133h-288v-146h338v-138zM462 908l51 -59l-151 -120h-98l-149 120l48 58l150 -78z" />
<glyph unicode="&#283;" horiz-adv-x="533" d="M183 210q5 -48 26 -67.5q21 -19.5 57 -19.5q19 0 50 9q31 9 62 37l88 -98q-48 -44 -102 -60.5q-54 -16.5 -102 -16.5q-41 0 -81.5 11.5q-40.5 11.5 -73 40q-32.5 28.5 -52.5 77q-20 48.5 -20 123.5q0 70 19.5 118.5q19.5 48.5 51.5 78.5q32 30 72.5 43.5q40.5 13.5 82.5 13.5q59 0 102 -19q43 -19 71 -52.5q28 -33.5 41.5 -80.5q13.5 -47 13.5 -103v-35zM335 302q-4 34 -25 52.5q-21 18.5 -48 18.5q-27 0 -48 -19q-21 -19 -26 -52zM410 725l56 -49l-148 -155h-103l-147 155l53 48q36 -25 72.5 -51q36.5 -26 72.5 -52z" />
<glyph unicode="&#284;" horiz-adv-x="637" d="M318 701q100 0 166.5 -48.5q66.5 -48.5 92.5 -128.5l-146 -52q-8 36 -37 60.5q-29 24.5 -77 24.5q-29 0 -50 -9.5q-21 -9.5 -35 -25.5q-14 -16 -21 -36.5q-7 -20.5 -7 -41.5v-189q0 -23 7 -44q7 -21 21 -37.5q14 -16.5 35.5 -26.5q21.5 -10 50.5 -10q25 0 46.5 9.5q21.5 9.5 38 25.5q16.5 16 26 37q9.5 21 9.5 45v5h-142v128h294v-139q0 -55 -21.5 -101.5q-21.5 -46.5 -58.5 -80.5q-37 -34 -86.5 -53q-49.5 -19 -105.5 -19q-68 0 -118.5 20q-50.5 20 -84 56q-33.5 36 -50 86q-16.5 50 -16.5 110v164q0 54 16.5 103q16.5 49 50 86.5q33.5 37.5 84 59.5q50.5 22 118.5 22zt0 0zM309 805l-150 -78l-48 58l149 120h98l151 -120l-51 -59z" />
<glyph unicode="&#285;" horiz-adv-x="533" d="M474 13q0 -59 -19.5 -101q-19.5 -42 -51.5 -68.5q-32 -26.5 -74 -38.5q-42 -12 -87 -12q-45 0 -92 13q-47 13 -92 51l70 99q30 -20 61.5 -27.5q31.5 -7.5 51.5 -7.5q37 0 64 20.5q27 20.5 27 59.5v39l-2 1q-9 -11 -21.5 -19.5q-12.5 -8.5 -26.5 -14.5q-14 -6 -28.5 -9.5q-14.5 -3.5 -26.5 -3.5q-62 0 -99 23.5q-37 23.5 -56.5 59.5q-19.5 36 -25.5 78.5q-6 42.5 -6 80.5q0 40 5.5 86q5.5 46 25 85.5q19.5 39.5 56 65.5q36.5 26 99.5 26q28 0 54 -8q26 -8 49 -32l2 1v35h143zM331 246q0 18 -1.5 39q-1.5 21 -8.5 39.5q-7 18.5 -21.5 30.5q-14.5 12 -39.5 12q-26 0 -41 -11.5q-15 -11.5 -22.5 -29.5q-7.5 -18 -9 -39.5q-1.5 -21.5 -1.5 -40.5q0 -20 2 -41q2 -21 9.5 -38.5q7.5 -17.5 22 -29q14.5 -11.5 40.5 -11.5q25 0 39 11.5q14 11.5 21 29.5q7 18 9 39q2 21 2 40zt0 0zM264 625q-36 -26 -72.5 -52q-36.5 -26 -72.5 -51l-53 48l147 155h103l148 -155l-56 -49z" />
<glyph unicode="&#286;" horiz-adv-x="637" d="M318 701q100 0 166.5 -48.5q66.5 -48.5 92.5 -128.5l-146 -52q-8 36 -37 60.5q-29 24.5 -77 24.5q-29 0 -50 -9.5q-21 -9.5 -35 -25.5q-14 -16 -21 -36.5q-7 -20.5 -7 -41.5v-189q0 -23 7 -44q7 -21 21 -37.5q14 -16.5 35.5 -26.5q21.5 -10 50.5 -10q25 0 46.5 9.5q21.5 9.5 38 25.5q16.5 16 26 37q9.5 21 9.5 45v5h-142v128h294v-139q0 -55 -21.5 -101.5q-21.5 -46.5 -58.5 -80.5q-37 -34 -86.5 -53q-49.5 -19 -105.5 -19q-68 0 -118.5 20q-50.5 20 -84 56q-33.5 36 -50 86q-16.5 50 -16.5 110v164q0 54 16.5 103q16.5 49 50 86.5q33.5 37.5 84 59.5q50.5 22 118.5 22zt0 0zM316 731q-43 0 -72 16.5q-29 16.5 -46.5 41q-17.5 24.5 -26 52.5q-8.5 28 -11.5 51l100 0q0 -10 3.5 -21.5q3.5 -11.5 10.5 -22q7 -10.5 17.5 -17.5q10.5 -7 24.5 -7q14 0 24.5 7q10.5 7 17.5 17.5q7 10.5 10.5 22q3.5 11.5 3.5 21.5l100 0q-3 -23 -11.5 -51q-8.5 -28 -26 -52.5q-17.5 -24.5 -46.5 -41t-72 -16.5z" />
<glyph unicode="&#287;" horiz-adv-x="533" d="M474 13q0 -59 -19.5 -101q-19.5 -42 -51.5 -68.5q-32 -26.5 -74 -38.5q-42 -12 -87 -12q-45 0 -92 13q-47 13 -92 51l70 99q30 -20 61.5 -27.5q31.5 -7.5 51.5 -7.5q37 0 64 20.5q27 20.5 27 59.5v39l-2 1q-9 -11 -21.5 -19.5q-12.5 -8.5 -26.5 -14.5q-14 -6 -28.5 -9.5q-14.5 -3.5 -26.5 -3.5q-62 0 -99 23.5q-37 23.5 -56.5 59.5q-19.5 36 -25.5 78.5q-6 42.5 -6 80.5q0 40 5.5 86q5.5 46 25 85.5q19.5 39.5 56 65.5q36.5 26 99.5 26q28 0 54 -8q26 -8 49 -32l2 1v35h143zM331 246q0 18 -1.5 39q-1.5 21 -8.5 39.5q-7 18.5 -21.5 30.5q-14.5 12 -39.5 12q-26 0 -41 -11.5q-15 -11.5 -22.5 -29.5q-7.5 -18 -9 -39.5q-1.5 -21.5 -1.5 -40.5q0 -20 2 -41q2 -21 9.5 -38.5q7.5 -17.5 22 -29q14.5 -11.5 40.5 -11.5q25 0 39 11.5q14 11.5 21 29.5q7 18 9 39q2 21 2 40zt0 0zM266 561q-43 0 -72 16.5q-29 16.5 -46.5 41q-17.5 24.5 -26 52.5q-8.5 28 -11.5 51l100 0q0 -10 3.5 -21.5q3.5 -11.5 10.5 -22q7 -10.5 17.5 -17.5q10.5 -7 24.5 -7q14 0 24.5 7q10.5 7 17.5 17.5q7 10.5 10.5 22q3.5 11.5 3.5 21.5l100 0q-3 -23 -11.5 -51q-8.5 -28 -26 -52.5q-17.5 -24.5 -46.5 -41t-72 -16.5z" />
<glyph unicode="&#288;" horiz-adv-x="637" d="M318 701q100 0 166.5 -48.5q66.5 -48.5 92.5 -128.5l-146 -52q-8 36 -37 60.5q-29 24.5 -77 24.5q-29 0 -50 -9.5q-21 -9.5 -35 -25.5q-14 -16 -21 -36.5q-7 -20.5 -7 -41.5v-189q0 -23 7 -44q7 -21 21 -37.5q14 -16.5 35.5 -26.5q21.5 -10 50.5 -10q25 0 46.5 9.5q21.5 9.5 38 25.5q16.5 16 26 37q9.5 21 9.5 45v5h-142v128h294v-139q0 -55 -21.5 -101.5q-21.5 -46.5 -58.5 -80.5q-37 -34 -86.5 -53q-49.5 -19 -105.5 -19q-68 0 -118.5 20q-50.5 20 -84 56q-33.5 36 -50 86q-16.5 50 -16.5 110v164q0 54 16.5 103q16.5 49 50 86.5q33.5 37.5 84 59.5q50.5 22 118.5 22zt0 0zM242 749v130h148l0 -130z" />
<glyph unicode="&#289;" horiz-adv-x="533" d="M474 13q0 -59 -19.5 -101q-19.5 -42 -51.5 -68.5q-32 -26.5 -74 -38.5q-42 -12 -87 -12q-45 0 -92 13q-47 13 -92 51l70 99q30 -20 61.5 -27.5q31.5 -7.5 51.5 -7.5q37 0 64 20.5q27 20.5 27 59.5v39l-2 1q-9 -11 -21.5 -19.5q-12.5 -8.5 -26.5 -14.5q-14 -6 -28.5 -9.5q-14.5 -3.5 -26.5 -3.5q-62 0 -99 23.5q-37 23.5 -56.5 59.5q-19.5 36 -25.5 78.5q-6 42.5 -6 80.5q0 40 5.5 86q5.5 46 25 85.5q19.5 39.5 56 65.5q36.5 26 99.5 26q28 0 54 -8q26 -8 49 -32l2 1v35h143zM331 246q0 18 -1.5 39q-1.5 21 -8.5 39.5q-7 18.5 -21.5 30.5q-14.5 12 -39.5 12q-26 0 -41 -11.5q-15 -11.5 -22.5 -29.5q-7.5 -18 -9 -39.5q-1.5 -21.5 -1.5 -40.5q0 -20 2 -41q2 -21 9.5 -38.5q7.5 -17.5 22 -29q14.5 -11.5 40.5 -11.5q25 0 39 11.5q14 11.5 21 29.5q7 18 9 39q2 21 2 40zt0 0zM213 569v130h148l0 -130z" />
<glyph unicode="&#290;" horiz-adv-x="637" d="M318 701q100 0 166.5 -48.5q66.5 -48.5 92.5 -128.5l-146 -52q-8 36 -37 60.5q-29 24.5 -77 24.5q-29 0 -50 -9.5q-21 -9.5 -35 -25.5q-14 -16 -21 -36.5q-7 -20.5 -7 -41.5v-189q0 -23 7 -44q7 -21 21 -37.5q14 -16.5 35.5 -26.5q21.5 -10 50.5 -10q25 0 46.5 9.5q21.5 9.5 38 25.5q16.5 16 26 37q9.5 21 9.5 45v5h-142v128h294v-139q0 -55 -21.5 -101.5q-21.5 -46.5 -58.5 -80.5q-37 -34 -86.5 -53q-49.5 -19 -105.5 -19q-68 0 -118.5 20q-50.5 20 -84 56q-33.5 36 -50 86q-16.5 50 -16.5 110v164q0 54 16.5 103q16.5 49 50 86.5q33.5 37.5 84 59.5q50.5 22 118.5 22zt0 0zM221 -313l35 108h-33v151h154v-143l-89 -116z" />
<glyph unicode="&#291;" horiz-adv-x="533" d="M359 857l-35 -108h33v-151h-154v143l89 116zM474 13q0 -59 -19.5 -101q-19.5 -42 -51.5 -68.5q-32 -26.5 -74 -38.5q-42 -12 -87 -12q-45 0 -92 13q-47 13 -92 51l70 99q30 -20 61.5 -27.5q31.5 -7.5 51.5 -7.5q37 0 64 20.5q27 20.5 27 59.5v39l-2 1q-9 -11 -21.5 -19.5q-12.5 -8.5 -26.5 -14.5q-14 -6 -28.5 -9.5q-14.5 -3.5 -26.5 -3.5q-62 0 -99 23.5q-37 23.5 -56.5 59.5q-19.5 36 -25.5 78.5q-6 42.5 -6 80.5q0 40 5.5 86q5.5 46 25 85.5q19.5 39.5 56 65.5q36.5 26 99.5 26q28 0 54 -8q26 -8 49 -32l2 1v35h143zM331 246q0 18 -1.5 39q-1.5 21 -8.5 39.5q-7 18.5 -21.5 30.5q-14.5 12 -39.5 12q-26 0 -41 -11.5q-15 -11.5 -22.5 -29.5q-7.5 -18 -9 -39.5q-1.5 -21.5 -1.5 -40.5q0 -20 2 -41q2 -21 9.5 -38.5q7.5 -17.5 22 -29q14.5 -11.5 40.5 -11.5q25 0 39 11.5q14 11.5 21 29.5q7 18 9 39t2 40z" />
<glyph unicode="&#292;" horiz-adv-x="674" d="M452 0v284h-228v-284h-154v696h154v-279h228v279h152v-696zM345 805l-150 -78l-48 58l149 120h98l151 -120l-51 -59z" />
<glyph unicode="&#293;" horiz-adv-x="551" d="M348 0v292q0 38 -20 57q-20 19 -50 19q-32 0 -53.5 -19q-21.5 -19 -21.5 -57v-292h-143v726h143v-266l4 -1q10 9 24 16.5q14 7.5 29.5 13q15.5 5.5 31.5 8.5q16 3 30 3q35 0 65.5 -11.5q30.5 -11.5 53.5 -34q23 -22.5 36 -56q13 -33.5 13 -76.5v-322zM128 805l-150 -78l-48 58l149 120h98l151 -120l-51 -59z" />
<glyph unicode="&#294;" horiz-adv-x="674" d="M452 0v284h-228v-284h-154v502h-49v93h49v101h154v-101h228v101h152v-101h50v-93h-50v-502zM452 417v85h-228l0 -85z" />
<glyph unicode="&#295;" horiz-adv-x="581" d="M378 0v277q0 38 -20 57q-20 19 -50 19q-35 0 -55 -23.5q-20 -23.5 -20 -61.5v-268h-143v550h-75v93h75v83h143v-83h142v-93h-142v-105l4 -1q20 17 55 29q35 12 70 12q70 0 114 -45q44 -45 44 -133l0 -307z" />
<glyph unicode="&#296;" horiz-adv-x="294" d="M73 0v696h154v-696zM73 881q19 0 38 -8q19 -8 36 -17q17 -9 32 -16.5q15 -7.5 27 -7.5q17 0 32 11q15 11 35 37l68 -40q-26 -58 -56 -83.5q-30 -25.5 -65 -25.5q-20 0 -39.5 7.5q-19.5 7.5 -37 16q-17.5 8.5 -33.5 16q-16 7.5 -30 7.5q-17 0 -34.5 -10.5q-17.5 -10.5 -39.5 -39.5l-65 41q26 54 56.5 83t75.5 29z" />
<glyph unicode="&#297;" horiz-adv-x="366" d="M119 711q19 0 38 -8q19 -8 36 -17q17 -9 32 -16.5q15 -7.5 27 -7.5q17 0 32 11q15 11 35 37l68 -40q-26 -58 -56 -83.5q-30 -25.5 -65 -25.5q-20 0 -39.5 7.5q-19.5 7.5 -37 16q-17.5 8.5 -33.5 16q-16 7.5 -30 7.5q-17 0 -34.5 -10.5q-17.5 -10.5 -39.5 -39.5l-65 41q26 54 56.5 83q30.5 29 75.5 29zt0 0zM120 0v495h143l0 -495z" />
<glyph unicode="&#298;" horiz-adv-x="306" d="M85 0v696h154v-696zM-9 758v118h333l0 -118z" />
<glyph unicode="&#299;" horiz-adv-x="312" d="M89 0v495h143v-495zM-10 578v118h333l0 -118z" />
<glyph unicode="&#300;" horiz-adv-x="294" d="M148 731q-43 0 -72 16.5q-29 16.5 -46.5 41q-17.5 24.5 -26 52.5q-8.5 28 -11.5 51l100 0q0 -10 3.5 -21.5q3.5 -11.5 10.5 -22q7 -10.5 17.5 -17.5q10.5 -7 24.5 -7q14 0 24.5 7q10.5 7 17.5 17.5q7 10.5 10.5 22q3.5 11.5 3.5 21.5l100 0q-3 -23 -11.5 -51q-8.5 -28 -26 -52.5q-17.5 -24.5 -46.5 -41q-29 -16.5 -72 -16.5zt0 0zM73 0v696h154l0 -696z" />
<glyph unicode="&#301;" horiz-adv-x="269" d="M63 0v495h143v-495zM136 567q-43 0 -72 16.5q-29 16.5 -46.5 41q-17.5 24.5 -26 52.5q-8.5 28 -11.5 51l100 0q0 -10 3.5 -21.5q3.5 -11.5 10.5 -22q7 -10.5 17.5 -17.5q10.5 -7 24.5 -7q14 0 24.5 7q10.5 7 17.5 17.5q7 10.5 10.5 22q3.5 11.5 3.5 21.5l100 0q-3 -23 -11.5 -51q-8.5 -28 -26 -52.5q-17.5 -24.5 -46.5 -41t-72 -16.5z" />
<glyph unicode="&#302;" horiz-adv-x="294" d="M60 -104q0 21 9 45.5q9 24.5 32 58.5l-28 0v696h154v-696h-32q-23 -32 -33.5 -53q-10.5 -21 -10.5 -36q0 -27 32 -27q9 0 25 3.5q16 3.5 39 11.5l28 -70q-26 -14 -54 -22.5q-28 -8.5 -54 -8.5q-48 0 -77.5 29t-29.5 69z" />
<glyph unicode="&#303;" horiz-adv-x="269" d="M46 -103q0 21 8.5 45q8.5 24 31.5 58v0v495h120v-495h-26q-23 -31 -33 -52q-10 -21 -10 -36q0 -27 32 -27q9 0 25 3.5q16 3.5 39 11.5l28 -70q-26 -14 -54 -22.5q-28 -8.5 -54 -8.5q-48 0 -77.5 29q-29.5 29 -29.5 69zt0 0zM63 571v125h143l0 -125z" />
<glyph unicode="&#304;" horiz-adv-x="294" d="M73 0v696h154v-696zM74 749v130h148l0 -130z" />
<glyph unicode="&#305;" horiz-adv-x="269" d="M63 0v495h143l0 -495z" />
<glyph unicode="&#306;" horiz-adv-x="791" d="M73 0v696h154v-696zM728 225q0 -66 -19.5 -110.5q-19.5 -44.5 -51.5 -71q-32 -26.5 -74.5 -37.5q-42.5 -11 -88.5 -11q-31 0 -60 4q-29 4 -56 14.5q-27 10.5 -51 28.5q-24 18 -44 46l103 101q26 -29 52 -41.5q26 -12.5 47 -12.5q13 0 29 3.5q16 3.5 30 14q14 10.5 23 29.5q9 19 9 50v464l152 0z" />
<glyph unicode="&#307;" horiz-adv-x="532" d="M63 571v125h143v-125zM63 0v495h143v-495zM319 571v125h143v-125zM462 -52q0 -67 -40.5 -107.5q-40.5 -40.5 -123.5 -40.5h-60v124h26q18 0 29 4.5q11 4.5 17 12q6 7.5 7.5 16.5q1.5 9 1.5 19v520l143 0z" />
<glyph unicode="&#308;" horiz-adv-x="511" d="M448 226q0 -66 -19.5 -110.5q-19.5 -44.5 -51.5 -71q-32 -26.5 -74.5 -37.5q-42.5 -11 -88.5 -11q-31 0 -60 4q-29 4 -56 14.5q-27 10.5 -51 28.5q-24 18 -44 46l103 101q26 -29 52 -41.5q26 -12.5 47 -12.5q13 0 29 3.5q16 3.5 30 14q14 10.5 23 29.5q9 19 9 50v464h152zM372 807l-150 -78l-48 58l149 120h98l151 -120l-51 -59z" />
<glyph unicode="&#309;" horiz-adv-x="356" d="M256 -52q0 -33 -12.5 -60.5q-12.5 -27.5 -34.5 -47q-22 -19.5 -52 -30q-30 -10.5 -65 -10.5h-60v124h33q15 0 24.5 7q9.5 7 14.5 16.5q5 9.5 7 20q2 10.5 2 17.5v511h143zM179 625q-36 -26 -72.5 -52q-36.5 -26 -72.5 -51l-53 48l147 155h103l148 -155l-56 -49z" />
<glyph unicode="&#310;" horiz-adv-x="657" d="M495 0l-180 296l-91 -102v-194h-154v696h154v-298l2 -2l106 129l145 171h186l-244 -282l258 -414zM264 -293l35 108h-33v151h154v-143l-89 -116z" />
<glyph unicode="&#311;" horiz-adv-x="533" d="M385 0l-133 196l-49 -53v-143h-143v726h143v-400l2 -1l65 78l86 92h178l-189 -200l203 -295zM205 -313l35 108h-33v151h154v-143l-89 -116z" />
<glyph unicode="&#312;" horiz-adv-x="533" d="M385 0l-133 196l-49 -53v-143h-143v495h143v-169l2 -1l65 74l87 96h177l-189 -200l203 -295z" />
<glyph unicode="&#313;" horiz-adv-x="585" d="M87 802l180 128l90 -107l-214 -90zM70 0v696h154v-558h338l0 -138z" />
<glyph unicode="&#314;" horiz-adv-x="286" d="M60 812l180 128l90 -107l-214 -90zM213 0q-30 0 -58 6.5q-28 6.5 -49 23q-21 16.5 -33.5 45q-12.5 28.5 -12.5 72.5v579h143v-552q0 -33 12.5 -41.5q12.5 -8.5 32.5 -8.5h16l0 -124z" />
<glyph unicode="&#315;" horiz-adv-x="585" d="M70 0v696h154v-558h338v-138zM255 -313l35 108h-33v151h154v-143l-89 -116z" />
<glyph unicode="&#316;" horiz-adv-x="286" d="M213 0q-30 0 -58 6.5q-28 6.5 -49 23q-21 16.5 -33.5 45q-12.5 28.5 -12.5 72.5v579h143v-552q0 -33 12.5 -41.5q12.5 -8.5 32.5 -8.5h16v-124zM83 -308l35 108h-33v151h154v-143l-89 -116z" />
<glyph unicode="&#317;" horiz-adv-x="585" d="M70 0v696h154v-558h338v-138zM312 437l35 108h-33v151h154v-143l-89 -116z" />
<glyph unicode="&#318;" horiz-adv-x="443" d="M285 467l35 108h-33v151h154v-143l-89 -116zM213 0q-30 0 -58 6.5q-28 6.5 -49 23q-21 16.5 -33.5 45q-12.5 28.5 -12.5 72.5v579h143v-552q0 -33 12.5 -41.5q12.5 -8.5 32.5 -8.5h16l0 -124z" />
<glyph unicode="&#319;" horiz-adv-x="585" d="M70 0v696h154v-558h338v-138zM334 303v130h148l0 -130z" />
<glyph unicode="&#320;" horiz-adv-x="425" d="M279 310v130h148v-130zM213 0q-30 0 -58 6.5q-28 6.5 -49 23q-21 16.5 -33.5 45q-12.5 28.5 -12.5 72.5v579h143v-552q0 -33 12.5 -41.5q12.5 -8.5 32.5 -8.5h16l0 -124z" />
<glyph unicode="&#321;" horiz-adv-x="618" d="M103 0v209l-53 -31l-50 87l103 60v371h154v-282l87 51l50 -87l-137 -80v-160h338l0 -138z" />
<glyph unicode="&#322;" horiz-adv-x="360" d="M261 0q-30 0 -58 6.5q-28 6.5 -49 23q-21 16.5 -33.5 45q-12.5 28.5 -12.5 72.5v111l-57 -33l-51 87l108 62v352h143v-269l59 34l50 -87l-109 -63v-167q0 -33 12.5 -41.5q12.5 -8.5 32.5 -8.5h16l0 -124z" />
<glyph unicode="&#323;" horiz-adv-x="710" d="M231 802l180 128l90 -107l-214 -90zM506 0l-177 256l-103 166l-2 -1v-421h-154v696h137l146 -213l134 -209l2 1v421h154l0 -696z" />
<glyph unicode="&#324;" horiz-adv-x="551" d="M348 0v292q0 38 -20 57q-20 19 -50 19q-32 0 -53.5 -19q-21.5 -19 -21.5 -57v-292h-143v495h143v-41h2q23 21 57.5 33.5q34.5 12.5 62.5 12.5q81 0 123 -45q42 -45 42 -133v-322zM183 567l85 203l133 -43l-135 -190z" />
<glyph unicode="&#325;" horiz-adv-x="710" d="M506 0l-177 256l-103 166l-2 -1v-421h-154v696h137l146 -213l134 -209l2 1v421h154v-696zM281 -293l35 108h-33v151h154v-143l-89 -116z" />
<glyph unicode="&#326;" horiz-adv-x="551" d="M348 0v292q0 38 -20 57q-20 19 -50 19q-32 0 -53.5 -19q-21.5 -19 -21.5 -57v-292h-143v495h143v-41h2q23 21 57.5 33.5q34.5 12.5 62.5 12.5q81 0 123 -45q42 -45 42 -133v-322zM198 -313l35 108h-33v151h154v-143l-89 -116z" />
<glyph unicode="&#327;" horiz-adv-x="710" d="M506 0l-177 256l-103 166l-2 -1v-421h-154v696h137l146 -213l134 -209l2 1v421h154v-696zM501 908l51 -59l-151 -120h-98l-149 120l48 58l150 -78z" />
<glyph unicode="&#328;" horiz-adv-x="551" d="M348 0v292q0 38 -20 57q-20 19 -50 19q-32 0 -53.5 -19q-21.5 -19 -21.5 -57v-292h-143v495h143v-41h2q23 21 57.5 33.5q34.5 12.5 62.5 12.5q81 0 123 -45q42 -45 42 -133v-322zM407 725l56 -49l-148 -155h-103l-147 155l53 48q36 -25 72.5 -51q36.5 -26 72.5 -52z" />
<glyph unicode="&#329;" horiz-adv-x="681" d="M478 0v292q0 38 -20 57q-20 19 -50 19q-32 0 -53.5 -19q-21.5 -19 -21.5 -57v-292h-143v495h143v-41h2q23 21 57.5 33.5q34.5 12.5 62.5 12.5q81 0 123 -45q42 -45 42 -133v-322zM-1 414l35 108h-33v151h154v-143l-89 -116z" />
<glyph unicode="&#330;" horiz-adv-x="710" d="M643 -66q0 -54 -35 -89q-35 -35 -101 -35q-26 0 -53 6q-27 6 -54 20l31 96q11 -3 19.5 -4q8.5 -1 16.5 -1q18 0 26 9q8 9 8 30v41l-172 249l-103 166l-2 -1v-421h-154v696h137l146 -213l134 -209l2 1v421l154 0z" />
<glyph unicode="&#331;" horiz-adv-x="551" d="M490 -66q0 -54 -35 -89q-35 -35 -101 -35q-26 0 -53 6q-27 6 -54 20l31 96q11 -3 19.5 -4q8.5 -1 16.5 -1q18 0 26 9q8 9 8 30v326q0 38 -21 57q-21 19 -51 19q-32 0 -52.5 -19q-20.5 -19 -20.5 -57v-292h-143v495h143v-41h2q23 21 52.5 33.5q29.5 12.5 57.5 12.5q81 0 128 -45q47 -45 47 -133l0 -388z" />
<glyph unicode="&#332;" horiz-adv-x="624" d="M310 701q63 0 113.5 -20.5q50.5 -20.5 86 -56.5q35.5 -36 54.5 -86q19 -50 19 -108v-164q0 -62 -19.5 -112.5q-19.5 -50.5 -55 -86q-35.5 -35.5 -86 -54.5q-50.5 -19 -112.5 -19q-68 0 -118.5 22q-50.5 22 -84 59.5q-33.5 37.5 -50 87q-16.5 49.5 -16.5 103.5v164q0 54 16.5 103q16.5 49 50 86.5q33.5 37.5 84 59.5q50.5 22 118.5 22zt0 0zM309 557q-29 0 -50 -9.5q-21 -9.5 -35 -25.5q-14 -16 -21 -36.5q-7 -20.5 -7 -41.5v-189q0 -23 7 -44q7 -21 21 -37q14 -16 35 -26q21 -10 50 -10q56 0 86.5 33.5q30.5 33.5 30.5 83.5v189q0 46 -30.5 79.5q-30.5 33.5 -86.5 33.5zt0 0zM146 758v118h333l0 -118z" />
<glyph unicode="&#333;" horiz-adv-x="516" d="M265 501q57 0 104 -21q47 -21 75 -62q21 -31 30.5 -75q9.5 -44 8.5 -98q0 -49 -10 -87.5q-10 -38.5 -28 -68.5q-31 -50 -82.5 -73q-51.5 -23 -110.5 -23q-58 0 -103.5 19q-45.5 19 -73.5 60q-23 33 -33 77.5q-10 44.5 -9 98.5q1 38 7 75q6 37 19 64q26 56 81 85q55 29 125 29zt0 0zM260 373q-21 0 -38.5 -11.5q-17.5 -11.5 -27.5 -31.5q-8 -16 -11 -37q-3 -21 -4 -47q0 -26 3 -46.5q3 -20.5 11 -35.5q9 -19 25 -30q16 -11 38 -11q26 0 44.5 14q18.5 14 26.5 40q3 11 6 28.5q3 17.5 3 42.5q1 28 -3 49.5q-4 21.5 -9 32.5q-9 22 -26.5 32.5q-17.5 10.5 -37.5 10.5zt0 0zM95 578v118h333l0 -118z" />
<glyph unicode="&#334;" horiz-adv-x="624" d="M310 701q63 0 113.5 -20.5q50.5 -20.5 86 -56.5q35.5 -36 54.5 -86q19 -50 19 -108v-164q0 -62 -19.5 -112.5q-19.5 -50.5 -55 -86q-35.5 -35.5 -86 -54.5q-50.5 -19 -112.5 -19q-68 0 -118.5 22q-50.5 22 -84 59.5q-33.5 37.5 -50 87q-16.5 49.5 -16.5 103.5v164q0 54 16.5 103q16.5 49 50 86.5q33.5 37.5 84 59.5q50.5 22 118.5 22zt0 0zM309 557q-29 0 -50 -9.5q-21 -9.5 -35 -25.5q-14 -16 -21 -36.5q-7 -20.5 -7 -41.5v-189q0 -23 7 -44q7 -21 21 -37q14 -16 35 -26q21 -10 50 -10q56 0 86.5 33.5q30.5 33.5 30.5 83.5v189q0 46 -30.5 79.5q-30.5 33.5 -86.5 33.5zt0 0zM309 731q-43 0 -72 16.5q-29 16.5 -46.5 41q-17.5 24.5 -26 52.5q-8.5 28 -11.5 51l100 0q0 -10 3.5 -21.5q3.5 -11.5 10.5 -22q7 -10.5 17.5 -17.5q10.5 -7 24.5 -7q14 0 24.5 7q10.5 7 17.5 17.5q7 10.5 10.5 22q3.5 11.5 3.5 21.5l100 0q-3 -23 -11.5 -51q-8.5 -28 -26 -52.5q-17.5 -24.5 -46.5 -41t-72 -16.5z" />
<glyph unicode="&#335;" horiz-adv-x="516" d="M265 501q57 0 104 -21q47 -21 75 -62q21 -31 30.5 -75q9.5 -44 8.5 -98q0 -49 -10 -87.5q-10 -38.5 -28 -68.5q-31 -50 -82.5 -73q-51.5 -23 -110.5 -23q-58 0 -103.5 19q-45.5 19 -73.5 60q-23 33 -33 77.5q-10 44.5 -9 98.5q1 38 7 75q6 37 19 64q26 56 81 85q55 29 125 29zt0 0zM260 373q-21 0 -38.5 -11.5q-17.5 -11.5 -27.5 -31.5q-8 -16 -11 -37q-3 -21 -4 -47q0 -26 3 -46.5q3 -20.5 11 -35.5q9 -19 25 -30q16 -11 38 -11q26 0 44.5 14q18.5 14 26.5 40q3 11 6 28.5q3 17.5 3 42.5q1 28 -3 49.5q-4 21.5 -9 32.5q-9 22 -26.5 32.5q-17.5 10.5 -37.5 10.5zt0 0zM260 553q-43 0 -72 16.5q-29 16.5 -46.5 41q-17.5 24.5 -26 52.5q-8.5 28 -11.5 51l100 0q0 -10 3.5 -21.5q3.5 -11.5 10.5 -22q7 -10.5 17.5 -17.5q10.5 -7 24.5 -7q14 0 24.5 7q10.5 7 17.5 17.5q7 10.5 10.5 22q3.5 11.5 3.5 21.5l100 0q-3 -23 -11.5 -51q-8.5 -28 -26 -52.5q-17.5 -24.5 -46.5 -41t-72 -16.5z" />
<glyph unicode="&#336;" horiz-adv-x="624" d="M310 701q63 0 113.5 -20.5q50.5 -20.5 86 -56.5q35.5 -36 54.5 -86q19 -50 19 -108v-164q0 -62 -19.5 -112.5q-19.5 -50.5 -55 -86q-35.5 -35.5 -86 -54.5q-50.5 -19 -112.5 -19q-68 0 -118.5 22q-50.5 22 -84 59.5q-33.5 37.5 -50 87q-16.5 49.5 -16.5 103.5v164q0 54 16.5 103q16.5 49 50 86.5q33.5 37.5 84 59.5q50.5 22 118.5 22zt0 0zM309 557q-29 0 -50 -9.5q-21 -9.5 -35 -25.5q-14 -16 -21 -36.5q-7 -20.5 -7 -41.5v-189q0 -23 7 -44q7 -21 21 -37q14 -16 35 -26q21 -10 50 -10q56 0 86.5 33.5q30.5 33.5 30.5 83.5v189q0 46 -30.5 79.5q-30.5 33.5 -86.5 33.5zt0 0zM107 784l161 151l104 -94l-200 -118zM327 784l161 151l104 -94l-200 -118z" />
<glyph unicode="&#337;" horiz-adv-x="516" d="M265 501q57 0 104 -21q47 -21 75 -62q21 -31 30.5 -75q9.5 -44 8.5 -98q0 -49 -10 -87.5q-10 -38.5 -28 -68.5q-31 -50 -82.5 -73q-51.5 -23 -110.5 -23q-58 0 -103.5 19q-45.5 19 -73.5 60q-23 33 -33 77.5q-10 44.5 -9 98.5q1 38 7 75q6 37 19 64q26 56 81 85q55 29 125 29zt0 0zM260 373q-21 0 -38.5 -11.5q-17.5 -11.5 -27.5 -31.5q-8 -16 -11 -37q-3 -21 -4 -47q0 -26 3 -46.5q3 -20.5 11 -35.5q9 -19 25 -30q16 -11 38 -11q26 0 44.5 14q18.5 14 26.5 40q3 11 6 28.5q3 17.5 3 42.5q1 28 -3 49.5q-4 21.5 -9 32.5q-9 22 -26.5 32.5q-17.5 10.5 -37.5 10.5zt0 0zM115 567l85 203l133 -43l-135 -190zM302 567l85 203l133 -43l-135 -190z" />
</font>
</defs>
</svg>
