<svg width="50" height="50" viewBox="0 0 50 50" xmlns="http://www.w3.org/2000/svg" xmlns:xlink="http://www.w3.org/1999/xlink"><title>Group</title><desc>Created using Figma</desc><use xlink:href="#123-a" transform="translate(0 40)" fill="#1F9BD7"/><use xlink:href="#123-b" transform="translate(1.667 45)" fill="#1F9BD7"/><use xlink:href="#123-b" transform="translate(40 45)" fill="#1F9BD7"/><use xlink:href="#123-b" transform="translate(20.833 45)" fill="#1F9BD7"/><use xlink:href="#123-c" transform="translate(10 14.167)" fill="#1F9BD7"/><use xlink:href="#123-d" transform="translate(.833 15)" fill="#1F9BD7"/><use xlink:href="#123-e" transform="translate(21.667)" fill="#1F9BD7"/><use xlink:href="#123-f" transform="translate(24.167 19.167)" fill="#1F9BD7"/><use xlink:href="#123-e" transform="translate(35 18.333)" fill="#1F9BD7"/><use xlink:href="#123-g" transform="translate(15 .833)" fill="#1F9BD7"/><defs><path id="123-a" fill-rule="evenodd" d="M0 .833C0 .373.373 0 .833 0h48.334c.46 0 .833.373.833.833v5c0 .46-.373.834-.833.834H.833A.833.833 0 0 1 0 5.833v-5zm1.667.834V5h46.666V1.667H1.667z"/><path id="123-b" fill-rule="evenodd" d="M0 .833C0 .373.373 0 .833 0H7.5c.46 0 .833.373.833.833v3.334c0 .46-.373.833-.833.833H.833A.833.833 0 0 1 0 4.167V.833zm1.667.834v1.666h5V1.667h-5z"/><path id="123-c" fill-rule="evenodd" d="M0 .833C0 .373.373 0 .833 0h8.334c.46 0 .833.373.833.833V10a.833.833 0 0 1-1.354.65L5 7.735 1.354 10.65A.833.833 0 0 1 0 10V.833zm1.667.834v6.6l2.812-2.251a.833.833 0 0 1 1.042 0l2.812 2.25v-6.6H1.667z"/><path id="123-d" fill-rule="evenodd" d="M0 4.167A4.167 4.167 0 0 1 4.167 0H10c.46 0 .833.373.833.833v6.6l2.813-2.25a.833.833 0 0 1 1.041 0l2.813 2.25v-6.6c0-.46.373-.833.833-.833h5.834a4.167 4.167 0 0 1 4.166 4.167V22.5a4.167 4.167 0 0 1-4.166 4.167h-20A4.167 4.167 0 0 1 0 22.5V4.167zm4.167-2.5a2.5 2.5 0 0 0-2.5 2.5V22.5a2.5 2.5 0 0 0 2.5 2.5h20a2.5 2.5 0 0 0 2.5-2.5V4.167a2.5 2.5 0 0 0-2.5-2.5h-5v7.5a.833.833 0 0 1-1.354.65l-3.646-2.916-3.646 2.916a.833.833 0 0 1-1.354-.65v-7.5h-5z"/><path id="123-e" fill-rule="evenodd" d="M0 .833C0 .373.373 0 .833 0h5c.46 0 .834.373.834.833V7.5a.833.833 0 0 1-1.296.693L3.333 6.835 1.296 8.193A.833.833 0 0 1 0 7.5V.833zm1.667.834v4.276L2.87 5.14a.833.833 0 0 1 .925 0L5 5.943V1.667H1.667z"/><path id="123-f" fill-rule="evenodd" d="M3.333.833c0-.46.373-.833.834-.833h7.5c.46 0 .833.373.833.833V5.11l1.204-.803a.833.833 0 0 1 .925 0l1.204.803V.833c0-.46.373-.833.834-.833h4.166A4.167 4.167 0 0 1 25 4.167v14.166a4.167 4.167 0 0 1-4.167 4.167h-20a.833.833 0 1 1 0-1.667 2.5 2.5 0 0 0 2.5-2.5V.833zm.834 20h16.666a2.5 2.5 0 0 0 2.5-2.5V4.167a2.5 2.5 0 0 0-2.5-2.5H17.5v5a.833.833 0 0 1-1.296.693l-2.037-1.358-2.038 1.358a.833.833 0 0 1-1.296-.693v-5H5v16.666c0 .938-.31 1.804-.833 2.5z"/><path id="123-g" fill-rule="evenodd" d="M0 4.167A4.167 4.167 0 0 1 4.167 0H7.5c.46 0 .833.373.833.833V5.11l1.205-.803a.833.833 0 0 1 .924 0l1.205.803V.833c0-.46.373-.833.833-.833h3.333A4.167 4.167 0 0 1 20 4.167v11.666A4.167 4.167 0 0 1 15.833 20h-2.5a.833.833 0 0 1-.833-.833v-.834a2.5 2.5 0 0 0-2.5-2.5H4.167A.833.833 0 0 1 3.333 15h-2.5A.833.833 0 0 1 0 14.167v-10zm5 10h5a4.167 4.167 0 0 1 4.167 4.166h1.666a2.5 2.5 0 0 0 2.5-2.5V4.167a2.5 2.5 0 0 0-2.5-2.5h-2.5v5a.833.833 0 0 1-1.295.693L10 6.002 7.962 7.36a.833.833 0 0 1-1.295-.693v-5h-2.5a2.5 2.5 0 0 0-2.5 2.5v9.166h2.5c.46 0 .833.373.833.834z"/></defs></svg>