<svg xmlns="http://www.w3.org/2000/svg" xmlns:xlink="http://www.w3.org/1999/xlink" width="50" height="50" viewBox="0 0 50 50"><title>Group</title><desc>Created using Figma</desc><use xlink:href="#123-a" transform="translate(13.333 36.666)" width="100%" height="100%" fill="#1f9bd7"/><use xlink:href="#123-b" transform="translate(16.667 40)" width="100%" height="100%" fill="#1f9bd7"/><use xlink:href="#123-b" transform="translate(38.333 40)" width="100%" height="100%" fill="#1f9bd7"/><use xlink:href="#123-a" transform="translate(35 36.666)" width="100%" height="100%" fill="#1f9bd7"/><use xlink:href="#123-c" transform="translate(35 25)" width="100%" height="100%" fill="#1f9bd7"/><use xlink:href="#123-d" transform="translate(12.721 20.833)" width="100%" height="100%" fill="#1f9bd7"/><use xlink:href="#123-e" transform="translate(12.5 25.833)" width="100%" height="100%" fill="#1f9bd7"/><use xlink:href="#123-f" transform="translate(0 3.334)" width="100%" height="100%" fill="#1f9bd7"/><use xlink:href="#123-a" transform="translate(4.167 7.5)" width="100%" height="100%" fill="#1f9bd7"/><use xlink:href="#123-g" transform="translate(8.333 16.666)" width="100%" height="100%" fill="#1f9bd7"/><use xlink:href="#123-h" transform="translate(8.334 16.666)" width="100%" height="100%" fill="#1f9bd7"/><defs><path id="123-a" d="M0 5a5 5 0 1 1 10 0A5 5 0 0 1 0 5zm5-3.333a3.334 3.334 0 1 0 0 6.667 3.334 3.334 0 0 0 0-6.667z" fill-rule="evenodd"/><path id="123-b" d="M1.667 3.333a1.667 1.667 0 1 1 0-3.334 1.667 1.667 0 0 1 0 3.334z" fill-rule="evenodd"/><path id="123-c" d="M.833 0c.46 0 .834.373.834.833v3.942c0 .585.473 1.058 1.058 1.058H10A.833.833 0 1 1 10 7.5H2.725A2.725 2.725 0 0 1 0 4.775V.833C0 .373.373 0 .833 0z" fill-rule="evenodd"/><path id="123-d" d="M0 .833C0 .373.373 0 .833 0h13.112a.833.833 0 0 1 0 1.667H.833A.833.833 0 0 1 0 .833z" fill-rule="evenodd"/><path id="123-e" d="M0 .833C0 .373.373 0 .833 0H12.5a.833.833 0 1 1 0 1.667H.833A.833.833 0 0 1 0 .833z" fill-rule="evenodd"/><path id="123-f" d="M0 8.75C0 4.137 3.892 0 9.167 0c5.274 0 9.166 4.138 9.166 8.75-.032 2.389-.807 3.87-1.81 5.787-.143.27-.289.55-.438.842-1.243 2.425-2.8 5.154-4.037 7.265a239.303 239.303 0 0 1-2.129 3.555l-.032.052-.008.014-.002.003v.001l-.71-.437-.71.437-.003-.004-.008-.014-.032-.052a163.666 163.666 0 0 1-.579-.951c-.387-.64-.93-1.548-1.55-2.604-1.238-2.111-2.793-4.84-4.037-7.265a101.8 101.8 0 0 0-.437-.842C.807 12.619.032 11.139 0 8.749zm9.167 17.082l-.71.438a.833.833 0 0 0 1.42 0zm0-1.604c.376-.625.877-1.462 1.443-2.428 1.233-2.101 2.766-4.79 3.992-7.181.19-.372.372-.715.543-1.037.95-1.796 1.553-2.935 1.522-4.833 0-3.67-3.126-7.082-7.5-7.082-4.374 0-7.5 3.412-7.5 7.082-.031 1.898.571 3.037 1.522 4.833.17.322.352.665.543 1.037 1.225 2.392 2.758 5.08 3.991 7.181.567.966 1.067 1.803 1.444 2.428z" fill-rule="evenodd"/><path id="123-g" d="M6.707.444A.833.833 0 0 1 7.444 0h15.89C24.253 0 25 .746 25 1.667v4.169A9.164 9.164 0 0 1 15.836 15H.833A.833.833 0 0 1 0 14.167V12.5c0-.154.043-.306.124-.437l.71.437-.71-.437v-.001l.002-.003.008-.013.031-.05a96.632 96.632 0 0 0 .573-.942c.385-.638.923-1.536 1.539-2.586 1.233-2.102 2.765-4.789 3.991-7.18M1.667 12.734v.598h14.169a7.498 7.498 0 0 0 7.497-7.497v-4.17H7.948l-.196.38C6.508 4.473 4.952 7.2 3.715 9.312a237.874 237.874 0 0 1-2.006 3.355l-.042.069z" fill-rule="evenodd"/><path id="123-h" d="M6.705.447A.833.833 0 0 1 7.443 0h15.89C24.253 0 25 .746 25 1.667v2.5h7.865A2.5 2.5 0 0 1 35.29 6.06l2.082 8.323 3.246 1.3a1.667 1.667 0 0 1 1.048 1.547v6.935c0 .922-.747 1.667-1.666 1.667h-4.167A.833.833 0 0 1 35 25a3.334 3.334 0 0 0-6.667 0c0 .46-.373.833-.833.833H14.166a.833.833 0 0 1-.833-.833 3.334 3.334 0 0 0-6.666 0c0 .46-.373.833-.834.833H1.667A1.666 1.666 0 0 1 0 24.167V12.5c0-.154.043-.306.124-.437l.71.437-.71-.437v-.001l.002-.003.008-.013.031-.05a124.866 124.866 0 0 0 .573-.942c.385-.638.923-1.536 1.538-2.586 1.233-2.101 2.766-4.79 3.992-7.181v-.001l.373-.718.064-.121zM1.667 12.735v11.431h3.402a5.001 5.001 0 0 1 9.862 0h11.805a5.001 5.001 0 0 1 9.861 0H40v-6.935l-3.643-1.457a.834.834 0 0 1-.499-.572l-2.185-8.737a.833.833 0 0 0-.808-.632h-8.698A.833.833 0 0 1 23.333 5V1.667H7.948l-.198.38C6.507 4.472 4.952 7.201 3.714 9.311a238.576 238.576 0 0 1-2.005 3.355l-.042.069z" fill-rule="evenodd"/></defs></svg>