<svg width="50" height="50" viewBox="0 0 50 50" xmlns="http://www.w3.org/2000/svg" xmlns:xlink="http://www.w3.org/1999/xlink"><title>Group</title><desc>Created using Figma</desc><use xlink:href="#123-a" transform="translate(20 18.333)" fill="#1F9BD7"/><use xlink:href="#123-b" transform="translate(24.167 23.333)" fill="#1F9BD7"/><use xlink:href="#123-c" transform="translate(40)" fill="#1F9BD7"/><use xlink:href="#123-d" transform="translate(0 38.326)" fill="#1F9BD7"/><use xlink:href="#123-e" transform="translate(8.326)" fill="#1F9BD7"/><use xlink:href="#123-f" transform="translate(19.167 5)" fill="#1F9BD7"/><use xlink:href="#123-g" transform="translate(13.333 10)" fill="#1F9BD7"/><use xlink:href="#123-g" transform="translate(13.333 15)" fill="#1F9BD7"/><use xlink:href="#123-h" transform="translate(13.333 20)" fill="#1F9BD7"/><use xlink:href="#123-i" transform="translate(13.333 25)" fill="#1F9BD7"/><use xlink:href="#123-j" transform="translate(13.333 30)" fill="#1F9BD7"/><use xlink:href="#123-e" transform="translate(8.326)" fill="#1F9BD7"/><defs><path id="123-a" fill-rule="evenodd" d="M0 9.167A9.167 9.167 0 0 1 9.167 0a9.166 9.166 0 0 1 9.166 9.167 9.166 9.166 0 0 1-9.166 9.166A9.166 9.166 0 0 1 0 9.167zm9.167-7.5a7.5 7.5 0 1 0 0 15 7.5 7.5 0 0 0 0-15z"/><path id="123-b" fill-rule="evenodd" d="M9.629.14a.833.833 0 0 1 .231 1.156l-5 7.5a.833.833 0 0 1-1.283.127L.244 5.589a.833.833 0 1 1 1.179-1.178l2.614 2.614L8.473.371A.833.833 0 0 1 9.63.14z"/><path id="123-c" fill-rule="evenodd" d="M0 5a5 5 0 0 1 10 0v4.167a2.508 2.508 0 0 1-2.508 2.507H.833A.833.833 0 0 1 0 10.841V5zm5-3.333A3.334 3.334 0 0 0 1.667 5v5.008h5.825a.84.84 0 0 0 .841-.841V5A3.334 3.334 0 0 0 5 1.667z"/><path id="123-d" fill-rule="evenodd" d="M0 2.507A2.508 2.508 0 0 1 2.507 0L32.5.007c.46 0 .833.374.833.834v5.833a3.334 3.334 0 0 0 3.334 3.333.833.833 0 0 1 0 1.667H5a5 5 0 0 1-5-5V2.507zm32.94 7.5a4.981 4.981 0 0 1-1.273-3.333v-5l-29.16-.007a.84.84 0 0 0-.84.84v4.167A3.334 3.334 0 0 0 5 10.007h27.94z"/><path id="123-e" fill-rule="evenodd" d="M0 4.167A4.167 4.167 0 0 1 4.167 0h32.507a.833.833 0 0 1 0 1.667A3.333 3.333 0 0 0 33.341 5v40c0 2.924-2.51 5.26-5.49 4.977-2.64-.252-4.51-2.598-4.51-5.156V40L.833 39.993A.833.833 0 0 1 0 39.16V4.167zm32.947-2.5H4.167a2.5 2.5 0 0 0-2.5 2.5v34.16l22.507.006c.46 0 .834.373.834.834v5.654c0 1.795 1.31 3.336 3.002 3.497A3.335 3.335 0 0 0 31.674 45V5c0-1.28.482-2.449 1.273-3.333z"/><path id="123-f" fill-rule="evenodd" d="M0 .833C0 .373.373 0 .833 0h10a.833.833 0 1 1 0 1.667h-10A.833.833 0 0 1 0 .833z"/><path id="123-g" fill-rule="evenodd" d="M0 .833C0 .373.373 0 .833 0H22.5a.833.833 0 0 1 0 1.667H.833A.833.833 0 0 1 0 .833z"/><path id="123-h" fill-rule="evenodd" d="M0 .833C0 .373.373 0 .833 0h9.974a.833.833 0 0 1 0 1.667H.833A.833.833 0 0 1 0 .833z"/><path id="123-i" fill-rule="evenodd" d="M0 .833C0 .373.373 0 .833 0h6.835a.833.833 0 1 1 0 1.667H.833A.833.833 0 0 1 0 .833z"/><path id="123-j" fill-rule="evenodd" d="M0 .833C0 .373.373 0 .833 0h7.36a.833.833 0 1 1 0 1.667H.833A.833.833 0 0 1 0 .833z"/></defs></svg>