<svg xmlns="http://www.w3.org/2000/svg" xmlns:xlink="http://www.w3.org/1999/xlink" width="118" height="118" viewBox="0 0 118 118"><title>circle chart</title><desc>Created using Figma</desc><use height="100%" width="100%" transform="matrix(1.00777 0 0 1.00846 .09 .01)" xlink:href="#123-a" fill="#efefef"/><use height="100%" width="100%" transform="matrix(1.00777 0 0 1.00846 0 0)" xlink:href="#123-b" fill="#1f9bd7"/><defs><path id="123-a" d="M58.5 0C26.2 0 0 26.2 0 58.5S26.2 117 58.5 117 117 90.8 117 58.5 90.8 0 58.5 0zm0 106C32.3 106 11 84.7 11 58.5S32.3 11 58.5 11 106 32.2 106 58.5 84.7 106 58.5 106z"/><path id="123-b" d="M58.586 5.61c0 2.8 2.2 5.2 5 5.5 24.5 2.6 43.4 23.7 42.5 49.1-.9 24.6-21 44.701-45.6 45.601-27.1 1-49.4-20.6-49.4-47.5 0-3.5.4-6.9 1.1-10.2.6-2.8-.9-5.5-3.6-6.4h-.1c-3.1-1-6.4.9-7.1 4-1.1 5.1-1.6 10.5-1.3 16.1 1.8 29.9 26.3 53.8 56.2 54.9 33.3 1.2 60.7-25.4 60.7-58.5 0-30.3-23-55.2-52.5-58.2-3.1-.2-5.9 2.4-5.9 5.6z"/></defs></svg>