<svg xmlns="http://www.w3.org/2000/svg" xmlns:xlink="http://www.w3.org/1999/xlink" viewBox="0 0 200 78.63121"><title>philips</title><desc>Created using Figma</desc><g transform="translate(-428.369 -6416.369)"><mask id="123-b"><use xlink:href="#123-a" transform="translate(429 6444)" width="100%" height="100%" fill="#fff"/></mask></g><g transform="matrix(1.51214 0 0 1.51214 -647.753 -9742.71)"><use transform="translate(429 6475.58)" xlink:href="#123-c" width="100%" height="100%" fill="#423d3d"/><g transform="translate(443.474 6480.02)" fill="#fff"><use xlink:href="#123-d" width="100%" height="100%"/><use xlink:href="#123-e" width="100%" height="100%"/><use xlink:href="#123-f" width="100%" height="100%"/><use xlink:href="#123-g" width="100%" height="100%"/><use xlink:href="#123-h" width="100%" height="100%"/><use xlink:href="#123-i" width="100%" height="100%"/><use xlink:href="#123-j" width="100%" height="100%"/><use xlink:href="#123-k" width="100%" height="100%"/><use xlink:href="#123-l" width="100%" height="100%"/><use xlink:href="#123-m" width="100%" height="100%"/><use xlink:href="#123-n" width="100%" height="100%"/><use xlink:href="#123-o" width="100%" height="100%"/><use xlink:href="#123-p" width="100%" height="100%"/><use xlink:href="#123-q" width="100%" height="100%"/><use xlink:href="#123-r" width="100%" height="100%"/><use xlink:href="#123-s" width="100%" height="100%"/><use xlink:href="#123-t" width="100%" height="100%"/><use xlink:href="#123-u" width="100%" height="100%"/><use xlink:href="#123-v" width="100%" height="100%"/><use xlink:href="#123-w" width="100%" height="100%"/><use xlink:href="#123-x" width="100%" height="100%"/></g><use transform="matrix(1.25 0 0 -1.25 460.579 6465.05)" xlink:href="#123-y" width="100%" height="100%" fill="#423d3d"/><use height="100%" width="100%" transform="translate(429.368 6444)" xlink:href="#123-z" fill="#423d3d"/></g><defs><path id="123-a" d="M0 0h130.263v50H0z"/><path id="123-z" d="M0 0v-1h-1v1zm130.263 0h1v-1h-1zm0 50v1h1v-1zM0 50h-1v1h1zM0 1h130.263v-2H0zm129.263-1v50h2V0zm1 49H0v2h130.263zM1 50V0h-2v50z"/><path id="123-c" d="M0 0h130.263v18.421H0z"/><path id="123-d" d="M3.161 0h.743l3.292 7.402h-1.08l-.98-2.181H2.008L1.08 7.402H0zm1.544 4.283L3.519 1.617l-1.1 2.666z"/><path id="123-e" d="M10.963 7.402v-.616a2.224 2.224 0 0 1-.7.516 1.81 1.81 0 0 1-.78.184c-.306 0-.588-.075-.848-.226a1.531 1.531 0 0 1-.585-.622c-.13-.263-.195-.699-.195-1.306V2.555h.959v2.766c0 .51.072.866.216 1.07.147.2.404.3.769.3.457 0 .845-.223 1.164-.67V2.556h.96v4.847z"/><path id="123-f" d="M12.591 3.324l1.802-1.77v1.001h1.533v.864h-1.533v2.376c0 .555.23.833.69.833.344 0 .708-.116 1.09-.348v.895c-.368.208-.77.311-1.206.311-.439 0-.804-.128-1.096-.384a1.119 1.119 0 0 1-.226-.258 1.494 1.494 0 0 1-.153-.38c-.039-.158-.058-.456-.058-.895v-2.15h-.843z"/><path id="123-g" d="M16.843.042h.959v3.15c.4-.488.897-.732 1.49-.732.324 0 .613.081.87.243.256.161.446.384.569.669.126.284.19.707.19 1.27v2.76h-.96V4.404c0-.354-.087-.639-.263-.853a.83.83 0 0 0-.685-.327c-.21 0-.409.055-.595.164-.186.108-.392.29-.616.542v3.472h-.96z"/><path id="123-h" d="M24.577 2.545c.737 0 1.35.238 1.838.716.488.474.732 1.071.732 1.791 0 .7-.247 1.28-.742 1.744-.496.46-1.119.69-1.87.69-.728 0-1.335-.233-1.823-.7-.489-.471-.733-1.058-.733-1.76 0-.71.246-1.3.738-1.77.495-.474 1.115-.711 1.86-.711zm-.053.864c-.46 0-.838.15-1.133.453-.295.302-.442.686-.442 1.153 0 .464.15.843.453 1.138.302.292.69.438 1.164.438.47 0 .855-.148 1.154-.443.302-.298.453-.68.453-1.143 0-.46-.156-.841-.469-1.143-.313-.302-.706-.453-1.18-.453z"/><path id="123-i" d="M29.239 2.555v1.112l.053-.085c.463-.748.927-1.122 1.39-1.122.362 0 .74.183 1.133.548l-.506.843c-.333-.316-.642-.474-.927-.474-.309 0-.578.147-.806.443a1.68 1.68 0 0 0-.337 1.048v2.534h-.964V2.555z"/><path id="123-j" d="M32.985.516c.158 0 .293.055.406.164a.536.536 0 0 1 .168.4.547.547 0 0 1-.168.4.553.553 0 0 1-.796 0 .558.558 0 0 1-.169-.4c0-.148.057-.277.169-.39a.527.527 0 0 1 .39-.174zm-.474 2.04h.958v4.846h-.958z"/><path id="123-k" d="M34.407 2.555h4.141l-2.566 3.951h2.566v.896h-4.246l2.545-3.951h-2.44z"/><path id="123-l" d="M43.49 5.063H40.08c.025.463.18.832.464 1.106.288.274.658.411 1.111.411.633 0 1.216-.197 1.75-.59v.938a3.191 3.191 0 0 1-.88.421 3.64 3.64 0 0 1-1.017.127c-.534 0-.966-.11-1.296-.332a2.442 2.442 0 0 1-.796-.89c-.196-.376-.295-.81-.295-1.302 0-.737.21-1.336.627-1.796.418-.464.96-.696 1.628-.696.643 0 1.156.225 1.538.675.383.45.575 1.052.575 1.807zm-3.388-.574h2.44c-.025-.383-.14-.678-.343-.885-.204-.208-.478-.311-.822-.311s-.627.103-.848.31c-.218.208-.36.503-.427.886z"/><path id="123-m" d="M47.768.042h.964v7.36h-2.05c-.716 0-1.289-.227-1.717-.68-.425-.453-.638-1.06-.638-1.822 0-.713.224-1.3.67-1.76.45-.46 1.022-.69 1.717-.69.323 0 .674.068 1.054.205zm0 6.538V3.51a1.989 1.989 0 0 0-.907-.227c-.477 0-.858.156-1.143.469-.28.313-.421.734-.421 1.264 0 .5.123.884.369 1.154.147.162.303.27.469.327.165.056.461.084.89.084z"/><path id="123-n" d="M53.178 7.391V.042h2.482c1 0 1.793.151 2.376.453a3.38 3.38 0 0 1 1.39 1.323c.345.583.517 1.218.517 1.907a3.595 3.595 0 0 1-1.096 2.597 3.562 3.562 0 0 1-1.249.795 3.847 3.847 0 0 1-.764.222c-.231.035-.674.052-1.327.052zM55.548.98h-1.316v5.474h1.348c.527 0 .936-.035 1.228-.106.292-.073.534-.165.727-.274.197-.112.376-.249.537-.41.52-.527.78-1.193.78-1.997 0-.79-.267-1.435-.8-1.934a2.543 2.543 0 0 0-.68-.458 2.792 2.792 0 0 0-.722-.237C56.422.999 56.055.98 55.549.98z"/><path id="123-o" d="M61.623.516c.158 0 .294.055.406.164a.536.536 0 0 1 .168.4.547.547 0 0 1-.168.4.553.553 0 0 1-.796 0 .558.558 0 0 1-.168-.4c0-.148.056-.277.168-.39a.528.528 0 0 1 .39-.174zm-.474 2.04h.959v4.846h-.959z"/><path id="123-p" d="M63.262 7.054V6.022c.27.19.546.344.827.463.284.116.523.174.716.174.2 0 .373-.049.517-.147.144-.099.216-.216.216-.353a.462.462 0 0 0-.143-.348c-.09-.095-.291-.23-.6-.406-.618-.344-1.024-.637-1.217-.88a1.284 1.284 0 0 1-.285-.8c0-.373.144-.676.432-.912.292-.235.666-.353 1.123-.353.474 0 .96.134 1.459.4v.949c-.57-.344-1.035-.516-1.396-.516a.776.776 0 0 0-.453.12.36.36 0 0 0-.169.312c0 .112.051.22.153.321.105.102.288.225.548.369l.342.195c.808.456 1.212.962 1.212 1.517 0 .397-.156.724-.469.98-.31.253-.708.38-1.196.38-.288 0-.544-.03-.77-.09a5.395 5.395 0 0 1-.847-.343z"/><path id="123-q" d="M66.97 3.324l1.802-1.77v1.001h1.533v.864h-1.533v2.376c0 .555.23.833.69.833.345 0 .708-.116 1.091-.348v.895c-.369.208-.77.311-1.206.311-.44 0-.805-.128-1.096-.384a1.119 1.119 0 0 1-.227-.258 1.487 1.487 0 0 1-.153-.38c-.038-.158-.057-.456-.057-.895v-2.15h-.843z"/><path id="123-r" d="M72.27 2.555v1.112l.053-.085c.464-.748.927-1.122 1.391-1.122.362 0 .74.183 1.133.548l-.506.843c-.334-.316-.643-.474-.927-.474-.31 0-.578.147-.806.443a1.68 1.68 0 0 0-.338 1.048v2.534h-.964V2.555z"/><path id="123-s" d="M76.016.516c.158 0 .293.055.406.164a.536.536 0 0 1 .169.4.547.547 0 0 1-.17.4.553.553 0 0 1-.795 0 .558.558 0 0 1-.168-.4c0-.148.056-.277.168-.39a.528.528 0 0 1 .39-.174zm-.474 2.04h.959v4.846h-.959z"/><path id="123-t" d="M77.85.042h.959v2.86c.414-.301.856-.452 1.327-.452.615 0 1.117.232 1.507.695.39.464.585 1.06.585 1.786 0 .78-.234 1.401-.701 1.865-.464.46-1.085.69-1.865.69a5.26 5.26 0 0 1-.99-.1 3.267 3.267 0 0 1-.822-.253zm.959 3.778v2.623c.326.098.661.148 1.006.148.425 0 .77-.151 1.038-.453.27-.302.405-.69.405-1.165 0-.48-.126-.873-.38-1.175a1.21 1.21 0 0 0-.979-.453c-.358 0-.722.158-1.09.475z"/><path id="123-u" d="M86.374 7.402v-.616a2.225 2.225 0 0 1-.7.516 1.81 1.81 0 0 1-.78.184c-.306 0-.589-.075-.849-.226a1.531 1.531 0 0 1-.585-.622c-.13-.263-.195-.699-.195-1.306V2.555h.96v2.766c0 .51.071.866.215 1.07.148.2.404.3.77.3.456 0 .844-.223 1.164-.67V2.556h.959v4.847z"/><path id="123-v" d="M88.002 3.324l1.801-1.77v1.001h1.533v.864h-1.533v2.376c0 .555.23.833.69.833.345 0 .708-.116 1.091-.348v.895c-.369.208-.77.311-1.206.311-.44 0-.805-.128-1.096-.384a1.119 1.119 0 0 1-.227-.258 1.494 1.494 0 0 1-.153-.38c-.038-.158-.057-.456-.057-.895v-2.15h-.843z"/><path id="123-w" d="M94.592 2.545c.738 0 1.35.238 1.839.716.488.474.732 1.071.732 1.791 0 .7-.247 1.28-.743 1.744-.495.46-1.118.69-1.87.69-.727 0-1.335-.233-1.823-.7-.488-.471-.732-1.058-.732-1.76 0-.71.246-1.3.738-1.77.495-.474 1.115-.711 1.86-.711zm-.052.864c-.46 0-.838.15-1.133.453-.295.302-.443.686-.443 1.153 0 .464.151.843.453 1.138.302.292.69.438 1.165.438.47 0 .855-.148 1.154-.443.302-.298.453-.68.453-1.143 0-.46-.157-.841-.47-1.143-.312-.302-.705-.453-1.18-.453z"/><path id="123-x" d="M99.255 2.555v1.112l.052-.085c.464-.748.928-1.122 1.391-1.122.362 0 .74.183 1.133.548l-.506.843c-.333-.316-.643-.474-.927-.474-.309 0-.578.147-.806.443a1.68 1.68 0 0 0-.337 1.048v2.534h-.964V2.555z"/><path id="123-y" d="M18.569 10.315h-2.941V6.3h-3.061v4.016H9.626V.211h2.94v3.975h3.062V.21h2.94zm10.23-8.074v8.074h-2.941V.211h5.317l.442 2.03zm-5.115 8.074h-2.941V.211h2.94zm11.921 0h-2.939V.211h2.94zm14.499-2.579c0 .55.524.805 1.369.805.927 0 1.935-.213 2.619-.51l-.24 2.2c-.768.169-1.452.295-2.7.295-2.376 0-3.988-.983-3.988-3.044 0-3.55 4.594-2.833 4.594-4.481 0-.633-.445-.97-1.532-.97-.965 0-2.458.337-3.343.802l.323-2.326C48.09.168 49.299 0 50.266 0c2.457 0 4.47.846 4.47 3.383 0 3.38-4.632 2.747-4.632 4.353zM41.809 2.62c2.737 0 4.47 1.48 4.47 4.06 0 2.831-1.853 3.846-4.874 3.846-1.168 0-2.578-.084-3.584-.21V.21h2.94v2.41zm1.57 4.017c0-1.31-.604-2.199-2.136-2.199h-.482v4.176c.171.01.332.01.482.01 1.45 0 2.136-.718 2.136-1.987zM3.989 2.62c2.737 0 4.47 1.48 4.47 4.06 0 2.831-1.853 3.846-4.873 3.846-1.17 0-2.578-.084-3.586-.21V.21h2.94v2.41zm1.57 4.017c0-1.31-.604-2.199-2.135-2.199h-.483v4.176c.17.01.332.01.483.01 1.45 0 2.136-.718 2.136-1.987z"/></defs></svg>