<?xml version="1.0" encoding="utf-8"?>
<!-- Generator: Adobe Illustrator 21.0.2, SVG Export Plug-In . SVG Version: 6.00 Build 0)  -->
<svg version="1.1" id="Слой_1" xmlns="http://www.w3.org/2000/svg" xmlns:xlink="http://www.w3.org/1999/xlink" x="0px" y="0px"
	 width="294.7px" height="653.4px" viewBox="0 0 294.7 653.4" enable-background="new 0 0 294.7 653.4" xml:space="preserve">
<g id="Pic" opacity="0.1">
	<path fill="#B2C2CE" d="M106.4,353.4c-8.6,0-17.3-0.9-25.9-2.7c-32.2-6.6-60.2-25.2-78.7-52.4c-1.6-2.3-1-5.4,1.3-6.9
		c2.3-1.6,5.4-1,6.9,1.3c17.1,25,42.8,42.1,72.5,48.2c30.4,6.3,61.5,0.4,87.4-16.6c25.9-17,43.7-43.1,49.9-73.4
		c12.9-62.6-27.6-124.2-90.4-137.1c-2.7-0.6-4.4-3.2-3.9-5.9c0.6-2.7,3.2-4.4,5.9-3.9c68.2,14.1,112.2,80.9,98.1,149
		c-6.8,33-26.1,61.3-54.3,79.8C154.6,346.3,130.7,353.4,106.4,353.4z"/>
	<path fill="#B2C2CE" d="M105.8,332.4c-17.9,0-36-4.5-52.6-14.1c-50.4-29.1-67.7-93.7-38.6-144.1c1.4-2.4,4.4-3.2,6.8-1.8
		c2.4,1.4,3.2,4.4,1.8,6.8c-26.3,45.6-10.6,104.1,35,130.5c45.6,26.3,104.1,10.6,130.5-35c26.3-45.6,10.6-104.1-35-130.5
		c-2.4-1.4-3.2-4.4-1.8-6.8c1.4-2.4,4.4-3.2,6.8-1.8c50.4,29.1,67.7,93.7,38.6,144.1C177.8,313.5,142.2,332.4,105.8,332.4z"/>
	<path fill="#B2C2CE" d="M115.4,145h-10v-20h10V145z M115.4,105h-10V85h10V105z M115.4,65h-10V45h10V65z M115.4,25h-10V5h10V25z"/>
	<path fill="#B2C2CE" d="M115.4,648.4h-10v-20h10V648.4z M115.4,608.4h-10v-20h10V608.4z M115.4,568.4h-10v-20h10V568.4z
		 M115.4,528.4h-10v-20h10V528.4z M115.4,488.4h-10v-20h10V488.4z M115.4,448.4h-10v-20h10V448.4z M115.4,408.4h-10v-20h10V408.4z
		 M115.4,368.4h-10v-20h10V368.4z"/>
	<path fill="#B2C2CE" d="M105.4,311.4c-2.8,0-5-2.2-5-5s2.2-5,5-5c41.4,0,75-33.6,75-75s-33.6-75-75-75s-75,33.6-75,75
		c0,2.8-2.2,5-5,5s-5-2.2-5-5c0-46.9,38.1-85,85-85c46.9,0,85,38.1,85,85S152.3,311.4,105.4,311.4z"/>
	<path fill="#B2C2CE" d="M224.2,523.8c-2.3,0-4.4-1.6-4.9-3.9c-0.6-2.7,1.1-5.4,3.8-6c42.3-9.3,69.1-51.3,59.7-93.6
		s-51.3-69.1-93.6-59.7c-20.5,4.5-38,16.7-49.3,34.4c-11.3,17.7-15,38.7-10.5,59.2c0.6,2.7-1.1,5.4-3.8,6c-2.7,0.6-5.4-1.1-6-3.8
		c-5.1-23.1-0.9-46.8,11.8-66.7c12.7-19.9,32.4-33.7,55.5-38.8c47.6-10.5,95,19.7,105.5,67.4c10.5,47.7-19.7,95-67.4,105.5
		C224.9,523.8,224.6,523.8,224.2,523.8z"/>
	<path fill="#B2C2CE" d="M272.8,396.7l-5.6-19.2l9.6-2.8l5.6,19.2L272.8,396.7z M261.7,358.3l-5.6-19.2l9.6-2.8l5.6,19.2
		L261.7,358.3z M250.5,319.8l-5.6-19.2l9.6-2.8l5.6,19.2L250.5,319.8z M239.4,281.4l-5.6-19.2l9.6-2.8l5.6,19.2L239.4,281.4z
		 M228.2,243l-5.6-19.2l9.6-2.8l5.6,19.2L228.2,243z"/>
	<path id="Forma_1" fill="#B2C2CE" d="M263.3,433.1c-0.1-2-1.5-3.8-3.5-4.3l-11.6-3c-0.5-2.2-1.3-4.3-2.2-6.4l7.5-9.4
		c1.3-1.6,1.5-3.8,0.4-5.5c-2.5-3.6-5.4-7-8.6-9.9c-1.6-1.3-3.8-1.5-5.5-0.4l-10.6,5.8c-1.9-1.2-3.9-2.2-6-3l-1.4-11.9
		c-0.2-2-1.8-3.7-3.8-4c-4.3-0.9-8.8-1.2-13.2-0.9c-2,0.1-3.8,1.5-4.3,3.5l-3,11.6c-2.2,0.5-4.3,1.3-6.4,2.2l-9.4-7.5
		c-1.6-1.3-3.8-1.5-5.5-0.4c-3.6,2.5-7,5.4-9.9,8.6c-1.3,1.6-1.5,3.8-0.4,5.5l5.8,10.6c-1.2,1.9-2.2,3.9-3,6l-11.9,1.4
		c-2,0.2-3.7,1.8-4,3.8c-0.9,4.3-1.2,8.8-0.9,13.2c0.1,2,1.5,3.8,3.5,4.3l11.6,3c0.5,2.2,1.3,4.3,2.2,6.4l-7.5,9.4
		c-1.3,1.6-1.5,3.8-0.4,5.5c2.5,3.6,5.4,7,8.6,9.9c1.6,1.3,3.8,1.5,5.5,0.4l10.6-5.9c1.9,1.2,3.9,2.2,6,3l1.4,11.9
		c0.2,2,1.8,3.7,3.8,4c4.3,0.9,8.8,1.2,13.2,0.9c2-0.1,3.8-1.5,4.3-3.5l3-11.6c2.2-0.5,4.3-1.3,6.4-2.2l9.4,7.5
		c1.6,1.3,3.8,1.5,5.5,0.4c3.6-2.5,7-5.4,9.9-8.6c1.3-1.6,1.5-3.8,0.4-5.5l-5.8-10.6c1.2-1.9,2.2-3.9,3-6l11.9-1.4
		c2-0.2,3.7-1.8,4-3.8C263.3,442,263.6,437.5,263.3,433.1z M254.1,439.2c0,0.7-0.1,1.4-0.1,2.1l-11.3,1.3c-1.8,0.2-3.3,1.5-3.9,3.2
		c-1,3.2-2.5,6.3-4.5,9c-1.1,1.5-1.2,3.4-0.3,5.1l5.8,9.7c-1,1-2.1,2-3.2,2.8l-8.8-7c-1.5-1.1-3.4-1.2-5.1-0.4
		c-3,1.6-6.2,2.7-9.6,3.2c-1.8,0.3-3.3,1.6-3.7,3.4l-2.7,10.8c-1.5-0.1-2.8-0.2-4.3-0.3l-1.3-11.3c-0.2-1.8-1.5-3.4-3.2-3.9
		c-3.2-1-6.3-2.5-9-4.5c-1.5-1.1-3.4-1.2-5.1-0.3l-9.7,5.8c-1-1-1.9-2.1-2.8-3.2l7-8.8c1.1-1.5,1.2-3.5,0.3-5.1
		c-1.6-3-2.7-6.2-3.2-9.5c-0.3-1.8-1.7-3.3-3.4-3.7l-10.9-2.7c0.1-0.7,0.1-1.4,0.1-2.1s0.1-1.4,0.2-2.1l11.3-1.3
		c1.8-0.2,3.4-1.5,3.9-3.2c1-3.2,2.5-6.3,4.5-9c1-1.5,1.1-3.4,0.2-5l-5.8-9.7c1-1,2.1-1.9,3.2-2.8l8.9,7c1.5,1.1,3.5,1.2,5.1,0.4
		c3-1.6,6.2-2.7,9.5-3.2c1.8-0.3,3.3-1.6,3.7-3.4l2.7-10.9l4.3,0.3l1.3,11.3c0.2,1.8,1.5,3.3,3.2,3.9c3.2,1,6.3,2.5,9,4.5
		c1.5,1.1,3.4,1.2,5.1,0.4l9.7-5.8c1,1,1.9,2.1,2.8,3.2l-7.1,8.8c-1.1,1.5-1.2,3.5-0.3,5.1c1.6,3,2.7,6.2,3.2,9.5
		c0.3,1.8,1.6,3.3,3.4,3.7l11,2.8C254.2,437.8,254.2,438.5,254.1,439.2z M209.2,412.7c-12.8-0.9-23.9,8.8-24.8,21.6
		c-0.9,12.8,8.8,23.9,21.6,24.8c12.8,0.9,23.9-8.8,24.8-21.6c0,0,0,0,0,0C231.7,424.7,222,413.6,209.2,412.7z M206.7,449.8
		c-7.7-0.5-13.5-7.2-13-14.9c0.5-7.7,7.2-13.5,14.9-13c7.7,0.5,13.5,7.2,13,14.9c0,0,0,0,0,0C221,444.5,214.4,450.3,206.7,449.8
		C206.7,449.8,206.7,449.8,206.7,449.8L206.7,449.8z M193.2,504.7c-0.1-1.3-1.1-2.3-2.4-2.6l-7.5-1.4c-0.4-1.4-1-2.7-1.7-4l4.3-6.3
		c0.8-1,0.8-2.5,0-3.5c-1.7-2.2-3.7-4.2-5.9-5.9c-1-0.8-2.5-0.8-3.5,0l-6.4,4.2c-1.3-0.7-2.6-1.2-4-1.7l-1.4-7.5
		c-0.2-1.3-1.3-2.3-2.6-2.4c-2.8-0.4-5.6-0.4-8.4,0c-1.3,0.1-2.3,1.1-2.6,2.4l-1.4,7.5c-1.4,0.4-2.7,1-4,1.7l-6.3-4.4
		c-1-0.8-2.5-0.8-3.5,0c-2.2,1.7-4.2,3.7-5.9,5.9c-0.8,1-0.8,2.5,0,3.5l4.2,6.4c-0.7,1.3-1.2,2.6-1.7,4l-7.5,1.4
		c-1.3,0.2-2.3,1.3-2.4,2.6c-0.3,2.8-0.3,5.6,0,8.4c0.1,1.3,1.1,2.3,2.4,2.6l7.5,1.4c0.4,1.4,1,2.7,1.7,4l-4.3,6.3
		c-0.8,1-0.8,2.5,0,3.5c1.7,2.2,3.7,4.2,5.9,5.9c1,0.8,2.5,0.8,3.5,0l6.4-4.2c1.3,0.7,2.6,1.2,4,1.7l1.4,7.5
		c0.2,1.3,1.3,2.3,2.6,2.4c2.8,0.4,5.6,0.4,8.4,0c1.3-0.1,2.3-1.1,2.6-2.4l1.4-7.5c1.4-0.4,2.7-1,4-1.7l6.3,4.4c1,0.8,2.5,0.8,3.5,0
		c2.2-1.7,4.2-3.7,5.9-5.9c0.8-1,0.8-2.5,0-3.5l-4.2-6.4c0.7-1.3,1.2-2.6,1.7-4l7.5-1.4c1.3-0.2,2.3-1.3,2.4-2.6
		C193.5,510.3,193.5,507.5,193.2,504.7z M187.6,509v1.4l-7.1,1.3c-1.1,0.2-2.1,1.1-2.3,2.2c-0.5,2.1-1.3,4.1-2.5,5.9
		c-0.6,1-0.6,2.2,0,3.2l4.1,5.9c-0.6,0.7-1.2,1.3-1.9,1.9l-5.9-4.1c-1-0.6-2.2-0.6-3.2,0c-1.8,1.1-3.8,2-5.9,2.5
		c-1.1,0.3-2,1.2-2.2,2.3l-1.3,7h-2.7l-1.3-7.1c-0.2-1.2-1.1-2.1-2.2-2.3c-2.1-0.5-4.1-1.3-5.9-2.5c-1-0.6-2.2-0.6-3.2,0l-5.9,4.1
		c-0.7-0.6-1.3-1.2-1.9-1.9l4.1-5.9c0.6-1,0.6-2.2,0-3.2c-1.1-1.8-2-3.8-2.5-5.9c-0.3-1.1-1.2-2-2.3-2.2l-7-1.2v-2.7l7.1-1.3
		c1.2-0.2,2.1-1.1,2.3-2.2c0.5-2.1,1.3-4.1,2.4-5.9c0.6-1,0.6-2.2-0.1-3.2l-4.1-5.9c0.6-0.7,1.2-1.3,1.9-1.9l5.9,4.1
		c1,0.6,2.2,0.6,3.2,0c1.8-1.1,3.8-2,5.9-2.4c1.1-0.3,2-1.2,2.2-2.3l1.2-7h2.7l1.3,7.1c0.2,1.1,1.1,2.1,2.2,2.3
		c2.1,0.5,4.1,1.3,5.9,2.4c1,0.6,2.2,0.6,3.2,0l5.9-4.1c0.7,0.6,1.3,1.2,1.9,1.9l-4.1,5.9c-0.6,1-0.6,2.2,0,3.2
		c1.1,1.8,2,3.8,2.5,5.9c0.3,1.1,1.2,2,2.3,2.2l7.1,1.3L187.6,509L187.6,509z M157.9,494.1c-8.2,0-14.8,6.6-14.8,14.8
		c0,8.2,6.6,14.8,14.8,14.8c8.2,0,14.8-6.6,14.8-14.8C172.7,500.7,166.1,494.1,157.9,494.1C157.9,494.1,157.9,494.1,157.9,494.1z
		 M157.9,517.8c-4.9,0-8.9-4-8.9-8.9c0-4.9,4-8.9,8.9-8.9c4.9,0,8.9,4,8.9,8.9C166.8,513.8,162.8,517.8,157.9,517.8
		C157.9,517.8,157.9,517.8,157.9,517.8L157.9,517.8z M148.7,222.1c-0.2-1.6-1.4-2.8-2.9-3.1l-9.1-1.7c-0.5-1.6-1.2-3.2-2-4.8
		l5.2-7.6c0.9-1.3,0.9-3,0-4.2c-2.1-2.6-4.5-5-7.1-7.1c-1.3-0.9-3-0.9-4.2,0l-7.8,5c-1.5-0.8-3.1-1.5-4.8-2l-1.7-9.1
		c-0.3-1.5-1.5-2.7-3.1-2.9c-3.4-0.4-6.8-0.4-10.1,0c-1.6,0.2-2.8,1.4-3.1,2.9l-1.7,9.1c-1.6,0.5-3.2,1.2-4.8,2l-7.6-5.2
		c-1.3-0.9-3-0.9-4.3,0c-2.6,2.1-5,4.5-7.1,7.1c-0.9,1.3-0.9,3,0,4.2l5,7.8c-0.8,1.5-1.5,3.1-2,4.8l-9.1,1.7
		c-1.5,0.3-2.7,1.5-2.9,3.1c-0.4,3.4-0.4,6.8,0,10.1c0.2,1.6,1.3,2.8,2.9,3.1l9.1,1.7c0.5,1.6,1.2,3.2,2,4.8l-5.2,7.6
		c-0.9,1.3-0.9,3,0,4.2c2.1,2.7,4.5,5,7.1,7.1c1.3,0.9,3,0.9,4.2,0l7.8-5c1.5,0.8,3.1,1.5,4.8,2l1.7,9.1c0.3,1.5,1.5,2.7,3.1,2.9
		c3.4,0.4,6.8,0.4,10.1,0c1.6-0.2,2.8-1.3,3.1-2.9l1.7-9.1c1.6-0.5,3.2-1.2,4.8-2l7.6,5.2c1.3,0.9,3,0.9,4.2,0
		c2.6-2.1,5-4.5,7.1-7.1c0.9-1.3,0.9-3,0-4.2l-5-7.8c0.8-1.5,1.5-3.1,2-4.8l9.1-1.7c1.5-0.3,2.7-1.6,2.9-3.1
		C149.1,228.9,149.1,225.5,148.7,222.1z M141.9,227.2v1.6l-8.6,1.6c-1.4,0.3-2.5,1.3-2.8,2.7c-0.6,2.5-1.6,4.9-3,7.1
		c-0.8,1.2-0.8,2.7,0,3.9l4.9,7.1c-0.7,0.8-1.5,1.6-2.3,2.3l-7.1-4.9c-1.2-0.8-2.7-0.8-3.9,0c-2.2,1.4-4.6,2.4-7.1,3
		c-1.4,0.3-2.4,1.4-2.7,2.8l-1.5,8.4h-3.3l-1.6-8.6c-0.3-1.4-1.3-2.5-2.7-2.8c-2.5-0.6-4.9-1.6-7.1-3c-1.2-0.8-2.7-0.8-3.9,0
		l-7.1,4.9c-0.8-0.7-1.6-1.5-2.3-2.3l4.9-7.1c0.8-1.2,0.8-2.7,0-3.9c-1.4-2.2-2.4-4.6-2.9-7.1c-0.3-1.4-1.4-2.4-2.8-2.7l-8.4-1.5
		v-3.3l8.6-1.6c1.4-0.3,2.5-1.3,2.8-2.7c0.6-2.5,1.6-4.9,3-7.1c0.7-1.2,0.7-2.7-0.1-3.8l-4.9-7.1c0.7-0.8,1.5-1.6,2.3-2.3l7.2,4.9
		c1.2,0.8,2.7,0.8,3.9,0c2.2-1.4,4.6-2.4,7.1-3c1.4-0.3,2.4-1.4,2.7-2.8l1.5-8.5h3.3l1.6,8.6c0.3,1.4,1.3,2.5,2.7,2.8
		c2.5,0.6,4.9,1.6,7.1,3c1.2,0.8,2.7,0.8,3.9,0l7.1-4.9c0.8,0.7,1.6,1.5,2.3,2.3l-4.9,7.1c-0.8,1.2-0.8,2.7,0,3.9
		c1.4,2.2,2.4,4.6,3,7.1c0.3,1.4,1.4,2.4,2.8,2.7l8.6,1.6L141.9,227.2L141.9,227.2z M106.2,209.3c-9.8,0-17.8,8-17.8,17.8
		c0,9.8,8,17.8,17.8,17.8c9.8,0,17.8-8,17.8-17.8c0,0,0,0,0,0C124,217.3,116.1,209.4,106.2,209.3z M106.2,237.9
		c-5.9,0-10.7-4.8-10.7-10.7c0-5.9,4.8-10.7,10.7-10.7c5.9,0,10.7,4.8,10.7,10.7c0,0,0,0,0,0C116.9,233.1,112.1,237.9,106.2,237.9z"
		/>
</g>
</svg>
