<svg width="170" height="21" viewBox="0 0 170 21" xmlns="http://www.w3.org/2000/svg" xmlns:xlink="http://www.w3.org/1999/xlink"><title>general_electric</title><desc>Created using Figma</desc><use xlink:href="#123-a" fill="#3A73B8"/><use xlink:href="#123-b" transform="translate(.637 .541)" fill="#FFF"/><use xlink:href="#123-c" transform="translate(1.141 1.074)" fill="#3A73B8"/><use xlink:href="#123-d" transform="translate(4.827 4.741)" fill="#FFF"/><use xlink:href="#123-e" transform="translate(5.87 2.568)" fill="#3A73B8"/><defs><path id="123-a" fill-rule="evenodd" d="M19.822 5.296c1.698 2.85 1.758 7.34-.061 10.13-2.244 3.76-6.37 5.762-10.797 5.155-3.458-.485-6.915-3.032-8.19-6.43C-.923 10.27.29 5.662 3.262 2.87c3.094-3.033 8.25-3.7 12.01-1.82 1.82.91 3.518 2.426 4.55 4.246z"/><path id="123-b" fill-rule="evenodd" d="M19.063 5.665c1.396 3.215 1.092 7.521-1.213 10.191-2.244 2.73-5.52 4.125-9.28 3.7-3.094-.425-6.066-2.487-7.583-5.278C-.65 11.063-.226 6.453 2.08 3.663 4.565.691 8.386-.522 12.269.206c2.851.545 5.52 2.85 6.794 5.46z"/><path id="123-c" fill-rule="evenodd" d="M11.583.218c-1.213 0-2.729-.303-3.397.91 0 .364 0 .728.365.91 1.273 0 2.122-1.457 3.64-.789 2.728.244 5.397 2.427 6.186 5.035.485 1.516.728 3.396.243 4.912.06-1.09.302-2.547-.789-3.153a.958.958 0 0 0-1.032.303c-.182 1.152 1.214 1.698.97 2.911-.181 2.73-1.94 5.338-4.428 6.43-1.638.667-3.578 1.09-5.46.667.911.181 2.124 0 2.791-.85.06-.363-.06-.788-.424-.97-1.153 0-2.063 1.274-3.397.789-2.427-.244-4.732-1.76-5.945-4.003-.91-1.821-1.212-4.308-.546-6.37-.182 1.092-.303 2.487.546 3.336.182.243.546.243.85.182.363-.243.485-.789.242-1.091-.788-.85-.909-2.064-.666-3.216.364-2.426 2.365-4.731 4.731-5.52 1.577-.726 3.761-.787 5.52-.423z"/><path id="123-d" fill-rule="evenodd" d="M5.045.615c.244 1.577-1.092 2.79-2.366 3.518 0 .243.243.364.486.425 1.577.12 1.092-2.184 2.547-2.063.546.97-1.274 1.396-.668 2.427A17.736 17.736 0 0 0 7.29 3.466C7.167 2.13 7.592.857 8.685.129c.363-.181.91-.181 1.213.061.424.304.363.91.303 1.335-.364.97-1.153 1.395-1.88 2.123.121 1.153 1.334.061 1.88.728.182.424-.303.606-.607.667-.667-.182-1.274 0-1.82.424-.667.546-.85 1.274-.97 2.001 0 1.092.424 2.245 1.516 2.67.728.06 1.335-.061 1.82-.547.425-.364.546-.85.546-1.335-.06-.485-.182-1.031-.728-1.274-.363-.121-.85 0-1.03.426-.365.606.909 1.152 0 1.576-.547-.06-.79-.606-.971-1.031 0-.546.182-1.032.485-1.395.485-.303 1.031-.547 1.638-.364.85.122 1.274.97 1.457 1.76 0 .788-.122 1.516-.607 2.123-.606.667-1.395.85-2.305.91-.789-.122-1.517-.363-2.123-1.032-.667-.97-.97-2.547-.364-3.64.364-.727.97-1.273 1.577-1.697.122-.122 0-.243-.121-.364-.97.303-1.76 1.153-2.67 1.576-.303 1.881-.424 4.125-2.365 4.975-.606.182-1.213.243-1.82-.06C.132 10.38-.05 9.713.01 8.985.497 6.983 2.56 6.377 4.015 5.467c.122-.122.122-.243.122-.424-.426-.121-.91.424-1.457.181-.91-.181-.727-1.395-1.638-1.395C.496 3.344.435 2.494.618 1.827c.12-.181.243-.303.424-.363.182.667-.303 1.698.606 1.88.304-1.335.85-2.912 2.305-3.336.486 0 1.032.121 1.092.607z"/><path id="123-e" fill-rule="evenodd" d="M3.215 3.152c-.06.909-.788 1.638-1.516 2.123-.061-.85.424-1.76 1.213-2.245.12-.06.242 0 .303.122zm5.156 0c-.06.788-.607 1.212-1.213 1.638 0-.728.304-1.396.91-1.76.121-.06.303 0 .303.122zM2.79 8.672c-.122 1.395-.546 2.79-1.82 3.578-.485.061-.91-.121-.97-.546.06-1.516 1.638-2.426 2.79-3.032zm28.312-3.454c.17-1.658-.97-1.637-2.018-1.637-2.516 0-2.759.96-3.14 3.603l-.383 2.664c-.418 2.905.341 3.21 2.159 3.21 1.781 0 2.325-.502 2.652-2.774h-2.41l.436-3.034h5.958l-.412 2.86c-.795 5.525-2.059 6.53-6.74 6.53-4.123 0-6.094-.874-5.33-6.18l.61-4.236C23.264.81 25.756 0 29.599 0c3.389 0 5.69.764 5.049 5.218h-3.546zm12.617 7.468c-.248 1.725-.844 2.708-1.712 3.276-.865.546-2.002.676-3.33.676-3.616 0-4.264-1.571-3.647-5.852.635-4.41 1.65-5.874 5.336-5.874 3.441 0 4.299 1.201 3.626 5.874l-.092.633h-5.957c-.29 2.01-.13 2.598 1.111 2.598.926 0 1.538-.13 1.712-1.332h2.953v.001zm-2.524-3.34c.247-1.704-.246-1.813-1.258-1.813-1.066 0-1.442.307-1.693 1.813h2.951zm6.515 7.163h-3.004l1.65-11.465h3.005l-.308 2.14h.123c.697-1.813 1.654-2.272 3.07-2.272 2.026 0 2.779 1.201 2.423 3.669l-1.141 7.927h-3.005l1.016-7.054c.142-1.114-.023-1.66-1.001-1.66-1.345 0-1.717 1.005-1.918 2.403l-.91 6.312zm16.849-3.823c-.248 1.725-.845 2.708-1.713 3.276-.865.546-2.001.676-3.33.676-3.615 0-4.263-1.571-3.646-5.852.635-4.41 1.649-5.874 5.335-5.874 3.442 0 4.3 1.201 3.626 5.874l-.09.633h-5.958c-.289 2.01-.13 2.598 1.111 2.598.926 0 1.538-.13 1.712-1.332h2.953v.001zm-2.524-3.34c.245-1.704-.246-1.813-1.26-1.813-1.065 0-1.441.307-1.693 1.813h2.953zm6.462 7.163h-3.004l1.65-11.465h2.918l-.243 1.682h.122c.59-1.31 1.449-1.813 2.567-1.813 2.097 0 1.963 2.14 1.661 4.236l-.129.896h-2.707l.078-.547c.116-.808.28-1.704-.542-1.704-.908 0-1.247.896-1.382 1.835l-.989 6.88zm11.722-1.704c-.452 1.573-1.853 1.835-2.901 1.835-2.097 0-3.228-.633-2.807-3.56.397-2.75 1.672-3.602 3.838-3.602.856 0 2.17-.022 2.312 1.288h.14l.26-1.813c.155-1.07.2-1.746-1.11-1.746-.752 0-1.254.218-1.402 1.245h-3.005c.513-3.56 2.589-3.538 4.737-3.538 3.076 0 4.298.48 3.73 4.433l-1.033 7.162h-3.004l.35-1.703h-.105zm-1.204-3.035c-.734 0-1.333.152-1.484 1.2-.179 1.245.677 1.245 1.131 1.245 1.257 0 1.67-.197 1.843-1.397.138-.962-.513-1.048-1.49-1.048zm8.959 4.739h-3.005L87.328.13h3.003l-2.357 16.378zm13.32-9.805h5.589l-.436 3.034h-5.59l-.459 3.19h6.079l-.516 3.58h-9.574L98.746.132h9.452l-.516 3.581h-5.957l-.431 2.992zm9.855 9.805h-3.004L110.504.13h3.003l-2.358 16.378zm11.046-3.823c-.248 1.725-.843 2.708-1.71 3.276-.866.546-2.002.676-3.331.676-3.616 0-4.262-1.571-3.647-5.852.635-4.41 1.65-5.874 5.336-5.874 3.442 0 4.299 1.201 3.627 5.874l-.093.633h-5.957c-.289 2.01-.13 2.598 1.111 2.598.927 0 1.538-.13 1.713-1.332h2.951v.001zm-2.523-3.34c.245-1.704-.246-1.813-1.259-1.813-1.066 0-1.442.307-1.694 1.813h2.953zm12.538 2.576c-.307 2.14-.832 3.233-1.64 3.866-.793.655-1.851.852-3.476.852-3.547 0-4.193-1.333-3.541-5.852.558-3.887 1.474-5.874 5.231-5.874 2.636 0 4.371.459 3.799 4.433h-3.006c.106-.612.106-.983-.067-1.223-.176-.24-.513-.328-1.141-.328-1.067 0-1.434.372-1.812 2.992-.387 2.686-.182 2.97.953 2.97 1.363 0 1.493-.415 1.696-1.835h3.004zm8.805-4.127h-3.478l-.737 5.132c-.08.677-.017.961.543.961.786 0 .852-.7.999-1.485l.107-.612h2.394l-.149 1.027c-.449 3.123-1.475 3.821-3.922 3.821-1.921 0-3.466-.306-3.051-3.188l.814-5.657h-1.118l.396-2.75h1.118l.35-2.425h3.004l-.348 2.424h3.476l-.398 2.752zm3.32 8.713h-3.006l1.651-11.464h2.917l-.243 1.682h.123c.59-1.31 1.45-1.813 2.567-1.813 2.096 0 1.962 2.14 1.661 4.236l-.13.896h-2.707l.08-.547c.115-.808.278-1.704-.542-1.704-.908 0-1.247.896-1.382 1.835l-.989 6.88zm8.542 0h-2.988l1.649-11.464h2.989l-1.65 11.465zm1.943-13.494h-2.988l.415-2.883h2.988l-.415 2.883zm8.828 8.908c-.307 2.14-.832 3.233-1.64 3.866-.793.655-1.851.852-3.476.852-3.547 0-4.193-1.333-3.541-5.852.558-3.887 1.474-5.874 5.231-5.874 2.636 0 4.371.459 3.799 4.433h-3.006c.106-.612.106-.983-.067-1.223-.175-.24-.513-.328-1.141-.328-1.067 0-1.434.372-1.812 2.992-.387 2.686-.182 2.97.953 2.97 1.363 0 1.493-.415 1.696-1.835h3.004z"/></defs></svg>