<svg xmlns="http://www.w3.org/2000/svg" xmlns:xlink="http://www.w3.org/1999/xlink" width="22" height="22" viewBox="0 0 22 22"><title>diod</title><desc>Created using Figma</desc><use xlink:href="#123-a" transform="translate(5.823 14.235)" fill="#ffffff" width="100%" height="100%"/><use xlink:href="#123-b" transform="translate(3.235)" fill="#ffffff" width="100%" height="100%"/><use xlink:href="#123-c" transform="translate(7.118)" fill="#ffffff" width="100%" height="100%"/><use xlink:href="#123-d" transform="translate(9.706 2.588)" fill="#ffffff" width="100%" height="100%"/><use xlink:href="#123-e" transform="translate(5.177 2.588)" fill="#ffffff" width="100%" height="100%"/><use xlink:href="#123-f" transform="translate(5.177 6.471)" fill="#ffffff" width="100%" height="100%"/><use xlink:href="#123-e" transform="translate(5.177 10.353)" fill="#ffffff" width="100%" height="100%"/><use xlink:href="#123-e" transform="translate(15.53 2.588)" fill="#ffffff" width="100%" height="100%"/><use xlink:href="#123-f" transform="translate(15.53 6.471)" fill="#ffffff" width="100%" height="100%"/><use xlink:href="#123-e" transform="translate(15.53 10.353)" fill="#ffffff" width="100%" height="100%"/><use xlink:href="#123-g" transform="translate(9.706 6.471)" fill="#ffffff" width="100%" height="100%"/><use xlink:href="#123-d" transform="translate(9.706 10.353)" fill="#ffffff" width="100%" height="100%"/><defs><path id="123-a" d="M9.059 1.294v5.177H1.294V1.294zM10.353 0H0v7.118c0 .388.259.647.647.647h9.059c.388 0 .647-.26.647-.647z"/><path id="123-b" d="M14.235 1.294v12.941H1.295V1.295zM0 .647v14.235c0 .389.259.647.647.647h14.235c.389 0 .647-.258.647-.647V.647c0-.388-.258-.647-.647-.647H.647C.26 0 0 .259 0 .647z"/><path id="123-c" d="M6.47 1.294v12.941H1.295V1.295zM7.766 0H0v15.53h7.765z"/><path id="123-d" d="M1.941 0H.647C.26 0 0 .259 0 .647v1.294c0 .388.259.647.647.647h1.294c.388 0 .647-.259.647-.647V.647C2.588.26 2.33 0 1.941 0z"/><path id="123-e" d="M.647 0C.26 0 0 .259 0 .647v1.294c0 .388.259.647.647.647s.647-.259.647-.647V.647C1.294.26 1.035 0 .647 0z"/><path id="123-f" d="M.647 0C.26 0 0 .259 0 .647v1.294c0 .388.259.647.647.647s.647-.259.647-.647V.647C1.294.26 1.035 0 .647 0z"/><path id="123-g" d="M1.941 0H.647C.26 0 0 .259 0 .647v1.294c0 .388.259.647.647.647h1.294c.388 0 .647-.259.647-.647V.647C2.588.26 2.33 0 1.941 0z"/></defs></svg>