<svg xmlns="http://www.w3.org/2000/svg" xmlns:xlink="http://www.w3.org/1999/xlink" width="34" height="34" viewBox="0 0 34 34"><title>aroma</title><desc>Created using Figma</desc><use xlink:href="#123-a" transform="translate(4.137 6.025)" fill="#1f9bd7" width="100%" height="100%"/><defs><path id="123-a" d="M.185 21.05l.6.8.054-.04.047-.047zm5.7-5.6l.701.713.006-.006zm-2.7-1.8l-.7-.713-.007.006zm5.7-5.6l.701.713.006-.006zm-2.7-1.8l-.695-.718-.006.005-.006.006zm6.3-6.1l.696.718.006-.005.006-.006zm.8 0l.696-.718-.065-.064-.076-.05zm6.3 6.1l.707-.707-.005-.006-.006-.005zm-2.7 1.8l-.707.707.006.006zm5.7 5.6l.707-.707-.006-.006zm-2.7 1.8l-.707.707.006.006zm5.7 5.6l.707-.707-.006-.006zm-24.699.713l5.7-5.6-1.401-1.426-5.7 5.6zm5.706-5.606c.482-.482.518-1.151.322-1.64a1.525 1.525 0 0 0-1.429-.967v2a.475.475 0 0 1-.428-.291.482.482 0 0 1 .121-.516zM5.485 13.55h-1.9v2h1.9zm-1.9 0c.207 0 .37.145.429.291a.482.482 0 0 1-.122.516l-1.414-1.414c-.482.482-.517 1.151-.321 1.64.208.522.722.967 1.428.967zm.301.813l5.7-5.6-1.401-1.426-5.7 5.6zm5.706-5.606c.482-.482.518-1.151.322-1.64a1.525 1.525 0 0 0-1.429-.967v2a.476.476 0 0 1-.428-.291.482.482 0 0 1 .121-.516zM8.485 6.15h-1.9v2h1.9zm-1.9 0c.207 0 .37.145.429.291a.482.482 0 0 1-.122.516L5.478 5.543c-.482.482-.517 1.151-.321 1.64.208.522.722.967 1.428.967zm.296.818l6.3-6.1L11.79-.568l-6.3 6.1zm6.312-6.11a.5.5 0 0 1-.345.142c-.105 0-.145-.036-.117-.018l1.11-1.664c-.548-.365-1.413-.525-2.063.125zm-.603.01l6.3 6.1 1.391-1.436-6.3-6.1zm6.288 6.09a.482.482 0 0 1-.121-.517.475.475 0 0 1 .428-.291v2c.707 0 1.22-.445 1.429-.966.196-.49.16-1.16-.321-1.641zm.307-.808h-1.9v2h1.9zm-1.9 0c-.706 0-1.22.445-1.428.966-.196.49-.16 1.16.321 1.641l1.415-1.414a.482.482 0 0 1 .12.516.475.475 0 0 1-.428.291zm-1.1 2.613l5.7 5.6 1.401-1.426-5.7-5.6zm5.693 5.594a.482.482 0 0 1-.121-.516.475.475 0 0 1 .428-.291v2c.707 0 1.22-.445 1.429-.966.196-.49.16-1.16-.321-1.641zm.307-.807h-1.9v2h1.9zm-1.9 0c-.706 0-1.22.445-1.428.966-.196.49-.16 1.16.321 1.641l1.415-1.414a.482.482 0 0 1 .12.516.475.475 0 0 1-.428.291zm-1.1 2.613l5.7 5.6 1.401-1.426-5.7-5.6zm5.693 5.594a.482.482 0 0 1-.121-.516.475.475 0 0 1 .428-.291v2c.707 0 1.22-.445 1.429-.966.196-.49.16-1.16-.321-1.641zm.307-.807H.585v2h24.6zm-24.6 0c.165 0 .304.1.369.24a.558.558 0 0 1-.169.66l-1.2-1.6c-.634.476-.7 1.236-.443 1.785.24.515.778.915 1.443.915z"/></defs></svg>