<svg xmlns="http://www.w3.org/2000/svg" xmlns:xlink="http://www.w3.org/1999/xlink" width="34" height="34" viewBox="0 0 34 34"><title>fog</title><desc>Created using Figma</desc><use xlink:href="#123-a" transform="translate(0 5)" fill="#1f9bd7" width="100%" height="100%"/><use xlink:href="#123-b" transform="translate(10 19)" fill="#1f9bd7" width="100%" height="100%"/><use xlink:href="#123-c" transform="translate(12 8)" width="100%" height="100%" fill="#fff"/><use xlink:href="#123-d" transform="translate(11 7)" fill="#1f9bd7" width="100%" height="100%"/><use xlink:href="#123-e" transform="translate(16 12)" width="100%" height="100%" fill="#fff"/><use xlink:href="#123-f" transform="translate(15 11)" fill="#1f9bd7" width="100%" height="100%"/><use xlink:href="#123-g" transform="translate(4 7)" width="100%" height="100%" fill="#fff"/><use xlink:href="#123-g" transform="translate(4 7)" fill="#1f9bd7" width="100%" height="100%"/><g><use xlink:href="#123-g" transform="translate(7 7)" width="100%" height="100%" fill="#fff"/><use xlink:href="#123-g" transform="translate(7 7)" fill="#1f9bd7" width="100%" height="100%"/></g><g><use xlink:href="#123-g" transform="translate(29 7)" width="100%" height="100%" fill="#fff"/><use xlink:href="#123-g" transform="translate(29 7)" fill="#1f9bd7" width="100%" height="100%"/></g><g><use xlink:href="#123-g" transform="translate(26 7)" width="100%" height="100%" fill="#fff"/><use xlink:href="#123-g" transform="translate(26 7)" fill="#1f9bd7" width="100%" height="100%"/></g><defs><path id="123-a" d="M31 2c.6 0 1 .4 1 1v10c0 .6-.4 1-1 1H3c-.6 0-1-.4-1-1V3c0-.6.4-1 1-1zm0-2H3C1.3 0 0 1.3 0 3v10c0 1.7 1.3 3 3 3h28c1.7 0 3-1.3 3-3V3c0-1.7-1.3-3-3-3z"/><path id="123-b" d="M9 2c1.7 0 3 1.3 3 3v3H2V5c0-1.7 1.3-3 3-3zm0-2H5C2.2 0 0 2.2 0 5v4c0 .6.4 1 1 1h12c.6 0 1-.4 1-1V5c0-2.8-2.2-5-5-5z"/><path id="123-c" d="M5 10A5 5 0 1 0 5 0a5 5 0 0 0 0 10z"/><path id="123-d" d="M6 2c2.2 0 4 1.8 4 4s-1.8 4-4 4-4-1.8-4-4 1.8-4 4-4zm0-2C2.7 0 0 2.7 0 6s2.7 6 6 6 6-2.7 6-6-2.7-6-6-6z"/><path id="123-e" d="M1 2a1 1 0 1 0 0-2 1 1 0 0 0 0 2z"/><path id="123-f" d="M2 0C.9 0 0 .9 0 2s.9 2 2 2 2-.9 2-2-.9-2-2-2z"/><path id="123-g" d="M1 0H0v12h1z"/></defs></svg>