<svg xmlns="http://www.w3.org/2000/svg" xmlns:xlink="http://www.w3.org/1999/xlink" width="22" height="22" viewBox="0 0 22 22"><title>hodovye</title><desc>Created using Figma</desc><use xlink:href="#123-a" transform="translate(0 8.412)" fill="#ffffff" width="100%" height="100%"/><use xlink:href="#123-b" transform="translate(2.588 10.353)" fill="#ffffff" width="100%" height="100%"/><use xlink:href="#123-b" transform="translate(9.059 10.353)" fill="#ffffff" width="100%" height="100%"/><use xlink:href="#123-b" transform="translate(15.529 10.353)" fill="#ffffff" width="100%" height="100%"/><use xlink:href="#123-c" transform="translate(2.588 5.823)" fill="#ffffff" width="100%" height="100%"/><use xlink:href="#123-d" transform="translate(7.765 5.823)" fill="#ffffff" width="100%" height="100%"/><use xlink:href="#123-d" transform="translate(11.647 5.823)" fill="#ffffff" width="100%" height="100%"/><use xlink:href="#123-c" transform="translate(15.529 5.823)" fill="#ffffff" width="100%" height="100%"/><use xlink:href="#123-e" transform="translate(3.235 7.118)" fill="#ffffff" width="100%" height="100%"/><use xlink:href="#123-e" transform="translate(18.118 7.118)" fill="#ffffff" width="100%" height="100%"/><use xlink:href="#123-f" transform="translate(6.471 5.823)" fill="#ffffff" width="100%" height="100%"/><use xlink:href="#123-f" transform="translate(10.353 5.823)" fill="#ffffff" width="100%" height="100%"/><use xlink:href="#123-f" transform="translate(14.235 5.823)" fill="#ffffff" width="100%" height="100%"/><defs><path id="123-a" d="M20.059 1.294c.388 0 .647.259.647.647v3.883c0 .388-.259.647-.647.647H1.94c-.388 0-.647-.26-.647-.647V1.94c0-.388.259-.647.647-.647zm0-1.294H1.94C.841 0 0 .841 0 1.941v3.883c0 1.1.841 1.94 1.941 1.94H20.06c1.1 0 1.941-.84 1.941-1.94V1.94C22 .841 21.159 0 20.059 0z"/><path id="123-b" d="M1.941 1.294c.388 0 .647.259.647.647s-.259.647-.647.647-.647-.259-.647-.647.259-.647.647-.647zm0-1.294C.841 0 0 .841 0 1.941s.841 1.941 1.941 1.941 1.941-.84 1.941-1.94S3.042 0 1.942 0z"/><path id="123-c" d="M3.882 0H0v1.294h3.882z"/><path id="123-d" d="M2.588 0H0v1.294h2.588z"/><path id="123-e" d="M.647 0H0v1.294h.647z"/><path id="123-f" d="M1.294 0H0v.647h1.294z"/></defs></svg>