<svg xmlns="http://www.w3.org/2000/svg" xmlns:xlink="http://www.w3.org/1999/xlink" width="22" height="22" viewBox="0 0 22 22"><title>galogen</title><desc>Created using Figma</desc><use xlink:href="#123-a" transform="translate(7.118 2.588)" fill="#1f9bd7" width="100%" height="100%"/><use xlink:href="#123-b" transform="translate(3.235 16.824)" fill="#1f9bd7" width="100%" height="100%"/><use xlink:href="#123-c" transform="translate(9.06)" fill="#1f9bd7" width="100%" height="100%"/><use xlink:href="#123-d" transform="translate(10.353 8.412)" fill="#1f9bd7" width="100%" height="100%"/><use xlink:href="#123-e" transform="translate(9.06 4.529)" fill="#1f9bd7" width="100%" height="100%"/><defs><path id="123-a" d="M5.824 1.294c.388 0 .647.259.647.647v12.294H1.294V1.941c0-.388.259-.647.647-.647zm0-1.294H1.94C.841 0 0 .841 0 1.941V15.53h7.765V1.941C7.765.841 6.924 0 5.824 0z"/><path id="123-b" d="M14.235 1.294v2.588H1.295V1.294zm0-1.294H1.295C.581 0 0 .582 0 1.294V4.53c0 .389.259.647.647.647h14.235c.389 0 .647-.258.647-.647V1.294C15.53.582 14.947 0 14.235 0z"/><path id="123-c" d="M1.941 1.294c.388 0 .647.324.647.647v.647H1.294v-.647c0-.388.259-.647.647-.647zm0-1.294C.841 0 0 .841 0 1.941v1.941h3.882v-1.94C3.882.841 3.042 0 1.942 0z"/><path id="123-d" d="M.647.647V9.06zM1.294 0H0v9.706h1.294z"/><path id="123-e" d="M2.588 1.294v1.294H1.294V1.294zM3.235 0H.647C.26 0 0 .259 0 .647v1.941C0 3.3.582 3.882 1.294 3.882h1.294c.712 0 1.294-.582 1.294-1.294V.648c0-.39-.258-.648-.647-.648z"/></defs></svg>