<svg xmlns="http://www.w3.org/2000/svg" xmlns:xlink="http://www.w3.org/1999/xlink" width="34" height="34" viewBox="0 0 34 34"><title>accessories</title><desc>Created using Figma</desc><use xlink:href="#123-a" transform="translate(2.142 6.15)" fill="#1f9bd7" width="100%" height="100%"/><use xlink:href="#123-b" transform="translate(14.98 23.85)" fill="#1f9bd7" width="100%" height="100%"/><use xlink:href="#123-c" transform="translate(16.08 11.873)" fill="#1f9bd7" width="100%" height="100%"/><use xlink:href="#123-d" transform="translate(16.08 12.024)" fill="#1f9bd7" width="100%" height="100%"/><defs><path id="123-a" d="M14.838 2c4.3 0 8.6.9 12.5 2.6l-2.7 5.3-2.8 5.4c-2.2-.8-4.6-1.3-7-1.3-2.4 0-4.8.4-7.1 1.3l-5.4-10.7c3.9-1.7 8.2-2.6 12.5-2.6zm0-2c-4.6 0-9.2 1-13.4 2.8-1 .4-1.6 1.3-1.4 1.7 2.1 4.2 4.2 8.3 6.4 12.5.2.3.5.5.9.5.2 0 .3 0 .5-.1 2.2-1 4.6-1.5 7-1.5 2.4 0 4.8.5 7 1.5.2.1.3.1.5.1.4 0 .8-.2.9-.5 2.1-4.2 4.2-8.3 6.4-12.5.3-.5-.3-1.3-1.4-1.7-4.2-1.8-8.8-2.8-13.4-2.8z"/><path id="123-b" d="M2 0C.9 0 0 .9 0 2s.9 2 2 2 2-.9 2-2-.9-2-2-2z"/><path id="123-c" d="M1.8 14.477l-1.8-.8L6.1.577c.2-.5.8-.7 1.3-.5.5.2.7.8.5 1.3z"/><path id="123-d" d="M.9 9.226l-.9-.4 3.9-8.4c.2-.3.5-.5.7-.4.3.1.3.5.2.8z"/></defs></svg>