<svg xmlns="http://www.w3.org/2000/svg" xmlns:xlink="http://www.w3.org/1999/xlink" width="34" height="34" viewBox="0 0 34 34"><title>sale 2</title><desc>Created using Figma</desc><use xlink:href="#123-a" transform="translate(2.475 3)" fill="#1f9bd7" width="100%" height="100%"/><use xlink:href="#123-b" transform="translate(9.8 9.8)" fill="#1f9bd7" width="100%" height="100%"/><use xlink:href="#123-c" transform="translate(18.2 18.2)" fill="#1f9bd7" width="100%" height="100%"/><use xlink:href="#123-d" transform="translate(11 11.1)" fill="#1f9bd7" width="100%" height="100%"/><defs><path id="123-a" d="M18.425 2l2.1 2.4c.4.4.8.7 1.3 1l2.9 1.3.3 3.1c.1.5.2 1.1.5 1.5l1.6 2.7-1.6 2.7c-.3.5-.5 1-.5 1.5l-.3 3.1-2.9 1.3c-.5.2-1 .5-1.3 1l-2.1 2.4-3.1-.7c-.3-.1-.5-.1-.8-.1-.3 0-.5 0-.8.1l-3.1.7-2.1-2.4c-.4-.4-.8-.7-1.3-1l-2.9-1.3-.3-3.1c-.1-.5-.2-1.1-.5-1.5l-1.6-2.7 1.6-2.7c.3-.5.5-1 .5-1.5l.3-3.1 2.9-1.3c.5-.2 1-.5 1.3-1l2.1-2.4 3.1.7c.3.1.5.1.8.1.3 0 .5 0 .8-.1zm.1-2h-.4l-3.2.7h-.8l-3.2-.7h-.4c-.5 0-1 .2-1.3.6l-2.2 2.5c-.1.2-.4.3-.6.4l-3 1.3c-.6.3-1 .8-1 1.4l-.3 3.3c0 .3-.1.5-.2.7L.225 13c-.3.5-.3 1.2 0 1.8l1.7 2.8c.1.2.2.5.2.7l.3 3.3c.1.6.5 1.2 1 1.4l3 1.3c.2.1.4.3.6.4l2.2 2.5c.3.6.8.8 1.3.8h.4l3.2-.7h.8l3.2.7h.4c.5 0 1-.2 1.3-.6l2.2-2.5c.2-.2.4-.3.6-.4l3-1.3c.6-.3 1-.8 1-1.4l.3-3.3c0-.3.1-.5.2-.7l1.7-2.8c.3-.5.3-1.2 0-1.8l-1.7-2.8c-.1-.2-.2-.5-.2-.7l-.3-3.3c-.1-.6-.5-1.2-1-1.4l-3-1.3c-.2-.1-.4-.3-.6-.4l-2.2-2.5c-.3-.6-.8-.8-1.3-.8z"/><path id="123-b" d="M3 2c.2 0 .5 0 .7.3.4.4.4 1 0 1.4-.3.3-.6.3-.7.3-.2 0-.5 0-.7-.3-.4-.4-.4-1 0-1.4.2-.3.5-.3.7-.3zm0-2C2.2 0 1.5.3.9.9-.3 2.1-.3 4 .9 5.1c.6.6 1.4.9 2.1.9.7 0 1.5-.3 2.1-.9C6.3 3.9 6.3 2 5.1.9 4.5.3 3.7 0 3 0z"/><path id="123-c" d="M3 2c.2 0 .5 0 .7.3.4.4.4 1 0 1.4-.3.3-.6.3-.7.3-.2 0-.5 0-.7-.3-.4-.4-.4-1 0-1.4.3-.2.6-.3.7-.3zm0-2C2.2 0 1.5.3.9.9-.3 2.1-.3 4 .9 5.1c.6.6 1.4.9 2.1.9.7 0 1.5-.3 2.1-.9C6.3 3.9 6.3 2 5.1.9 4.6.3 3.8 0 3 0z"/><path id="123-d" d="M10.9 0c-.3 0-.5.1-.7.3L.3 10.2c-.4.4-.4 1 0 1.4.2.2.5.3.7.3.2 0 .5-.1.7-.3l9.9-9.9c.4-.4.4-1 0-1.4-.1-.3-.4-.3-.7-.3z"/></defs></svg>