<svg xmlns="http://www.w3.org/2000/svg" xmlns:xlink="http://www.w3.org/1999/xlink" width="34" height="34" viewBox="0 0 34 34"><title>electro</title><desc>Created using Figma</desc><use xlink:href="#123-a" transform="translate(6 3)" fill="#1f9bd7" width="100%" height="100%"/><use xlink:href="#123-b" transform="translate(11 15)" fill="#1f9bd7" width="100%" height="100%"/><use xlink:href="#123-c" transform="translate(14 7)" fill="#1f9bd7" width="100%" height="100%"/><defs><path id="123-a" d="M19 2c.6 0 1 .4 1 1v22c0 .6-.4 1-1 1H3c-.6 0-1-.4-1-1V3c0-.6.4-1 1-1zm0-2H3C1.3 0 0 1.3 0 3v22c0 1.7 1.3 3 3 3h16c1.7 0 3-1.3 3-3V3c0-1.7-1.3-3-3-3z"/><path id="123-b" d="M6 2c2.2 0 4 1.8 4 4s-1.8 4-4 4-4-1.8-4-4 1.8-4 4-4zm0-2C2.7 0 0 2.7 0 6s2.7 6 6 6 6-2.7 6-6-2.7-6-6-6z"/><path id="123-c" d="M3 2c.6 0 1 .4 1 1s-.4 1-1 1-1-.4-1-1 .4-1 1-1zm0-2C1.3 0 0 1.3 0 3s1.3 3 3 3 3-1.3 3-3-1.3-3-3-3z"/></defs></svg>