<svg xmlns="http://www.w3.org/2000/svg" xmlns:xlink="http://www.w3.org/1999/xlink" width="22" height="22" viewBox="0 0 22 22"><title>ksenon</title><desc>Created using Figma</desc><use xlink:href="#123-a" transform="translate(7.118 2.097)" fill="#ffffff" width="100%" height="100%"/><use xlink:href="#123-b" transform="translate(9.706 11.156)" fill="#ffffff" width="100%" height="100%"/><use xlink:href="#123-c" transform="translate(9.706 2.097)" fill="#ffffff" width="100%" height="100%"/><use xlink:href="#123-d" transform="translate(1.941 17.627)" fill="#ffffff" width="100%" height="100%"/><use xlink:href="#123-e" transform="translate(4.53 15.038)" fill="#ffffff" width="100%" height="100%"/><use xlink:href="#123-f" transform="translate(14.235 3.391)" fill="#ffffff" width="100%" height="100%"/><use xlink:href="#123-g" transform="translate(10.353 .99)" fill="#ffffff" width="100%" height="100%"/><defs><path id="123-a" d="M4.53 1.165c.388 0 .776.323.776.776v11.13H1.229V1.94c0-.388.324-.776.777-.776zM4.53 0H1.94C.841 0 0 .841 0 1.941v12.294h6.47V1.941C6.47.841 5.63 0 4.53 0z"/><path id="123-b" d="M.647 0C.26 0 0 .259 0 .647v3.235h1.294V.647C1.294.26 1.035 0 .647 0z"/><path id="123-c" d="M1.294 0H0v3.235c0 .389.259.647.647.647s.647-.258.647-.647z"/><path id="123-d" d="M16.823 1.294v1.294H1.294V1.294zm0-1.294H1.294C.582 0 0 .582 0 1.294v1.941c0 .389.259.647.647.647h16.824c.388 0 .647-.258.647-.647v-1.94C18.118.581 17.535 0 16.824 0z"/><path id="123-e" d="M11.647 1.294v1.294H1.294V1.294zM12.294 0H.647C.26 0 0 .259 0 .647v3.235h12.941V.647c0-.388-.259-.647-.647-.647z"/><path id="123-f" d="M.647 0C.26 0 0 .259 0 .647v11h1.294v-11C1.294.26 1.035 0 .647 0z"/><path id="123-g" d="M2.2.007l-.033.5h.014zM0 1.56l.494.077v-.001a1.211 1.211 0 0 1 .048-.171c.048-.136.106-.272.228-.427C.981.76 1.373.453 2.167.506l.066-.998C1.086-.568.378-.099-.026.432c-.185.25-.313.526-.375.702a2.663 2.663 0 0 0-.093.349L0 1.56zM2.18.507c.767.03 1.181.23 1.426.534.263.326.423.878.423 1.813h1c0-1.006-.163-1.845-.644-2.441-.499-.618-1.25-.87-2.166-.906z"/></defs></svg>