<svg width="29" height="38" viewBox="0 0 29 38" version="1.1" xmlns="http://www.w3.org/2000/svg" xmlns:xlink="http://www.w3.org/1999/xlink">
<title>map_icon</title>
<desc>Created using Figma</desc>
<g id="Canvas" transform="translate(-440 -1859)">
<g id="map_icon" filter="url(#filter0_d)">
<use xlink:href="#path0_fill" transform="translate(444 1859)" fill="#1F9BD7"/>
</g>
</g>
<defs>
<filter id="filter0_d" filterUnits="userSpaceOnUse" x="440" y="1859" width="29" height="38" color-interpolation-filters="sRGB">
<feFlood flood-opacity="0" result="BackgroundImageFix"/>
<feColorMatrix in="SourceAlpha" type="matrix" values="0 0 0 0 0 0 0 0 0 0 0 0 0 0 0 0 0 0 255 0"/>
<feOffset dx="0" dy="4"/>
<feGaussianBlur stdDeviation="2"/>
<feColorMatrix type="matrix" values="0 0 0 0 0 0 0 0 0 0 0 0 0 0 0 0 0 0 0.15 0"/>
<feBlend mode="normal" in2="BackgroundImageFix" result="effect1_dropShadow"/>
<feBlend mode="normal" in="SourceGraphic" in2="effect1_dropShadow" result="shape"/>
</filter>
<path id="path0_fill" d="M 10.5 14.25C 9.50544 14.25 8.55161 13.8549 7.84835 13.1517C 7.14509 12.4484 6.75 11.4946 6.75 10.5C 6.75 9.50544 7.14509 8.55161 7.84835 7.84835C 8.55161 7.14509 9.50544 6.75 10.5 6.75C 11.4946 6.75 12.4484 7.14509 13.1517 7.84835C 13.8549 8.55161 14.25 9.50544 14.25 10.5C 14.25 10.9925 14.153 11.4801 13.9645 11.9351C 13.7761 12.39 13.4999 12.8034 13.1517 13.1517C 12.8034 13.4999 12.39 13.7761 11.9351 13.9645C 11.4801 14.153 10.9925 14.25 10.5 14.25ZM 10.5 1.33227e-15C 7.71523 1.33227e-15 5.04451 1.10625 3.07538 3.07538C 1.10625 5.04451 3.9968e-15 7.71523 2.66454e-15 10.5C 5.32907e-15 18.375 10.5 30 10.5 30C 10.5 30 21 18.375 21 10.5C 21 7.71523 19.8938 5.04451 17.9246 3.07538C 15.9555 1.10625 13.2848 3.33067e-15 10.5 1.33227e-15Z"/>
</defs>
</svg>
