<svg width="170" height="44" viewBox="0 0 170 44" xmlns="http://www.w3.org/2000/svg" xmlns:xlink="http://www.w3.org/1999/xlink"><title>koito</title><desc>Created using Figma</desc><use xlink:href="#123-a" transform="translate(0 .102)" fill="#CC2A2F"/><use xlink:href="#123-b" transform="translate(60.353)" fill="#CC2A2F"/><use xlink:href="#123-c" transform="translate(138.539 14.48)" fill="#CC2A2F"/><defs><path id="123-a" fill-rule="evenodd" d="M10.648 5.905S8.19 5.03 8.19 2.572c0 0-.116-2.572 2.457-2.572h17.777s2.687 0 2.687 2.631c0 0 .12 1.69-1.634 2.687 0 0-.7.533-.877 1.174l-1.64 7.367 7.955-7.953S33.1 4.68 33.1 2.924c0 0-.055-2.747 2.342-2.747H52.81s2.394-.004 2.394 2.335c0 0 .236 2.402-2.57 3.22 0 0-.818 0-1.404.701l-15.086 15.61 6.43 15.262s2.517 1.635 2.517 3.275c0 0 .352 2.402-2.517 2.402H28.25s-2.28-.056-2.28-2.456c0 0-.417-2.281 2.51-3.22l-4.324-10.584-4.095 10.76s2.28.468 2.28 3.099c0 0 .296 2.515-3.272 2.515H2.166s-2.16.062-2.16-2.57c0 0-.23-1.753 2.106-2.806l8.536-31.815zM75.44 22.28c-2.982-8.07-10.964-8.07-10.964-8.07-7.28-.702-11.842 5.876-11.842 5.876-4.911 7.017-2.807 13.858-2.807 13.858 2.72 8.159 9.825 8.86 9.825 8.86 7.63 1.49 12.719-5.263 12.719-5.263 5.786-6.49 3.069-15.261 3.069-15.261zM63.336 33.859s-2.807 1.49-4.737-1.404c0 0-1.14-2.367-.176-5.351 0 0 2.018-5.262 6.14-4.034 0 0 3.07.525 2.983 3.685 0-.001.438 5.35-4.21 7.104zm23.68-13.772s-2.368-1.14-2.192-3.421c0 0-.264-2.632 3.07-2.632h17.191s2.632 0 2.632 2.457c0 0 0 2.367-2.544 3.508l-5.878 17.543s3.071 1.315 2.545 3.333c0 0-.089 2.544-3.245 2.544H81.929s-2.719-.352-2.719-2.719c0 0-.173-1.756 2.37-2.808l5.436-17.805z"/><path id="123-b" fill-rule="evenodd" d="M4.649 9.357S0 9.577 0 4.488c0 0-.088-4.472 4.824-4.472 0 0 4.562-.44 4.562 3.333h91.396s.701-2.983 4.561-2.983c0 0 4.298-.087 4.298 4.562 0 0 .35 4.561-4.649 4.561H75.345l-8.86 28.42s2.107.438 2.107 3.157c0 0 .173 2.37-2.808 2.37H48.679s-2.192 0-2.192-2.544c0 0-.262-1.756 2.281-2.72l8.684-28.814H4.65v-.001z"/><path id="123-c" fill-rule="evenodd" d="M26.06 8.122C23.078.052 15.096.052 15.096.052 7.816-.649 3.255 5.93 3.255 5.93-1.657 12.946.449 19.788.449 19.788c2.719 8.157 9.823 8.86 9.823 8.86 7.632 1.49 12.718-5.265 12.718-5.265 5.788-6.49 3.07-15.26 3.07-15.26zM13.955 19.7s-2.807 1.49-4.737-1.403c0 0-1.14-2.37-.175-5.352 0 0 2.018-5.263 6.14-4.035 0 0 3.071.527 2.982 3.685 0 0 .438 5.35-4.21 7.105z"/></defs></svg>