<?xml version="1.0" encoding="utf-8"?>
<!-- Generator: Adobe Illustrator 21.0.2, SVG Export Plug-In . SVG Version: 6.00 Build 0)  -->
<svg version="1.1" id="Слой_1" xmlns="http://www.w3.org/2000/svg" xmlns:xlink="http://www.w3.org/1999/xlink" x="0px" y="0px"
	 width="215.1px" height="48.6px" viewBox="0 0 215.1 48.6" style="enable-background:new 0 0 215.1 48.6;" xml:space="preserve">
<style type="text/css">
	.st0{fill:#0079C4;}
	.st1{fill:#001628;}
</style>
<path class="st0" d="M39.8,14.9c-1.2-2.8-2.8-5.2-4.9-7.3c-2.1-2-4.6-3.6-7.5-4.7c-2.9-1.1-6.1-1.7-9.6-1.7H5.8C2.6,1.2,0,3.8,0,7v0
	c0,3.2,2.6,5.8,5.8,5.8l10.5,0.1h0.9c3.4,0,6.2,1,8.3,3.1c2.1,2.1,3.1,4.8,3.1,8.2c0,1.7-0.3,3.3-0.8,4.7c-0.5,1.4-1.3,2.6-2.3,3.6
	c-1,1-2.2,1.8-3.6,2.3c-1.4,0.5-3,0.8-4.7,0.8l-11.3,0c-3.2,0-5.8,2.6-5.8,5.8v0c0,3.2,2.6,5.8,5.8,5.8h11.9c3.5,0,6.7-0.6,9.6-1.7
	c2.9-1.1,5.4-2.7,7.6-4.8c2.1-2,3.8-4.5,4.9-7.3c1.2-2.8,1.8-5.9,1.8-9.3C41.6,20.8,41,17.7,39.8,14.9z"/>
<path class="st0" d="M54.3,48.6c-3.7,0-7.1-0.6-10.2-1.8c-3.1-1.2-5.8-2.9-8.1-5c-2.3-2.2-4-4.7-5.3-7.7c-1.3-3-1.9-6.2-1.9-9.7
	s0.6-6.8,1.9-9.7c1.3-3,3-5.5,5.3-7.7c2.3-2.2,5-3.8,8.1-5C47.2,0.6,50.6,0,54.3,0c3.7,0,7.1,0.6,10.2,1.8c3.1,1.2,5.8,2.9,8,5
	c2.2,2.1,4,4.7,5.2,7.7c1.3,3,1.9,6.2,1.9,9.8s-0.6,6.8-1.9,9.8c-1.3,3-3,5.5-5.2,7.7c-2.2,2.1-4.9,3.8-8,5
	C61.4,48,58,48.6,54.3,48.6z M54.3,36.7c1.8,0,3.4-0.3,4.9-0.9c1.5-0.6,2.7-1.5,3.8-2.6c1.1-1.1,1.9-2.4,2.5-3.9
	c0.6-1.5,0.9-3.2,0.9-5c0-1.8-0.3-3.5-0.9-5c-0.6-1.5-1.4-2.8-2.5-3.9c-1.1-1.1-2.4-2-3.8-2.6c-1.5-0.6-3.1-0.9-4.9-0.9
	c-1.8,0-3.4,0.3-4.9,0.9c-1.5,0.6-2.8,1.5-3.9,2.6c-1.1,1.1-1.9,2.4-2.5,3.9c-0.6,1.5-0.9,3.2-0.9,5c0,1.8,0.3,3.5,0.9,5
	c0.6,1.5,1.5,2.8,2.5,3.9c1.1,1.1,2.4,2,3.9,2.6C50.9,36.4,52.5,36.7,54.3,36.7z"/>
<path class="st1" d="M114.8,22.1c-0.6,0.4-0.5,1.3,0.1,1.7c1.5,1,2.8,2.2,3.8,3.8c1.3,2,1.9,4.2,1.9,6.8c0,1.8-0.4,3.6-1.1,5.2
	c-0.7,1.6-1.8,3-3.1,4.2c-1.3,1.2-2.9,2.1-4.8,2.8c-1.8,0.7-3.8,1-6,1H85.2c-0.5,0-1-0.4-1-1V2.1c0-0.5,0.4-1,1-1h19.9
	c2.1,0,4,0.3,5.7,0.9c1.7,0.6,3.2,1.4,4.5,2.5c1.3,1.1,2.3,2.3,3,3.7c0.7,1.4,1.1,3,1.1,4.7c0,2.1-0.5,4-1.6,5.8
	C117,20.1,116,21.2,114.8,22.1z M107.3,15.1c0-1.2-0.4-2.2-1.1-2.9c-0.8-0.7-1.8-1.1-3.2-1.1h-5.4c-0.5,0-1,0.4-1,1v6.1
	c0,0.5,0.4,1,1,1h5.4c1.4,0,2.4-0.4,3.2-1.1C106.9,17.3,107.3,16.3,107.3,15.1z M103.5,37c1.4,0,2.5-0.4,3.3-1.2
	c0.8-0.8,1.2-1.8,1.2-3.1c0-1.2-0.4-2.3-1.2-3.1c-0.8-0.8-1.9-1.2-3.3-1.2h-5.9c-0.5,0-1,0.4-1,1v6.6c0,0.5,0.4,1,1,1H103.5z"/>
<path class="st1" d="M142.1,33.3h-3.9c-0.5,0-1,0.4-1,1v12.2c0,0.5-0.4,1-1,1h-10.8c-0.5,0-1-0.4-1-1V2.2c0-0.5,0.4-1,1-1h19
	c2.5,0,4.8,0.4,6.9,1.2s3.9,1.9,5.4,3.4c1.5,1.5,2.7,3.2,3.6,5.2c0.9,2,1.3,4.2,1.3,6.6c0,2.9-0.6,5.4-1.9,7.6
	c-1.1,2-2.2,3.6-3.7,4.9c-0.4,0.3-0.6,0.8-0.3,1.3l7,14.6c0.4,0.7-0.1,1.5-0.9,1.5h-11.9c-0.4,0-0.7-0.2-0.9-0.5l-6-13.1
	C142.8,33.5,142.4,33.3,142.1,33.3z M137.2,21.5c0,0.5,0.4,1,1,1h4.8c1.8,0,3.2-0.5,4.2-1.4c1-0.9,1.5-2.1,1.5-3.6
	c0-1.5-0.5-2.7-1.5-3.6c-1-0.9-2.4-1.4-4.2-1.4h-4.8c-0.5,0-1,0.4-1,1V21.5z"/>
<path class="st0" d="M189.8,48.6c-3.7,0-7.1-0.6-10.2-1.8c-3.1-1.2-5.8-2.9-8.1-5c-2.3-2.2-4-4.7-5.3-7.7c-1.3-3-1.9-6.2-1.9-9.7
	s0.6-6.8,1.9-9.7c1.3-3,3-5.5,5.3-7.7c2.3-2.2,5-3.8,8.1-5c3.1-1.2,6.5-1.8,10.2-1.8c3.7,0,7.1,0.6,10.2,1.8c3.1,1.2,5.8,2.9,8,5
	c2.2,2.1,4,4.7,5.2,7.7s1.9,6.2,1.9,9.8s-0.6,6.8-1.9,9.8s-3,5.5-5.2,7.7c-2.2,2.1-4.9,3.8-8,5C196.9,48,193.5,48.6,189.8,48.6z
	 M189.8,36.7c1.8,0,3.4-0.3,4.8-0.9c1.5-0.6,2.7-1.5,3.8-2.6c1.1-1.1,1.9-2.4,2.5-3.9c0.6-1.5,0.9-3.2,0.9-5c0-1.8-0.3-3.5-0.9-5
	c-0.6-1.5-1.4-2.8-2.5-3.9c-1.1-1.1-2.4-2-3.8-2.6c-1.5-0.6-3.1-0.9-4.8-0.9c-1.8,0-3.4,0.3-4.9,0.9c-1.5,0.6-2.8,1.5-3.9,2.6
	c-1.1,1.1-1.9,2.4-2.5,3.9c-0.6,1.5-0.9,3.2-0.9,5c0,1.8,0.3,3.5,0.9,5c0.6,1.5,1.5,2.8,2.5,3.9c1.1,1.1,2.4,2,3.9,2.6
	C186.4,36.4,188,36.7,189.8,36.7z"/>
<path class="st0" d="M4.8,29.1L4.8,29.1c-2.6,0-4.8-2.1-4.8-4.8l0-0.1c0-2.6,2.1-4.8,4.8-4.8h0c2.6,0,4.8,2.1,4.8,4.8v0.1
	C9.6,26.9,7.4,29.1,4.8,29.1z"/>
</svg>
