<svg width="329" height="100" viewBox="0 0 329 100" xmlns="http://www.w3.org/2000/svg" xmlns:xlink="http://www.w3.org/1999/xlink"><title>Group</title><desc>Created using Figma</desc><use xlink:href="#123-a" fill="#1F9BD7"/><use xlink:href="#123-a" transform="translate(224)" fill="#1F9BD7"/><use xlink:href="#123-b" transform="translate(114)" fill="#1F9BD7"/><defs><path id="123-a" d="M0 75.872v-8.299c0-4.09 1.441-7.717 4.324-10.878L50.418 4.324C52.975 1.488 56.602.046 61.298 0h21.826c1.906 0 3.51.65 4.812 1.953 1.302 1.301 1.952 2.859 1.952 4.672v56.067h7.671c1.906 0 3.51.65 4.812 1.952 1.302 1.302 1.953 2.86 1.953 4.673v6.555c0 1.813-.675 3.37-2.023 4.672-1.348 1.255-2.929 1.883-4.742 1.883h-7.67v11.018c0 1.813-.675 3.37-2.023 4.672-1.348 1.255-2.929 1.883-4.742 1.883h-12.97c-1.814 0-3.371-.604-4.673-1.813-1.255-1.255-1.883-2.79-1.883-4.603V82.427H6.764c-1.813 0-3.393-.628-4.742-1.883C.674 79.242 0 77.684 0 75.872zm28.034-13.18h35.564V22.315L28.033 62.692z"/><path id="123-b" fill-rule="evenodd" d="M22.5 58.5L76.68 7.705C68.96 2.825 59.81 0 50 0 22.386 0 0 22.387 0 50s22.386 50 50 50 50-22.387 50-50c0-9.58-2.694-18.53-7.366-26.135L78.5 64.5c-3 4.834-15.1 13.6-39.5 10-24.4-3.6-21.167-12.166-16.5-16zm23.687-4.8c-1.177.294-7.36 4.259-7.36 4.259-6.181.734-10.008 2.055-9.714 2.055-1.619.88-1.766 2.937-1.766 2.937h-.442v1.174h.295v2.057s.441.734 1.324.734c3.974 0 3.827.147 3.827.147 0 2.35 3.239 2.496 3.239 2.496 3.238 0 3.238-2.055 3.238-2.055h20.165c0 2.496 3.238 2.35 3.238 2.35 2.944 0 3.385-2.645 3.385-2.645 6.477-.293 6.918-1.762 6.918-1.762V62.51s-.147-.44-.589-.586c.148-2.645-.441-3.965-.588-4.26-.148-.293-3.68-.734-3.68-.734s-2.208-1.908-6.918-3.23c-7.212-1.321-13.394-.44-14.572 0z"/></defs></svg>