<svg width="150" height="38" viewBox="0 0 150 38" xmlns="http://www.w3.org/2000/svg" xmlns:xlink="http://www.w3.org/1999/xlink"><title>autosvet_logo</title><desc>Created using Figma</desc><g transform="translate(35.51 26.17)" fill="#423D3D"><use xlink:href="#123-a"/><use xlink:href="#123-b"/><use xlink:href="#123-c"/><use xlink:href="#123-d"/><use xlink:href="#123-e"/><use xlink:href="#123-f"/><use xlink:href="#123-g"/><use xlink:href="#123-h"/><use xlink:href="#123-i"/><use xlink:href="#123-j"/><use xlink:href="#123-k"/><use xlink:href="#123-l"/><use xlink:href="#123-m"/><use xlink:href="#123-n"/><use xlink:href="#123-o"/><use xlink:href="#123-p"/><use xlink:href="#123-q"/><use xlink:href="#123-r"/><use xlink:href="#123-s"/><use xlink:href="#123-t"/><use xlink:href="#123-u"/><use xlink:href="#123-v"/></g><use xlink:href="#123-w" transform="translate(35.531 11.73)" fill="#423D3D"/><use xlink:href="#123-x" transform="translate(50.013 11.69)" fill="#423D3D"/><use xlink:href="#123-y" transform="translate(62.219 11.73)" fill="#423D3D"/><use xlink:href="#123-z" transform="translate(74.333 11.46)" fill="#423D3D"/><use xlink:href="#123-A" transform="translate(88.231 11.64)" fill="#423D3D"/><use xlink:href="#123-B" transform="translate(102.128 11.69)" fill="#423D3D"/><use xlink:href="#123-C" transform="translate(115.386 11.81)" fill="#423D3D"/><use xlink:href="#123-D" transform="translate(126.815 11.73)" fill="#423D3D"/><g><use xlink:href="#123-E" transform="translate(0 6.45)" fill="#423D3D"/><use xlink:href="#123-F" transform="translate(23.909 30.03)" fill="#423D3D"/></g><g transform="translate(336 -2043)"><use xlink:href="#123-G" transform="translate(-327.954 2069.01)" fill="#423D3D"/></g><g transform="translate(336 -2043)"><use xlink:href="#123-H" transform="translate(-208.235 2043)" fill="#423D3D"/></g><g transform="translate(132.072 1.91)" fill="#F8F8F8"><use xlink:href="#123-I"/><use xlink:href="#123-J"/></g><defs><path id="123-a" d="M2.76 5.991c-.042-.082-.076-.229-.102-.44-.34.345-.745.517-1.217.517-.42 0-.767-.115-1.038-.347A1.126 1.126 0 0 1 0 4.834c0-.435.168-.772.505-1.01.34-.243.817-.364 1.43-.364h.71v-.327c0-.25-.076-.448-.228-.595-.153-.149-.378-.223-.676-.223-.26 0-.479.064-.655.193-.176.128-.265.284-.265.466H.087c0-.208.075-.409.225-.601.153-.196.358-.35.616-.463.26-.114.546-.17.857-.17.492 0 .878.12 1.157.363.279.239.424.57.434.991v1.921c0 .383.05.688.15.915v.061H2.76zm-1.212-.544c.229 0 .446-.058.652-.173.205-.116.354-.267.446-.452v-.856h-.573c-.895 0-1.342.256-1.342.768 0 .223.076.398.229.524a.894.894 0 0 0 .588.19z"/><path id="123-b" d="M4.589 5.991V1.817h1.666c.569 0 1.004.098 1.307.293.306.193.458.477.458.853a.85.85 0 0 1-.177.524 1.107 1.107 0 0 1-.526.355c.258.06.465.175.62.348a.882.882 0 0 1 .237.617c0 .383-.145.676-.434.88-.287.203-.694.304-1.22.304H4.589zm.73-1.832v1.257h1.209c.305 0 .533-.055.683-.165a.543.543 0 0 0 .229-.467c0-.417-.314-.625-.94-.625H5.32zm0-.571h.944c.684 0 1.027-.196 1.027-.587 0-.39-.324-.592-.972-.605H5.32v1.192z"/><path id="123-c" d="M12.27 2.396h-1.434V5.99h-.73V2.396H8.698v-.579h3.57v.579z"/><path id="123-d" d="M12.62 3.866c0-.41.082-.777.246-1.104.165-.326.394-.578.687-.756.294-.177.63-.266 1.007-.266.581 0 1.051.197 1.41.59.36.394.54.917.54 1.57v.05c0 .407-.08.772-.24 1.096a1.772 1.772 0 0 1-.684.752c-.295.18-.634.27-1.018.27-.58 0-1.05-.196-1.41-.59-.358-.393-.537-.914-.537-1.562v-.05zm.735.084c0 .463.11.835.328 1.115.221.28.516.42.885.42.37 0 .666-.14.884-.424.219-.285.328-.684.328-1.195 0-.458-.112-.829-.336-1.111a1.063 1.063 0 0 0-.884-.429c-.361 0-.652.14-.873.42-.221.281-.332.682-.332 1.204z"/><path id="123-e" d="M19.887 5.046l1.453-3.229h.912v4.174h-.73V2.955l-1.383 3.036h-.505l-1.41-3.101V5.99h-.73V1.817h.947l1.446 3.23z"/><path id="123-f" d="M23.235 3.866c0-.41.082-.777.245-1.104.166-.326.395-.578.687-.756.295-.177.63-.266 1.007-.266.582 0 1.052.197 1.41.59.36.394.541.917.541 1.57v.05c0 .407-.08.772-.24 1.096a1.772 1.772 0 0 1-.684.752c-.295.18-.634.27-1.019.27-.579 0-1.049-.196-1.41-.59-.358-.393-.537-.914-.537-1.562v-.05zm.735.084c0 .463.11.835.328 1.115.22.28.516.42.884.42.371 0 .666-.14.885-.424.218-.285.328-.684.328-1.195 0-.458-.112-.829-.336-1.111a1.062 1.062 0 0 0-.885-.429c-.36 0-.651.14-.872.42-.222.281-.332.682-.332 1.204z"/><path id="123-g" d="M29.917 2.056c.537 0 .966.176 1.287.529.324.35.486.811.486 1.385v.065c0 .394-.078.746-.233 1.057-.155.309-.38.55-.671.722-.29.17-.624.254-1.003.254-.574 0-1.036-.186-1.386-.559-.35-.376-.526-.878-.526-1.508v-.348c0-.877.166-1.574.498-2.09.334-.518.827-.833 1.477-.946.368-.064.617-.142.746-.235A.445.445 0 0 0 30.786 0h.6c0 .321-.075.572-.225.752-.148.18-.385.308-.711.382l-.545.12c-.434.1-.76.27-.98.509-.215.237-.356.553-.422.95.387-.438.858-.657 1.414-.657zm-.142.587c-.358 0-.643.118-.853.355-.21.234-.316.559-.316.976v.061c0 .448.105.803.316 1.065.213.26.5.39.86.39.364 0 .65-.131.861-.394.211-.262.316-.645.316-1.15 0-.393-.106-.708-.32-.945-.21-.239-.498-.358-.864-.358z"/><path id="123-h" d="M35.205 1.817h.73v4.174h-.73V2.947l-1.971 3.044h-.73V1.817h.73v3.048l1.97-3.048z"/><path id="123-i" d="M40.61 1.817v4.174h-.734V2.407h-1.453l-.087 1.563c-.047.717-.171 1.23-.371 1.539-.198.309-.512.47-.944.482h-.292v-.629l.21-.015c.236-.026.406-.16.508-.401.103-.242.169-.69.198-1.343l.079-1.786h2.887z"/><path id="123-j" d="M42.581 3.256h1.11c.484.005.867.129 1.149.37.281.242.422.57.422.984 0 .417-.144.751-.434 1.003-.29.252-.68.378-1.169.378H41.85V1.817h.731v1.439zm0 .583v1.57h1.086c.274 0 .486-.068.636-.205.15-.139.225-.328.225-.567a.765.765 0 0 0-.221-.567c-.145-.15-.35-.226-.612-.231H42.58z"/><path id="123-k" d="M49.665 5.991h-.73V4.21h-1.963V5.99h-.734V1.817h.734v1.81h1.963v-1.81h.73v4.174z"/><path id="123-l" d="M50.649 3.866c0-.41.081-.777.245-1.104.165-.326.394-.578.687-.756.294-.177.63-.266 1.007-.266.581 0 1.051.197 1.41.59.36.394.54.917.54 1.57v.05c0 .407-.08.772-.24 1.096a1.772 1.772 0 0 1-.684.752c-.294.18-.634.27-1.018.27-.58 0-1.05-.196-1.41-.59-.358-.393-.537-.914-.537-1.562v-.05zm.734.084c0 .463.11.835.328 1.115.221.28.516.42.885.42.37 0 .666-.14.884-.424.219-.285.328-.684.328-1.195 0-.458-.112-.829-.336-1.111a1.062 1.062 0 0 0-.884-.429c-.361 0-.652.14-.873.42-.221.281-.332.682-.332 1.204z"/><path id="123-m" d="M57.228 6.068c-.58 0-1.05-.185-1.414-.555-.364-.373-.545-.87-.545-1.493v-.131c0-.414.08-.783.24-1.107.164-.327.39-.582.68-.764.292-.186.608-.278.948-.278.555 0 .987.179 1.295.536.308.358.462.87.462 1.536v.297h-2.895c.011.411.133.744.368.999.237.252.537.378.9.378.258 0 .476-.052.656-.154.179-.103.335-.24.47-.41l.446.34c-.358.538-.895.806-1.611.806zm-.091-3.742a.983.983 0 0 0-.743.317c-.2.208-.323.501-.37.88h2.14v-.055c-.022-.362-.122-.643-.3-.84-.18-.201-.422-.302-.727-.302z"/><path id="123-n" d="M61.556 3.866c0-.41.081-.777.244-1.104a1.83 1.83 0 0 1 .688-.756c.294-.177.63-.266 1.007-.266.581 0 1.051.197 1.41.59.36.394.54.917.54 1.57v.05c0 .407-.08.772-.24 1.096a1.771 1.771 0 0 1-.684.752c-.295.18-.634.27-1.019.27-.579 0-1.049-.196-1.41-.59-.357-.393-.536-.914-.536-1.562v-.05zm.734.084c0 .463.11.835.328 1.115.221.28.516.42.884.42.372 0 .666-.14.885-.424.218-.285.328-.684.328-1.195 0-.458-.112-.829-.336-1.111a1.062 1.062 0 0 0-.885-.429c-.36 0-.651.14-.872.42-.221.281-.332.682-.332 1.204z"/><path id="123-o" d="M68.075 5.486c.26 0 .489-.077.683-.232a.81.81 0 0 0 .324-.578h.691c-.013.239-.097.466-.252.683a1.651 1.651 0 0 1-.624.516 1.817 1.817 0 0 1-.822.193c-.582 0-1.045-.189-1.39-.567-.342-.38-.513-.9-.513-1.558v-.12c0-.406.076-.768.229-1.084.153-.316.371-.562.655-.737a1.912 1.912 0 0 1 1.015-.262c.48 0 .877.14 1.193.42.318.28.488.645.51 1.092h-.692a.964.964 0 0 0-.316-.663.979.979 0 0 0-.695-.263c-.37 0-.66.131-.865.394-.202.26-.304.636-.304 1.13v.135c0 .481.102.851.304 1.111.203.26.493.39.87.39z"/><path id="123-p" d="M70.662 5.991V1.817h1.666c.569 0 1.004.098 1.307.293.306.193.458.477.458.853a.85.85 0 0 1-.177.524 1.107 1.107 0 0 1-.526.355c.258.06.465.175.62.348a.882.882 0 0 1 .237.617c0 .383-.144.676-.434.88-.287.203-.694.304-1.22.304h-1.931zm.73-1.832v1.257h1.209c.305 0 .533-.055.683-.165a.543.543 0 0 0 .229-.467c0-.417-.313-.625-.94-.625h-1.18zm0-.571h.944c.684 0 1.027-.196 1.027-.587 0-.39-.324-.592-.972-.605h-.999v1.192z"/><path id="123-q" d="M76.988 6.068c-.58 0-1.05-.185-1.414-.555-.363-.373-.545-.87-.545-1.493v-.131c0-.414.08-.783.241-1.107.163-.327.39-.582.68-.764.291-.186.607-.278.947-.278.555 0 .987.179 1.295.536.308.358.462.87.462 1.536v.297H75.76c.01.411.133.744.367.999.237.252.537.378.9.378.258 0 .477-.052.656-.154.179-.103.335-.24.47-.41l.446.34c-.358.538-.895.806-1.611.806zm-.09-3.742a.982.982 0 0 0-.743.317c-.2.208-.324.501-.371.88h2.14v-.055c-.021-.362-.121-.643-.3-.84-.18-.201-.422-.302-.727-.302z"/><path id="123-r" d="M80.258 1.817v3.592h1.563V1.817h.73v3.592h1.56V1.817h.735v3.592h.6l-.07 1.82h-.656V5.992h-5.197V1.817h.735z"/><path id="123-s" d="M88.013 6.068c-.579 0-1.05-.185-1.413-.555-.364-.373-.545-.87-.545-1.493v-.131c0-.414.08-.783.24-1.107.164-.327.39-.582.68-.764.292-.186.608-.278.947-.278.556 0 .988.179 1.296.536.308.358.462.87.462 1.536v.297h-2.895c.01.411.133.744.367.999.237.252.537.378.9.378.259 0 .477-.052.656-.154.18-.103.336-.24.47-.41l.446.34c-.358.538-.895.806-1.61.806zm-.09-3.742a.982.982 0 0 0-.743.317c-.2.208-.324.501-.371.88h2.14v-.055c-.02-.362-.121-.643-.3-.84-.179-.201-.421-.302-.727-.302z"/><path id="123-t" d="M94.02 5.991h-.731V4.21h-1.963V5.99h-.734V1.817h.734v1.81h1.963v-1.81h.73v4.174z"/><path id="123-u" d="M97.96 1.817h.731v4.174h-.73V2.947L95.99 5.991h-.73V1.817h.73v3.048l1.97-3.048z"/><path id="123-v" d="M101.637 6.068c-.579 0-1.05-.185-1.414-.555-.363-.373-.545-.87-.545-1.493v-.131c0-.414.08-.783.241-1.107.163-.327.39-.582.679-.764.293-.186.609-.278.948-.278.556 0 .987.179 1.295.536.308.358.462.87.462 1.536v.297h-2.894c.01.411.133.744.367.999.237.252.537.378.9.378.258 0 .477-.052.656-.154.179-.103.336-.24.47-.41l.446.34c-.358.538-.895.806-1.611.806zm-.091-3.742a.981.981 0 0 0-.742.317c-.2.208-.324.501-.371.88h2.14v-.055c-.021-.362-.121-.643-.3-.84-.179-.201-.421-.302-.727-.302z"/><path id="123-w" d="M2.093 3.15C2.779.556 5.11 0 7.442 0h4.343c.411 0 .685.37.685.741v10.192c0 .417-.365.74-.777.74h-1.508a.776.776 0 0 1-.778-.787V8.848H3.693l-.549 2.038c-.137.417-.548.788-.96.788h-1.6c-.411 0-.685-.324-.548-.741L2.093 3.15zm2.194 3.382h5.12V2.27H7.122c-1.052 0-1.875.648-2.103 1.621l-.732 2.64z"/><path id="123-x" d="M0 .788C0 .37.32 0 .777 0h6.537c2.058 0 4.16.88 4.16 3.335 0 .834-.274 1.483-1.097 2.131 1.098.603 1.555 1.622 1.555 2.687 0 2.316-2.012 3.52-4.252 3.52H.777c-.411 0-.777-.37-.777-.787V.788zm3.017 1.436V4.54h4.297c.686 0 1.098-.417 1.098-1.158 0-.741-.458-1.158-1.098-1.158H3.017zm0 4.493v2.826H7.59c.868 0 1.28-.556 1.28-1.39 0-.834-.412-1.39-1.28-1.39H3.017v-.046z"/><path id="123-y" d="M11.063 0c.412 0 .777.324.777.788v.787c0 .417-.32.788-.777.788H7.452v8.616c0 .417-.366.741-.778.741H5.166c-.412 0-.777-.324-.777-.741V2.363H.777A.776.776 0 0 1 0 1.575V.788C0 .37.32 0 .777 0h10.286z"/><path id="123-z" d="M6.492 0c4.114 0 6.491 1.76 6.491 6.069 0 4.354-2.377 6.068-6.491 6.068C2.377 12.137 0 10.377 0 6.07 0 1.76 2.377 0 6.492 0zm-3.43 6.115c0 2.501.961 3.891 3.43 3.891 2.468 0 3.428-1.39 3.428-3.891 0-2.502-.96-3.891-3.428-3.891-2.469 0-3.43 1.39-3.43 3.89z"/><path id="123-A" d="M5.943 0h1.783c2.24 0 4.617 1.204 4.617 3.567 0 .741-.594.88-.823.88h-.96c-.457 0-.823-.231-1.143-.88C9.052 2.78 8.412 2.27 7.452 2.27H6.034c-2.377 0-3.017.88-3.017 3.613s.64 3.614 3.017 3.614h1.6c1.006 0 1.6-.51 1.966-1.297.32-.695.686-.88 1.143-.88h.96c.229 0 .823.138.823.88 0 2.362-2.377 3.567-4.617 3.567H5.943C2.011 11.767 0 9.914 0 5.837 0 1.853 2.011 0 5.943 0z"/><path id="123-B" d="M0 .788C0 .37.32 0 .777 0h6.537c2.058 0 4.16.88 4.16 3.335 0 .834-.274 1.483-1.097 2.131 1.098.603 1.555 1.622 1.555 2.687 0 2.316-2.012 3.52-4.252 3.52H.777c-.411 0-.777-.37-.777-.787V.788zm3.017 1.436V4.54h4.297c.686 0 1.143-.417 1.143-1.158 0-.741-.457-1.158-1.143-1.158H3.017zm0 4.493v2.826H7.59c.868 0 1.28-.556 1.28-1.39 0-.834-.412-1.39-1.28-1.39H3.017v-.046z"/><path id="123-C" d="M10.835.664v.788c0 .417-.366.788-.778.788H3.063v2.362h6.034c.412 0 .778.37.778.788v.787c0 .417-.366.788-.778.788H3.063v2.409h6.994c.412 0 .732.324.732.74v.788c0 .417-.32.788-.777.788H.777c-.411 0-.777-.37-.777-.788V.757C0 .34.366.016.777.016h9.28c.458-.093.778.232.778.648z"/><path id="123-D" d="M11.063 0c.412 0 .777.324.777.788v.787c0 .417-.32.788-.777.788H7.452v8.616c0 .417-.366.741-.778.741H5.166c-.412 0-.777-.324-.777-.741V2.363H.777A.776.776 0 0 1 0 1.575V.788C0 .37.32 0 .777 0h10.286z"/><path id="123-E" d="M24.138 23.116c-.046.186-.092.417-.229.602-.96 1.576-4.617 2.78-9.051 2.78-5.12 0-9.28-1.622-9.28-3.567 0-.649.456-1.25 1.234-1.76L29.029 0H1.097C.503 0 0 .51 0 1.112v29.324c0 .602.503 1.111 1.097 1.111h28.07c.594 0 1.097-.51 1.097-1.111V4.91l-6.126 18.206z"/><path id="123-F" d="M.229 0L0 .602C.137.417.229.185.229 0z"/><path id="123-G" d="M3.703 1.564S5.623.313 5.989.22c.365-.139 2.285-.417 4.526 0 1.462.417 2.148 1.02 2.148 1.02s1.097.138 1.143.231c.046.093.229.51.183 1.343a.315.315 0 0 1 .183.186v.926s-.137.463-2.149.556c0 0-.137.834-1.051.834 0 0-1.006.046-1.006-.741H3.703s0 .648-1.006.648c0 0-1.006-.046-1.006-.787 0 0 .046-.047-1.188-.047-.274 0-.412-.231-.412-.231v-.649H0v-.37h.137s.046-.649.549-.927c-.092 0 1.097-.417 3.017-.648z"/><path id="123-H" d="M0 0h22.235L18 7.887H0V0z"/><path id="123-I" d="M1.8 0h.679c.597 0 1.046.117 1.346.35.302.23.453.631.453 1.2v1.393c0 .599-.15 1.02-.45 1.263-.298.242-.744.363-1.337.363h-.788c-.465 0-.854-.104-1.166-.312-.31-.208-.466-.47-.466-.785 0-.124.037-.213.109-.268a.35.35 0 0 1 .208-.082h.369c.161 0 .297.094.406.28.11.186.326.278.649.278h.57c.255 0 .439-.051.553-.154.115-.105.173-.3.173-.583v-.117H1.8c-.59 0-1.037-.108-1.343-.324C.152 2.283 0 1.92 0 1.415 0 .906.152.544.456.328.762.109 1.21 0 1.799 0zm.108 1.938h1.2V1.55c0-.258-.058-.433-.173-.523C2.82.937 2.633.892 2.37.892h-.462c-.255 0-.442.037-.562.113-.118.076-.177.212-.177.41 0 .197.06.334.177.41.12.075.307.113.562.113z"/><path id="123-J" d="M4.786 3.022V1.626c0-.597.15-1.017.447-1.26C5.533.121 5.98 0 6.57 0h.788c.467 0 .856.105 1.166.315.313.208.469.469.469.781 0 .127-.036.217-.109.271a.361.361 0 0 1-.21.08h-.367c-.161 0-.298-.093-.41-.278-.109-.185-.324-.277-.644-.277h-.574c-.255 0-.439.051-.553.154-.113.103-.17.296-.17.58v.116h1.309c.587 0 1.033.11 1.337.328.306.216.459.579.459 1.087 0 .506-.153.869-.46 1.087-.303.216-.749.325-1.336.325h-.68c-.597 0-1.047-.116-1.349-.347-.3-.233-.45-.633-.45-1.2zm1.17 0c0 .258.057.432.17.523.114.09.302.135.565.135h.465c.255 0 .44-.038.559-.113.118-.076.177-.212.177-.41 0-.2-.06-.336-.177-.41-.118-.075-.304-.113-.559-.113h-1.2v.388z"/></defs></svg>