<svg xmlns="http://www.w3.org/2000/svg" xmlns:xlink="http://www.w3.org/1999/xlink" width="182" height="111" viewBox="0 0 182 111"><defs><path id="n9kya" d="M623.762 3147.443c-4.823 4.673-10.571 8.312-17.267 10.94-6.674 2.605-13.994 3.919-21.938 3.919h-27.24c-7.333 0-13.278-5.947-13.278-13.282v-.093c0-7.328 5.934-13.27 13.26-13.28l25.902-.047c3.918 0 7.492-.624 10.7-1.874 3.23-1.27 5.964-3.056 8.224-5.361 2.26-2.325 4.026-5.082 5.275-8.29 1.27-3.23 1.894-6.804 1.894-10.723 0-7.838-2.39-14.126-7.17-18.842-4.779-4.715-11.087-7.084-18.923-7.084h-2.045l-23.915-.14c-7.304-.04-13.202-5.975-13.202-13.28 0-7.334 5.945-13.28 13.279-13.28h27.239c8.052 0 15.393 1.312 22.025 3.918 6.63 2.627 12.357 6.245 17.18 10.853.12.116.241.232.36.35a51.539 51.539 0 0 1 2.13-2.149c5.177-4.925 11.333-8.77 18.472-11.536 7.136-2.765 14.927-4.15 23.371-4.15 8.443 0 16.209 1.385 23.296 4.15 7.087 2.765 13.192 6.586 18.32 11.46 5.128 4.879 9.123 10.708 11.986 17.494 2.866 6.786 4.298 14.25 4.298 22.395 0 8.144-1.432 15.609-4.298 22.395-2.863 6.786-6.858 12.619-11.986 17.494-5.128 4.877-11.233 8.696-18.32 11.46-7.087 2.765-14.853 4.149-23.296 4.149-8.444 0-16.235-1.384-23.371-4.15-7.14-2.763-13.295-6.606-18.471-11.535a51.401 51.401 0 0 1-2.172-2.193c-.106.105-.212.209-.319.312zm44.333-9.58c4.019 0 7.714-.702 11.082-2.111 3.367-1.407 6.281-3.37 8.746-5.882 2.462-2.512 4.372-5.505 5.73-8.973 1.357-3.469 2.036-7.263 2.036-11.386 0-4.121-.68-7.918-2.037-11.387-1.357-3.467-3.267-6.457-5.729-8.973-2.465-2.512-5.379-4.473-8.746-5.881-3.368-1.405-7.063-2.112-11.082-2.112-4.022 0-7.741.707-11.158 2.112-3.419 1.408-6.359 3.369-8.821 5.881-2.464 2.516-4.398 5.506-5.805 8.973-1.409 3.47-2.11 7.266-2.11 11.387 0 4.123.701 7.917 2.11 11.386 1.407 3.468 3.341 6.46 5.805 8.973 2.462 2.513 5.402 4.475 8.821 5.882 3.417 1.409 7.136 2.11 11.158 2.11zm-113.134-17.376c-6.044 0-10.944-4.9-10.944-10.945v-.243c0-6.045 4.9-10.946 10.944-10.946 6.045 0 10.945 4.901 10.945 10.946v.243c0 6.045-4.9 10.945-10.945 10.945z"/></defs><g><g opacity=".6" transform="translate(-544 -3054)"><use fill="#fff" xlink:href="#n9kya"/></g></g></svg>