<svg width="36" height="37" viewBox="0 0 36 37" xmlns="http://www.w3.org/2000/svg" xmlns:xlink="http://www.w3.org/1999/xlink"><title>autosvet_logo</title><desc>Created using Figma</desc><use xlink:href="#123-a" transform="translate(0 .113)" fill="#1F9BD7"/><use xlink:href="#123-b" transform="translate(27.71 27.021)" fill="#1F9BD7"/><g transform="translate(-5364 578)"><use xlink:href="#123-c" transform="translate(5373.33 -555.565)" fill="#1F9BD7"/></g><defs><path id="123-a" d="M27.978 26.379c-.053.211-.106.476-.265.687-1.113 1.797-5.352 3.172-10.492 3.172-5.934 0-10.756-1.85-10.756-4.07 0-.74.53-1.428 1.43-2.01L33.648 0H1.272C.582 0 0 .582 0 1.269V34.73C0 35.42.583 36 1.272 36h32.535c.688 0 1.271-.581 1.271-1.269V5.604l-7.1 20.775z"/><path id="123-b" d="M.265 0L0 .687C.159.476.265.211.265 0z"/><path id="123-c" d="M4.292 1.784S6.518.357 6.942.251c.423-.158 2.649-.475 5.245 0 1.696.476 2.49 1.163 2.49 1.163s1.273.159 1.326.265c.052.105.264.581.211 1.533a.361.361 0 0 1 .212.211V4.48s-.159.529-2.49.635c0 0-.159.951-1.219.951 0 0-1.165.053-1.165-.846h-7.26s0 .74-1.166.74c0 0-1.165-.052-1.165-.898 0 0 .053-.053-1.378-.053a.587.587 0 0 1-.477-.264v-.74H0v-.423h.159s.053-.74.636-1.058c-.106 0 1.272-.475 3.497-.74z"/></defs></svg>