<svg width="213" height="53" viewBox="0 0 213 53" xmlns="http://www.w3.org/2000/svg" xmlns:xlink="http://www.w3.org/1999/xlink"><title>autosvet_logo</title><desc>Created using Figma</desc><g transform="translate(50.307 36.5)" fill="#1F9BD7"><use xlink:href="#123-a"/><use xlink:href="#123-b"/><use xlink:href="#123-c"/><use xlink:href="#123-d"/><use xlink:href="#123-e"/><use xlink:href="#123-f"/><use xlink:href="#123-g"/><use xlink:href="#123-h"/><use xlink:href="#123-i"/><use xlink:href="#123-j"/><use xlink:href="#123-k"/><use xlink:href="#123-l"/><use xlink:href="#123-m"/><use xlink:href="#123-n"/><use xlink:href="#123-o"/><use xlink:href="#123-p"/><use xlink:href="#123-q"/><use xlink:href="#123-r"/><use xlink:href="#123-s"/><use xlink:href="#123-t"/><use xlink:href="#123-u"/><use xlink:href="#123-v"/></g><use xlink:href="#123-w" transform="translate(50.336 16.366)" fill="#1F9BD7"/><use xlink:href="#123-x" transform="translate(70.851 16.301)" fill="#1F9BD7"/><use xlink:href="#123-y" transform="translate(88.143 16.366)" fill="#1F9BD7"/><use xlink:href="#123-z" transform="translate(105.306 15.978)" fill="#1F9BD7"/><use xlink:href="#123-A" transform="translate(124.994 16.236)" fill="#1F9BD7"/><use xlink:href="#123-B" transform="translate(144.682 16.301)" fill="#1F9BD7"/><use xlink:href="#123-C" transform="translate(163.463 16.473)" fill="#1F9BD7"/><use xlink:href="#123-D" transform="translate(179.654 16.366)" fill="#1F9BD7"/><g><use xlink:href="#123-E" transform="translate(0 9)" fill="#1F9BD7"/><use xlink:href="#123-F" transform="translate(33.871 41.887)" fill="#1F9BD7"/></g><g transform="translate(336 537)"><use xlink:href="#123-G" transform="translate(-324.602 -500.718)" fill="#1F9BD7"/></g><g transform="translate(336 537)"><use xlink:href="#123-H" transform="translate(-155 -537)" fill="#1F9BD7"/></g><g transform="translate(336 537)"><use xlink:href="#123-I" transform="translate(-149 -537)" fill="#FFF"/></g><defs><path id="123-a" d="M3.91 8.356c-.06-.115-.108-.32-.145-.613a2.353 2.353 0 0 1-1.723.72c-.597 0-1.087-.16-1.471-.483A1.56 1.56 0 0 1 0 6.742c0-.606.239-1.076.716-1.41.481-.337 1.156-.506 2.025-.506h1.007V4.37c0-.348-.108-.624-.324-.829-.217-.208-.535-.312-.957-.312-.37 0-.679.09-.929.27-.25.179-.374.396-.374.65H.124c0-.29.105-.57.318-.839.216-.273.507-.488.873-.646.369-.157.774-.236 1.214-.236.697 0 1.243.168 1.639.505.395.334.6.795.615 1.383v2.68c0 .534.071.96.213 1.275v.086H3.91zm-1.717-.759c.324 0 .632-.08.923-.242.29-.161.502-.37.632-.63V5.532h-.811c-1.268 0-1.902.357-1.902 1.071 0 .312.108.556.324.732.217.176.495.263.834.263z"/><path id="123-b" d="M6.5 8.356V2.534h2.361c.806 0 1.423.137 1.852.41.433.268.649.665.649 1.188 0 .27-.084.513-.252.732-.168.215-.416.38-.744.495.366.083.659.244.879.484.223.24.335.528.335.861 0 .535-.205.944-.615 1.227-.407.283-.983.425-1.729.425H6.501zM7.536 5.8v1.754h1.712c.433 0 .756-.077.968-.23a.753.753 0 0 0 .325-.652c0-.581-.444-.872-1.332-.872H7.535zm0-.796h1.338c.97 0 1.454-.273 1.454-.818 0-.545-.459-.827-1.376-.845H7.535v1.663z"/><path id="123-c" d="M17.381 3.341h-2.03v5.015h-1.035V3.341h-1.992v-.807h5.057v.807z"/><path id="123-d" d="M17.88 5.391c0-.57.115-1.083.346-1.538.235-.456.56-.808.974-1.055a2.745 2.745 0 0 1 1.426-.371c.824 0 1.49.274 1.997.823.511.549.767 1.279.767 2.19v.07c0 .567-.114 1.076-.342 1.528a2.485 2.485 0 0 1-.967 1.05c-.418.25-.9.376-1.444.376-.82 0-1.486-.275-1.997-.823-.507-.55-.76-1.276-.76-2.18v-.07zm1.04.119c0 .645.155 1.164.464 1.555.314.39.731.586 1.253.586.526 0 .944-.197 1.253-.592.31-.398.465-.954.465-1.668 0-.638-.159-1.155-.476-1.55-.313-.397-.73-.596-1.253-.596-.51 0-.923.195-1.236.586-.314.391-.47.95-.47 1.679z"/><path id="123-e" d="M28.173 7.038l2.059-4.504h1.292v5.822h-1.035V4.122L28.53 8.356h-.716L25.818 4.03v4.326h-1.035V2.534h1.342l2.048 4.504z"/><path id="123-f" d="M32.917 5.391c0-.57.115-1.083.347-1.538.235-.456.559-.808.973-1.055a2.745 2.745 0 0 1 1.427-.371c.824 0 1.49.274 1.997.823.51.549.766 1.279.766 2.19v.07c0 .567-.114 1.076-.341 1.528a2.486 2.486 0 0 1-.968 1.05c-.418.25-.899.376-1.443.376-.82 0-1.486-.275-1.997-.823-.508-.55-.761-1.276-.761-2.18v-.07zm1.04.119c0 .645.155 1.164.465 1.555.313.39.73.586 1.253.586.526 0 .943-.197 1.253-.592.31-.398.464-.954.464-1.668 0-.638-.158-1.155-.475-1.55-.314-.397-.731-.596-1.253-.596-.511 0-.924.195-1.237.586-.313.391-.47.95-.47 1.679z"/><path id="123-g" d="M42.382 2.868c.761 0 1.369.246 1.824.737.459.488.688 1.132.688 1.932v.091c0 .549-.11 1.04-.33 1.474-.22.43-.537.766-.951 1.007-.41.236-.884.355-1.42.355-.814 0-1.468-.26-1.965-.78-.495-.524-.744-1.225-.744-2.104v-.485c0-1.223.235-2.195.705-2.916.474-.72 1.171-1.16 2.093-1.318.522-.09.874-.2 1.057-.328A.617.617 0 0 0 43.613 0h.85c0 .448-.106.798-.319 1.05-.208.25-.544.428-1.006.532l-.773.167c-.615.14-1.077.376-1.387.71-.306.33-.505.771-.599 1.324.549-.61 1.216-.915 2.003-.915zm-.201.818c-.507 0-.91.165-1.209.495-.298.326-.447.78-.447 1.361v.086c0 .624.15 1.12.447 1.485.303.363.71.544 1.22.544.515 0 .921-.183 1.22-.55.298-.365.447-.9.447-1.603 0-.548-.15-.988-.453-1.318-.298-.333-.707-.5-1.225-.5z"/><path id="123-h" d="M49.873 2.534h1.035v5.822h-1.035V4.111l-2.791 4.245h-1.035V2.534h1.035v4.251l2.791-4.25z"/><path id="123-i" d="M57.532 2.534v5.822h-1.04V3.358h-2.06l-.123 2.179c-.067 1-.242 1.716-.526 2.147-.28.43-.725.654-1.337.672h-.414V7.48l.297-.021c.336-.036.576-.223.722-.56.145-.337.238-.961.28-1.872l.111-2.492h4.09z"/><path id="123-j" d="M60.323 4.541h1.572c.686.007 1.229.18 1.628.517.4.337.599.794.599 1.372 0 .581-.205 1.047-.616 1.399-.41.351-.962.527-1.656.527h-2.562V2.534h1.035v2.007zm0 .813v2.19h1.539c.387 0 .688-.095.9-.286.213-.193.32-.457.32-.79 0-.323-.105-.587-.314-.791-.205-.208-.494-.316-.867-.323h-1.578z"/><path id="123-k" d="M70.36 8.356h-1.036V5.87h-2.78v2.486h-1.04V2.534h1.04v2.524h2.78V2.534h1.035v5.822z"/><path id="123-l" d="M71.752 5.391c0-.57.116-1.083.347-1.538a2.57 2.57 0 0 1 .974-1.055 2.745 2.745 0 0 1 1.426-.371c.824 0 1.49.274 1.997.823.511.549.767 1.279.767 2.19v.07c0 .567-.114 1.076-.342 1.528a2.486 2.486 0 0 1-.967 1.05c-.418.25-.9.376-1.444.376-.82 0-1.486-.275-1.997-.823-.507-.55-.76-1.276-.76-2.18v-.07zm1.04.119c0 .645.156 1.164.465 1.555.313.39.731.586 1.253.586.526 0 .944-.197 1.253-.592.31-.398.465-.954.465-1.668 0-.638-.159-1.155-.476-1.55-.313-.397-.73-.596-1.253-.596-.51 0-.923.195-1.236.586-.314.391-.47.95-.47 1.679z"/><path id="123-m" d="M81.072 8.464c-.82 0-1.488-.259-2.002-.775-.515-.52-.772-1.214-.772-2.082v-.183c0-.578.113-1.093.34-1.545.232-.455.553-.81.963-1.065a2.49 2.49 0 0 1 1.343-.387c.787 0 1.398.249 1.835.748.436.498.654 1.212.654 2.141v.414h-4.1c.014.574.188 1.039.52 1.394.336.352.76.527 1.275.527.366 0 .675-.071.929-.215.254-.143.475-.334.666-.57l.632.473c-.507.75-1.268 1.125-2.283 1.125zm-.128-5.22c-.418 0-.769.148-1.052.442-.283.29-.459.7-.526 1.227h3.032v-.076c-.03-.506-.171-.897-.425-1.173-.254-.28-.597-.42-1.03-.42z"/><path id="123-n" d="M87.204 5.391c0-.57.115-1.083.347-1.538a2.57 2.57 0 0 1 .973-1.055 2.745 2.745 0 0 1 1.427-.371c.824 0 1.49.274 1.997.823.51.549.766 1.279.766 2.19v.07c0 .567-.114 1.076-.341 1.528a2.486 2.486 0 0 1-.968 1.05c-.418.25-.899.376-1.443.376-.82 0-1.487-.275-1.998-.823-.507-.55-.76-1.276-.76-2.18v-.07zm1.04.119c0 .645.155 1.164.465 1.555.313.39.73.586 1.253.586.525 0 .943-.197 1.253-.592.31-.398.464-.954.464-1.668 0-.638-.158-1.155-.475-1.55-.314-.397-.731-.596-1.253-.596-.511 0-.924.195-1.237.586-.313.391-.47.95-.47 1.679z"/><path id="123-o" d="M96.44 7.651c.37 0 .692-.107.968-.323.276-.215.429-.484.458-.807h.98a1.762 1.762 0 0 1-.359.953c-.22.301-.514.541-.883.72-.366.18-.754.27-1.164.27-.824 0-1.48-.264-1.97-.791-.484-.531-.727-1.256-.727-2.174v-.167c0-.567.109-1.07.325-1.512.216-.44.526-.784.928-1.027.407-.244.886-.366 1.438-.366.68 0 1.242.195 1.69.586.451.391.692.899.721 1.523h-.979a1.336 1.336 0 0 0-.447-.926c-.265-.244-.593-.365-.985-.365-.526 0-.934.182-1.225.548-.287.363-.43.888-.43 1.577v.188c0 .671.143 1.188.43 1.55.287.362.697.543 1.23.543z"/><path id="123-p" d="M100.104 8.356V2.534h2.361c.805 0 1.423.137 1.852.41.432.268.649.665.649 1.188 0 .27-.084.513-.252.732-.168.215-.416.38-.744.495.365.083.658.244.878.484.224.24.336.528.336.861 0 .535-.205.944-.616 1.227-.406.283-.982.425-1.728.425h-2.736zm1.035-2.556v1.754h1.712c.433 0 .755-.077.968-.23a.754.754 0 0 0 .324-.652c0-.581-.444-.872-1.331-.872h-1.673zm0-.796h1.337c.97 0 1.455-.273 1.455-.818 0-.545-.459-.827-1.377-.845h-1.415v1.663z"/><path id="123-q" d="M109.066 8.464c-.82 0-1.488-.259-2.003-.775-.514-.52-.772-1.214-.772-2.082v-.183c0-.578.114-1.093.342-1.545.231-.455.552-.81.962-1.065a2.488 2.488 0 0 1 1.342-.387c.787 0 1.399.249 1.835.748.437.498.655 1.212.655 2.141v.414h-4.101c.015.574.189 1.039.521 1.394.335.352.76.527 1.275.527.366 0 .675-.071.929-.215.253-.143.475-.334.665-.57l.633.473c-.508.75-1.268 1.125-2.283 1.125zm-.129-5.22c-.417 0-.768.148-1.051.442-.284.29-.459.7-.526 1.227h3.032v-.076c-.03-.506-.172-.897-.425-1.173-.254-.28-.597-.42-1.03-.42z"/><path id="123-r" d="M113.698 2.534v5.01h2.216v-5.01h1.035v5.01h2.209v-5.01h1.041v5.01h.85l-.101 2.54h-.928V8.355h-7.362V2.534h1.04z"/><path id="123-s" d="M124.685 8.464c-.82 0-1.488-.259-2.002-.775-.515-.52-.772-1.214-.772-2.082v-.183c0-.578.113-1.093.341-1.545.231-.455.552-.81.962-1.065a2.492 2.492 0 0 1 1.343-.387c.787 0 1.398.249 1.835.748.436.498.654 1.212.654 2.141v.414h-4.1c.014.574.188 1.039.52 1.394.336.352.761.527 1.275.527.366 0 .675-.071.929-.215a2.3 2.3 0 0 0 .666-.57l.632.473c-.507.75-1.268 1.125-2.283 1.125zm-.128-5.22c-.418 0-.769.148-1.052.442-.283.29-.459.7-.526 1.227h3.032v-.076c-.03-.506-.171-.897-.425-1.173-.254-.28-.597-.42-1.029-.42z"/><path id="123-t" d="M133.194 8.356h-1.035V5.87h-2.78v2.486h-1.041V2.534h1.041v2.524h2.78V2.534h1.035v5.822z"/><path id="123-u" d="M138.777 2.534h1.035v5.822h-1.035V4.111l-2.791 4.245h-1.035V2.534h1.035v4.251l2.791-4.25z"/><path id="123-v" d="M143.986 8.464c-.821 0-1.488-.259-2.003-.775-.515-.52-.772-1.214-.772-2.082v-.183c0-.578.114-1.093.341-1.545.231-.455.552-.81.962-1.065a2.492 2.492 0 0 1 1.343-.387c.787 0 1.399.249 1.835.748.436.498.654 1.212.654 2.141v.414h-4.1c.015.574.188 1.039.52 1.394.336.352.761.527 1.276.527.365 0 .675-.071.928-.215a2.3 2.3 0 0 0 .666-.57l.632.473c-.507.75-1.268 1.125-2.282 1.125zm-.129-5.22c-.418 0-.768.148-1.052.442-.283.29-.458.7-.526 1.227h3.033v-.076c-.03-.506-.172-.897-.426-1.173-.253-.28-.596-.42-1.029-.42z"/><path id="123-w" d="M2.965 4.394C3.936.775 7.239 0 10.542 0h6.153c.583 0 .971.517.971 1.034v14.214c0 .582-.518 1.034-1.1 1.034h-2.138a1.09 1.09 0 0 1-1.1-1.098V12.34H5.231l-.778 2.843c-.194.581-.777 1.098-1.36 1.098H.828c-.583 0-.972-.452-.777-1.034L2.965 4.394zM6.074 9.11h7.253V3.166H10.09c-1.49 0-2.655.904-2.98 2.261L6.075 9.11z"/><path id="123-x" d="M0 1.098A1.09 1.09 0 0 1 1.101 0h9.261c2.915 0 5.894 1.228 5.894 4.652 0 1.163-.389 2.068-1.555 2.972 1.555.84 2.202 2.261 2.202 3.747 0 3.231-2.85 4.91-6.023 4.91H1.101C.518 16.282 0 15.766 0 15.185V1.098zm4.274 2.003v3.23h6.088c.972 0 1.554-.58 1.554-1.614 0-1.034-.647-1.616-1.554-1.616H4.274zm0 6.268v3.94h6.477c1.23 0 1.813-.774 1.813-1.938 0-1.162-.583-1.938-1.813-1.938H4.274V9.37z"/><path id="123-y" d="M15.673 0a1.09 1.09 0 0 1 1.1 1.098v1.099a1.09 1.09 0 0 1-1.1 1.098h-5.117v12.018c0 .581-.518 1.033-1.1 1.033H7.317c-.583 0-1.1-.452-1.1-1.033V3.295H1.1A1.09 1.09 0 0 1 0 2.197V1.098A1.09 1.09 0 0 1 1.101 0h14.572z"/><path id="123-z" d="M9.196 0c5.83 0 9.197 2.455 9.197 8.464 0 6.073-3.368 8.464-9.197 8.464C3.368 16.928 0 14.473 0 8.464S3.368 0 9.196 0zM4.34 8.529c0 3.489 1.36 5.427 4.857 5.427 3.498 0 4.858-1.938 4.858-5.427 0-3.49-1.36-5.428-4.858-5.428C5.7 3.101 4.34 5.04 4.34 8.53z"/><path id="123-A" d="M8.42 0h2.525c3.173 0 6.541 1.68 6.541 4.975 0 1.034-.842 1.228-1.166 1.228h-1.36c-.647 0-1.165-.323-1.619-1.228-.518-1.098-1.425-1.81-2.784-1.81H8.549c-3.368 0-4.275 1.229-4.275 5.04 0 3.813.907 5.04 4.275 5.04h2.267c1.424 0 2.266-.71 2.784-1.809.454-.969.972-1.227 1.62-1.227h1.36c.323 0 1.165.193 1.165 1.227 0 3.295-3.368 4.975-6.54 4.975H8.418C2.85 16.411 0 13.827 0 8.141 0 2.584 2.85 0 8.42 0z"/><path id="123-B" d="M0 1.098A1.09 1.09 0 0 1 1.101 0h9.261c2.915 0 5.894 1.228 5.894 4.652 0 1.163-.389 2.068-1.555 2.972 1.555.84 2.202 2.261 2.202 3.747 0 3.231-2.85 4.91-6.023 4.91H1.101C.518 16.282 0 15.766 0 15.185V1.098zm4.274 2.003v3.23h6.088c.972 0 1.62-.58 1.62-1.614 0-1.034-.648-1.616-1.62-1.616H4.274zm0 6.268v3.94h6.477c1.23 0 1.813-.774 1.813-1.938 0-1.162-.583-1.938-1.813-1.938H4.274V9.37z"/><path id="123-C" d="M15.349.927v1.098c0 .582-.518 1.099-1.101 1.099H4.339v3.295h8.549c.583 0 1.1.517 1.1 1.098v1.098c0 .582-.517 1.099-1.1 1.099H4.339v3.36h9.909c.583 0 1.036.452 1.036 1.033v1.099a1.09 1.09 0 0 1-1.1 1.098H1.1C.518 16.304 0 15.787 0 15.206V1.056C0 .474.518.022 1.101.022h13.147c.648-.129 1.101.323 1.101.905z"/><path id="123-D" d="M15.673 0a1.09 1.09 0 0 1 1.1 1.098v1.099a1.09 1.09 0 0 1-1.1 1.098h-5.117v12.018c0 .581-.518 1.033-1.1 1.033H7.317c-.583 0-1.1-.452-1.1-1.033V3.295H1.1A1.09 1.09 0 0 1 0 2.197V1.098A1.09 1.09 0 0 1 1.101 0h14.572z"/><path id="123-E" d="M34.195 32.24c-.065.26-.13.582-.324.84-1.36 2.198-6.54 3.877-12.823 3.877-7.253 0-13.147-2.261-13.147-4.975 0-.904.648-1.744 1.749-2.455L41.125 0H1.555C.711 0 0 .71 0 1.55v40.9C0 43.29.712 44 1.554 44H41.32c.842 0 1.554-.71 1.554-1.55V6.848L34.195 32.24z"/><path id="123-F" d="M.324 0L0 .84C.194.58.324.258.324 0z"/><path id="123-G" d="M5.246 2.18S7.966.437 8.484.308c.518-.194 3.238-.581 6.412 0 2.072.582 3.043 1.422 3.043 1.422s1.555.193 1.62.323c.064.129.323.71.259 1.873.194.065.259.259.259.259v1.292s-.195.646-3.044.775c0 0-.195 1.163-1.49 1.163 0 0-1.425.065-1.425-1.033H5.246s0 .904-1.425.904c0 0-1.425-.065-1.425-1.098 0 0 .065-.065-1.684-.065C.324 6.122.13 5.8.13 5.8v-.905H0v-.516h.194s.065-.905.777-1.293c-.13 0 1.555-.581 4.275-.904z"/><path id="123-H" d="M0 0h31.5l-6 11H0V0z"/><path id="123-I" d="M2.817 2.663h.962c.847 0 1.483.163 1.908.488.427.322.641.88.641 1.674v1.943c0 .835-.212 1.422-.637 1.762-.422.337-1.053.505-1.894.505H2.68c-.66 0-1.21-.145-1.653-.435C.588 8.31.37 7.945.37 7.506c0-.173.051-.298.154-.374a.5.5 0 0 1 .294-.114h.523c.229 0 .42.13.576.391.155.258.461.387.918.387h.81c.36 0 .62-.072.781-.215.164-.147.246-.418.246-.813v-.163H2.817c-.835 0-1.47-.15-1.903-.453-.43-.304-.646-.81-.646-1.516 0-.709.215-1.214.646-1.516.434-.305 1.068-.457 1.903-.457zm.154 2.703h1.7v-.54c0-.361-.082-.604-.246-.73-.16-.126-.427-.19-.8-.19h-.654c-.36 0-.626.053-.796.159-.167.105-.25.296-.25.571 0 .276.083.466.25.572.17.105.435.158.796.158zm4.078 1.511V4.931c0-.832.21-1.418.633-1.758.424-.34 1.056-.51 1.894-.51h1.116c.662 0 1.213.147 1.652.44.443.29.664.653.664 1.09 0 .175-.051.301-.154.377a.516.516 0 0 1-.299.11h-.518c-.229 0-.422-.129-.58-.387-.156-.257-.46-.386-.915-.386H9.73c-.36 0-.62.072-.782.215-.16.144-.241.413-.241.809v.162h1.854c.832 0 1.463.153 1.894.457.434.302.65.807.65 1.516 0 .706-.216 1.212-.65 1.517-.43.301-1.062.452-1.894.452h-.962c-.847 0-1.484-.161-1.912-.483-.425-.325-.637-.884-.637-1.675zm1.657 0c0 .36.08.604.241.73.161.126.428.189.8.189h.66c.36 0 .623-.053.79-.158.167-.106.25-.296.25-.572 0-.278-.083-.468-.25-.57-.167-.106-.43-.16-.79-.16H8.705v.541z"/></defs></svg>