<svg xmlns="http://www.w3.org/2000/svg" xmlns:xlink="http://www.w3.org/1999/xlink" width="243.88" height="70.21" viewBox="0 0 243.88499 70.209999"><defs><path id="123-a" d="M-4.987.791h41.575V71H-4.987z"/></defs><g fill="none" fill-rule="evenodd"><path d="M176.366 29.103c-1.997-1.988-.458-5.383 2.55-5.859 1.22-.189 2.196.387 2.521 1.483.883 2.997-2.626 6.05-5.07 4.376m-2.694.634c-1.435.025-2.58.58-3.792 1.683-2.275 2.076-3.942 8.12-5.478 8.796 1.227-3.052 2.12-7.355 4.076-9.745.606-.739 1.641-1.573 2.451-1.838.916-.302 2.68-.32 2.743 1.104" fill="#ff3a1e"/><path d="M170.304 32.803c-2.4 2.923-3.98 7.11-6.456 9.942-1.21 1.387-2.443 2.388-3.67 3.428.75.987 2.643.092 3.7-.598.71-.462 1.278-1.294 1.938-1.344-.292 1.07-1.38 1.384-1.543 2.255.986.466 2.37-.33 3.212-1.275.58-.657 1.094-1.599 1.712-1.847-.14.947-1.04 1.52-.934 2.248 2.262-.342 3.904-2.706 4.887-5.013.394-.924.565-2.005 1.206-2.644l2.273-7.074c-2.147-.88-4.666-.097-6.325 1.922" fill="#ff3a1e"/><path d="M177.51 31.269a6.73 6.73 0 0 0-1.127-.521l-2.877 7.688c.02-.014.034-.032.053-.047-2.82 9.332-7.097 16.919-12.004 23.655 2.76.658 9.176-.885 12.9-3.5 3.3-9.94 4.946-26.173 3.054-27.275M164.06 66.91c-.105.054-.126.011-.169-.02-.47-1.23.928-2.417 1.14-3.73.591-.145 1-.188 2.023-.567-.633 1.885-1.607 3.348-2.995 4.316M24.355 4.701c-5.192 8.043-11.07 15.393-14.435 25.263-2.406 6.735-4.376 15.376-4.593 22.31-.05 1.655-.11 5.75 1.31 6.233 4.35-10.216 10.676-21.478 16.406-31.822a14.179 14.179 0 0 1 4.264 2.95c-2.712 8.512-4.085 19.259-2.623 28.546.903 3.642 10.966-21.112 12.794-25.593 3.776-9.251 5.867-19.178 8.862-29.198 2.688-.067 5.16.087 7.216.655-1.988 16.714-19.95 53.351-22.64 57.414-1.12 1.702-3.026 3.725-4.263 3.939-7.83 1.36-8.476-10.546-7.82-18.857-1.314 2.243-2.478 4.09-3.335 5.733-4.512 8.648-6.072 15.454-8.53 15.748C-.654 67.03-.44 52.795.404 44.728c.793-7.614 2.8-16.021 5.577-22.964C9.161 13.817 12.4 7.808 16.154 2.405c2.795.705 5.688 1.375 8.2 2.296" fill="#ff3a1e"/><g transform="translate(142 -.79)"><mask id="123-b" fill="#fff"><use xlink:href="#123-a" width="100%" height="100%"/></mask><path d="M6.074 1.118C1.199 17.964 1.052 38.384 2.139 58.204c2.955-4.281 4.672-9.374 6.89-14.106A1448.525 1448.525 0 0 0 28.384.79c3.122.045 6.069.276 8.204 1.312-.743 3.03-2.594 5.662-3.939 8.53C31.291 13.527 10.775 55.317 3.121 71c-2.327-.732-4.516-1.607-6.231-2.95-2.652-22.027-2.997-47.226 2.296-66.6 1.971-.285 5.02-1.02 6.888-.332" mask="url(#123-b)" fill="#ff3a1e"/></g><path d="M203.856 49.545c-1.853-1.856 7.384-14.48 10.828-13.453-2.858 5.234-8.75 14.554-10.828 13.453m34.777-2.297c-3.168 4.362-7.052 10.45-14.432 8.53-6.64-2.727-5.995-15.007-2.954-21.326-2.41-1.448-4.285-4.33-6.892-4.595-3.313-.334-6.507 2.963-8.203 4.263-4.153 1.216-9.726.94-12.465.662 1.61-4.954 4.046-9.08 5.906-13.781-1.406-1.332-3.106-2.362-4.594-3.612-4.155 5.643-6.64 12.783-8.28 16.983-2.06.08-4.134-.678-6.266-1.44-.51.147-.724 2.029-.672 2.817 1.712 2.046 3.513 2.43 5.7 2.975-3.692 9.46-3.34 25.245 5.25 28.864 5.815 2.45 9.903-2.37 12.59-6.637-1.618-.44-3.234-.908-4.862-1.325-1.49 2.704-3.446 5.274-5.756 4.023-4.82-5.324-3.828-17.76-.656-24.277 4.757.884 7.456-.174 10.826-.983-3.587 3.032-9.14 17.86 2.295 16.403 4.702-.922 6.564-5.513 9.35-9.615-.546 10.064 7.34 15.267 13.618 15.522 7.945.322 12.685-7.811 15.75-13.124-2.243-.156-3.466-.258-5.253-.327M105.064 58.181c.553-4.935 2.41-10.763 7.876-11.811.492 1.428-6.834 12.854-7.876 11.811m-57.415-.985c-2.549-6.604.983-14.974 3.612-18.7 1.051 1.022 2.323 1.829 3.605 2.626-1.31 6.449-5.086 17.997-7.217 16.074m72.838-13.452c1.968-12.514 7.871-18.012 10.823-29.528-1.064-.903-1.75-2.188-3.28-2.627-4.647 4.795-8.199 11.621-10.166 19.031-1.035 3.871-2.219 9.142-2.954 11.812-2.09-.103-2.4-1.976-4.269-2.294-5.165 2.819-8.693 8.563-10.089 12.746-2.672 4.137-6.56 8.904-9.595 8.904-1.642-.454-2.504-2.768-2.627-4.92-.939-17.037 10.091-30.148 14.602-41.223-1.495-.472-3.412-2.118-5.087-2.414-6.003 10.432-10.44 22.743-16.73 32.482-2.072 3.208-5.33 9.549-7.546 8.858-2.566-2.566 3.443-16.075 7.215-23.623-1.002-.308-1.028-1.594-2.296-1.637-3.528 2.331-4.377 5.025-8.53 5.576-1.64 0-.696-3.72-.327-5.252-1.343-.404-1.97-1.527-3.282-1.967-1.932 2.877-1.817 7.806-6.23 8.202-.494-2.997-2.629-9.481-8.207-7.546-3.28 2.085-9.689 12.959-9.84 22.311-.075 4.625 2.424 10.783 7.216 10.824 7.263.065 8.732-14.07 10.5-20.337 1.581-.566 2.625-.46 5.25-2.626.158 3.268 5.02 3.322 6.23 1.965-2.722 4.882-7.183 15.741-1.637 19.687 7.176 5.108 11.647-6.15 14.435-10.502-1.452 7.637-1.467 18.771 7.878 17.72 3.853-1.44 6.233-5.341 8.693-8.824.49 3.444 2.7 5.302 5.74 5.218 5.02-.15 8.283-11.365 9.842-14.321-1.145 7.053 1.15 13.534 5.662 13.534-1.724-4.348-2.349-13.17-1.394-19.229" fill="#ff3a1e"/></g></svg>