<svg width="71" height="32" viewBox="0 0 71 32" xmlns="http://www.w3.org/2000/svg" xmlns:xlink="http://www.w3.org/1999/xlink"><title>mtf</title><desc>Created using Figma</desc><use xlink:href="#123-a" transform="translate(30.209)" fill="#F2F2F2"/><use xlink:href="#123-b" transform="translate(51.247)" fill="#F2F2F2"/><use xlink:href="#123-c" transform="translate(51.247 1.9)" fill="#F2F2F2"/><use xlink:href="#123-d" transform="translate(30.209 1.9)" fill="#F2F2F2"/><use xlink:href="#123-e" transform="translate(36.158 3.82)" fill="#F2F2F2"/><use xlink:href="#123-f" transform="translate(10.355 5.75)" fill="#F2F2F2"/><use xlink:href="#123-g" transform="translate(10.355 3.82)" fill="#F2F2F2"/><use xlink:href="#123-h" transform="translate(36.158 5.71)" fill="#F2F2F2"/><use xlink:href="#123-i" transform="translate(10.355 7.66)" fill="#F2F2F2"/><use xlink:href="#123-e" transform="translate(36.158 7.63)" fill="#F2F2F2"/><use xlink:href="#123-j" transform="translate(10.355 9.59)" fill="#F2F2F2"/><use xlink:href="#123-h" transform="translate(36.158 9.53)" fill="#F2F2F2"/><use xlink:href="#123-k" transform="translate(10.355 13.44)" fill="#F2F2F2"/><use xlink:href="#123-l" transform="translate(10.355 11.51)" fill="#F2F2F2"/><use xlink:href="#123-e" transform="translate(36.158 11.45)" fill="#F2F2F2"/><use xlink:href="#123-h" transform="translate(36.158 13.34)" fill="#F2F2F2"/><use xlink:href="#123-m" transform="translate(51.231 3.82)" fill="#F2F2F2"/><use xlink:href="#123-n" transform="translate(51.231 9.53)" fill="#F2F2F2"/><use xlink:href="#123-m" transform="translate(51.231 11.45)" fill="#F2F2F2"/><use xlink:href="#123-n" transform="translate(51.231 13.34)" fill="#F2F2F2"/><use xlink:href="#123-o" transform="translate(51.231 5.71)" fill="#F2F2F2"/><use xlink:href="#123-p" transform="translate(51.231 7.63)" fill="#F2F2F2"/><use xlink:href="#123-q" transform="translate(0 3.88)" fill="#F2F2F2"/><use xlink:href="#123-r" transform="translate(0 5.79)" fill="#F2F2F2"/><use xlink:href="#123-s" transform="translate(0 7.71)" fill="#F2F2F2"/><use xlink:href="#123-r" transform="translate(0 9.61)" fill="#F2F2F2"/><use xlink:href="#123-s" transform="translate(0 11.52)" fill="#F2F2F2"/><use xlink:href="#123-t" transform="translate(0 13.44)" fill="#F2F2F2"/><use xlink:href="#123-u" transform="translate(0 .06)" fill="#F2F2F2"/><use xlink:href="#123-v" transform="translate(0 1.96)" fill="#F2F2F2"/><g><use xlink:href="#123-w" transform="translate(22.157 3.88)" fill="#F2F2F2"/><use xlink:href="#123-x" transform="translate(22.157 5.79)" fill="#F2F2F2"/><use xlink:href="#123-y" transform="translate(22.157 7.71)" fill="#F2F2F2"/><use xlink:href="#123-x" transform="translate(22.157 9.61)" fill="#F2F2F2"/><use xlink:href="#123-y" transform="translate(22.157 11.52)" fill="#F2F2F2"/><use xlink:href="#123-z" transform="translate(22.157 13.44)" fill="#F2F2F2"/><use xlink:href="#123-A" transform="translate(14.731 .06)" fill="#F2F2F2"/><use xlink:href="#123-B" transform="translate(14.731 1.96)" fill="#F2F2F2"/></g><g><use xlink:href="#123-C" transform="translate(2.661 19)" fill="#F2F2F2"/><use xlink:href="#123-D" transform="translate(47.759 19)" fill="#F2F2F2"/></g><g><use xlink:href="#123-E" transform="translate(26 18.28)" fill="#F2F2F2"/><use xlink:href="#123-F" transform="translate(29.239 18.28)" fill="#F2F2F2"/><use xlink:href="#123-G" transform="translate(30.718 18.14)" fill="#F2F2F2"/><use xlink:href="#123-H" transform="translate(37.181 18.27)" fill="#F2F2F2"/><use xlink:href="#123-I" transform="translate(41.572 18.28)" fill="#F2F2F2"/></g><g><g transform="translate(3 26)" fill="#FFF"><use xlink:href="#123-J"/><use xlink:href="#123-K"/><use xlink:href="#123-L"/><use xlink:href="#123-M"/><use xlink:href="#123-N"/><use xlink:href="#123-O"/><use xlink:href="#123-P"/><use xlink:href="#123-Q"/><use xlink:href="#123-R"/><use xlink:href="#123-S"/><use xlink:href="#123-T"/><use xlink:href="#123-U"/><use xlink:href="#123-V"/><use xlink:href="#123-W"/><use xlink:href="#123-X"/><use xlink:href="#123-Y"/><use xlink:href="#123-Z"/><use xlink:href="#123-aa"/><use xlink:href="#123-ab"/></g></g><defs><path id="123-a" d="M17.906 0H1.057S-.142-.031.014 2.29c0 0 .125-1.075 1.526-1.075h15.883c1.417 0 1.526 1.074 1.526 1.074C19.105-.03 17.906 0 17.906 0z"/><path id="123-b" d="M17.906 0H1.057S-.142-.031.014 2.29c0 0 .125-1.075 1.526-1.075h15.883c1.417 0 1.526 1.074 1.526 1.074C19.105-.03 17.906 0 17.906 0z"/><path id="123-c" d="M17.906 0H1.057S-.142-.031.014 2.29c0 0 .125-1.075 1.526-1.075h15.883c1.417 0 1.526 1.074 1.526 1.074C19.105-.03 17.906 0 17.906 0z"/><path id="123-d" d="M17.906 0H1.057S-.142-.031.014 2.29c0 0 .125-1.075 1.526-1.075h15.883c1.417 0 1.526 1.074 1.526 1.074C19.105-.03 17.906 0 17.906 0z"/><path id="123-e" d="M6.01 0H1.056S-.142-.031.014 2.29c0 0 .125-1.075 1.526-1.075h3.97c1.418 0 1.527 1.074 1.527 1.074C7.208-.03 6.009 0 6.009 0z"/><path id="123-f" d="M6.01 0H1.056S-.142-.031.014 2.29c0 0 .125-1.075 1.526-1.075h3.97c1.418 0 1.527 1.074 1.527 1.074C7.208-.03 6.009 0 6.009 0z"/><path id="123-g" d="M6.01 0H1.056S-.142-.031.014 2.29c0 0 .125-1.075 1.526-1.075h3.97c1.418 0 1.527 1.074 1.527 1.074C7.208-.016 6.009 0 6.009 0z"/><path id="123-h" d="M6.01 0H1.056S-.142-.031.014 2.29c0 0 .125-1.075 1.526-1.075h3.97c1.418 0 1.527 1.074 1.527 1.074C7.208-.016 6.009 0 6.009 0z"/><path id="123-i" d="M6.01 0H1.056S-.142-.031.014 2.29c0 0 .125-1.075 1.526-1.075h3.97c1.418 0 1.527 1.074 1.527 1.074C7.208-.016 6.009 0 6.009 0z"/><path id="123-j" d="M6.01 0H1.056S-.142-.031.014 2.29c0 0 .125-1.075 1.526-1.075h3.97c1.418 0 1.527 1.074 1.527 1.074C7.208-.03 6.009 0 6.009 0z"/><path id="123-k" d="M6.01 0H1.056S-.142-.031.014 2.29c0 0 .125-1.075 1.526-1.075h3.97c1.418 0 1.527 1.074 1.527 1.074C7.208-.03 6.009 0 6.009 0z"/><path id="123-l" d="M6.01 0H1.056S-.142-.031.014 2.29c0 0 .125-1.075 1.526-1.075h3.97c1.418 0 1.527 1.074 1.527 1.074C7.208-.016 6.009 0 6.009 0z"/><path id="123-m" d="M5.635 0H1.057S-.142-.031.014 2.29c0 0 .125-1.075 1.526-1.075h4.095V0z"/><path id="123-n" d="M5.635 0H1.057S-.142-.031.014 2.29c0 0 .125-1.075 1.526-1.075h4.095V0z"/><path id="123-o" d="M15.741 0H1.057S-.142-.031.014 2.29c0 0 .125-1.075 1.526-1.075h13.703c1.417 0 1.526 1.074 1.526 1.074C16.941-.016 15.741 0 15.741 0z"/><path id="123-p" d="M15.741 0H1.057S-.142-.031.014 2.29c0 0 .125-1.075 1.526-1.075h13.703c1.417 0 1.526 1.074 1.526 1.074C16.941-.03 15.741 0 15.741 0z"/><path id="123-q" d="M5.635 0H1.057S-.142-.031.014 2.29c0 0 .125-1.075 1.526-1.075h4.095V0z"/><path id="123-r" d="M5.635 0H1.057S-.142-.031.014 2.29c0 0 .125-1.075 1.526-1.075h4.095V0z"/><path id="123-s" d="M5.635 0H1.057S-.142-.031.014 2.29c0 0 .125-1.075 1.526-1.075h4.095V0z"/><path id="123-t" d="M5.635 0H1.057S-.142-.031.014 2.29c0 0 .125-1.075 1.526-1.075h4.095V0z"/><path id="123-u" d="M12.004 0H1.057S-.142-.031.014 2.29c0 0 .125-1.075 1.526-1.075h9.966c1.417 0 1.526 1.074 1.526 1.074C13.203-.03 12.004 0 12.004 0z"/><path id="123-v" d="M12.004 0H1.057S-.142-.031.014 2.29c0 0 .125-1.075 1.526-1.075h9.966c1.417 0 1.526 1.074 1.526 1.074C13.203-.016 12.004 0 12.004 0z"/><path id="123-w" d="M0 0h4.578s1.2-.031 1.043 2.29c0 0-.124-1.075-1.526-1.075H0V0z"/><path id="123-x" d="M0 0h4.578s1.2-.031 1.043 2.29c0 0-.124-1.075-1.526-1.075H0V0z"/><path id="123-y" d="M0 0h4.578s1.2-.031 1.043 2.29c0 0-.124-1.075-1.526-1.075H0V0z"/><path id="123-z" d="M0 0h4.578s1.2-.031 1.043 2.29c0 0-.124-1.075-1.526-1.075H0V0z"/><path id="123-A" d="M12.004 0H1.057S-.142-.031.014 2.29c0 0 .125-1.075 1.526-1.075h9.966c1.417 0 1.526 1.074 1.526 1.074C13.188-.03 12.004 0 12.004 0z"/><path id="123-B" d="M12.004 0H1.057S-.142-.031.014 2.29c0 0 .125-1.075 1.526-1.075h9.966c1.417 0 1.526 1.074 1.526 1.074C13.188-.016 12.004 0 12.004 0z"/><path id="123-C" d="M18.733 0H0v1.215h18.266c1.417 0 1.526 1.074 1.526 1.074C19.932-.03 18.732 0 18.732 0z"/><path id="123-D" d="M1.057 0h18.749v1.215H1.54C.123 1.215.014 2.289.014 2.289-.142-.03 1.057 0 1.057 0z"/><path id="123-E" d="M2.491 5.154H0V0h.514v4.64H2.49v.514z"/><path id="123-F" d="M.514 5.154H0V0h.514v5.154z"/><path id="123-G" d="M5.481 2.818c0 .795-.233 1.433-.7 1.9-.468.467-1.09.701-1.885.701-.95 0-1.713-.327-2.258-.981A2.608 2.608 0 0 1 0 2.709c0-.482.125-.95.374-1.37C.623.92.95.592 1.386.36A2.979 2.979 0 0 1 2.834 0C3.706 0 4.5.327 5.201.997l-.39.373C4.22.794 3.582.514 2.866.514A2.31 2.31 0 0 0 1.713.81a2.15 2.15 0 0 0-.857.81c-.202.342-.295.7-.295 1.074 0 .405.109.779.327 1.121.218.343.498.607.856.81.374.202.763.296 1.215.296.514 0 .95-.14 1.323-.42.39-.297.608-.686.685-1.184h-1.65v-.499H5.48z"/><path id="123-H" d="M3.66 5.17h-.515V2.678H.514V5.17H0V.016h.514v2.148h2.631V0h.514v5.17z"/><path id="123-I" d="M2.834.498H1.682v4.656h-.53V.498H0V0h2.834v.498z"/><path id="123-J" d="M5.793 2.992c0 .81-.28 1.494-.838 2.053-.556.558-1.239.837-2.05.837-.81 0-1.496-.275-2.06-.826C.282 4.505 0 3.826 0 3.018c0-.524.126-1.011.378-1.462A2.82 2.82 0 0 1 2.86.105c.828 0 1.522.273 2.083.819.566.553.849 1.243.849 2.068zm-.569 0c0-.908-.387-1.585-1.163-2.03A2.321 2.321 0 0 0 2.887.642c-.411 0-.798.106-1.16.318a2.294 2.294 0 0 0-.848.856c-.205.36-.307.76-.307 1.2 0 .652.223 1.203.67 1.654.446.451.994.677 1.645.677.424 0 .816-.103 1.178-.307.364-.204.648-.487.853-.849.204-.361.306-.762.306-1.2z"/><path id="123-K" d="M8.485.617a1.295 1.295 0 0 0-.493-.123c-.21 0-.337.067-.382.202-.017.054-.026.198-.026.43v.55h.849v.448H7.58v3.62h-.523v-3.62h-.535v-.449h.535V1.04c0-.237.016-.412.048-.524a.662.662 0 0 1 .307-.404A.9.9 0 0 1 7.876 0c.17 0 .372.035.61.105v.512z"/><path id="123-L" d="M10.894.617A1.295 1.295 0 0 0 10.4.494c-.21 0-.337.067-.382.202-.017.054-.026.198-.026.43v.55h.85v.448h-.853v3.62h-.524v-3.62H8.93v-.449h.535V1.04c0-.237.016-.412.049-.524A.662.662 0 0 1 9.82.112.9.9 0 0 1 10.284 0c.17 0 .373.035.61.105v.512z"/><path id="123-M" d="M12.244.434c0 .12-.043.222-.128.306a.424.424 0 0 1-.306.124.413.413 0 0 1-.303-.127.414.414 0 0 1-.127-.303.425.425 0 0 1 .43-.434c.12 0 .222.042.306.127a.418.418 0 0 1 .128.307zm-.169 5.31h-.527V1.675h.527v4.07z"/><path id="123-N" d="M17.109 4.929c-.409.613-1.044.92-1.904.92-.62 0-1.145-.195-1.574-.584-.441-.401-.662-.908-.662-1.522 0-.396.099-.763.296-1.1.199-.336.472-.599.819-.788.346-.19.734-.284 1.162-.284.554 0 1.026.148 1.418.445.174.132.323.3.445.505l-.415.258c-.36-.477-.85-.715-1.47-.715-.481 0-.888.152-1.219.457-.34.314-.509.709-.509 1.185a1.647 1.647 0 0 0 .85 1.447c.261.145.555.217.882.217.598 0 1.087-.238 1.466-.714l.415.273z"/><path id="123-O" d="M18.736.434c0 .12-.043.222-.128.306a.424.424 0 0 1-.306.124.414.414 0 0 1-.303-.127.414.414 0 0 1-.127-.303c0-.12.04-.222.123-.307A.418.418 0 0 1 18.302 0c.12 0 .222.042.306.127a.418.418 0 0 1 .128.307zm-.169 5.31h-.527V1.675h.527v4.07z"/><path id="123-P" d="M23.706 5.744h-.517v-.7c-.44.537-.986.805-1.634.805a1.976 1.976 0 0 1-1.488-.636 2.109 2.109 0 0 1-.598-1.514c0-.586.203-1.087.61-1.504a2.013 2.013 0 0 1 1.491-.624c.67 0 1.21.284 1.62.852v-.748h.516v4.07zm-.483-2.012c0-.466-.153-.859-.46-1.178-.304-.319-.688-.478-1.152-.478-.623 0-1.088.272-1.395.818a1.663 1.663 0 0 0 0 1.65c.148.259.345.462.591.61.25.144.516.216.8.216.287 0 .56-.072.816-.217.257-.144.454-.34.59-.587.14-.247.21-.525.21-.834z"/><path id="123-Q" d="M25.332 5.744h-.523V.104h.523v5.64z"/><path id="123-R" d="M33.698 3.063c0 .5-.105.96-.314 1.376-.23.451-.552.787-.969 1.006-.381.2-.915.3-1.6.3h-1.75V.242h1.14c.82 0 1.417.066 1.791.198.559.197.986.538 1.283 1.021.28.454.419.987.419 1.6zm-.557.007c0-.513-.121-.956-.363-1.327a1.92 1.92 0 0 0-1.096-.808c-.344-.105-.911-.157-1.701-.157h-.39v4.446h.636c.763 0 1.29-.047 1.582-.142a1.795 1.795 0 0 0 1.006-.77c.217-.35.326-.763.326-1.242z"/><path id="123-S" d="M35.295.434a.424.424 0 0 1-.434.43.414.414 0 0 1-.303-.127.414.414 0 0 1-.127-.303c0-.12.041-.222.123-.307A.418.418 0 0 1 34.861 0c.12 0 .222.042.307.127a.418.418 0 0 1 .127.307zm-.169 5.31H34.6V1.675h.527v4.07z"/><path id="123-T" d="M38.26 4.652c0 .344-.118.63-.355.856-.237.227-.529.34-.875.34-.501 0-.901-.191-1.2-.575l.329-.374c.266.302.55.452.849.452a.793.793 0 0 0 .523-.19.609.609 0 0 0 .232-.486c0-.197-.091-.37-.273-.52-.09-.075-.267-.18-.531-.314-.302-.155-.522-.308-.662-.46a1.04 1.04 0 0 1-.284-.733c0-.317.106-.575.318-.774.214-.202.48-.303.796-.303.374 0 .75.183 1.13.55l-.337.347c-.28-.272-.552-.407-.819-.407a.64.64 0 0 0-.43.16.507.507 0 0 0-.187.4c0 .27.26.539.778.808.319.165.55.322.695.471.202.21.303.46.303.752z"/><path id="123-U" d="M41.001 2.124h-.83v3.62h-.527v-3.62h-.714v-.449h.714V.165h.527v1.51h.83v.45z"/><path id="123-V" d="M43.642 1.709l-.273.441a.728.728 0 0 0-.277-.07c-.419 0-.71.293-.875.882-.065.232-.097.7-.097 1.406v1.376h-.535V1.675h.535v.595c.316-.466.669-.7 1.058-.7.145 0 .3.047.464.139z"/><path id="123-W" d="M44.704.434a.424.424 0 0 1-.434.43.413.413 0 0 1-.303-.127.414.414 0 0 1-.127-.303c0-.12.04-.222.123-.307A.418.418 0 0 1 44.27 0c.12 0 .222.042.306.127a.418.418 0 0 1 .128.307zm-.169 5.31h-.527V1.675h.527v4.07z"/><path id="123-X" d="M49.89 3.717c0 .589-.204 1.09-.613 1.507a2 2 0 0 1-1.488.625c-.663 0-1.202-.284-1.616-.853v.748h-.52V.104h.52v2.27c.437-.535.98-.803 1.63-.803.59 0 1.084.21 1.486.632.4.418.602.923.602 1.514zm-.527-.015c0-.289-.073-.564-.22-.826a1.589 1.589 0 0 0-.595-.61 1.523 1.523 0 0 0-.793-.22c-.287 0-.56.073-.819.22a1.53 1.53 0 0 0-.594.587 1.688 1.688 0 0 0-.206.834c0 .466.152.86.456 1.178.307.32.692.479 1.156.479.623 0 1.09-.273 1.398-.819.145-.26.217-.534.217-.823z"/><path id="123-Y" d="M54.34 3.672c0 .46-.043.823-.13 1.092a1.5 1.5 0 0 1-.655.842c-.264.162-.594.243-.99.243-.78 0-1.31-.306-1.586-.916-.132-.287-.198-.72-.198-1.298v-1.96h.527v1.9c0 .469.025.788.075.957.077.26.226.462.448.606.21.135.454.202.733.202.272 0 .51-.063.715-.19.217-.138.366-.33.448-.576.053-.157.079-.49.079-.999v-1.9h.535v1.997z"/><path id="123-Z" d="M57.321 2.124h-.83v3.62h-.527v-3.62h-.715v-.449h.715V.165h.527v1.51h.83v.45z"/><path id="123-aa" d="M62.145 3.72c0 .6-.203 1.104-.61 1.515-.406.41-.908.614-1.506.614-.599 0-1.102-.205-1.511-.614-.407-.408-.61-.913-.61-1.514 0-.563.187-1.052.561-1.466.412-.456.931-.684 1.56-.684.625 0 1.144.227 1.555.68.374.414.561.904.561 1.47zm-.53.012c0-.449-.154-.835-.46-1.16a1.477 1.477 0 0 0-1.126-.489 1.49 1.49 0 0 0-1.13.49c-.304.324-.456.71-.456 1.16 0 .288.069.559.206.81.142.26.335.46.58.599.244.14.51.21.8.21.618 0 1.075-.266 1.372-.797a1.66 1.66 0 0 0 .213-.823z"/><path id="123-ab" d="M64.98 1.709l-.273.441a.728.728 0 0 0-.277-.07c-.419 0-.71.293-.875.882-.065.232-.097.7-.097 1.406v1.376h-.535V1.675h.535v.595c.317-.466.67-.7 1.058-.7.145 0 .3.047.464.139z"/></defs></svg>