<svg width="100" height="32" viewBox="0 0 100 32" xmlns="http://www.w3.org/2000/svg" xmlns:xlink="http://www.w3.org/1999/xlink"><title>osram</title><desc>Created using Figma</desc><use xlink:href="#123-a" transform="translate(80.463 15.22)" fill="#F2F2F2"/><use xlink:href="#123-b" transform="translate(75.18 14.74)" fill="#F2F2F2"/><use xlink:href="#123-c" transform="translate(73.218)" fill="#F2F2F2"/><use xlink:href="#123-d" transform="translate(80.557 15.45)" fill="#F2F2F2"/><use xlink:href="#123-e" transform="translate(80.131 13.71)" fill="#F2F2F2"/><use xlink:href="#123-f" transform="translate(88.014 13.85)" fill="#F2F2F2"/><use xlink:href="#123-g" transform="translate(83.911 13.85)" fill="#F2F2F2"/><g><use xlink:href="#123-h" transform="translate(0 5.02)" fill="#F2F2F2"/><use xlink:href="#123-i" transform="translate(.286 21.41)" fill="#F2F2F2"/><use xlink:href="#123-j" transform="translate(6.332 21.53)" fill="#F2F2F2"/><use xlink:href="#123-k" transform="translate(10.773 21.53)" fill="#F2F2F2"/><use xlink:href="#123-l" transform="translate(15.199 21.53)" fill="#F2F2F2"/><use xlink:href="#123-m" transform="translate(17.208 21.41)" fill="#F2F2F2"/><use xlink:href="#123-n" transform="translate(22.946 21.53)" fill="#F2F2F2"/><use xlink:href="#123-o" transform="translate(24.576 21.53)" fill="#F2F2F2"/><use xlink:href="#123-p" transform="translate(30.276 21.53)" fill="#F2F2F2"/><use xlink:href="#123-q" transform="translate(36.796 21.53)" fill="#F2F2F2"/><use xlink:href="#123-r" transform="translate(42.328 21.52)" fill="#F2F2F2"/><use xlink:href="#123-s" transform="translate(46.595 21.53)" fill="#F2F2F2"/><use xlink:href="#123-t" transform="translate(52.3 21.53)" fill="#F2F2F2"/><use xlink:href="#123-r" transform="translate(56.731 21.52)" fill="#F2F2F2"/><use xlink:href="#123-u" transform="translate(61.625 21.53)" fill="#F2F2F2"/></g><defs><path id="123-a" d="M.094.23C.061.155.034.075 0 0a.294.294 0 0 0 .094.23z"/><path id="123-b" d="M1.241 0C.365 0 0 .81 0 1.583c0 .773.398 1.56 1.232 1.56.848 0 1.232-.825 1.232-1.565C2.464.778 2.104 0 1.24 0z"/><path id="123-c" d="M13.33 0C5.972 0 0 7.166 0 16c0 8.829 5.972 16 13.33 16 7.359 0 13.33-7.171 13.33-16S20.684 0 13.33 0zM3.204 18.965c-1.462 0-2.426-1.073-2.426-2.628 0-1.54 1.044-2.632 2.426-2.632 1.419-.005 2.421 1.044 2.421 2.632 0 1.555-.955 2.628-2.421 2.628zm10.918 8.145h-2l-.267-.468h2.534l-.267.468zm1.33-1.4l-.267.534h-4.131l-.267-.534v-1.598h4.665v1.598zm.337-2.403l-.337.468h-4.665l-.333-.468v-.932h5.335v.932zm2.801-4.492l-.3-.853h-.758c-.08.127-.155.244-.211.347-.534.923-.867 3.002-.867 3.002l-.67.666H10.45l-.665-.666s-.202-1.573-.605-2.59c-.323.16-.707.249-1.12.249-2.21 0-2.06-1.644-2.07-1.78h1.172c-.052.51.477.796.946.782.196-.005.421-.024.585-.127a24.128 24.128 0 0 1-.632-.988c-.848-.197-2.005-.389-2.005-1.578 0-.6.356-1.04.853-1.302a4.769 4.769 0 0 1-.057-.736c0-2.201 1.935-6.332 6.263-6.332 4.337 0 6.267 4.13 6.267 6.332 0 .937-.277 1.822-.637 2.61l1.077 2.964H18.59zm5.213.01L23.8 16.08l-1.218 2.032-1.213-1.957v2.67h-1.256v-4.98l1.284.01 1.161 2.018 1.232-2.018 1.232-.01v4.98h-1.218z"/><path id="123-d" d="M2.75 1.916C2.73.21.486.478 0 0c.21.51.473.988.726 1.41.515.122.918.243.876.59a.505.505 0 0 1-.244.398c.113.173.216.328.29.464.071.122.132.257.193.407.552-.271.913-.75.908-1.353z"/><path id="123-e" d="M.337 1.475c.047-.327.436-.463.787-.463.904 0 .843.707.843.707h1.204C3.171.829 2.548 0 1.148 0A2.51 2.51 0 0 0 0 .272c.066.426.183.843.333 1.236a.091.091 0 0 0 .004-.033z"/><path id="123-f" d="M3.227 0H1.808L0 4.974h1.246l.295-.852H2.74c.337-.53.824-1.255 1.218-2.113L3.228 0zm-1.34 3.077l.638-1.808v-.01l.618 1.823H1.888v-.005z"/><path id="123-g" d="M4.108 1.71C4.108.754 3.433 0 2.538 0H0v4.97h1.157V3.377h.754l.74 1.593h1.274l-.834-1.663c.665-.305 1.017-.871 1.017-1.597zm-1.752.679H1.148V1.054h1.208c.347 0 .548.314.567.66.014.305-.225.675-.567.675z"/><path id="123-h" d="M13.47 7.316c0 4.323-2.646 7.288-6.725 7.288C2.689 14.604 0 11.634 0 7.316 0 3.021 2.895 0 6.745 0c3.939-.019 6.726 2.895 6.726 7.316zm-3.325-.028c0-2.239-1.007-4.393-3.405-4.393-2.426 0-3.447 2.248-3.447 4.403 0 2.14 1.1 4.337 3.433 4.337 2.347 0 3.42-2.29 3.42-4.347zm15.527 2.871c.028 2.675-2.538 4.46-5.625 4.46-6.136 0-5.724-4.567-5.747-4.942h3.255c-.14 1.42 1.32 2.206 2.632 2.178.965-.014 2.15-.192 2.3-1.462.305-2.552-7.995-.716-7.995-6.018 0-2.82 2.81-4.36 5.555-4.36 3.887 0 5.625 2.304 5.625 4.777h-3.349s.164-1.977-2.346-1.977c-.98 0-2.07.384-2.192 1.297-.333 2.39 7.817.619 7.887 6.047zm12.843-5.011c0 2.014-.979 3.592-2.81 4.43l2.314 4.623h-3.541l-2.056-4.416h-2.094V14.2H27.1V.398h7.058c2.483 0 4.356 2.085 4.356 4.75zm-3.293 0c-.051-.965-.608-1.836-1.573-1.836h-3.363v3.714h3.363c.95 0 1.616-1.021 1.573-1.878zM52.29 14.2h-3.428l-.83-2.37H42.6l-.83 2.37h-3.456L43.33.384h3.944l5.016 13.817zm-5.236-5.255L45.33 3.892v.028l-1.76 5.026h3.484zm19.41 5.27H63.09l-.014-7.621-3.377 5.649-3.377-5.438v7.41h-3.485V.383l3.57.028 3.227 5.602L63.054.412l3.42-.028v13.832h-.01z"/><path id="123-i" d="M5.25 2.796c0 1.658-1.053 2.782-2.618 2.782C1.054 5.578 0 4.464 0 2.796 0 1.106 1.05 0 2.642 0 4.197 0 5.25 1.129 5.25 2.796zm-4.07-.023c0 1.143.553 1.831 1.457 1.84.88 0 1.429-.702 1.429-1.84 0-1.12-.553-1.817-1.443-1.817-.88 0-1.443.711-1.443 1.817z"/><path id="123-j" d="M3.756.984H1.171v1.231h2.248v.928H1.166v2.183H0V0h3.752v.984h.004z"/><path id="123-k" d="M3.752.984H1.166v1.231H3.42v.928H1.166v2.183H0V0h3.752v.984z"/><path id="123-l" d="M1.176 5.326H0V0h1.176v5.326z"/><path id="123-m" d="M2.571 5.578C1.026 5.578 0 4.464 0 2.782 0 1.237.988 0 2.618 0c1.279 0 2.216.806 2.305 1.906H3.78C3.658 1.321 3.227.98 2.6.98c-1.026 0-1.42.918-1.42 1.808 0 1.1.548 1.803 1.405 1.803.703 0 1.12-.417 1.218-1.194h1.152c-.117 1.302-.927 2.182-2.384 2.182z"/><path id="123-n" d="M1.176 5.326H0V0h1.176v5.326z"/><path id="123-o" d="M5.255 5.33H4.028l-.417-1.19H1.63l-.436 1.19H0L2.028 0h1.204l2.023 5.33zM2.623 1.307l-.712 1.981h1.415l-.703-1.981z"/><path id="123-p" d="M3.77 5.326H0V0h1.166v4.323H3.77v1.003z"/><path id="123-q" d="M0 0h2.155c1.653 0 2.58.941 2.58 2.66 0 1.715-.927 2.66-2.58 2.66H0V0zm2.014 4.351c1.068 0 1.546-.623 1.546-1.69C3.56 1.591 3.068.97 2.014.97h-.852V4.35h.852z"/><path id="123-r" d="M3.995.965H1.162v1.157h2.604v.918H1.162v1.307h2.885v.979H0V0h3.995v.965z"/><path id="123-s" d="M5.255 5.33H4.028l-.417-1.19H1.63l-.436 1.19H0L2.028 0h1.204l2.023 5.33zM2.623 1.307l-.712 1.981h1.415l-.703-1.981z"/><path id="123-t" d="M3.77 5.326H0V0h1.166v4.323H3.77v1.003z"/><path id="123-u" d="M2.646 0c.98 0 1.794.44 1.794 1.513 0 .623-.314 1.105-.843 1.307.59.121.74.716.787 1.24.028.338.047 1.069.253 1.266H3.424c-.136-.267-.136-.801-.164-1.092-.075-.73-.3-.993-1.063-.993h-1.04v2.085H0V0h2.646zm-1.49 2.393h1.106c.548 0 1.03-.098 1.03-.754 0-.613-.486-.716-.978-.716H1.157v1.47z"/></defs></svg>