<svg width="170" height="38" viewBox="0 0 170 38" xmlns="http://www.w3.org/2000/svg" xmlns:xlink="http://www.w3.org/1999/xlink"><title>osram</title><desc>Created using Figma</desc><use xlink:href="#123-a" transform="translate(36.586)" fill="#F0461C"/><use xlink:href="#123-b" transform="translate(135.155 .937)" fill="#F0461C"/><use xlink:href="#123-c" transform="translate(98 .937)" fill="#F0461C"/><use xlink:href="#123-d" transform="translate(69.392 .967)" fill="#F0461C"/><use xlink:href="#123-e" transform="translate(0 .307)" fill="#F0461C"/><defs><path id="123-a" fill-rule="evenodd" d="M8.336 24.777c-.33 3.659 3.419 5.668 6.778 5.608 2.488-.06 5.547-.48 5.937-3.749C21.831 20.1.63 24.807.48 11.193.42 3.966 7.677-.202 14.724.008c10.015.3 14.064 5.907 14.064 12.264H20.6s.75-4.858-6.027-5.067c-2.55-.06-5.278.96-5.608 3.298-.84 6.148 20.062 1.59 20.212 15.504.06 6.897-6.328 11.575-14.274 11.455C-.87 37.252.06 25.737 0 24.777h8.336z"/><path id="123-b" fill-rule="evenodd" d="M26.269 15.504v19.701h8.576L34.815 0H26.18l-8.816 14.454L9.086 0H0v35.175h8.846V16.073l8.637 13.944 8.786-14.513z"/><path id="123-c" fill-rule="evenodd" d="M22.88 0l12.805 35.175h-8.786l-2.07-6.147H10.976l-2.129 6.147H0L12.835 0H22.88zm-4.948 8.876l-4.498 12.775h8.907L17.932 8.786v.09z"/><path id="123-d" fill-rule="evenodd" d="M13.554 23.9H8.217v11.245H0V0h17.992c6.478 0 11.516 5.548 11.126 12.355-.27 5.098-2.49 8.876-7.167 11.005l5.877 11.785h-9.026L13.554 23.9zM8.097 7.437h8.366c2.459 0 4.108 2.189 4.228 4.648.12 2.159-1.56 4.798-3.988 4.798H8.097V7.437z"/><path id="123-e" fill-rule="evenodd" d="M17.274 37.454c10.526.06 17.543-8.336 17.303-18.712C35.057 7.617 27.44-.03 17.274 0 7.378 0-.059 7.767.002 18.742c-.12 10.826 6.897 19.072 17.272 18.712zm0-30.047c6.208-.09 8.816 5.578 8.787 11.305-.36 5.248-2.76 11.036-8.817 11.096-5.967 0-8.726-5.608-8.816-11.066.09-5.488 2.639-11.425 8.846-11.335z"/></defs></svg>