<svg width="200" height="200" viewBox="0 0 200 200" xmlns="http://www.w3.org/2000/svg" xmlns:xlink="http://www.w3.org/1999/xlink"><title>pattern</title><desc>Created using Figma</desc><g transform="translate(2695 -561)"><clipPath id="123-a" clip-rule="evenodd"><path d="M-2676.82 632.858l21.35 5.322-5.33 21.347-21.34-5.322 5.32-21.347z" fill="#FFF"/></clipPath></g><use xlink:href="#123-b" transform="rotate(14 -297.626 137.65)" fill="#EEE"/><use xlink:href="#123-c" transform="rotate(14 -353.656 114.727)" fill="#EEE"/><use xlink:href="#123-d" transform="rotate(14 -288.06 146.851)" fill="#EEE"/><use xlink:href="#123-e" transform="rotate(14 -322.961 147.912)" fill="#EEE"/><use xlink:href="#123-f" transform="rotate(14 -306.507 144.57)" fill="#EEE"/><g transform="translate(2695 -561)"><clipPath id="123-g" clip-rule="evenodd"><path d="M-2571.27 704l12.73 12.728-12.73 12.728-12.73-12.728 12.73-12.728z" fill="#FFF"/></clipPath></g><use xlink:href="#123-h" transform="rotate(45 -117.431 234.582)" fill="#EEE"/><use xlink:href="#123-i" transform="rotate(45 -129.906 224.914)" fill="#EEE"/><use xlink:href="#123-j" transform="rotate(45 -115.669 237.557)" fill="#EEE"/><use xlink:href="#123-k" transform="rotate(45 -124.507 235.392)" fill="#EEE"/><use xlink:href="#123-l" transform="rotate(45 -120.142 235.705)" fill="#EEE"/><g transform="translate(2695 -561)"><clipPath id="123-m" clip-rule="evenodd"><path d="M-2594 602.893l24.43-8.893 8.89 24.432-24.43 8.893-8.89-24.432z" fill="#FFF"/></clipPath></g><use xlink:href="#123-n" transform="rotate(-20 173.76 -290.834)" fill="#EEE"/><use xlink:href="#123-o" transform="rotate(-20 223.758 -286.228)" fill="#EEE"/><use xlink:href="#123-p" transform="rotate(-20 163.94 -295.811)" fill="#EEE"/><use xlink:href="#123-q" transform="rotate(-20 191.364 -305.127)" fill="#EEE"/><use xlink:href="#123-r" transform="rotate(-20 179.117 -298.485)" fill="#EEE"/><g transform="translate(2695 -561)"><clipPath id="123-s" clip-rule="evenodd"><path d="M-2630 722.059l33.81-9.059 9.06 33.807-33.81 9.059-9.06-33.807z" fill="#FFF"/></clipPath></g><use xlink:href="#123-t" transform="rotate(-15 654.155 -211.385)" fill="#EEE"/><use xlink:href="#123-u" transform="rotate(-15 743.256 -199.268)" fill="#EEE"/><use xlink:href="#123-v" transform="rotate(-15 636.972 -221.065)" fill="#EEE"/><use xlink:href="#123-w" transform="rotate(-15 686.768 -235.566)" fill="#EEE"/><use xlink:href="#123-x" transform="rotate(-15 664.344 -224.686)" fill="#EEE"/><g><g transform="translate(2695 -561)"><clipPath id="123-y" clip-rule="evenodd"><path d="M-2526.7 675l18.24 12.302-12.3 18.239-18.24-12.302 12.3-18.239z" fill="#FFF"/></clipPath></g><use xlink:href="#123-z" transform="rotate(34 -110.077 342.6)" fill="#EEE"/><use xlink:href="#123-A" transform="rotate(34 -126.186 342.302)" fill="#EEE"/><use xlink:href="#123-B" transform="rotate(34 -111.374 346.822)" fill="#EEE"/><use xlink:href="#123-C" transform="rotate(34 -132.889 326.361)" fill="#EEE"/><use xlink:href="#123-D" transform="rotate(34 -129.95 331.883)" fill="#EEE"/><use xlink:href="#123-E" transform="rotate(34 -115.756 353.58)" fill="#EEE"/><use xlink:href="#123-F" transform="rotate(34 -108.82 347.883)" fill="#EEE"/></g><g><g transform="translate(2695 -561)"><clipPath id="123-G" clip-rule="evenodd"><path d="M-2536.46 568l21.55 14.539-14.53 21.555-21.56-14.539 14.54-21.555z" fill="#FFF"/></clipPath></g><use xlink:href="#123-H" transform="rotate(34 58.611 275.003)" fill="#EEE"/><use xlink:href="#123-I" transform="rotate(34 39.574 274.654)" fill="#EEE"/><use xlink:href="#123-J" transform="rotate(34 57.085 280.012)" fill="#EEE"/><use xlink:href="#123-K" transform="rotate(34 31.658 255.829)" fill="#EEE"/><use xlink:href="#123-L" transform="rotate(34 35.127 262.35)" fill="#EEE"/><use xlink:href="#123-M" transform="rotate(34 51.906 287.997)" fill="#EEE"/><use xlink:href="#123-N" transform="rotate(34 59.904 281.35)" fill="#EEE"/></g><g><g transform="translate(2695 -561)"><clipPath id="123-O" clip-rule="evenodd"><path d="M-2685.27 692.445l15.32-12.856 12.86 15.321-15.32 12.855-12.86-15.32z" fill="#FFF"/></clipPath></g><use xlink:href="#123-P" transform="rotate(-40 185.433 42.29)" fill="#EEE"/><use xlink:href="#123-Q" transform="rotate(-40 195.571 34.934)" fill="#EEE"/><use xlink:href="#123-R" transform="rotate(-40 184.256 39.06)" fill="#EEE"/><use xlink:href="#123-S" transform="rotate(-40 207.18 41.695)" fill="#EEE"/><use xlink:href="#123-T" transform="rotate(-40 202.772 39.64)" fill="#EEE"/><use xlink:href="#123-U" transform="rotate(-40 183.812 32.816)" fill="#EEE"/><use xlink:href="#123-V" transform="rotate(-40 182.142 39.676)" fill="#EEE"/></g><g><g transform="translate(2695 -561)"><clipPath id="123-W" clip-rule="evenodd"><path d="M-2519.53 606l15.04 5.472-5.47 15.035-15.04-5.472 5.47-15.035z" fill="#FFF"/></clipPath></g><use xlink:href="#123-X" transform="rotate(20 -47.795 533.806)" fill="#EEE"/><use xlink:href="#123-Y" transform="rotate(20 -67.416 535.862)" fill="#EEE"/><use xlink:href="#123-Z" transform="rotate(20 -48.736 539.147)" fill="#EEE"/><use xlink:href="#123-aa" transform="rotate(20 -77.94 517.485)" fill="#EEE"/><use xlink:href="#123-ab" transform="rotate(20 -73.54 523.785)" fill="#EEE"/><use xlink:href="#123-ac" transform="rotate(20 -53.048 548.036)" fill="#EEE"/><use xlink:href="#123-ad" transform="rotate(20 -45.357 539.955)" fill="#EEE"/></g><g><g transform="translate(2695 -561)"><clipPath id="123-ae" clip-rule="evenodd"><path d="M-2672 578.344l32.08-16.344 16.34 32.076-32.08 16.344-16.34-32.076z" fill="#FFF"/></clipPath></g><use xlink:href="#123-af" transform="rotate(-27 50.618 -65.603)" fill="#EEE"/><use xlink:href="#123-ag" transform="rotate(-27 79.371 -81.828)" fill="#EEE"/><use xlink:href="#123-ah" transform="rotate(-27 48.498 -74.416)" fill="#EEE"/><use xlink:href="#123-ai" transform="rotate(-27 107.777 -60.669)" fill="#EEE"/><use xlink:href="#123-aj" transform="rotate(-27 96.839 -67.37)" fill="#EEE"/><use xlink:href="#123-ak" transform="rotate(-27 49.205 -90.92)" fill="#EEE"/><use xlink:href="#123-al" transform="rotate(-27 43.405 -74.45)" fill="#EEE"/></g><g><g transform="translate(2695 -561)"><clipPath id="123-am" clip-rule="evenodd"><path d="M-2617 658.042l24.04-24.042 24.04 24.042-24.04 24.041-24.04-24.041z" fill="#FFF"/></clipPath></g><use xlink:href="#123-an" transform="rotate(-45 178.196 -67.497)" fill="#EEE"/><use xlink:href="#123-ao" transform="rotate(-45 153.642 -51.675)" fill="#EEE"/><use xlink:href="#123-ap" transform="rotate(-45 150.64 -58.914)" fill="#EEE"/><use xlink:href="#123-aq" transform="rotate(-45 153.47 -65.746)" fill="#EEE"/><use xlink:href="#123-ar" transform="rotate(-45 156.97 -57.296)" fill="#EEE"/><use xlink:href="#123-ar" transform="rotate(-45 164.212 -60.293)" fill="#EEE"/><use xlink:href="#123-ar" transform="rotate(-45 171.454 -63.29)" fill="#EEE"/><use xlink:href="#123-ar" transform="rotate(-45 148.97 -76.605)" fill="#EEE"/><use xlink:href="#123-ar" transform="rotate(-45 156.21 -79.602)" fill="#EEE"/><use xlink:href="#123-ar" transform="rotate(-45 163.451 -82.599)" fill="#EEE"/><use xlink:href="#123-aq" transform="rotate(-45 160.712 -68.743)" fill="#EEE"/><use xlink:href="#123-aq" transform="rotate(-45 167.953 -71.74)" fill="#EEE"/></g><g><g transform="translate(2695 -561)"><clipPath id="123-as" clip-rule="evenodd"><path d="M-2532.51 719l22.11 15.487-15.48 22.117-22.12-15.487 15.49-22.117z" fill="#FFF"/></clipPath></g><use xlink:href="#123-at" transform="rotate(35 -200.592 339.27)" fill="#EEE"/><use xlink:href="#123-au" transform="rotate(35 -171.297 342.969)" fill="#EEE"/><use xlink:href="#123-av" transform="rotate(35 -173.68 350.52)" fill="#EEE"/><use xlink:href="#123-aw" transform="rotate(35 -180.306 353.969)" fill="#EEE"/><use xlink:href="#123-ax" transform="rotate(35 -177.526 345.16)" fill="#EEE"/><use xlink:href="#123-ax" transform="rotate(35 -185.08 342.782)" fill="#EEE"/><use xlink:href="#123-ax" transform="rotate(35 -192.64 340.388)" fill="#EEE"/><use xlink:href="#123-ax" transform="rotate(35 -183.878 365.312)" fill="#EEE"/><use xlink:href="#123-ax" transform="rotate(35 -191.438 362.918)" fill="#EEE"/><use xlink:href="#123-ax" transform="rotate(35 -198.992 360.54)" fill="#EEE"/><use xlink:href="#123-aw" transform="rotate(35 -187.86 351.591)" fill="#EEE"/><use xlink:href="#123-aw" transform="rotate(35 -195.415 349.213)" fill="#EEE"/></g><g><g transform="translate(2695 -561)"><clipPath id="123-ay" clip-rule="evenodd"><path d="M-2645 627l13.86-8 8 13.856-13.86 8-8-13.856z" fill="#FFF"/></clipPath></g><use xlink:href="#123-az" transform="rotate(-30 165.356 -73.373)" fill="#EEE"/><use xlink:href="#123-aA" transform="rotate(-30 146.981 -64.696)" fill="#EEE"/><use xlink:href="#123-aB" transform="rotate(-30 145.568 -69.955)" fill="#EEE"/><use xlink:href="#123-aC" transform="rotate(-30 148.14 -74.406)" fill="#EEE"/><use xlink:href="#123-aD" transform="rotate(-30 149.787 -68.264)" fill="#EEE"/><use xlink:href="#123-aD" transform="rotate(-30 155.055 -69.673)" fill="#EEE"/><use xlink:href="#123-aD" transform="rotate(-30 160.327 -71.1)" fill="#EEE"/><use xlink:href="#123-aD" transform="rotate(-30 146.022 -82.313)" fill="#EEE"/><use xlink:href="#123-aD" transform="rotate(-30 151.29 -83.722)" fill="#EEE"/><use xlink:href="#123-aD" transform="rotate(-30 156.564 -85.149)" fill="#EEE"/><use xlink:href="#123-aC" transform="rotate(-30 153.412 -75.833)" fill="#EEE"/><use xlink:href="#123-aC" transform="rotate(-30 158.679 -77.242)" fill="#EEE"/></g><g><g transform="translate(2695 -561)"><clipPath id="123-aE" clip-rule="evenodd"><path d="M-2556.04 660.786l11.47 8.031-8.03 11.468-11.47-8.03 8.03-11.469z" fill="#FFF"/></clipPath></g><use xlink:href="#123-aF" transform="rotate(35 -104.98 271.604)" fill="#EEE"/><use xlink:href="#123-aG" transform="rotate(35 -89.788 273.526)" fill="#EEE"/><use xlink:href="#123-aH" transform="rotate(35 -91.025 277.438)" fill="#EEE"/><use xlink:href="#123-aI" transform="rotate(35 -94.458 279.235)" fill="#EEE"/><use xlink:href="#123-aJ" transform="rotate(35 -93.017 274.666)" fill="#EEE"/><use xlink:href="#123-aJ" transform="rotate(35 -96.936 273.426)" fill="#EEE"/><use xlink:href="#123-aJ" transform="rotate(35 -100.856 272.186)" fill="#EEE"/><use xlink:href="#123-aJ" transform="rotate(35 -96.314 285.103)" fill="#EEE"/><use xlink:href="#123-aJ" transform="rotate(35 -100.23 283.88)" fill="#EEE"/><use xlink:href="#123-aJ" transform="rotate(35 -104.147 282.639)" fill="#EEE"/><use xlink:href="#123-aI" transform="rotate(35 -98.378 277.995)" fill="#EEE"/><use xlink:href="#123-aI" transform="rotate(35 -102.297 276.755)" fill="#EEE"/></g><g><g transform="translate(2695 -561)"><clipPath id="123-aK" clip-rule="evenodd"><path d="M-2605.43 565l21.52 4.574-4.57 21.519-21.52-4.574 4.57-21.519z" fill="#FFF"/></clipPath></g><use xlink:href="#123-aL" transform="rotate(12 -14.257 423.937)" fill="#EEE"/><use xlink:href="#123-aM" transform="rotate(12 -24.79 435.24)" fill="#EEE"/><use xlink:href="#123-aM" transform="rotate(12 -28.023 466.026)" fill="#EEE"/><use xlink:href="#123-aM" transform="rotate(12 -31.257 496.811)" fill="#EEE"/><use xlink:href="#123-aN" transform="rotate(12 -3.236 437.544)" fill="#EEE"/><use xlink:href="#123-aO" transform="rotate(12 -5.83 462.154)" fill="#EEE"/><use xlink:href="#123-aO" transform="rotate(12 -7.769 480.635)" fill="#EEE"/><use xlink:href="#123-aN" transform="rotate(12 -9.713 499.068)" fill="#EEE"/><use xlink:href="#123-aP" transform="rotate(12 -9.72 439.957)" fill="#EEE"/><use xlink:href="#123-aP" transform="rotate(12 -17.16 510.769)" fill="#EEE"/><use xlink:href="#123-aQ" transform="rotate(12 -5.185 455.978)" fill="#EEE"/><use xlink:href="#123-aQ" transform="rotate(12 -7.124 474.459)" fill="#EEE"/><use xlink:href="#123-aQ" transform="rotate(12 -9.063 492.94)" fill="#EEE"/></g><g><g transform="translate(2695 -561)"><clipPath id="123-aR" clip-rule="evenodd"><path d="M-2685.34 594l17.39 4.659-4.66 17.386-17.39-4.658 4.66-17.387z" fill="#FFF"/></clipPath></g><use xlink:href="#123-aS" transform="rotate(15 -146.638 49.751)" fill="#EEE"/><use xlink:href="#123-aT" transform="rotate(15 -153.73 56.983)" fill="#EEE"/><use xlink:href="#123-aT" transform="rotate(15 -156.374 77.113)" fill="#EEE"/><use xlink:href="#123-aT" transform="rotate(15 -159.025 97.206)" fill="#EEE"/><use xlink:href="#123-aU" transform="rotate(15 -139.658 58.84)" fill="#EEE"/><use xlink:href="#123-aV" transform="rotate(15 -141.775 74.92)" fill="#EEE"/><use xlink:href="#123-aV" transform="rotate(15 -143.362 86.991)" fill="#EEE"/><use xlink:href="#123-aU" transform="rotate(15 -144.95 99.061)" fill="#EEE"/><use xlink:href="#123-aW" transform="rotate(15 -143.94 60.33)" fill="#EEE"/><use xlink:href="#123-aW" transform="rotate(15 -150.03 106.57)" fill="#EEE"/><use xlink:href="#123-aX" transform="rotate(15 -141.245 70.91)" fill="#EEE"/><use xlink:href="#123-aX" transform="rotate(15 -142.832 82.98)" fill="#EEE"/><use xlink:href="#123-aX" transform="rotate(15 -144.418 95.05)" fill="#EEE"/></g><g><g transform="translate(2695 -561)"><clipPath id="123-aY" clip-rule="evenodd"><path d="M-2594.11 685.958l18.13 8.453-8.45 18.126-18.13-8.453 8.45-18.126z" fill="#FFF"/></clipPath></g><use xlink:href="#123-aZ" transform="rotate(25 -248.627 286.203)" fill="#EEE"/><use xlink:href="#123-ba" transform="rotate(25 -253.782 290.634)" fill="#EEE"/><use xlink:href="#123-ba" transform="rotate(25 -256.724 303.898)" fill="#EEE"/><use xlink:href="#123-ba" transform="rotate(25 -259.666 317.163)" fill="#EEE"/><use xlink:href="#123-bb" transform="rotate(25 -244.495 292.693)" fill="#EEE"/><use xlink:href="#123-bc" transform="rotate(25 -246.851 303.295)" fill="#EEE"/><use xlink:href="#123-bc" transform="rotate(25 -248.614 311.258)" fill="#EEE"/><use xlink:href="#123-bb" transform="rotate(25 -250.379 319.22)" fill="#EEE"/><use xlink:href="#123-bd" transform="rotate(25 -247.446 293.418)" fill="#EEE"/><use xlink:href="#123-bd" transform="rotate(25 -254.205 323.95)" fill="#EEE"/><use xlink:href="#123-be" transform="rotate(25 -246.258 300.655)" fill="#EEE"/><use xlink:href="#123-be" transform="rotate(25 -248.023 308.619)" fill="#EEE"/><use xlink:href="#123-be" transform="rotate(25 -249.793 316.56)" fill="#EEE"/></g><g><g transform="translate(2695 -561)"><clipPath id="123-bf" clip-rule="evenodd"><path d="M-2649 673.29l25.23-6.29 6.29 25.228-25.23 6.29-6.29-25.228z" fill="#FFF"/></clipPath></g><use xlink:href="#123-bg" transform="rotate(-14 520.75 -136.166)" fill="#EEE"/><use xlink:href="#123-bh" transform="rotate(-14 528.56 -149.758)" fill="#EEE"/><use xlink:href="#123-bh" transform="rotate(-14 524.737 -180.898)" fill="#EEE"/><use xlink:href="#123-bh" transform="rotate(-14 520.913 -212.039)" fill="#EEE"/><use xlink:href="#123-bi" transform="rotate(-14 506.76 -147.06)" fill="#EEE"/><use xlink:href="#123-bj" transform="rotate(-14 503.703 -171.99)" fill="#EEE"/><use xlink:href="#123-bj" transform="rotate(-14 501.408 -190.666)" fill="#EEE"/><use xlink:href="#123-bi" transform="rotate(-14 499.112 -209.342)" fill="#EEE"/><use xlink:href="#123-bk" transform="rotate(-14 512.61 -150.972)" fill="#EEE"/><use xlink:href="#123-bk" transform="rotate(-14 503.812 -222.57)" fill="#EEE"/><use xlink:href="#123-bl" transform="rotate(-14 504.464 -165.737)" fill="#EEE"/><use xlink:href="#123-bl" transform="rotate(-14 502.174 -184.454)" fill="#EEE"/><use xlink:href="#123-bl" transform="rotate(-14 499.88 -203.13)" fill="#EEE"/></g><g><g transform="translate(2695 -561)"><clipPath id="123-bm" clip-rule="evenodd"><path d="M-2545 637.774l27.17-6.774 6.77 27.168-27.17 6.774-6.77-27.168z" fill="#FFF"/></clipPath></g><use xlink:href="#123-bn" transform="rotate(-14 431.233 -577.792)" fill="#EEE"/><use xlink:href="#123-bo" transform="rotate(-14 439.643 -592.426)" fill="#EEE"/><use xlink:href="#123-bo" transform="rotate(-14 435.532 -626)" fill="#EEE"/><use xlink:href="#123-bo" transform="rotate(-14 431.41 -659.532)" fill="#EEE"/><use xlink:href="#123-bp" transform="rotate(-14 416.173 -589.562)" fill="#EEE"/><use xlink:href="#123-bq" transform="rotate(-14 412.877 -616.38)" fill="#EEE"/><use xlink:href="#123-bq" transform="rotate(-14 410.406 -636.525)" fill="#EEE"/><use xlink:href="#123-bp" transform="rotate(-14 407.935 -656.628)" fill="#EEE"/><use xlink:href="#123-br" transform="rotate(-14 422.466 -593.75)" fill="#EEE"/><use xlink:href="#123-br" transform="rotate(-14 412.997 -670.887)" fill="#EEE"/><use xlink:href="#123-bs" transform="rotate(-14 413.697 -609.666)" fill="#EEE"/><use xlink:href="#123-bs" transform="rotate(-14 411.231 -629.81)" fill="#EEE"/><use xlink:href="#123-bs" transform="rotate(-14 408.756 -649.913)" fill="#EEE"/></g><g><g transform="translate(2695 -561)"><clipPath id="123-bt" clip-rule="evenodd"><path d="M-2682 727.258l29.11-7.258 7.26 29.109-29.11 7.258-7.26-29.109z" fill="#FFF"/></clipPath></g><use xlink:href="#123-bu" transform="rotate(-14 730.244 24.434)" fill="#EEE"/><use xlink:href="#123-bv" transform="rotate(-14 739.254 8.758)" fill="#EEE"/><use xlink:href="#123-bv" transform="rotate(-14 734.84 -27.167)" fill="#EEE"/><use xlink:href="#123-bv" transform="rotate(-14 730.43 -63.092)" fill="#EEE"/><use xlink:href="#123-bw" transform="rotate(-14 714.105 11.83)" fill="#EEE"/><use xlink:href="#123-bx" transform="rotate(-14 710.574 -16.92)" fill="#EEE"/><use xlink:href="#123-bx" transform="rotate(-14 707.927 -38.45)" fill="#EEE"/><use xlink:href="#123-bw" transform="rotate(-14 705.28 -60.02)" fill="#EEE"/><use xlink:href="#123-by" transform="rotate(-14 720.849 7.366)" fill="#EEE"/><use xlink:href="#123-by" transform="rotate(-14 710.7 -75.27)" fill="#EEE"/><use xlink:href="#123-bz" transform="rotate(-14 711.453 -9.701)" fill="#EEE"/><use xlink:href="#123-bz" transform="rotate(-14 708.81 -31.272)" fill="#EEE"/><use xlink:href="#123-bz" transform="rotate(-14 706.164 -52.844)" fill="#EEE"/></g><defs><path id="123-b" d="M5.824 1.294c.388 0 .647.259.647.647v12.294H1.294V1.941c0-.388.259-.647.647-.647h3.883zm0-1.294H1.94C.841 0 0 .841 0 1.941V15.53h7.765V1.941C7.765.841 6.924 0 5.824 0z"/><path id="123-c" d="M14.235 1.294v2.588H1.295V1.294h12.94zm0-1.294H1.295C.581 0 0 .582 0 1.294V4.53c0 .389.259.647.647.647h14.235c.389 0 .647-.258.647-.647V1.294C15.53.582 14.947 0 14.235 0z"/><path id="123-d" d="M1.941 1.294c.388 0 .647.324.647.647v.647H1.294v-.647c0-.388.259-.647.647-.647zm0-1.294C.841 0 0 .841 0 1.941v1.941h3.882v-1.94C3.882.841 3.042 0 1.942 0z"/><path id="123-e" d="M.647.647V9.06.647zM1.294 0H0v9.706h1.294V0z"/><path id="123-f" d="M2.588 1.294v1.294H1.294V1.294h1.294zM3.235 0H.647C.26 0 0 .259 0 .647v1.941C0 3.3.582 3.882 1.294 3.882h1.294c.712 0 1.294-.582 1.294-1.294V.648c0-.39-.258-.648-.647-.648z"/><path id="123-h" d="M4.765 1.059c.317 0 .53.212.53.53v10.058H1.058V1.588c0-.317.212-.53.53-.53h3.176zm0-1.059H1.588C.688 0 0 .688 0 1.588v11.118h6.353V1.588C6.353.688 5.665 0 4.765 0z"/><path id="123-i" d="M11.647 1.059v2.117H1.06V1.06h10.588zm0-1.059H1.06C.476 0 0 .476 0 1.059v2.647c0 .318.212.53.53.53h11.646c.318 0 .53-.212.53-.53V1.059C12.706.476 12.229 0 11.647 0z"/><path id="123-j" d="M1.588 1.059a.53.53 0 0 1 .53.53v.529h-1.06v-.53c0-.317.213-.53.53-.53zm0-1.059C.688 0 0 .688 0 1.588v1.588h3.176V1.588C3.176.688 2.488 0 1.588 0z"/><path id="123-k" d="M.53.53v6.882V.529zM1.058 0H0v7.941h1.059V0z"/><path id="123-l" d="M2.118 1.059v1.059h-1.06v-1.06h1.06zM2.648 0H.528C.212 0 0 .212 0 .53v1.588C0 2.7.476 3.176 1.059 3.176h1.059c.582 0 1.058-.476 1.058-1.058V.529C3.176.212 2.965 0 2.647 0z"/><path id="123-n" d="M6.882 1.53c.46 0 .765.305.765.764v14.53H1.53V2.293c0-.459.306-.765.765-.765h4.588zm0-1.53H2.294C.994 0 0 .994 0 2.294v16.059h9.176V2.294C9.176.994 8.182 0 6.882 0z"/><path id="123-o" d="M16.823 1.53v3.058H1.53V1.53h15.294zm0-1.53H1.53C.69 0 0 .688 0 1.53v3.823c0 .459.306.765.765.765h16.823c.46 0 .765-.306.765-.765V1.529c0-.84-.688-1.529-1.53-1.529z"/><path id="123-p" d="M2.294 1.53c.459 0 .765.382.765.764v.765h-1.53v-.765c0-.459.306-.765.765-.765zm0-1.53C.994 0 0 .994 0 2.294v2.294h4.588V2.294C4.588.994 3.594 0 2.294 0z"/><path id="123-q" d="M.765.765v9.94-9.94zM1.529 0H0v11.47h1.53V0z"/><path id="123-r" d="M3.059 1.53v1.529h-1.53v-1.53h1.53zM3.824 0H.764C.307 0 0 .306 0 .765v2.294c0 .841.688 1.53 1.53 1.53h1.529c.841 0 1.53-.689 1.53-1.53V.765c0-.46-.307-.765-.765-.765z"/><path id="123-t" d="M9.265 2.059c.617 0 1.03.412 1.03 1.03v19.558H2.058V3.088c0-.617.412-1.03 1.03-1.03h6.176zm0-2.059H3.088C1.338 0 0 1.338 0 3.088v21.618h12.353V3.088C12.353 1.338 11.015 0 9.265 0z"/><path id="123-u" d="M22.647 2.059v4.117H2.06V2.06h20.588zm0-2.059H2.06A2.065 2.065 0 0 0 0 2.059v5.147c0 .618.412 1.03 1.03 1.03h22.647c.617 0 1.029-.412 1.029-1.03V2.059A2.065 2.065 0 0 0 22.647 0z"/><path id="123-v" d="M3.088 2.059c.618 0 1.03.515 1.03 1.03v1.029h-2.06v-1.03c0-.617.413-1.03 1.03-1.03zm0-2.059C1.338 0 0 1.338 0 3.088v3.088h6.176V3.088C6.176 1.338 4.838 0 3.088 0z"/><path id="123-w" d="M1.03 1.03v13.382V1.029zM2.058 0H0v15.441h2.059V0z"/><path id="123-x" d="M4.118 2.059v2.059h-2.06v-2.06h2.06zM5.148 0H1.028C.412 0 0 .412 0 1.03v3.088C0 5.25.926 6.176 2.059 6.176h2.059a2.065 2.065 0 0 0 2.058-2.058V1.029C6.176.412 5.765 0 5.147 0z"/><path id="123-z" d="M4.53 1.165c.388 0 .776.323.776.776v11.13H1.229V1.94c0-.388.324-.776.777-.776h2.523zM4.53 0H1.94C.841 0 0 .841 0 1.941v12.294h6.47V1.941C6.47.841 5.63 0 4.53 0z"/><path id="123-A" d="M.647 0C.26 0 0 .259 0 .647v3.235h1.294V.647C1.294.26 1.035 0 .647 0z"/><path id="123-B" d="M1.294 0H0v3.235c0 .389.259.647.647.647s.647-.258.647-.647V0z"/><path id="123-C" d="M16.823 1.294v1.294H1.294V1.294h15.53zm0-1.294H1.294C.582 0 0 .582 0 1.294v1.941c0 .389.259.647.647.647h16.824c.388 0 .647-.258.647-.647v-1.94C18.118.581 17.535 0 16.824 0z"/><path id="123-D" d="M11.647 1.294v1.294H1.294V1.294h10.353zM12.294 0H.647C.26 0 0 .259 0 .647v3.235h12.941V.647c0-.388-.259-.647-.647-.647z"/><path id="123-E" d="M.647 0C.26 0 0 .259 0 .647v11h1.294v-11C1.294.26 1.035 0 .647 0z"/><path id="123-F" fill-rule="evenodd" d="M.988 2.137L.494 2.06 0 1.983v-.005l.002-.008.005-.023a2.043 2.043 0 0 1 .086-.313c.062-.176.19-.452.375-.702.403-.53 1.11-.998 2.252-.924.913.036 1.661.289 2.159.905.481.596.645 1.435.645 2.441h-1c0-.935-.16-1.487-.423-1.813-.246-.304-.66-.505-1.426-.534H2.66v-.001c-.794-.053-1.186.254-1.397.532-.122.155-.18.291-.227.427a1.212 1.212 0 0 0-.049.17v.003-.001zm0 .003zm0 0z"/><path id="123-H" d="M5.353 1.376c.459 0 .918.383.918.918v13.153H1.453V2.294c0-.459.382-.918.918-.918h2.982zm0-1.376H2.294C.994 0 0 .994 0 2.294v14.53h7.647V2.293C7.647.994 6.653 0 5.353 0z"/><path id="123-I" d="M.765 0C.305 0 0 .306 0 .765v3.823h1.53V.765C1.53.305 1.223 0 .764 0z"/><path id="123-J" d="M1.53 0H0v3.824c0 .458.306.764.765.764s.764-.306.764-.764V0z"/><path id="123-K" d="M19.882 1.53v1.529H1.53v-1.53h18.353zm0-1.53H1.53C.69 0 0 .688 0 1.53v2.294c0 .458.306.764.765.764h19.882c.459 0 .765-.306.765-.764V1.529c0-.84-.688-1.529-1.53-1.529z"/><path id="123-L" d="M13.765 1.53v1.529H1.529v-1.53h12.236zM14.529 0H.765C.305 0 0 .306 0 .765v3.823h15.294V.765c0-.46-.306-.765-.765-.765z"/><path id="123-M" d="M.765 0C.305 0 0 .306 0 .765v13h1.53v-13C1.53.305 1.223 0 .764 0z"/><path id="123-N" fill-rule="evenodd" d="M.988 2.42l-.494-.076L0 2.267v-.005l.002-.01.005-.025a2.275 2.275 0 0 1 .099-.357c.072-.204.217-.518.43-.804C.994.463 1.8-.077 3.12.01c1.066.042 1.92.336 2.485 1.036.55.68.742 1.645.742 2.828h-1c0-1.111-.19-1.79-.52-2.2-.313-.388-.833-.63-1.752-.665H3.06c-.97-.065-1.462.312-1.73.663-.15.192-.224.366-.281.53a1.553 1.553 0 0 0-.06.215l-.002.007V2.42zm0 .003z"/><path id="123-P" d="M4.118 1.059c.353 0 .705.294.705.706v10.117H1.119V1.765c0-.353.294-.706.706-.706h2.294zm0-1.059H1.765C.765 0 0 .765 0 1.765V12.94h5.882V1.765C5.882.765 5.118 0 4.118 0z"/><path id="123-Q" d="M.588 0C.235 0 0 .235 0 .588V3.53h1.176V.59C1.176.234.941 0 .588 0z"/><path id="123-R" d="M1.176 0H0v2.941c0 .353.235.588.588.588s.588-.235.588-.588V0z"/><path id="123-S" d="M15.294 1.176v1.177H1.176V1.176h14.118zm0-1.176H1.176A1.18 1.18 0 0 0 0 1.176v1.765c0 .353.235.588.588.588h15.294c.353 0 .589-.235.589-.588V1.176A1.18 1.18 0 0 0 15.294 0z"/><path id="123-T" d="M10.588 1.176v1.177H1.176V1.176h9.412zM11.176 0H.588C.235 0 0 .235 0 .588V3.53h11.765V.59c0-.354-.236-.589-.589-.589z"/><path id="123-U" d="M.588 0C.235 0 0 .235 0 .588v10h1.176v-10C1.176.235.941 0 .588 0z"/><path id="123-V" fill-rule="evenodd" d="M.988 1.995l-.494-.077L0 1.842v-.005l.002-.008.004-.023a1.93 1.93 0 0 1 .08-.29c.058-.162.177-.42.348-.65C.81.372 1.466-.061 2.52.007c.837.033 1.532.265 1.996.84.447.554.596 1.33.596 2.248h-1c0-.847-.146-1.336-.375-1.62-.211-.262-.573-.442-1.262-.469H2.46c-.706-.048-1.047.224-1.23.465a1.188 1.188 0 0 0-.2.376 1.04 1.04 0 0 0-.043.15c0 .001 0-.001 0 0v-.002zm0 .004z"/><path id="123-X" d="M3.294.847c.282 0 .565.235.565.565v8.094H.894V1.412c0-.283.235-.565.565-.565h1.835zm0-.847H1.412C.612 0 0 .612 0 1.412v8.94h4.706v-8.94C4.706.612 4.094 0 3.294 0z"/><path id="123-Y" d="M.47 0C.189 0 0 .188 0 .47v2.354h.941V.47C.941.188.753 0 .471 0z"/><path id="123-Z" d="M.941 0H0v2.353c0 .282.188.47.47.47.283 0 .471-.188.471-.47V0z"/><path id="123-aa" d="M12.235.941v.941H.941v-.94h11.294zm0-.941H.941A.944.944 0 0 0 0 .941v1.412c0 .282.188.47.47.47h12.236c.282 0 .47-.188.47-.47V.94a.944.944 0 0 0-.94-.941z"/><path id="123-ab" d="M8.47.941v.941H.942v-.94h7.53zM8.942 0H.471C.188 0 0 .188 0 .47v2.354h9.412V.47c0-.283-.189-.471-.47-.471z"/><path id="123-ac" d="M.47 0C.189 0 0 .188 0 .47v8h.941v-8C.941.189.753 0 .471 0z"/><path id="123-ad" fill-rule="evenodd" d="M.79 1.596l-.395-.061L0 1.473v-.004l.002-.006.003-.018a1.545 1.545 0 0 1 .064-.233 2.11 2.11 0 0 1 .278-.52c.3-.394.826-.74 1.67-.686.669.026 1.225.212 1.595.671.358.444.477 1.064.477 1.799h-.8c0-.678-.116-1.069-.3-1.296C2.822.97 2.532.826 1.98.805h-.01c-.565-.038-.838.179-.985.372a.95.95 0 0 0-.16.3.832.832 0 0 0-.034.122s0-.001 0 0v-.003zm0 .003z"/><path id="123-af" d="M7.412 1.906c.635 0 1.27.53 1.27 1.27v18.212h-6.67V3.176c0-.635.53-1.27 1.27-1.27h4.13zm0-1.906H3.176C1.376 0 0 1.376 0 3.176v20.118h10.588V3.176C10.588 1.376 9.212 0 7.412 0z"/><path id="123-ag" d="M1.059 0C.424 0 0 .424 0 1.059v5.294h2.118V1.059C2.118.424 1.694 0 1.058 0z"/><path id="123-ah" d="M2.118 0H0v5.294c0 .635.424 1.059 1.059 1.059s1.059-.424 1.059-1.059V0z"/><path id="123-ai" d="M27.53 2.118v2.117H2.117V2.118h25.411zm0-2.118H2.117A2.124 2.124 0 0 0 0 2.118v3.176c0 .635.424 1.059 1.059 1.059h27.53c.635 0 1.058-.424 1.058-1.059V2.118A2.124 2.124 0 0 0 27.53 0z"/><path id="123-aj" d="M19.059 2.118v2.117H2.118V2.118h16.94zM20.118 0H1.058C.425 0 0 .424 0 1.059v5.294h21.177V1.059c0-.635-.424-1.059-1.06-1.059z"/><path id="123-ak" d="M1.059 0C.424 0 0 .424 0 1.059v18h2.118v-18C2.118.424 1.694 0 1.058 0z"/><path id="123-al" fill-rule="evenodd" d="M.988 3.13l-.494-.077L0 2.976V2.97l.003-.01a1.957 1.957 0 0 1 .029-.14c.02-.083.056-.215.106-.36.097-.274.284-.682.567-1.06C1.303.613 2.36-.103 4.12.012 5.57.07 6.687.466 7.421 1.376c.718.89.985 2.17.985 3.794h-1c0-1.552-.263-2.547-.763-3.166-.482-.598-1.267-.943-2.568-.993H4.06c-1.412-.095-2.153.46-2.56.994a2.68 2.68 0 0 0-.42.786 2.411 2.411 0 0 0-.09.326l-.003.013zm0 .001V3.13v.001zm0 0z"/><path id="123-an" d="M14 2v8H2V2h12zm2-2H0v11c0 .6.4 1 1 1h14c.6 0 1-.4 1-1V0z"/><path id="123-ao" d="M22 2v20H2V2h20zM0 1v22c0 .6.4 1 1 1h22c.6 0 1-.4 1-1V1c0-.6-.4-1-1-1H1C.4 0 0 .4 0 1z"/><path id="123-ap" d="M10 2v20H2V2h8zm2-2H0v24h12V0z"/><path id="123-aq" d="M3 0H1C.4 0 0 .4 0 1v2c0 .6.4 1 1 1h2c.6 0 1-.4 1-1V1c0-.6-.4-1-1-1z"/><path id="123-ar" d="M1 0C.4 0 0 .4 0 1v2c0 .6.4 1 1 1s1-.4 1-1V1c0-.6-.4-1-1-1z"/><path id="123-at" d="M11.118 1.588v6.353h-9.53V1.588h9.53zM12.706 0H0v8.735c0 .477.318.794.794.794h11.118c.476 0 .794-.317.794-.794V0z"/><path id="123-au" d="M17.47 1.588v15.883H1.589V1.588h15.883zM0 .794v17.47c0 .477.318.795.794.795h17.47c.477 0 .795-.318.795-.794V.795c0-.477-.318-.795-.794-.795H.795C.317 0 0 .318 0 .794z"/><path id="123-av" d="M7.941 1.588v15.883H1.588V1.588h6.353zM9.53 0H0v19.059h9.53V0z"/><path id="123-aw" d="M2.382 0H.794C.318 0 0 .318 0 .794v1.588c0 .477.318.794.794.794h1.588c.477 0 .794-.317.794-.794V.794C3.176.318 2.86 0 2.382 0z"/><path id="123-ax" d="M.794 0C.318 0 0 .318 0 .794v1.588c0 .477.318.794.794.794.477 0 .794-.317.794-.794V.794C1.588.318 1.271 0 .794 0z"/><path id="123-az" d="M6.588.941v3.765H.941V.94h5.647zM7.53 0H0v5.176c0 .283.188.471.47.471H7.06c.282 0 .47-.188.47-.47V0z"/><path id="123-aA" d="M10.353.941v9.412H.94V.94h9.412zM0 .471v10.352c0 .283.188.471.47.471h10.353c.283 0 .471-.188.471-.47V.47c0-.283-.188-.471-.47-.471H.47C.188 0 0 .188 0 .47z"/><path id="123-aB" d="M4.706.941v9.412H.94V.94h3.765zM5.647 0H0v11.294h5.647V0z"/><path id="123-aC" d="M1.412 0H.47C.188 0 0 .188 0 .47v.942c0 .282.188.47.47.47h.942c.282 0 .47-.188.47-.47V.47c0-.283-.188-.471-.47-.471z"/><path id="123-aD" d="M.47 0C.189 0 0 .188 0 .47v.942c0 .282.188.47.47.47.283 0 .471-.188.471-.47V.47C.941.188.753 0 .471 0z"/><path id="123-aF" d="M5.765.824v3.294H.824V.824h4.94zM6.588 0H0v4.53c0 .246.165.411.412.411h5.764c.247 0 .412-.165.412-.412V0z"/><path id="123-aG" d="M9.059.824v8.235H.824V.824h8.235zM0 .412V9.47c0 .247.165.411.412.411H9.47c.247 0 .411-.164.411-.411V.41C9.882.166 9.718 0 9.471 0H.41C.166 0 0 .165 0 .412z"/><path id="123-aH" d="M4.118.824v8.235H.824V.824h3.294zM4.94 0H0v9.882h4.941V0z"/><path id="123-aI" d="M1.235 0H.412C.165 0 0 .165 0 .412v.823c0 .247.165.412.412.412h.823c.247 0 .412-.165.412-.412V.412C1.647.165 1.482 0 1.235 0z"/><path id="123-aJ" d="M.412 0C.165 0 0 .165 0 .412v.823c0 .247.165.412.412.412.247 0 .412-.165.412-.412V.412C.824.165.659 0 .412 0z"/><path id="123-aL" d="M20.059 1.294c.388 0 .647.259.647.647v3.883c0 .388-.259.647-.647.647H1.94c-.388 0-.647-.26-.647-.647V1.94c0-.388.259-.647.647-.647H20.06zm0-1.294H1.94C.841 0 0 .841 0 1.941v3.883c0 1.1.841 1.94 1.941 1.94H20.06c1.1 0 1.941-.84 1.941-1.94V1.94C22 .841 21.159 0 20.059 0z"/><path id="123-aM" d="M1.941 1.294c.388 0 .647.259.647.647s-.259.647-.647.647-.647-.259-.647-.647.259-.647.647-.647zm0-1.294C.841 0 0 .841 0 1.941s.841 1.941 1.941 1.941 1.941-.84 1.941-1.94S3.042 0 1.942 0z"/><path id="123-aN" d="M3.882 0H0v1.294h3.882V0z"/><path id="123-aO" d="M2.588 0H0v1.294h2.588V0z"/><path id="123-aP" d="M.647 0H0v1.294h.647V0z"/><path id="123-aQ" d="M1.294 0H0v.647h1.294V0z"/><path id="123-aS" d="M16.412 1.059c.317 0 .53.212.53.53v3.176c0 .317-.213.53-.53.53H1.588c-.317 0-.53-.213-.53-.53V1.588c0-.317.213-.53.53-.53h14.824zm0-1.059H1.588C.688 0 0 .688 0 1.588v3.177c0 .9.688 1.588 1.588 1.588h14.824c.9 0 1.588-.688 1.588-1.588V1.588C18 .688 17.312 0 16.412 0z"/><path id="123-aT" d="M1.588 1.059c.318 0 .53.212.53.53 0 .317-.212.529-.53.529-.317 0-.53-.212-.53-.53 0-.317.213-.53.53-.53zm0-1.059C.688 0 0 .688 0 1.588c0 .9.688 1.588 1.588 1.588.9 0 1.588-.688 1.588-1.588C3.176.688 2.488 0 1.588 0z"/><path id="123-aU" d="M3.176 0H0v1.059h3.176V0z"/><path id="123-aV" d="M2.118 0H0v1.059h2.118V0z"/><path id="123-aW" d="M.53 0H0v1.059h.53V0z"/><path id="123-aX" d="M1.059 0H0v.53h1.059V0z"/><path id="123-aZ" d="M18.235 1.176c.353 0 .588.236.588.589v3.53c0 .352-.235.587-.588.587H1.765c-.353 0-.589-.235-.589-.588v-3.53c0-.352.236-.588.589-.588h16.47zm0-1.176H1.765C.765 0 0 .765 0 1.765v3.53c0 1 .765 1.764 1.765 1.764h16.47c1 0 1.765-.765 1.765-1.765v-3.53C20 .765 19.235 0 18.235 0z"/><path id="123-ba" d="M1.765 1.176c.353 0 .588.236.588.589s-.235.588-.588.588-.589-.235-.589-.588.236-.589.589-.589zm0-1.176C.765 0 0 .765 0 1.765c0 1 .765 1.764 1.765 1.764 1 0 1.764-.764 1.764-1.764S2.765 0 1.765 0z"/><path id="123-bb" d="M3.53 0H0v1.176h3.53V0z"/><path id="123-bc" d="M2.353 0H0v1.176h2.353V0z"/><path id="123-bd" d="M.588 0H0v1.176h.588V0z"/><path id="123-be" d="M1.176 0H0v.588h1.176V0z"/><path id="123-bg" d="M23.706 1.53c.459 0 .765.305.765.764v4.588c0 .46-.306.765-.765.765H2.294c-.459 0-.765-.306-.765-.765V2.294c0-.459.306-.765.765-.765h21.412zm0-1.53H2.294C.994 0 0 .994 0 2.294v4.588c0 1.3.994 2.294 2.294 2.294h21.412c1.3 0 2.294-.994 2.294-2.294V2.294C26 .994 25.006 0 23.706 0z"/><path id="123-bh" d="M2.294 1.53c.459 0 .765.305.765.764s-.306.765-.765.765-.765-.306-.765-.765.306-.765.765-.765zm0-1.53C.994 0 0 .994 0 2.294s.994 2.294 2.294 2.294 2.294-.994 2.294-2.294S3.594 0 2.294 0z"/><path id="123-bi" d="M4.588 0H0v1.53h4.588V0z"/><path id="123-bj" d="M3.059 0H0v1.53h3.059V0z"/><path id="123-bk" d="M.765 0H0v1.53h.765V0z"/><path id="123-bl" d="M1.53 0H0v.765h1.53V0z"/><path id="123-bn" d="M25.53 1.647c.493 0 .823.33.823.824v4.94c0 .495-.33.824-.824.824H2.471c-.495 0-.824-.33-.824-.823V2.47c0-.495.33-.824.824-.824h23.058zm0-1.647H2.47C1.07 0 0 1.07 0 2.47v4.942c0 1.4 1.07 2.47 2.47 2.47h23.06c1.4 0 2.47-1.07 2.47-2.47V2.47C28 1.07 26.93 0 25.53 0z"/><path id="123-bo" d="M2.47 1.647c.495 0 .824.33.824.824 0 .494-.33.823-.823.823-.495 0-.824-.33-.824-.823 0-.495.33-.824.824-.824zM2.47 0C1.07 0 0 1.07 0 2.47c0 1.4 1.07 2.471 2.47 2.471 1.4 0 2.471-1.07 2.471-2.47C4.941 1.07 3.871 0 2.471 0z"/><path id="123-bp" d="M4.941 0H0v1.647h4.941V0z"/><path id="123-bq" d="M3.294 0H0v1.647h3.294V0z"/><path id="123-br" d="M.824 0H0v1.647h.824V0z"/><path id="123-bs" d="M1.647 0H0v.824h1.647V0z"/><path id="123-bu" d="M27.353 1.765c.53 0 .882.353.882.882v5.294c0 .53-.353.883-.882.883H2.647c-.53 0-.882-.353-.882-.883V2.647c0-.53.353-.882.882-.882h24.706zm0-1.765H2.647C1.147 0 0 1.147 0 2.647v5.294c0 1.5 1.147 2.647 2.647 2.647h24.706c1.5 0 2.647-1.147 2.647-2.647V2.647C30 1.147 28.853 0 27.353 0z"/><path id="123-bv" d="M2.647 1.765c.53 0 .882.353.882.882 0 .53-.353.882-.882.882-.53 0-.882-.353-.882-.882 0-.53.353-.882.882-.882zm0-1.765C1.147 0 0 1.147 0 2.647c0 1.5 1.147 2.647 2.647 2.647 1.5 0 2.647-1.147 2.647-2.647C5.294 1.147 4.147 0 2.647 0z"/><path id="123-bw" d="M5.294 0H0v1.765h5.294V0z"/><path id="123-bx" d="M3.53 0H0v1.765h3.53V0z"/><path id="123-by" d="M.882 0H0v1.765h.882V0z"/><path id="123-bz" d="M1.765 0H0v.882h1.765V0z"/></defs></svg>