<svg width="45" height="15" viewBox="0 0 45 15" xmlns="http://www.w3.org/2000/svg" xmlns:xlink="http://www.w3.org/1999/xlink"><title>visa</title><desc>Created using Figma</desc><use xlink:href="#123-a" fill="#2566AF"/><use xlink:href="#123-b" transform="translate(0 .29)" fill="#E6A540"/><defs><path id="123-a" d="M19.508 14.356h-3.672L18.131.252h3.672l-2.295 14.104zM12.747.252l-3.5 9.7-.415-2.088-1.235-6.342S7.447.252 5.855.252H.068L0 .491s1.77.368 3.84 1.612l3.191 12.253h3.826L16.699.252h-3.952zm28.881 14.104H45L42.06.252H39.11c-1.363 0-1.695 1.05-1.695 1.05l-5.477 13.054h3.828l.765-2.095h4.668l.43 2.095zm-4.04-4.99l1.93-5.277 1.085 5.278h-3.015zm-5.364-5.722l.524-3.03S31.131 0 29.446 0c-1.822 0-6.15.796-6.15 4.669 0 3.644 5.08 3.689 5.08 5.603 0 1.914-4.556 1.57-6.06.364l-.546 3.167s1.64.796 4.145.796c2.506 0 6.286-1.297 6.286-4.829 0-3.667-5.124-4.008-5.124-5.602 0-1.595 3.576-1.39 5.147-.524z"/><path id="123-b" d="M10.084 8.69L8.673 1.45S8.503 0 6.684 0H.078L0 .273S3.176.93 6.221 3.396c2.913 2.357 3.863 5.295 3.863 5.295z"/></defs></svg>