<svg width="35" height="28" viewBox="0 0 35 28" xmlns="http://www.w3.org/2000/svg" xmlns:xlink="http://www.w3.org/1999/xlink"><title>mastercard-2</title><desc>Created using Figma</desc><use xlink:href="#123-a" transform="translate(1.81 23.09)" fill="#231F20"/><use xlink:href="#123-b" transform="translate(12.77 2.32)" fill="#FF5F00"/><use xlink:href="#123-c" fill="#EB001B"/><use xlink:href="#123-d" transform="translate(17.5)" fill="#F79E1B"/><defs><path id="123-a" d="M5.75 2.594c0-.505.33-.92.871-.92.517 0 .865.397.865.92 0 .524-.348.922-.865.922-.54 0-.871-.416-.871-.922zm2.325 0V1.155H7.45v.35c-.198-.258-.498-.42-.907-.42-.805 0-1.436.632-1.436 1.51 0 .879.631 1.511 1.436 1.511.409 0 .71-.163.907-.422v.35h.624v-1.44zm21.101 0c0-.505.33-.92.871-.92.517 0 .866.397.866.92 0 .524-.349.922-.866.922-.54 0-.871-.416-.871-.922zm2.326 0V0h-.625v1.506c-.198-.26-.499-.422-.907-.422-.805 0-1.437.633-1.437 1.511 0 .879.631 1.511 1.437 1.511.408 0 .709-.163.907-.422v.35h.625v-1.44zm-15.676-.95c.402 0 .66.252.727.697h-1.49c.066-.415.318-.697.763-.697zm.012-.561c-.841 0-1.43.613-1.43 1.51 0 .915.612 1.511 1.472 1.511.433 0 .829-.108 1.178-.403l-.306-.463c-.241.192-.548.3-.836.3-.402 0-.769-.186-.859-.704h2.132c.006-.078.013-.156.013-.24-.007-.898-.56-1.511-1.364-1.511zm7.54 1.51c0-.505.33-.92.871-.92.517 0 .865.397.865.92 0 .524-.348.922-.865.922-.54 0-.871-.416-.871-.922zm2.325 0V1.155h-.624v.35c-.2-.258-.499-.42-.907-.42-.805 0-1.437.632-1.437 1.51 0 .879.631 1.511 1.437 1.511.408 0 .708-.163.907-.422v.35h.624v-1.44zm-5.852 0c0 .873.607 1.511 1.532 1.511.433 0 .721-.096 1.033-.343l-.3-.505c-.235.168-.48.259-.753.259-.498-.007-.865-.368-.865-.922s.367-.914.865-.92c.271 0 .518.09.753.258l.3-.505c-.313-.247-.6-.344-1.033-.344-.925 0-1.532.638-1.532 1.511zm8.051-1.51c-.36 0-.595.168-.757.421v-.349h-.619v2.877h.625V2.42c0-.477.204-.741.613-.741a1.01 1.01 0 0 1 .39.072l.193-.59a1.325 1.325 0 0 0-.445-.079zm-16.74.301c-.3-.198-.714-.301-1.17-.301-.728 0-1.197.35-1.197.921 0 .47.35.759.991.849l.295.042c.343.048.504.138.504.3 0 .223-.227.35-.654.35-.433 0-.745-.138-.955-.3l-.294.487c.343.253.775.374 1.244.374.829 0 1.31-.392 1.31-.94 0-.505-.379-.77-1.004-.86l-.294-.043c-.27-.035-.487-.09-.487-.282 0-.21.204-.337.547-.337.366 0 .721.138.895.246l.27-.505v-.001zm8.058-.3c-.36 0-.595.168-.756.421v-.35h-.619v2.877h.625V2.42c0-.477.204-.741.612-.741.134-.002.266.023.39.072l.193-.59a1.322 1.322 0 0 0-.445-.077zm-5.329.071h-1.02V.282h-.632v.873h-.583v.572h.583V3.04c0 .667.258 1.065.997 1.065.271 0 .583-.084.781-.223l-.18-.536c-.186.109-.39.163-.553.163-.312 0-.414-.193-.414-.481v-1.3h1.021v-.573zM4.555 4.033V2.227c0-.68-.433-1.137-1.13-1.143-.367-.006-.745.108-1.01.512-.198-.32-.51-.512-.949-.512-.307 0-.606.09-.841.427v-.356H0v2.877h.63V2.437c0-.5.276-.765.703-.765.415 0 .625.271.625.759v1.6h.631V2.438c0-.5.288-.765.703-.765.426 0 .63.27.63.758v1.602l.633.001z"/><path id="123-b" d="M9.464 17.04H0V0h9.464v17.04z"/><path id="123-c" d="M13.368 10.837c0-3.457 1.616-6.536 4.131-8.52A10.757 10.757 0 0 0 10.815 0C4.842 0 0 4.852 0 10.837c0 5.985 4.842 10.836 10.815 10.836 2.425.004 4.78-.813 6.685-2.317a10.826 10.826 0 0 1-4.132-8.52z"/><path id="123-d" d="M17.5 10.837c0 5.985-4.842 10.836-10.815 10.836A10.76 10.76 0 0 1 0 19.356a10.824 10.824 0 0 0 4.132-8.52C4.132 7.38 2.516 4.302 0 2.318A10.76 10.76 0 0 1 6.685 0C12.658 0 17.5 4.852 17.5 10.837"/></defs></svg>