<svg width="84" height="32" viewBox="0 0 84 32" xmlns="http://www.w3.org/2000/svg" xmlns:xlink="http://www.w3.org/1999/xlink"><title>philips</title><desc>Created using Figma</desc><g transform="translate(41 -2293)"><mask id="123-b"><use xlink:href="#123-a" fill="white" transform="translate(-41 2293)"/></mask><g mask="url(#123-b)"><use xlink:href="#123-c" transform="translate(-41 2293)" fill="#F2F2F2"/></g></g><use xlink:href="#123-d" transform="translate(0 20.21)" fill="#F2F2F2"/><g transform="translate(9.263 23.05)" fill="#423D3D"><use xlink:href="#123-e"/><use xlink:href="#123-f"/><use xlink:href="#123-g"/><use xlink:href="#123-h"/><use xlink:href="#123-i"/><use xlink:href="#123-j"/><use xlink:href="#123-k"/><use xlink:href="#123-l"/><use xlink:href="#123-m"/><use xlink:href="#123-n"/><use xlink:href="#123-o"/><use xlink:href="#123-p"/><use xlink:href="#123-q"/><use xlink:href="#123-r"/><use xlink:href="#123-s"/><use xlink:href="#123-t"/><use xlink:href="#123-u"/><use xlink:href="#123-v"/><use xlink:href="#123-w"/><use xlink:href="#123-x"/><use xlink:href="#123-y"/></g><use xlink:href="#123-z" transform="matrix(1.25 0 0 -1.25 20.21 13.47)" fill="#F2F2F2"/><defs><path id="123-a" d="M0 0h83.368v32H0V0z"/><path id="123-c" d="M0 0v-1h-1v1h1zm83.368 0h1v-1h-1v1zm0 32v1h1v-1h-1zM0 32h-1v1h1v-1zM0 1h83.368v-2H0v2zm82.368-1v32h2V0h-2zm1 31H0v2h83.368v-2zM1 32V0h-2v32h2z"/><path id="123-d" d="M0 0h83.368v11.79H0V0z"/><path id="123-e" d="M2.023 0h.475l2.108 4.737h-.691l-.628-1.396H1.285L.69 4.737H0L2.023 0zm.988 2.741l-.759-1.706-.704 1.706H3.01z"/><path id="123-f" d="M7.017 4.737v-.394c-.13.141-.28.252-.449.33a1.158 1.158 0 0 1-.499.118c-.195 0-.376-.048-.543-.145a.98.98 0 0 1-.374-.398c-.083-.168-.125-.447-.125-.836V1.635h.614v1.77c0 .326.046.555.138.685.095.128.259.192.492.192.293 0 .541-.143.746-.428V1.635h.613v3.102h-.613z"/><path id="123-g" d="M8.058 2.128L9.212.995v.64h.98v.553h-.98v1.52c0 .356.147.534.441.534.22 0 .453-.075.698-.223v.573a1.55 1.55 0 0 1-.772.2c-.281 0-.515-.083-.701-.247a.716.716 0 0 1-.145-.165.955.955 0 0 1-.098-.243c-.025-.101-.037-.292-.037-.573V2.188h-.54v-.06z"/><path id="123-h" d="M10.78.027h.613v2.016c.256-.312.574-.468.954-.468.207 0 .392.051.556.155a.93.93 0 0 1 .365.428c.08.182.121.453.121.812v1.767h-.614V2.82c0-.227-.056-.41-.168-.546a.53.53 0 0 0-.438-.21.742.742 0 0 0-.382.105c-.119.07-.25.185-.394.347v2.222h-.614V.027z"/><path id="123-i" d="M15.729 1.629c.472 0 .864.152 1.177.458.312.304.468.686.468 1.146 0 .448-.158.82-.475 1.117-.317.294-.716.441-1.197.441-.465 0-.854-.15-1.167-.448a1.5 1.5 0 0 1-.468-1.126c0-.454.157-.832.472-1.133.317-.304.713-.455 1.19-.455zm-.034.553a.97.97 0 0 0-.725.29c-.188.193-.283.439-.283.738 0 .297.097.54.29.728.193.187.442.28.745.28.301 0 .548-.094.739-.283a.985.985 0 0 0 .29-.732c0-.294-.1-.538-.3-.732-.2-.193-.452-.29-.756-.29z"/><path id="123-j" d="M18.713 1.635v.712l.034-.054c.296-.479.593-.718.89-.718.231 0 .473.116.725.35l-.324.54c-.213-.203-.411-.304-.593-.304-.198 0-.37.095-.516.283a1.075 1.075 0 0 0-.216.671v1.622h-.617V1.635h.617z"/><path id="123-k" d="M21.11.33a.36.36 0 0 1 .26.105c.072.07.108.155.108.256a.35.35 0 0 1-.108.256.354.354 0 0 1-.51 0 .357.357 0 0 1-.107-.256c0-.094.036-.177.108-.25a.338.338 0 0 1 .25-.11zm-.303 1.305h.614v3.102h-.614V1.635z"/><path id="123-l" d="M22.02 1.635h2.65l-1.641 2.53h1.642v.572h-2.718l1.629-2.529H22.02v-.573z"/><path id="123-m" d="M27.834 3.24h-2.182c.016.297.115.533.297.708.184.176.421.263.711.263.405 0 .778-.126 1.12-.377v.6a2.042 2.042 0 0 1-.564.27c-.184.053-.4.08-.65.08-.342 0-.618-.07-.83-.212a1.564 1.564 0 0 1-.509-.57 1.771 1.771 0 0 1-.189-.833c0-.472.134-.855.402-1.15.267-.296.614-.444 1.041-.444.412 0 .74.143.985.431.245.288.367.673.367 1.157v.077zm-2.168-.367h1.56c-.015-.245-.088-.434-.219-.567-.13-.132-.305-.199-.526-.199a.762.762 0 0 0-.542.2c-.14.132-.23.32-.273.566z"/><path id="123-n" d="M30.571.027h.617v4.71h-1.311c-.459 0-.825-.145-1.1-.435-.271-.29-.407-.679-.407-1.166 0-.457.142-.832.428-1.126.288-.295.654-.442 1.099-.442.207 0 .431.044.674.131V.027zm0 4.184V2.246a1.273 1.273 0 0 0-.58-.145c-.305 0-.55.1-.731.3-.18.2-.27.47-.27.809 0 .32.079.565.236.738a.73.73 0 0 0 .3.21c.106.035.296.053.57.053h.475z"/><path id="123-o" d="M34.034 4.73V.028h1.588c.64 0 1.148.097 1.52.29.374.191.67.473.89.846.221.373.331.78.331 1.22a2.303 2.303 0 0 1-.701 1.663c-.23.225-.496.395-.8.51a2.46 2.46 0 0 1-.488.14 6.868 6.868 0 0 1-.85.035h-1.49zM35.551.628h-.843V4.13h.864c.337 0 .599-.022.785-.067.187-.047.342-.106.465-.175.126-.072.241-.16.344-.263.333-.338.5-.764.5-1.278 0-.506-.171-.919-.513-1.238a1.627 1.627 0 0 0-.435-.293 1.786 1.786 0 0 0-.462-.152 4.714 4.714 0 0 0-.705-.037z"/><path id="123-p" d="M39.439.33a.36.36 0 0 1 .26.105c.071.07.107.155.107.256a.35.35 0 0 1-.107.256.354.354 0 0 1-.51 0 .358.358 0 0 1-.108-.256c0-.094.036-.177.108-.25a.338.338 0 0 1 .25-.11zm-.304 1.305h.614v3.102h-.614V1.635z"/><path id="123-q" d="M40.487 4.515v-.661c.174.121.35.22.53.297.182.074.335.11.458.11a.571.571 0 0 0 .33-.094c.093-.063.14-.138.14-.225 0-.09-.031-.165-.092-.223-.058-.06-.187-.147-.384-.26-.396-.22-.656-.408-.78-.563a.822.822 0 0 1-.181-.512c0-.238.092-.433.276-.584.187-.15.426-.225.718-.225.304 0 .615.085.934.256v.607c-.364-.22-.662-.33-.893-.33a.497.497 0 0 0-.29.077.23.23 0 0 0-.108.199c0 .072.033.14.098.205.067.066.184.144.35.236l.22.125c.517.292.775.616.775.971 0 .254-.1.463-.3.627-.198.162-.453.243-.765.243-.185 0-.349-.019-.493-.057a3.453 3.453 0 0 1-.543-.22z"/><path id="123-r" d="M42.861 2.128L44.014.995v.64h.981v.553h-.98v1.52c0 .356.146.534.441.534.22 0 .453-.075.698-.223v.573a1.55 1.55 0 0 1-.772.2c-.281 0-.515-.083-.701-.247a.717.717 0 0 1-.145-.165.956.956 0 0 1-.098-.243c-.025-.101-.037-.292-.037-.573V2.188h-.54v-.06z"/><path id="123-s" d="M46.253 1.635v.712l.034-.054c.297-.479.593-.718.89-.718.231 0 .473.116.725.35l-.324.54c-.213-.203-.411-.304-.593-.304-.198 0-.37.095-.516.283a1.076 1.076 0 0 0-.216.671v1.622h-.617V1.635h.617z"/><path id="123-t" d="M48.65.33a.36.36 0 0 1 .26.105c.072.07.108.155.108.256a.35.35 0 0 1-.108.256.354.354 0 0 1-.51 0 .358.358 0 0 1-.107-.256c0-.094.036-.177.108-.25a.338.338 0 0 1 .25-.11zm-.303 1.305h.614v3.102h-.614V1.635z"/><path id="123-u" d="M49.824.027h.613v1.83c.266-.192.549-.29.85-.29.394 0 .715.15.964.446.25.297.375.678.375 1.143 0 .499-.15.897-.449 1.194-.297.294-.694.441-1.193.441-.2 0-.412-.021-.634-.064a2.09 2.09 0 0 1-.526-.162V.027zm.613 2.417v1.68c.21.063.424.094.644.094a.845.845 0 0 0 .665-.29c.173-.193.26-.442.26-.745 0-.308-.082-.559-.243-.752a.774.774 0 0 0-.628-.29c-.229 0-.462.101-.698.303z"/><path id="123-v" d="M55.28 4.737v-.394c-.131.141-.28.252-.45.33a1.159 1.159 0 0 1-.498.118c-.196 0-.377-.048-.543-.145a.98.98 0 0 1-.374-.398c-.084-.168-.125-.447-.125-.836V1.635h.614v1.77c0 .326.046.555.138.685.094.128.258.192.492.192.292 0 .54-.143.745-.428V1.635h.614v3.102h-.614z"/><path id="123-w" d="M56.321 2.128L57.474.995v.64h.981v.553h-.98v1.52c0 .356.146.534.44.534.221 0 .454-.075.699-.223v.573a1.55 1.55 0 0 1-.772.2c-.281 0-.515-.083-.702-.247a.715.715 0 0 1-.145-.165.956.956 0 0 1-.097-.243c-.025-.101-.038-.292-.038-.573V2.188h-.539v-.06z"/><path id="123-x" d="M60.54 1.629c.471 0 .863.152 1.176.458.312.304.468.686.468 1.146 0 .448-.158.82-.475 1.117-.317.294-.716.441-1.197.441-.465 0-.854-.15-1.166-.448a1.5 1.5 0 0 1-.47-1.126c0-.454.158-.832.473-1.133.317-.304.714-.455 1.19-.455zm-.035.553a.97.97 0 0 0-.725.29c-.188.193-.283.439-.283.738 0 .297.097.54.29.728.194.187.442.28.745.28.302 0 .548-.094.739-.283a.985.985 0 0 0 .29-.732c0-.294-.1-.538-.3-.732-.2-.193-.452-.29-.756-.29z"/><path id="123-y" d="M63.523 1.635v.712l.034-.054c.296-.479.593-.718.89-.718.231 0 .473.116.725.35l-.324.54c-.213-.203-.411-.304-.593-.304-.198 0-.37.095-.516.283a1.076 1.076 0 0 0-.216.671v1.622h-.617V1.635h.617z"/><path id="123-z" d="M11.884 6.602h-1.882v-2.57h-1.96v2.57H6.162V.135h1.882V2.68h1.959V.135h1.882v6.467zm6.547-5.168v5.168h-1.882V.135h3.403l.283 1.3h-1.804zm-3.274 5.168h-1.882V.135h1.883v6.467zm7.63 0h-1.88V.135h1.88v6.467zm9.28-1.65c0 .351.335.514.876.514.593 0 1.238-.136 1.676-.326l-.154 1.408c-.491.108-.93.189-1.727.189-1.521 0-2.553-.63-2.553-1.948 0-2.273 2.94-1.813 2.94-2.868 0-.406-.285-.622-.98-.622-.618 0-1.573.216-2.14.514l.207-1.489C30.779.108 31.552 0 32.17 0c1.572 0 2.86.541 2.86 2.165 0 2.163-2.965 1.758-2.965 2.786zm-5.31-3.275c1.752 0 2.861.948 2.861 2.598 0 1.812-1.185 2.462-3.119 2.462-.747 0-1.65-.054-2.294-.135V.135h1.882v1.542h.67zm1.006 2.57c0-.838-.387-1.407-1.367-1.407h-.309v2.673c.11.006.212.006.309.006.928 0 1.367-.46 1.367-1.272zm-25.21-2.57c1.752 0 2.86.948 2.86 2.598 0 1.812-1.185 2.462-3.118 2.462-.748 0-1.65-.054-2.295-.135V.135h1.882v1.542h.67zm1.005 2.57c0-.838-.387-1.407-1.367-1.407h-.309v2.673c.11.006.213.006.31.006.927 0 1.366-.46 1.366-1.272z"/></defs></svg>