<svg width="170" height="32" viewBox="0 0 170 32" xmlns="http://www.w3.org/2000/svg" xmlns:xlink="http://www.w3.org/1999/xlink"><title>philips</title><desc>Created using Figma</desc><use xlink:href="#123-a" transform="matrix(1.25 0 0 -1.25 0 31.172)" fill="#0B5ED7"/><defs><path id="123-a" d="M46.136 24.437H38.83v-9.514h-7.606v9.514h-7.306V.5h7.306v9.416h7.606V.5h7.307v23.937zM71.553 5.31v19.127h-7.307V.5h13.212l1.099 4.81h-7.004zM58.845 24.437h-7.307V.5h7.307v23.937zm29.62 0h-7.302V.5h7.303v23.937zm36.024-6.11c0 1.304 1.303 1.906 3.402 1.906 2.302 0 4.806-.504 6.507-1.208l-.599 5.212c-1.905.4-3.606.7-6.704.7-5.906 0-9.909-2.33-9.909-7.211 0-8.412 11.412-6.712 11.412-10.617 0-1.5-1.105-2.3-3.806-2.3-2.398 0-6.106.8-8.307 1.902l.803-5.51C119.489.398 122.489 0 124.894 0 130.996 0 136 2.004 136 8.014c0 8.008-11.511 6.508-11.511 10.314zm-20.61-12.12c6.799.001 11.106 3.508 11.106 9.617 0 6.708-4.603 9.113-12.11 9.113-2.901 0-6.405-.2-8.905-.5V.5h7.306v5.708h2.603zm3.901 9.515c0-3.102-1.5-5.208-5.306-5.208h-1.198v9.892c.426.024.823.024 1.198.024 3.602 0 5.306-1.7 5.306-4.708zM9.909 6.208c6.803 0 11.106 3.507 11.106 9.616 0 6.708-4.602 9.113-12.106 9.113-2.905 0-6.405-.2-8.909-.5V.5h7.307v5.708h2.602zm3.905 9.514c0-3.102-1.504-5.208-5.307-5.208h-1.2v9.892c.425.024.826.024 1.2.024 3.603 0 5.307-1.7 5.307-4.708z"/></defs></svg>