<svg viewBox="0 0 84 180" xmlns="http://www.w3.org/2000/svg" xmlns:xlink="http://www.w3.org/1999/xlink"><title>Vector</title><desc>Created using Figma</desc><use xlink:href="#123-a" fill="#F2F2F2"/><defs><path id="123-a" d="M75.6 113.906H70v-8.437a2.815 2.815 0 0 0-2.8-2.813h-1.4V8.437C65.8 2.25 60.76 0 57.4 0h-9.8c-6.16 0-8.4 5.063-8.4 8.438v2.812h-2.8c-1.54 0-2.8 1.266-2.8 2.813v7.593c-3.08 1.266-4.2 4.36-4.2 6.469v74.531H16.8c-1.54 0-2.8 1.266-2.8 2.813v8.437H8.4c-3.36 0-8.4 2.25-8.4 8.438v5.625a2.814 2.814 0 0 0 2.8 2.812H14v29.531h9.8V180h36.4v-19.688H70v-29.531h11.2c1.54 0 2.8-1.265 2.8-2.812v-5.625c0-6.188-5.04-8.438-8.4-8.438zM44.8 8.437c0-1.265.56-2.812 2.8-2.812h9.8c1.26 0 2.8.563 2.8 2.813v94.218h-5.6V28.125c0-3.516-1.96-5.625-4.2-6.469v-7.593a2.815 2.815 0 0 0-2.8-2.813h-2.8V8.437zM36.4 26.72c1.54 0 2.8-1.266 2.8-2.813v-7.031h5.6v7.031a2.815 2.815 0 0 0 2.8 2.813c1.4 0 1.4 1.125 1.4 1.406v1.406H35v-1.406c0-1.406 1.12-1.406 1.4-1.406zM35 35.156h14v67.5H35v-67.5zm-15.4 73.125H64.4v5.625H19.6v-5.625zm35 66.094H29.4v-4.219h25.2v4.219zm0-9.844H29.4v-4.219h25.2v4.219zm9.8-9.843H19.6v-23.907h44.8v23.907zm14-29.532H5.6v-2.812c0-2.25 1.54-2.813 2.8-2.813h67.2c1.26 0 2.8.563 2.8 2.813v2.812z"/></defs></svg>