<svg xmlns="http://www.w3.org/2000/svg" width="578.78" height="79.37" viewBox="0 0 153.13554 20.999185"><defs><path d="M-4.987.791h41.575V71H-4.987z" id="123-a"/></defs><g fill="#ff3a1e"><path d="M9.777 4.647c-.116.028-.23.097-.332.16a1.07 1.07 0 0 0-.3.308c-.085.127-.144.263-.137.375.012.203.044.649.047.883v.002c0 .018.004.035.011.049a.066.066 0 0 0 .037.027c.03.01.06.002.096-.011.072-.028.163-.09.26-.166.193-.155.405-.372.494-.524a2.05 2.05 0 0 0 .219-.531c.044-.187.047-.37-.057-.479a.333.333 0 0 0-.338-.093zM7.728 2.849a3.004 3.004 0 0 0-.502-.233L5.943 6.044c.008-.006.015-.014.024-.02-1.258 4.16-2.15 5.713-4.077 8.717 1.49.08 4.6.007 6.307-1.431.75-3.093.836-6.74.483-8.874-.146-.88-.579-1.373-.952-1.587m-5.07 13.795c-.046.024-.055.005-.074-.01-.21-.548.502-1.036.564-1.586.5-.017.422-.007.87-.081-.282.84-.74 1.245-1.36 1.676m1.857-13.11c-1.07 1.303-1.774 3.17-2.878 4.433C1.097 8.584.547 9.03 0 9.495c1.514.334 1.794-.222 2.18-.616-.005.356-.093.517-.354.755 1.157.116 1.66-.765 1.857-1.074a1.21 1.21 0 0 1-.078.684c1.009-.152 2.26-1.26 2.7-2.288.175-.412-.269-.841.017-1.126l.904-3.214c-.957-.392-1.971.016-2.71.917m3.293-1.015c-.947-.504-.76-1.91.283-2.415.423-.203.843-.1 1.082.263.652.994-.29 2.493-1.365 2.152" style="line-height:normal;font-variant-ligatures:normal;font-variant-position:normal;font-variant-caps:normal;font-variant-numeric:normal;font-variant-alternates:normal;font-feature-settings:normal;text-indent:0;text-align:start;text-decoration-line:none;text-decoration-style:solid;text-decoration-color:#000;text-transform:none;text-orientation:mixed;shape-padding:0;isolation:auto;mix-blend-mode:normal" color="#000" font-weight="400" font-family="sans-serif" white-space="normal" overflow="visible"/></g><g style="line-height:1.25;-inkscape-font-specification:'Happy Fox'" font-weight="400" font-size="22.93" font-family="Happy Fox" letter-spacing=".38" word-spacing="0" fill="#ff3a1e" stroke-width=".26"><path d="M17.682 9.51q1.032-.71 1.421-1.88.413-1.238-.114-2.43-.23-.505-.963-1.193-1.01-.849-2.5-.665-1.56.206-1.674 1.26-.069.666.023 1.881.138 1.582.138 2.018l.046 1.926q.023 1.239.046 1.72.206 5.526.229 5.824.046 1.904.55 2.27.413.299 1.216.413.894.115 1.398-.137 1.353-.55 1.789-3.67.23-2.155-.505-4.769-.275-1.146-1.1-2.568zm-1.858.688q1.33.16 1.812 2.66.436 2.545 0 4.999-.092.458-.505.963-.481.55-.894.436-.275-.115-.344-2.064l-.092-3.44q-.045-2.086-.091-3.416 0-.092.114-.138zm-.114-1.743q-.023-.504-.115-1.972-.092-1.215-.069-1.88.826-.16 1.468.275.642.413.756 1.124.207 1.055-.412 1.788-.596.734-1.628.665zM22.395 3.548q-.894-.16-1.032.459l-.068 5.847q-.046 2.912-.16 4.815-.024.436 0 1.147.045.894.045 1.147.046 3.003.16 3.347.207.413.711.184.321-.138.436-1.88.046-.62.023-2.064 0-1.468.023-2.247.114-2.408.114-4.128l.023-1.055q.023-.71.023-1.26.115.09.253.435.527 1.742 1.192 1.857.183.069.275 0 .138-.115.505-.688.848-1.536 1.008-1.628-.252 4.082-.252 10.571 0 1.88.023 1.926.252.436.734.275.62-.114.62-.71.045-8.118.228-14.057.07-1.788 0-1.834-.344-.505-.94-.16-.046.022-.32.458-1.95 3.554-1.812 3.554-.046 0-.55-1.146-.092-.367-.253-.711-.023-.092-.16-.574l-.253-.825q-.344-1.055-.596-1.055zM30.257 5.727q.39-.276 1.514-.321.94-.046 1.238-.55.252-.46-.046-.758-.321-.275-.94-.183-2.591.436-2.729.504-.757.39-.62 2.041.23 2.156.253 3.004.23 5.343.62 10.044 0 1.17.71 1.17 1.536-.115 3.05-.276.23 0 .39-.481.16-.46-.07-.597-.916-.458-2.361-.068-.16-1.124-.275-3.142-.138-2.316-.23-3.187.872-.298.918-.711.114-.62-1.078-.849.023-.94-.16-2.843-.184-1.88-.184-2.797zM37.519 3.846q-1.514.252-2.064 2.064-.344 1.17-.252 6.122 0-.252.183 4.06.23 2.75.734 3.6.665 1.1 2.04 1.123 1.4.023 2.11-1.032.482-.734.436-.917 0-.16-.206-.39-.252-.298-.55-.206-.505.16-.62.665-.091.458-.894.596-.917.183-1.261-2.89-.321-2.866-.206-8.094.045-1.445.16-1.972.252-1.192 1.009-.963.55.16 1.009 1.192.206.413.757.046.573-.367.32-1.078-.343-1.146-.917-1.467-.87-.596-1.788-.459zM47.562 5.451q.367 0 .183-.756-.16-.78-.825-.895-2.522-.114-3.004-.091-2.27.091-2.316.917-.046.688.871.963 1.514.367 1.514.092-.298 4.655-.298 9.562l.023.986q.046.642.023 1.055-.115 2.935.619 3.256.871.412 1.032-.665.045-.367.022-1.01v-.962q.092-1.628.046-6.444-.023-3.99.276-5.916 0-.183.71-.092.849.115 1.124 0zM50.263 5.727q.39-.276 1.514-.321.94-.046 1.238-.55.252-.46-.046-.758-.321-.275-.94-.183-2.591.436-2.729.504-.757.39-.62 2.041.23 2.156.253 3.004.23 5.343.62 10.044 0 1.17.71 1.17 1.536-.115 3.05-.276.23 0 .39-.481.16-.46-.07-.597-.916-.458-2.361-.068-.16-1.124-.275-3.142-.138-2.316-.23-3.187.872-.298.918-.711.114-.62-1.078-.849.023-.94-.16-2.843-.184-1.88-.184-2.797zM62.138 3.548q-.894-.16-1.031.459l-.07 5.847q-.045 2.912-.16 4.815-.023.436 0 1.147.046.894.046 1.147.046 3.003.16 3.347.207.413.712.184.32-.138.435-1.88.046-.62.023-2.064 0-1.468.023-2.247.115-2.408.115-4.128l.023-1.055q.022-.71.022-1.26.115.09.253.435.527 1.742 1.192 1.857.184.069.275 0 .138-.115.505-.688.848-1.536 1.009-1.628-.253 4.082-.253 10.571 0 1.88.023 1.926.253.436.734.275.62-.114.62-.71.045-8.118.229-14.057.068-1.788 0-1.834-.344-.505-.94-.16-.047.022-.322.458-1.949 3.554-1.811 3.554-.046 0-.55-1.146-.092-.367-.253-.711-.023-.092-.16-.574l-.252-.825q-.344-1.055-.597-1.055zM72.66 12.858q.436 2.545 0 4.999-.091.458-.504.963-.482.55-.895.436-.275-.115-.343-2.064l-.092-3.44q-.023-1.536-.069-2.178 0-.092.115-.138 1.467-.71 1.788 1.422zm-3.325-9.54q-.596.184-.573 1.033 0 .275.138 2.132.137 1.582.137 2.018l.046 1.926q.046 1.239.046 1.72.206 5.526.23 5.824.045 1.904.55 2.27.412.299 1.238.413.871.115 1.376-.137 1.353-.55 1.788-3.67.23-2.155-.252-4.837-.894-2.821-3.325-1.79 0-.504-.114-3.737-.046-.619-.07-1.88-.022-1.261-.527-1.261h-.298zm7.453 16.625q-.184-1.834-.16-5.572.022-3.83-.115-5.526-.344-4.815-.321-4.7-.207-1.262-.803-.964-.55.23-.596 1.055-.023.252.023.803l.046.917q.091 1.949.16 5.939l.115 6.076q.046 1.927.55 2.454.321.367.849.092.275-.16.252-.574zM86.872 3.846q-1.514.252-2.064 2.064-.344 1.17-.252 6.122 0-.252.183 4.06.23 2.75.734 3.6.665 1.1 2.04 1.123 1.4.023 2.11-1.032.482-.734.436-.917 0-.16-.206-.39-.253-.298-.55-.206-.505.16-.62.665-.092.458-.894.596-.917.183-1.261-2.89-.321-2.866-.207-8.094.046-1.445.16-1.972.253-1.192 1.01-.963.55.16 1.009 1.192.206.413.756.046.574-.367.321-1.078-.343-1.146-.917-1.467-.871-.596-1.788-.459zM94.966 5.589q.023.825-.092 3.83-.069 1.604.115 5.273.16 3.532.068 5.274 0 .413.276.55.55.276.848-.091.482-.482.436-2.316l-.115-5.778q-.092-3.807-.092-5.664l.023-.872q.207-1.903-.527-1.903-.803-.023-2.201.092l-1.514.137q-.665 0-.688 2.454-.023.757.046 1.95l.069 1.49q.115 1.582.115 6.948 0 .366-.046 1.146-.07.848-.07 1.17-.045 1.284.345 1.352 1.1.597 1.238-2.293.16-2.11 0-6.328-.16-4.22 0-6.238-.046-.206 1.49-.16.138-.023.276-.023zM100.487 9.189q0-.115 1.193-.23 1.307-.137 1.65-.504 1.032-1.077.895-2.774-.138-1.537-.62-1.88-.733-.528-2.66-.689-1.788-.16-2.2.07-.253.045-.253 3.003v13.46q.092 1.01.528 1.101.871.298 1.032-.848.045-.344.045-1.078 0-.78.023-1.032.78-8.599.367-8.599zm-.435-1.811q-.253-2.637-.092-2.775-.092-.275 1.238-.23 1.33.046 1.651.482.252.298.206 1.193-.045.87-.275 1.123-.344.39-1.559.436-1.17.046-1.17-.23zM108.211 3.984q-.596-.413-1.032.757-.206.573-.481 2.11l-.734 3.232q-.665 2.913-.734 3.44-.069.527-.344 2.11-.23 1.33-.275 2.04-.16 2.225.206 2.798.321.39 1.078.069.092 0 .482-3.394.229-1.995.619-3.302.115-.023.734-.023.458 0 .665-.069-.046-.137.848 3.921.482 2.156.527 2.248.39.894 1.4.275.206-.62-.574-3.692-.505-2.087-1.009-5.366l-.803-5.228q-.298-1.743-.573-1.926zm-.665 6.26q.138-.642.184-.62.32.138.32 2.34-.114.068-.848.068.252-1.398.344-1.788zM116.208 9.51q1.032-.71 1.422-1.88.413-1.238-.115-2.43-.23-.505-.963-1.193-1.009-.849-2.5-.665-1.559.206-1.673 1.26-.07.666.023 1.881.137 1.582.137 2.018l.046 1.926q.023 1.239.046 1.72.206 5.526.23 5.824.045 1.904.55 2.27.412.299 1.215.413.894.115 1.399-.137 1.353-.55 1.788-3.67.23-2.155-.504-4.769-.275-1.146-1.1-2.568zm-1.857.688q1.33.16 1.811 2.66.436 2.545 0 4.999-.091.458-.504.963-.482.55-.895.436-.275-.115-.343-2.064l-.092-3.44q-.046-2.086-.092-3.416 0-.092.115-.138zm-.115-1.743q-.023-.504-.115-1.972-.091-1.215-.068-1.88.825-.16 1.467.275.642.413.757 1.124.206 1.055-.413 1.788-.596.734-1.628.665zM121.289 20.448q.917-2.178 2.063-8.805l-.39 7.544q-.022.734.161 1.238.23.573.665.436.71.183.734-1.124-.023-.665.091-2.683.092-1.811.046-2.843-.023-.917 0-5.09.023-3.005-.229-4.702-.092-.527-.596-.343-.528.183-.665 1.169.023-.069-.206 1.238-.184 1.032-.184 1.353-.046 2.362-1.353 5.962-.39 1.376-.32 1.215l.068-7.704q.046-1.766-.023-2.247-.183-1.193-.94-1.216-.482 0-.55.734l.022 1.445-.045 1.834q-.07 1.49-.023 4.61.046 3.53.023 4.585-.046 2.66.16 3.577.206.367.62.367.48.023.87-.55zM127.8 3.548q-.895-.16-1.033.459l-.068 5.847q-.046 2.912-.16 4.815-.024.436 0 1.147.045.894.045 1.147.046 3.003.16 3.347.207.413.711.184.321-.138.436-1.88.046-.62.023-2.064 0-1.468.023-2.247.115-2.408.115-4.128l.022-1.055q.023-.71.023-1.26.115.09.253.435.527 1.742 1.192 1.857.183.069.275 0 .138-.115.505-.688.848-1.536 1.009-1.628-.253 4.082-.253 10.571 0 1.88.023 1.926.252.436.734.275.62-.114.62-.71.045-8.118.228-14.057.07-1.788 0-1.834-.344-.505-.94-.16-.046.022-.32.458-1.95 3.554-1.812 3.554-.046 0-.55-1.146-.092-.367-.253-.711-.023-.092-.16-.574l-.253-.825q-.344-1.055-.596-1.055zM136.762 3.846q-1.514.252-2.064 2.064-.344 1.17-.252 6.122 0-.252.183 4.06.23 2.75.734 3.6.665 1.1 2.04 1.123 1.4.023 2.11-1.032.482-.734.436-.917 0-.16-.206-.39-.252-.298-.55-.206-.505.16-.62.665-.091.458-.894.596-.917.183-1.261-2.89-.321-2.866-.206-8.094.045-1.445.16-1.972.252-1.192 1.009-.963.55.16 1.009 1.192.206.413.757.046.573-.367.32-1.078-.343-1.146-.917-1.467-.87-.596-1.788-.459zM143.457 10.496q-1.238 1.88-1.422 2.89-.298 1.627-.252 4.884 0 1.742.046 1.788.23.436.642.505.459.091.734-.505-.046.138.206-3.99 0-2.935 1.032-4.31.642-.918 1.445-.803-.023 1.376.046 3.875.069 2.866.069 3.806 0 1.422.687 1.88.643.46 1.055-.366.046-1.903-.069-5.137-.137-3.668-.137-4.976 0-.527.046-1.88.046-1.399.046-2.04.023-2.294-.413-2.202-.298-.436-2.43-.16-2.294.32-3.005 1.444-.665 1.078-.504 2.339.16 1.17.917 1.903zm2.523-1.743q0 .276-1.17.16-1.215-.09-1.56-.48-.251-.276-.366-1.101-.115-.872.137-1.17.322-.435 1.743-.78 1.399-.32 1.307-.045.23.183-.091 3.416zM150.779 7.492q-.253 3.233.137 7.017.16 1.49.115 1.903 0 .413.046.62 0 .229.137.412.413.573 1.055.482.688-.092.803-.803.114-.459.023-.78l-.275-1.926-.138-1.261q-.046-.344-.046-.55-.046-3.256-.023-4.197.023-.573.023-1.49l.046-2.11q.069-.917-.78-.986l-.229.023q-.344.092-.596.413-.298.39-.298.688zm1.444 11.35q-.871.07-1.192.597-.092.138-.069.298.023.344.275.573.275.253.62.23.435 0 .87-.275.39-.253.345-.688-.046-.436-.459-.62z" style="-inkscape-font-specification:'Happy Fox'"/></g></svg>