<svg width="75" height="33" viewBox="0 0 75 33" xmlns="http://www.w3.org/2000/svg" xmlns:xlink="http://www.w3.org/1999/xlink"><title>VbyV_en_2c</title><desc>Created using Figma</desc><use xlink:href="#123-a" transform="translate(20.882 17.21)" fill="#E5E5E5"/><use xlink:href="#123-b" transform="translate(33.553 17.21)" fill="#E5E5E5"/><use xlink:href="#123-c" transform="translate(39.829 16.93)" fill="#E5E5E5"/><use xlink:href="#123-d" transform="translate(50.526 17.21)" fill="#E5E5E5"/><use xlink:href="#123-e" transform="translate(16.855 17.21)" fill="#E5E5E5"/><use xlink:href="#123-f" transform="translate(0 .43)" fill="#E5E5E5"/><use xlink:href="#123-g" transform="translate(9.935 4.26)" fill="#E5E5E5"/><use xlink:href="#123-h" transform="translate(18.789 4.22)" fill="#E5E5E5"/><use xlink:href="#123-i" transform="translate(25.303 .36)" fill="#E5E5E5"/><use xlink:href="#123-j" transform="translate(29.803 .12)" fill="#E5E5E5"/><use xlink:href="#123-k" transform="translate(35.25 .36)" fill="#E5E5E5"/><use xlink:href="#123-l" transform="translate(39.619 4.26)" fill="#E5E5E5"/><use xlink:href="#123-m" transform="translate(48.534)" fill="#E5E5E5"/><use xlink:href="#123-n" transform="translate(60.474 3.24)" fill="#E5E5E5"/><use xlink:href="#123-o" transform="translate(67.579 6.55)" fill="#E5E5E5"/><defs><path id="123-a" d="M9.474 0l-3.75 10.145-.395-2.053C4.382 5.566 2.369 2.921 0 1.855l3.434 13.027H7.5L13.54.039H9.474V0z"/><path id="123-b" d="M0 14.882L2.408 0h3.829L3.868 14.882H0z"/><path id="123-c" d="M11.526.632C10.776.316 9.553 0 8.092 0c-3.79 0-6.474 2.013-6.474 4.895-.04 2.131 1.895 3.316 3.356 4.026 1.5.71 2.013 1.184 2.013 1.855 0 .987-1.184 1.46-2.29 1.46-1.54 0-2.368-.236-3.631-.789l-.513-.236L0 14.525c.908.395 2.566.79 4.263.79 4.026 0 6.671-2.013 6.671-5.092 0-1.698-1.026-3-3.237-4.027-1.342-.67-2.17-1.144-2.17-1.855 0-.631.71-1.263 2.21-1.263 1.263-.04 2.17.276 2.881.553l.356.157.552-3.157z"/><path id="123-d" d="M10.658 0h-2.96c-.909 0-1.619.276-2.014 1.224L0 14.842h4.026s.671-1.816.79-2.25H9.75c.118.513.474 2.21.474 2.21h3.552L10.658 0zM5.92 9.592c.316-.868 1.54-4.145 1.54-4.145-.04.04.315-.868.513-1.42l.237 1.262s.75 3.553.907 4.303H5.921z"/><path id="123-e" d="M6.237 0H.039L0 .237C4.816 1.46 8.013 4.5 9.316 8.053l-1.342-6.83C7.737.317 7.066.04 6.237 0z"/><path id="123-f" d="M5.29 13.184H2.841L0 .434 2.724 0l1.934 9.947L9.553.118h2.605L5.289 13.184z"/><path id="123-g" d="M8.065 5.21H2.223c-.158 1.777.671 2.527 2.053 2.527 1.184 0 2.21-.434 3.316-1.145v1.776a7.015 7.015 0 0 1-3.79 1.106c-2.526 0-4.224-1.46-3.71-4.737C.565 1.777 2.578 0 4.986 0 7.71 0 8.618 2.053 8.223 4.618c-.079.237-.118.435-.158.593zM4.631 1.58c-.908 0-1.737.71-2.131 2.21H6.13c.04-1.42-.395-2.21-1.5-2.21z"/><path id="123-h" d="M3.04 4.105l-.79 5.21H0L1.382.198h1.934v1.816C4.066.947 5.132.08 6.553 0v2.25c-1.46.158-2.724.908-3.514 1.855z"/><path id="123-i" d="M0 13.224l1.382-9.119h2.25L2.25 13.224H0zM2.763 2.566c-.75 0-1.263-.513-1.145-1.263C1.737.513 2.408 0 3.198 0c.75 0 1.263.553 1.144 1.303a1.605 1.605 0 0 1-1.579 1.263z"/><path id="123-j" d="M5.408 1.855c-.79 0-1.224.356-1.382 1.145L3.83 4.342h1.737v1.855H3.553L2.447 13.46H.197l1.106-7.263H0l.276-1.855H1.58l.237-1.579C2.132.75 3.513 0 5.408 0c.395 0 .71.04.908.079v1.855a4.793 4.793 0 0 0-.908-.079z"/><path id="123-k" d="M0 13.224l1.382-9.119h2.25L2.25 13.224H0zM2.763 2.566c-.75 0-1.263-.513-1.145-1.263C1.737.513 2.408 0 3.198 0c.75 0 1.263.553 1.144 1.303a1.605 1.605 0 0 1-1.579 1.263z"/><path id="123-l" d="M8.065 5.21H2.223c-.158 1.777.671 2.527 2.053 2.527 1.184 0 2.21-.434 3.316-1.145v1.776a7.015 7.015 0 0 1-3.79 1.106c-2.526 0-4.224-1.46-3.71-4.737C.565 1.777 2.578 0 4.986 0 7.71 0 8.618 2.053 8.223 4.618c-.079.237-.158.435-.158.593zM4.631 1.58c-.908 0-1.737.71-2.131 2.21H6.13c.04-1.42-.434-2.21-1.5-2.21z"/><path id="123-m" d="M5.821 13.579v-1.263c-.75.79-1.736 1.46-3 1.46-1.894 0-3.197-1.42-2.723-4.5.513-3.394 2.605-4.894 4.737-4.894.868 0 1.54.157 2.052.355L7.558.355 9.888 0 7.794 13.618H5.821v-.04zm.79-6.987c-.513-.276-.947-.395-1.697-.395-1.185 0-2.211.948-2.527 2.96-.276 1.777.356 2.606 1.342 2.606.83 0 1.54-.473 2.25-1.263l.632-3.908z"/><path id="123-n" d="M2.763 10.421c-1.066 0-1.934-.158-2.763-.474L1.5.277 3.237 0l-.632 4.184c.513-.473 1.224-.908 2.092-.908 1.46 0 2.448 1.066 2.092 3.395-.394 2.566-1.973 3.75-4.026 3.75zm1.263-5.605c-.552 0-1.144.395-1.658.908l-.473 3.118c.355.119.552.197 1.066.197 1.065 0 1.855-.67 2.092-2.21.197-1.382-.237-2.013-1.027-2.013z"/><path id="123-o" d="M3.71 7.382c-.868 1.697-1.736 2.21-3.078 2.21-.316 0-.474-.04-.632-.079v-1.42c.237.039.474.118.79.118.513 0 .947-.237 1.223-.711l.237-.474L.79.236 2.604 0l.83 4.895L5.723.079H7.42l-3.71 7.303z"/></defs></svg>